<svg xmlns="http://www.w3.org/2000/svg" viewBox="0 0 365.39 92.9"><defs><style>.cls-1,.cls-2{fill:#fff;}.cls-2{fill-rule:evenodd;}</style></defs><g id="Layer_2" data-name="Layer 2"><g id="圖層_2" data-name="圖層 2"><path class="cls-1" d="M167.33,37.44l3.72-.83h3.84l-.6-2.76h-8l.24,1.07.24.85Zm-.6,7,1.44-.6,3.48.36,3.24.24-.24-3h-5.76l-1.56.85-1.08,1.08Zm-20.17-5.16h2.64L149,37.93V36.36l-.24-1.08-1.08-.59-1.08,1.08-.36,1.32Zm-10,10,1.56-.48-.24-1.08.24-.84.24-.84V44.89l.84-.72,3.24-.84,3-.24,2.4,1.08.49,2.16v1.56l.83.84.84-.24.25-1.92V45.24l-.25-3L149,42h-.84l-1.32.48-3-1.81v-5.4l-.48-1.67-.24.84-.6,1.91-.84,1.81-1.56,3.6-2.4,1.32-.6,1.56-.24,1.68v1.32Zm.48-9.37.84-.23.48-.61.36-1.56-.6-1.43-1.08-1.09Zm3.84,8.65,4.2-.36-.48-1.08-.24-.24v-.24l-.6-.84-.72-.24-.84.48-.6.84ZM153,59.17l-2.16-1.31L149.8,53.3l-2.52-1.57-8,.72-6.48.85-.84-3.73,1.92-7.32.24-4.08-.24-4.56,1.32-1.92,2.76.36,4.56-.6,9.73-.73,2.39,1.57-.48,8,.25,4.32.23,1.92.6,2.16-.36,1.32-.47.84L153.52,52l-.24,1.32.84.23.72-.23,1.92-.61.24-.48.84-.48,1.92-1.44,1.08-2.4.49-2.65.35-2.52V39.84l.25-5.39.24-2.76.84-2.4,3-.48,2.88-.25,3.24.48,3,.85H176l.48-.24.84-.84,1.09-.61h1.31l1.08,2.17-.48,2.75v8.65l1.08,11.76-.6.61-.24.71L179.69,57l-.72.36-.84-.36-1.68-.48-.24-3.85-.48-4-.84-.6h-7.8l-1.68,1.08-1.92,1.68-1.32,1.8-2.41,3.85-1.07,1.08-.6.47-.72.36-2.17.72Z"/><path class="cls-2" d="M218.82,52.45,221,52l2.16.24,1.92-.48,1.92-.59,3,.23V49.21l-4.07.36-3.84.24-2.17.24-1.32.6.24,1.8m-.24-4.32,4.32-.73H230L229.63,46l-1.81-.48h-2.76l-4.31.48h-2.17Zm0-4.8,4.92-.6,6.13-.24V42l-.48-.84-1.33-1.08-1.91.24-3.49.59-3.24.48ZM240,68.42l-9.48-4.34c-9.19-4.26-18.72-8.07-28.93-5.38l-2.64.83-1.09-.83-.23-1.08.23-.85v-.84l.25-1.08.23-.48,1.09-.24h1.07l1.45-.35h2.16l.48-1.33.59-1.8h2.17c4,4.71,1.26,1.23,6.48,3.48l.72.48,1.08-.48V47.4l.36-6.72,1.56-1.43c1.85-1,5.4-.54,4.09-3.73l-.61-.83-1.08,1.08-2.16-.25-2.16.25-2.16.59L211,37.45l-.84-.36v-2.4l1.08-.84,1.08-.48,1.44-.25,1.08-.83L214,28.56V24.49h1.08l1.08.83,1.08.48,1.32.85.84,1.07-.24,1.57-.36,1.92,1.08.48,1.08-.24.84-1.08-.48-2.65-.84-3-.84-.48V22.8l1.09-.71,1.91-.85,1.09.24,1.07,1.68.48,2.16.36,5.05,5.41.35,5.64.73.24,1.92-.24.83-.6.49h-2.88l-6-.49-2.64.25.24,2.15,1.56.25h1.69l3.47.24,2.17,1.08V49l.84,3.48-1.09,1.92L232.87,57h-.72l-.84-.47-1.68-1.33-1.56-.36h-1.69l-6.12.6v.48l3.24.61,2.16.47,1.09.37,1.32.71,1.32.84,1.68.6,4,.24,4.08-.24,8.64-.83.24,1.07-.24,1.08-.84,2.4-1.56,2.16-2.16,2.16-1.44.48-.72.37Z"/><path class="cls-2" d="M296.84,41.4l1.09-1.07.59-1.33.24-1.32V36.36l-1.08-1.91h-2.39l-2.18.47-2.15.36-2.16-.59-.6,1.67L288,37.68v2.65l4.56.35,2.16.24,2.16.48m-23.76,1.93,4.32-.84,4.32-.72.6-1.68L282,35.52h-2.4l-2.4.49-2.4.35h-1.09l-1.31-.59-.36.83.36,1.92.23,1.57.24,1.68ZM285,60.62l-1.08-.37-1.56-2.16.24-5.4-.24-5.64-.6-.72-1.93.47H278l-4.08.25-1.33.6-1.07.48-1.33.84-1.68.6-1.32-.84c-.85-2.87.41-2.84,1.32-5.4l-.47-5.4-.85-5.64,3.48-.84,8.17-.48,2-.6,1.92-.48V29L283,28V25.57l.84-.61.84-.24h2.16l.48.85.6,1.08v2.64l1.93.6,1.55.23h4.08l4.09-.23,3.71-.24,1.33,1.8-.73,4.32-1.07,4.56.23,1.92.84,1.32v2.15l-.84,1.33-.6.6-1.31.48-2.65-1.33-3-.83-3-.73h-3.47l-1.33.48V49l.24,3.48v4.93l-.24,1.79Z"/><path class="cls-2" d="M325.41,71.05l-2-1.08L323,67.82l-.24-2.41,1.92-1.33,7.56.49h4l4.09-.24L342.46,63l1.08-1.68,1.08-1.56V55.69l-.25-1.92-.59-1.8-2.64.48-2.76.6-2.65.48-3,.84-.25,1.08h-1.07l-1.68-1.92.59-2.16,2.64-.72,3-.36,6.49-.72V49l-.25-.48-.59-.84-.72-.84V45.49l.72-.25h.59l1.57.25,1.92.84.84-.6v-.84l-.24-1.08-1.45-.48h-1.31l-3,.48-1.08.6-.48.48L338.74,46l-.6,1.08-.49.6-2.16,1.08-.84-1.08-.23-2.16L336,43.33,337.3,42l2.16-.84h4.91l2.41-.25,2.76-.59,1.56.35,1.68.72.48.61v.72L353,44.89l-1.32.35-1.92.73v.36l-.24.23-.84.49-.84.6v1.08l1.92.48h5.88l2.76-.48,3-.24v4.56l-.84.48c-4.53,1.1-6.82-1.37-9.72-1.08h-1.32l-.36,5.41c0,8.28-6.38,10.69-13.45,11.87l-10.32,1.32"/><polygon class="cls-2" points="199.98 49.57 199.74 47.4 202.14 47.05 203.22 46.81 204.06 45.97 204.78 44.89 206.94 44.17 208.02 44.17 209.1 44.41 209.1 46.56 208.38 47.05 207.78 47.89 206.7 48.73 205.62 49.21 199.98 49.57"/><path class="cls-2" d="M322.77,47.4l-.24-4.67,1.08-1.33.24-1.07V38.17l1.32-.48h4.92L336,36.6l6-.83,3.24-.25h3.24l.48-.24.24-.59v-.84c-.38-3.82,3.32-3.73,5.76-4h.48l.6-.6-.6-2.17H354.1l-1.31.6-1.45.48h-1.56l.49-2.16L351.34,25h4.32l.84-3.24-3.23.84-1.56.24-1.44.36L350,22.09l.6-.61.24-.84.48-1H353l2.16.24,3.72.24.84,1.08-.48,5.41.24,5.64-1.08.83-4.56-.6-1.92.6-.84.25-.48.83,1.56.25,1.68.24,3.73.23h3.83l3.73.6.24,1.93c-.32,4.77.5,5-2.88,8l-1.09.48-.84-.48-.23-1.08V43.33l.23-1.08.48-1.08.6-1.08L360.82,39l-2.16-1.31-5.64.48-6,.35-5.65.25-5.88.48L333,40.33h-4.31l-1.81,1.92-.36,1.32-.23,1.31L326,46.57l-.6,1.08-2.64-.25"/><polygon class="cls-2" points="199.98 43.33 199.98 42.25 201.9 41.4 203.22 40.33 206.46 37.69 208.62 38.17 209.7 40.09 208.62 42.01 206.7 42.25 204.54 42.73 202.37 43.33 199.98 43.33"/><polygon class="cls-2" points="198.9 37.68 198.65 36.36 197.82 34.45 199.98 34.2 201.54 33.37 203.45 31.69 204.06 30.72 204.54 28.56 205.14 27.72 206.46 27.72 207.78 28.81 209.7 30.37 209.7 32.52 209.1 33.12 208.02 33.37 206.94 33.85 206.46 34.45 205.86 35.52 204.78 36.61 202.14 37.44 198.9 37.68"/><polygon class="cls-2" points="328.17 36.36 326.01 35.28 325.77 33.13 325.77 30.97 326.01 26.4 327.09 24.96 327.94 24.49 329.25 24.49 329.73 22.32 331.18 22.09 332.49 21.48 333.82 21 335.49 21.24 335.73 21.24 335.97 21.72 335.97 22.32 335.49 24.49 333.82 24.72 331.89 24.49 330.57 24.96 329.73 25.33 329.25 26.04 329.5 28.2 330.82 27.97 331.89 27.13 333.34 26.65 334.9 26.4 335.97 27.13 335.97 28.2 334.9 29.29 330.82 29.29 329.5 29.89 329.5 32.52 333.34 31.21 337.06 31.45 338.98 30.97 339.82 30.72 340.54 29.89 342.46 28.81 342.21 27.13 339.46 27.72 338.98 26.65 340.9 25.33 341.62 24.49 341.14 22.8 339.82 21.72 338.98 21.48 338.98 20.64 338.74 18.6 340.06 18.24 341.62 18.6 341.98 18.84 342.21 19.08 342.21 19.92 342.69 20.64 343.3 21 343.78 21.24 344.38 19.68 344.62 18.84 345.46 18.24 347.62 18.6 347.37 19.68 347.02 20.16 346.54 20.64 346.3 21.72 344.86 22.56 344.38 23.88 344.38 26.04 344.86 25.8 345.22 25.57 345.7 24.72 345.94 23.64 346.54 23.16 347.02 23.16 348.46 23.88 348.46 24.72 347.86 25.8 347.62 26.89 347.62 28.2 349.54 29.89 348.46 32.29 346.3 31.21 344.86 31.21 343.3 31.69 341.62 32.29 340.06 33.13 338.74 34.45 336.81 34.45 335.97 33.85 335.49 33.13 333.58 33.61 331.89 34.45 330.33 35.52 328.17 36.36"/><path class="cls-2" d="M230.47,29.65l-1.32-.36-.25-.48V26.65l.25-.61,1.32-.47v-.85l.24-1.08.36-1.32V21.24l.71-.6.84.36c4.16,1.22,2.79,7.72-.84,8.65h-1.31"/><path class="cls-1" d="M142,86.42l3.12-7.56H150v.23h-.6a.71.71,0,0,0-.72.37l-.35.24v9.72c0,.24.35.24.35.49H150v.23H143.8v-.23h1.09a2.16,2.16,0,0,1,.59-.49V79.94l-4.56,10.2-4.68-10.2v9.11a.64.64,0,0,0,.6.61c0,.25.48.25,1.08.25v.23h-4.08v-.23h.84a.83.83,0,0,0,.48-.25c0-.24.35-.61.35-.84V79.7a1.41,1.41,0,0,0-.59-.24c0-.37-.24-.37-.84-.37h-.24v-.23h4.92"/><path class="cls-1" d="M157,89.9v.24h-5.88V89.9h1.08c.25-.24.25-.24.25-.48.24,0,.24-.6.24-1.08V80.78c0-.6,0-.84-.24-1.08a.24.24,0,0,0-.25-.24.88.88,0,0,0-.84-.37h-.24v-.23H157v.23h-.23a1,1,0,0,0-.85.37.24.24,0,0,0-.24.24c-.24.24-.24.48-.24,1.08v7.56c0,.48,0,1.08.24,1.08,0,.24,0,.24.24.48h.85"/><path class="cls-1" d="M162.41,78.86l5.76,7V81c0-.48,0-1.08-.36-1.32a2,2,0,0,0-1.32-.61v-.23h3.83v.23a1,1,0,0,0-.83.37c-.24,0-.6.24-.6.48V90.5h-.48L160.61,81v7.32c0,.71,0,1.08.48,1.32.23.24.6.24,1.08.24h.24v.24h-4.32V89.9c.83,0,1.07,0,1.44-.24a2.25,2.25,0,0,0,.48-1.32V80.18l-.25-.24a1.49,1.49,0,0,0-.84-.48c-.23-.37-.48-.37-.83-.37v-.23"/><path class="cls-1" d="M183.53,78.62V82.7h-.6a3.94,3.94,0,0,0-1.56-2.52,5,5,0,0,0-2.4-.72,4.34,4.34,0,0,0-2.52.48,6,6,0,0,0-1.08,2.16,9.43,9.43,0,0,0-.48,2.41,9.71,9.71,0,0,0,.48,3,3.73,3.73,0,0,0,1.44,1.92,4.39,4.39,0,0,0,2.16.49h.72c.36,0,.6-.25.84-.25V86.42c0-.24-.24-.24-.48-.6h-.84v-.24h5.64v.24h-1.08c0,.36-.24.36-.24.6v3.24a15.4,15.4,0,0,0-2.4.84h-2.52a6.46,6.46,0,0,1-2.88-.36,3.65,3.65,0,0,1-1.92-1.32,2.48,2.48,0,0,1-1.32-1.56,5.44,5.44,0,0,1-.6-2.41,5.09,5.09,0,0,1,1.92-4.31,5.22,5.22,0,0,1,4.57-1.92,4.06,4.06,0,0,1,1.67.24,4.27,4.27,0,0,1,1.32.23,1.53,1.53,0,0,0,.84.37h.49a1.35,1.35,0,0,0,.23-.84"/><path class="cls-1" d="M190,79.47v10c.24,0,.24,0,.24.24h.83a3.08,3.08,0,0,0,2.16-.84,8,8,0,0,0,.24-7.57,3,3,0,0,0-1.32-1.55c-.6,0-1.08-.23-2.15-.23M185.7,90.14V89.9h1.08c.24-.24.24-.24.24-.48.23,0,.23-.6.23-1.08V80.78c0-.6,0-.84-.23-1.08a.23.23,0,0,0-.24-.23.89.89,0,0,0-.85-.38h-.23v-.23h5a9.32,9.32,0,0,1,3.59.61,4.67,4.67,0,0,1,2.41,2.15,5.47,5.47,0,0,1,.84,2.89A7.58,7.58,0,0,1,197,86.9a4.21,4.21,0,0,1-1.08,1.67,4.16,4.16,0,0,1-3.47,1.57H185.7Z"/><path class="cls-1" d="M205.62,86.42l-1.92-4.08-1.56,4.08m3.72.48h-4l-.6,1.44a.88.88,0,0,0-.24.72,1,1,0,0,0,.24.84h1.32v.24h-4V89.9a1.79,1.79,0,0,0,1.09-.48c.24-.36.48-.84,1.07-1.68l4-9.12h.35L209.46,88a4.52,4.52,0,0,0,.72,1.68,1.29,1.29,0,0,0,.84.24v.24h-5.64V89.9h1.32c0-.24.24-.24.24-.48l-.24-.36a.74.74,0,0,0-.24-.48Z"/><path class="cls-1" d="M218.59,79.09a2.57,2.57,0,0,0-2.41,1.69,15.06,15.06,0,0,0-.6,3.73c0,2.16.36,3.47,1.08,4.31a1.87,1.87,0,0,0,1.93,1.09,3.41,3.41,0,0,0,1.67-.25,7.18,7.18,0,0,0,1.08-1.92,10.72,10.72,0,0,0,.48-2.89,12,12,0,0,0-.48-3.59c-.36-.72-.59-1.32-1.08-1.56s-.84-.61-1.67-.61m0-.47a6.13,6.13,0,0,1,4.55,1.56,7,7,0,0,1,1.68,4.33,5.51,5.51,0,0,1-6.23,6,5.76,5.76,0,0,1-6.25-6,5.94,5.94,0,0,1,6.25-5.89"/><path class="cls-1" d="M235.63,84.86v4.56l.48.48h1.07v.24h-6.11V89.9h1.32c0-.24.23-.24.23-.48V79.7l-.23-.24a.91.91,0,0,0-.85-.36h-.47v-.24h6.11v.24H237c-.6,0-.84,0-.84.36-.24,0-.24.24-.48.24V84h4V79.7l-.25-.24c-.23-.36-.47-.36-.84-.36H238v-.24h6.24v.24h-.36c-.48,0-.72,0-.72.36-.37,0-.37.24-.6.24v9.72c0,.24.23.24.6.48h1.08v.24H238V89.9h1.31c0-.24.25-.24.25-.48V84.86"/><path class="cls-1" d="M251.47,89.9v.24h-6.12V89.9h1.08l.48-.48V79.7c-.24,0-.24-.24-.48-.24-.36-.37-.36-.37-.84-.37h-.24v-.23h6.12v.23H251a.88.88,0,0,0-.84.37l-.24.24c0,.24-.24.48-.24,1.08v7.56a3.55,3.55,0,0,0,.24,1.08c0,.24.24.24.24.48H251"/><path class="cls-1" d="M264.43,78.62V82.7h-.23a6.06,6.06,0,0,0-1.92-2.52,4.34,4.34,0,0,0-2.41-.72,3.24,3.24,0,0,0-2.16.48,4.83,4.83,0,0,0-1.32,2.16,8.61,8.61,0,0,0-.24,2.41,10.71,10.71,0,0,0,.24,3,5.62,5.62,0,0,0,1.32,1.92,5.77,5.77,0,0,0,2.16.49h.85c.23,0,.47-.25,1.07-.25v-2.4a1.28,1.28,0,0,0-.23-.84c0-.24-.37-.24-.37-.6h-1.07v-.24h5.76v.24H265a1.53,1.53,0,0,1-.61.6v3.24c-.72.25-1.56.48-2.39.84h-2.4a6.23,6.23,0,0,1-2.77-.36,5.6,5.6,0,0,1-2.15-1.32c-.49-.24-.73-.84-1.33-1.56a7.43,7.43,0,0,1-.48-2.41,5,5,0,0,1,1.81-4.31,6.35,6.35,0,0,1,4.92-1.92c.48,0,1.08,0,1.31.24a3.25,3.25,0,0,1,1.33.23,1.71,1.71,0,0,0,1.07.37h.36c.24-.37.24-.6.49-.84"/><path class="cls-1" d="M271.28,84.86v4.56l.48.48h1.07v.24h-6.24V89.9H268c.24-.24.24-.24.24-.48.24,0,.24-.6.24-1.08V80.78c0-.6,0-.84-.24-1.08a.24.24,0,0,0-.24-.24,1,1,0,0,0-.85-.36h-.6v-.24h6.24v.24h-.24a.89.89,0,0,0-.83.36c-.24,0-.24.24-.48.24V84h4.32V80.78c0-.6-.36-.84-.36-1.08l-.25-.24c-.23-.36-.47-.36-.83-.36h-.49v-.24h6.12v.24h-.23c-.48,0-.72,0-.72.36-.36,0-.36.24-.6.24v9.72a2.62,2.62,0,0,0,.6.48h1v.24h-6.12V89.9H275c0-.24.25-.24.25-.48a2.62,2.62,0,0,0,.36-1.08V84.86"/><path class="cls-1" d="M293.6,78.62l.24,3.72h-.48a4,4,0,0,0-1.08-2.16c-.84-.48-1.32-1.09-2.16-1.09a2,2,0,0,0-1.32.61,1.66,1.66,0,0,0-.6,1.08,1.29,1.29,0,0,0,.24.84c0,.24.36.48.84.48a7.36,7.36,0,0,0,1.92,1.08,11.79,11.79,0,0,1,2.64,1.92,2.5,2.5,0,0,1,.84,1.8,3.78,3.78,0,0,1-1.32,2.76,5.55,5.55,0,0,1-3,.84h-.84c-.48,0-.72-.36-1.32-.36a1,1,0,0,0-.84-.23.23.23,0,0,0-.24.23c-.24,0-.48.36-.48.36h-.36V86.18h.36a4.49,4.49,0,0,0,1.56,2.87,2.87,2.87,0,0,0,2.16.86c.84,0,1.32,0,1.68-.49a1.81,1.81,0,0,0,.48-1.08,1,1,0,0,0-.24-.84,1.21,1.21,0,0,0-.6-.83,5.23,5.23,0,0,0-1.56-.85,6.45,6.45,0,0,1-2.4-1.31,4.86,4.86,0,0,1-1.08-1.09,2.5,2.5,0,0,1-.36-1.56,2.57,2.57,0,0,1,1.08-2.16,3.06,3.06,0,0,1,2.53-1.08,2.8,2.8,0,0,1,1.31.24,1.34,1.34,0,0,1,.84.23,1.43,1.43,0,0,0,.73.37h.59v-.84"/><path class="cls-1" d="M307.41,78.62V82.7h-.24a3.94,3.94,0,0,0-5.76-2.76,4,4,0,0,0-1.32,1.68,5.43,5.43,0,0,0-.48,2.89,11.16,11.16,0,0,0,.23,2.75,5,5,0,0,0,1.33,1.79,2.67,2.67,0,0,0,2.15.61,6.58,6.58,0,0,0,2.16-.24,10.55,10.55,0,0,0,1.93-1.68v.84a4.8,4.8,0,0,1-2.17,1.56,5.78,5.78,0,0,1-2.39.36,7.07,7.07,0,0,1-3.61-.59,9.23,9.23,0,0,1-2.15-2.17,6.64,6.64,0,0,1-.73-2.89,6,6,0,0,1,.73-3,6.75,6.75,0,0,1,2.52-2.4,6.53,6.53,0,0,1,3.24-.84,14.3,14.3,0,0,1,2.63.47,2.05,2.05,0,0,0,.84.37c.25,0,.49,0,.49-.37.36,0,.36-.23.36-.47"/><path class="cls-1" d="M313.65,84.86v3.48a3.55,3.55,0,0,0,.24,1.08c0,.24.24.24.24.48h1.32v.24h-6.12V89.9h1.08l.48-.48V79.7c-.24,0-.24-.24-.48-.24a1,1,0,0,0-.84-.36h-.24v-.24h6.12v.24H315a.89.89,0,0,0-.84.36l-.24.24c0,.24-.24.48-.24,1.08V84H318V80.78c0-.6,0-.84-.36-1.08a.24.24,0,0,0-.24-.24c-.24-.36-.47-.36-.84-.36h-.24v-.24h6v.24h-.36a.72.72,0,0,0-.72.36c-.36,0-.36.24-.36.24-.24.24-.24.48-.24,1.08v7.56c0,.48,0,1.08.24,1.08,0,.24,0,.24.36.48h1.08v.24h-6V89.9h1.08c.24-.24.24-.24.24-.48.36,0,.36-.6.36-1.08V84.86"/><path class="cls-1" d="M330.09,79.09a2.85,2.85,0,0,0-2.52,1.69,8.58,8.58,0,0,0-.73,3.73c0,2.16.25,3.47,1.1,4.31a2.08,2.08,0,0,0,2.15,1.09c.48,0,1.08,0,1.33-.25a5.72,5.72,0,0,0,1.32-1.92,11.73,11.73,0,0,0,.23-2.89,14.88,14.88,0,0,0-.23-3.59,4.34,4.34,0,0,0-1.09-1.56,4.22,4.22,0,0,0-1.56-.61m-.36-.47a6.48,6.48,0,0,1,4.69,1.56,6,6,0,0,1,1.79,4.33,6.51,6.51,0,0,1-1.31,3.83c-1.08,1.57-2.64,2.16-4.81,2.16a6,6,0,0,1-4.92-1.92,5.27,5.27,0,0,1-1.32-4.07,6.85,6.85,0,0,1,1.56-4.33,6.77,6.77,0,0,1,4.32-1.56"/><path class="cls-1" d="M344.14,79.09a2.86,2.86,0,0,0-2.53,1.69,15.66,15.66,0,0,0-.47,3.73c0,2.16.23,3.47,1.07,4.31a2,2,0,0,0,1.93,1.09,3,3,0,0,0,1.56-.25,3.87,3.87,0,0,0,1.08-1.92,11.15,11.15,0,0,0,.59-2.89,11.64,11.64,0,0,0-.59-3.59c-.24-.72-.48-1.32-1.08-1.56a2.39,2.39,0,0,0-1.56-.61m0-.47a6.36,6.36,0,0,1,4.56,1.56c1.08,1.44,1.92,2.76,1.92,4.33a6.6,6.6,0,0,1-1.44,3.83,6,6,0,0,1-5,2.16,6.64,6.64,0,0,1-4.92-1.92,6.39,6.39,0,0,1-1.32-4.07,5.69,5.69,0,0,1,1.92-4.33,6,6,0,0,1,4.32-1.56"/><path class="cls-1" d="M362.75,86.42l-.61,3.72H351.7v-.23H353c0-.25.24-.25.24-.49a3.55,3.55,0,0,0,.24-1.08V80.78c0-.6-.24-.84-.24-1.08l-.24-.24a.87.87,0,0,0-.84-.37h-.48v-.23h6.48v.23h-.59c-.49,0-.85,0-.85.37-.24,0-.24.24-.48.24v9.35c.24.37.24.61.48.61h1.92a3.14,3.14,0,0,0,1.69-.24,5,5,0,0,0,1.07-1.08,14.89,14.89,0,0,0,.72-1.92"/><path class="cls-2" d="M53.9,49.21l13-2.88,6.84-1.68,6.49-1.92,2.88-1,3.24-1.09,3-1.43,3-1.32L95,36.36l2.76-1.67,2.4-1.92,2.4-1.8,1.68-2.16.72-1.09.84-1.32.6-1.07.24-1.45.24-1.32V21.24L106,19.32,105.27,18l-1.08-1.08-1.08-1.08L102,15,101,13.92,98.19,12.6l-2.88-1.08-3.24-1.08-3-.48-3.24-.83-3-.49-.23.49,2.64,2.63,1.43,1.68L88,15l1.32,2.16,1.31,2.16,1.09,2.4,1.08,2.77.84,2.63.59,2.77.49,2.63v1.09a72.19,72.19,0,0,1-14.28,6.24l-6,1.92-5,1.32-6,1.56L58,46l-3,.83c-6.13-5.63-13.45-3.23-15.85,1.69l-4.32.24c-2.16-.24-4.32,0-6.72-.24a18,18,0,0,1-4.32-.36l-.61-2.64-.48-2.16-.59-2.65-.24-3v-3l.24-3,.59-2.88.48-3,.61-1.31.48-1.69.6-1.56.72-1.08-.24-.48-3.24,1.56-3,1.92L16.21,25l-3,2.16-2.75,3L9.12,32.05,7.8,33.61,7,35.52l-.47,1.09-.24,1.08v3.48l.24,1.08L7.8,44.41l1.08,1.08L10,46.57l1.32.83,1.32.49,3,1.08,3.25.84,3.24.49,3.24.35,6.24.49,4.8-.25,4.09-.24a7.72,7.72,0,0,1,7.07-4.93,7.43,7.43,0,0,1,6.37,3.49m.6,7.56a7.09,7.09,0,0,1-6.73,4.08,7.26,7.26,0,0,1-5.16-1.92l-.84-.84h-.24c-9.11.84-17.52.84-26.4-1.32L13,56.29,11,55.45l-2.16-.84L7,53.53,5.64,52.45,4.57,51.37,3.48,50.3,2.4,49,1.33,47.65.84,46l-.6-1.81L0,42.25V40.92l.24-1.07.24-1.33.6-1.07.84-2.17,1.32-2.16L4.8,31.21l1.92-1.56L8.64,28l1.81-1.57,3.84-2.52,4.08-2.4,4-2.16,2.15-1.08L27,17.52l1.8-2.76L31,12.11,32.05,11,33.49,9.6l1.32-1,1.32-1.09,2.76-1.91,3.25-1.92,3.24-1.33,1.8-.6,1.67-.48L50.78.72l1.8-.24L54.5.23,56.42,0h3.72l1.92.23,1.56.25,2.52.24,2.4.59,2.16.85,1.92.72L74.79,4,76.59,5,78.5,6.12l1.93,1.43H84.5L88.83,8l4,.6L95,9.13l1.92.47,1.92.6L101,11l1.8.72,1.68.84,1.92,1.08,1.56,1.08,1.68,1.31,1.33,1.45.83.72.48,1.08.84,1.08.24,1.32.24,1.44v1.56L113.31,26l-.24,1.44-.6,1.33L112,29.89l-1.07,2.16L109,34.45l-2.16,2.4L104.43,39l-2.76,1.68-5,2.89L91,46l-5.76,2.52L79.34,50.3l-6,1.91-6.12,1.56L61,55.45Z"/><path class="cls-2" d="M55.58,72.74l-3.48-.85-3.84-.59L45,70l-3.47-1.33-1.08-.6L38.3,66.73l-2.41-1.92-2.4-2-1.08-1.09-.84-.84a52,52,0,0,0,9.72-.6c.48.6.25.37.84.6a7.18,7.18,0,0,1,.72.84,9.53,9.53,0,0,0,11.64-1.07,7.5,7.5,0,0,0,1.57-1.92l9-1.93,10-2.63c6.25-1.93,11.89-3.49,17.53-6.25l-.48,1.92-1.45,2.88-1.55,2.76-1.68,2.41-2.17,2.39-2.16,2.53L80.9,64.57l-2.63,1.92-2.41,1.56-2.52,1.08L70.7,70.57l-3,.73-3,.59-3.25.48-2.87.37"/><path class="cls-1" d="M23.17,82.34h-.24a1,1,0,0,0-.6-1.08,1.32,1.32,0,0,0-1.08-.48,1.73,1.73,0,0,0-1.33.48c-.47.36-.47.84-.47,1.44a2,2,0,0,0,.24,1.08A14.5,14.5,0,0,1,21,85.1a5.58,5.58,0,0,1,1.92,1.8,4.45,4.45,0,0,1,.48,1.68,3,3,0,0,1-1.56,2.65A5.85,5.85,0,0,1,18,92.67a4.22,4.22,0,0,1-1.56-.61c-.61,0-.61-.48-.61-.83a.72.72,0,0,1,.37-.73,3,3,0,0,1,1.08-.84,2.73,2.73,0,0,0,.48,1.57,3.25,3.25,0,0,0,1.68.59A2.07,2.07,0,0,0,21,91c.6-.24.6-.84.6-1.56,0-.36,0-.84-.36-1.08-.24-.6-.48-.84-1.33-1.44a.23.23,0,0,0-.23-.23c-1.32-1.09-2.16-2.17-2.16-2.89A3.78,3.78,0,0,1,18.85,81a5,5,0,0,1,3.24-1.08,3.08,3.08,0,0,1,1.68.24c.48.36.72.6.72.84s-.24.24-.24.6a2.77,2.77,0,0,1-1.08.72"/><path class="cls-1" d="M16.21,90.74c-.37.24-.37.24-.37.48s.37.6.6.84A3.59,3.59,0,0,0,18,92.3a5.62,5.62,0,0,0,3.84-1.08,3.38,3.38,0,0,0,1.32-2.64,4.06,4.06,0,0,0-.24-1.68A11.1,11.1,0,0,0,21,85.34c-.84-.48-1.32-1.08-1.32-1.56a3.23,3.23,0,0,1-.6-1.08,2.7,2.7,0,0,1,.6-1.45,2,2,0,0,1,1.56-.7,2.51,2.51,0,0,1,1.43.47,2.1,2.1,0,0,1,.49,1.32c.24-.24.84-.48.84-.72.24-.37.24-.37.24-.6s0-.47-.48-.47c-.36-.37-.84-.37-1.68-.37a4.71,4.71,0,0,0-3,1.07,2.53,2.53,0,0,0-1.32,2.53c0,.73.6,1.56,1.92,2.64.24.25.24.25.48.48A4.49,4.49,0,0,1,21.25,88a3.28,3.28,0,0,1,.6,1.44,2.16,2.16,0,0,1-.84,1.8,2.28,2.28,0,0,1-1.56.6,3.18,3.18,0,0,1-1.68-.6,1.92,1.92,0,0,1-.48-1.32,2.65,2.65,0,0,0-1.08.84M18,92.67c-.48,0-1.33,0-1.57-.37-.6-.24-.83-.48-.83-1.08,0-.24.23-.48.23-.72a3.88,3.88,0,0,1,1.08-.84h.61c0,.48,0,1.08.48,1.32.36.6.84.6,1.44.6A4.19,4.19,0,0,0,21,91a2.37,2.37,0,0,0,.6-1.56c0-.37-.36-.84-.36-1.08a11.3,11.3,0,0,0-1.32-1.44.23.23,0,0,1-.24-.23c-1.32-1.09-2.16-2.16-2.16-2.89A3.41,3.41,0,0,1,18.85,81a4.62,4.62,0,0,1,3.24-1.08,4.68,4.68,0,0,1,1.92.24c.24.37.48.6.48.84a1.15,1.15,0,0,1-.24.84c-.24,0-.48.24-1.08.84h-.24v-.36c0-.48-.25-.72-.6-1.09a1.34,1.34,0,0,0-1.08-.47,2.24,2.24,0,0,0-1.32.47,2.64,2.64,0,0,0-.48,1.45,2,2,0,0,0,.24,1.08A14.53,14.53,0,0,1,21,85.1a13.31,13.31,0,0,1,2.16,1.8,3.54,3.54,0,0,1,.24,1.68,3.75,3.75,0,0,1-1.56,3A5.86,5.86,0,0,1,18,92.67"/><path class="cls-1" d="M29.41,79.7a.84.84,0,0,1,.48.24.89.89,0,0,1,.36.84,1,1,0,0,1-.36.84c-.24.24-.48.48-.72.48a1,1,0,0,1-.84-.24v-.6a1.61,1.61,0,0,1,.24-1.08,1.52,1.52,0,0,1,.84-.48m.48,10.2.36.24a4.44,4.44,0,0,1-1.68,1.68c-.48.48-.84.85-1.08.85S27,92.3,27,92.3v-.48a16.4,16.4,0,0,1,.25-3.24,8.29,8.29,0,0,0,.48-3v-.24h-.24l-.24.24s-.25.24-.6.6l-.24-.36A11.81,11.81,0,0,1,28.09,84c.48-.24.72-.6,1.08-.6s.24.36.48.36v.48a11.33,11.33,0,0,1-.24,2.16v.84c-.24.72-.24,1.56-.6,1.8V90.5h.6a2.62,2.62,0,0,1,.48-.6"/><path class="cls-1" d="M28.33,81.86c-.24,0-.24-.24-.24-.6s.24-.72.24-1.08a2.07,2.07,0,0,1,1.08-.48v.23a1.11,1.11,0,0,0-.84.25,1.61,1.61,0,0,0-.24,1.08.94.94,0,0,0,.24.6h.6c.24,0,.48,0,.48-.24.24-.36.6-.6.6-.84s-.36-.6-.36-.6c-.24-.25-.24-.25-.48-.25V79.7a1.34,1.34,0,0,1,.84.23c0,.25.24.61.24.85a1.66,1.66,0,0,1-.6,1.08.88.88,0,0,1-.72.24,1,1,0,0,1-.84-.24m-.6,3.48c.36,0,.36.24.36.24a21.77,21.77,0,0,1-.6,3A26.34,26.34,0,0,0,27,91.82c0,.24,0,.24.24.48h.24a3.69,3.69,0,0,0,1.08-.48,5.51,5.51,0,0,0,1.32-1.68c-.24,0-.24.36-.48.36a.23.23,0,0,1-.24.23c-.36,0-.36,0-.36-.23l-.24-.36c0-.24.24-.48.24-1.08s.36-1.08.36-1.8a1,1,0,0,1,.24-.84,11.42,11.42,0,0,1,.24-2.16c0-.24,0-.24-.24-.48h-.24a1.23,1.23,0,0,0-1.08.48c-.36.24-.84.84-1.44,1.32v.24a2.62,2.62,0,0,0,.6-.48h.48Zm-.72,7c-.36,0-.36-.24-.36-.48a24.05,24.05,0,0,1,.6-3.24,24.14,24.14,0,0,0,.48-3h-.48l-.6.6-.48-.36.24-.24c.6-.48,1.08-1.08,1.68-1.56.48-.24.72-.6,1.08-.6s.48,0,.48.36c.24,0,.24.24.24.48a11.42,11.42,0,0,0-.24,2.16,1,1,0,0,0-.24.84c0,.72-.24,1.56-.24,2.16a2,2,0,0,1-.36.72l.36.36.24-.36a.84.84,0,0,1,.48-.24v-.24l.6.48c-.84.84-1.08,1.44-1.68,1.92a5.88,5.88,0,0,1-1.32.61c-.24,0-.48,0-.48-.37"/><path class="cls-1" d="M33.13,92.67a20.78,20.78,0,0,0,.6-4.33,27.71,27.71,0,0,0,.49-2.76L34,85.34h-.48a2.62,2.62,0,0,0-.6.48l-.24-.24L34.22,84a5.84,5.84,0,0,1,1.43-.59l.24.35c.24.24.24.24.24.48a3,3,0,0,1-.24,1.32c0,.84-.24,1.32-.24,2.4a11.81,11.81,0,0,1,2.64-3.12,8.43,8.43,0,0,1,2.16-1.43c.24,0,.6,0,.6.35V84a10.54,10.54,0,0,1-.36,2.88,33.58,33.58,0,0,0-.48,3.6v.24h.48a1.53,1.53,0,0,0,.61-.6l.23.36-1.32,1.32a1.65,1.65,0,0,1-1.32.48s-.36,0-.36-.24c-.24,0-.24-.24-.24-.48a15.78,15.78,0,0,1,.6-3.24,14.59,14.59,0,0,0,.24-2.76v-.24a.24.24,0,0,0-.24-.24,1.21,1.21,0,0,0-.84.48,6.31,6.31,0,0,0-1.32,1.68,4.11,4.11,0,0,0-1.08,2.16,5.46,5.46,0,0,0-.6,2.4c-.24,0-.48.24-1.08.24-.24.24-.48.24-.84.61"/><path class="cls-1" d="M34.21,85.34v.24A14.59,14.59,0,0,1,34,88.34c-.24,1.32-.48,2.64-.84,4a1.29,1.29,0,0,1,.84-.24,1.15,1.15,0,0,1,.84-.24,16.44,16.44,0,0,1,.48-2.4,13.5,13.5,0,0,1,1.44-2.52c.48-.48.72-1.08,1.32-1.32a1.24,1.24,0,0,1,.84-.48h.24c.24.24.24.24.24.48a26.76,26.76,0,0,1-.48,2.76,12.4,12.4,0,0,0-.36,3.24v.48c0,.24.36.24.36.24A2.72,2.72,0,0,0,40,91.82c.49-.24.72-.84,1.32-1.32v-.36c-.24.36-.24.6-.6.6l-.23.24a.24.24,0,0,1-.25-.24L40,90.5a31.71,31.71,0,0,1,.49-3.6c.23-1.32.59-2.39.59-2.88v-.24h-.59a3.41,3.41,0,0,0-1.93,1.08A15,15,0,0,0,35.65,88h-.36c.36-1.08.36-1.56.6-2.4v-1.8h-.24a1,1,0,0,0-1.07.48c-.61.25-1.09.84-1.93,1.32l.24.24c.24-.24.24-.48.6-.48a.24.24,0,0,1,.24-.24c.24,0,.24,0,.48.24m-1.32,7.33c.24-1.69.6-3,.84-4.33A14.59,14.59,0,0,0,34,85.58v-.24h-.24l-.24.24a2.45,2.45,0,0,0-.6.6l-.48-.6A9,9,0,0,1,34.21,84c.6-.24.84-.59,1.44-.59.24,0,.24,0,.48.35v1.8a4.68,4.68,0,0,0-.24,1.91,10.44,10.44,0,0,1,2.41-2.63c1.07-1.08,1.67-1.43,2.16-1.43h.59a1.17,1.17,0,0,1,.24.59,15,15,0,0,1-.6,2.88c-.23,1.68-.48,2.76-.48,3.6h.25v.24a.23.23,0,0,1,.23-.24l.6-.6.48.6h-.24a10,10,0,0,1-1.32,1.56c-.6.24-.84.61-1.32.61s-.36-.37-.59-.37v-.72a17.8,17.8,0,0,1,.23-3.24,14.51,14.51,0,0,0,.6-2.76c0-.24,0-.24-.24-.24a1.35,1.35,0,0,0-.84.48A7.81,7.81,0,0,0,37,87.26a5.84,5.84,0,0,0-1.32,2.16,5.46,5.46,0,0,0-.6,2.4c-.24.24-.47.24-.84.48-.24,0-.72.37-1.08.37l-.24.23Z"/><path class="cls-1" d="M48.86,85.58c-.24-.24-.6-.48-.84-.72h-.49c-.59,0-.84.24-1.07,1.32-.61.72-.61,2.16-.61,3.24,0,.48,0,1.08.25,1.32,0,.24.36.24.59.24.48,0,.84,0,1.08-.24.49-.24.85-.84,1.32-1.08l.24.24a6.41,6.41,0,0,1-2.16,1.92,3.11,3.11,0,0,1-1.8.85,1.38,1.38,0,0,1-1.07-.61,1.85,1.85,0,0,1-.61-1.56A6.29,6.29,0,0,1,44.3,88a5.35,5.35,0,0,1,1.07-2.16,3.29,3.29,0,0,1,1.57-1.56,6.75,6.75,0,0,1,1.92-.84,1.36,1.36,0,0,1,.84.36c.24.24.48.24.48.48s-.24.6-.48.6c0,.24-.61.48-.84.72"/><path class="cls-1" d="M48.85,85.58v0m-1.67-1.32c-.73.6-1.33,1.08-1.81,1.56A12.1,12.1,0,0,0,44.29,88a6.29,6.29,0,0,0-.35,2.52c0,.73,0,1.08.35,1.32.24.48.48.48,1.08.48a3.56,3.56,0,0,0,1.81-.72,3.67,3.67,0,0,0,1.91-1.68v-.24c-.47.48-.84.84-1.08,1.08a2.93,2.93,0,0,1-1.32.49,1.58,1.58,0,0,1-.84-.49c-.24-.24-.24-.84-.24-1.32a9.92,9.92,0,0,1,.49-3.24c.35-1.08.84-1.68,1.43-1.68a.72.72,0,0,1,.72.36c.37,0,.37.24.6.48.24-.24.49-.24.85-.48s.24-.36.24-.6A.24.24,0,0,0,49.7,84a1,1,0,0,0-.85-.24,7.45,7.45,0,0,0-1.67.48m-3.24,7.8c-.25-.24-.25-.83-.25-1.56A8.64,8.64,0,0,1,43.94,88c.35-1.08.83-1.56,1.07-2.4A13.59,13.59,0,0,1,46.94,84a8.28,8.28,0,0,1,1.91-.6c.49,0,.85,0,1.09.36.23,0,.23.24.23.48a1.18,1.18,0,0,1-.23.84c-.24.24-.6.24-1.09.48A1.49,1.49,0,0,0,48,85.1c-.24-.24-.24-.24-.48-.24s-.84.48-1.08,1.32a8.87,8.87,0,0,0-.6,3.24c0,.48,0,1.08.25,1.08.35.24.35.48.59.48a2.12,2.12,0,0,0,1.08-.48c.24-.36.85-.6,1.32-1.08l.61.48h-.36a5.73,5.73,0,0,1-1.81,1.92,5.61,5.61,0,0,1-2.16.85,2.58,2.58,0,0,1-1.43-.61"/><path class="cls-1" d="M53.9,87.26a2.74,2.74,0,0,0,1.44-.59,1.53,1.53,0,0,0,.72-1.33.84.84,0,0,0-.24-.48c0-.35-.24-.35-.48-.35s-.6.35-.84.83a3.27,3.27,0,0,0-.6,1.92m-.24.48v1.08a1.13,1.13,0,0,0-.24.84,7.65,7.65,0,0,0,.24,1.08,1.14,1.14,0,0,0,.84.24,1.78,1.78,0,0,0,1.08-.24c.24-.24.84-.6,1.32-1.08l.24.24A10.57,10.57,0,0,1,55,91.82a3.78,3.78,0,0,1-1.79.85,1.36,1.36,0,0,1-1.08-.61,2.26,2.26,0,0,1-.61-1.32A11.41,11.41,0,0,1,52.1,88a4.47,4.47,0,0,1,1.08-2.4,7.94,7.94,0,0,1,1.56-1.32,4.2,4.2,0,0,1,1.92-.83c.24,0,.48.35.83.35.24.24.24.48.24,1.08s-.24,1-1.07,1.56a5.67,5.67,0,0,1-3,1.32"/><path class="cls-1" d="M54.5,85.34a8.17,8.17,0,0,1-.6,1.92,2.74,2.74,0,0,0,1.44-.59,3,3,0,0,0,.48-1.33v-.48h-.48a.73.73,0,0,0-.84.48m-.6,2.16h-.24v-.24c.24-.84.24-1.68.84-2.16.24-.24.47-.6.84-.6h.48a1.29,1.29,0,0,1,.24.84,2.24,2.24,0,0,1-.48,1.33,2.31,2.31,0,0,1-1.68.83M55,84.26a2.87,2.87,0,0,0-1.55,1.32A10.71,10.71,0,0,0,52.1,88a10.74,10.74,0,0,0-.24,2.76c0,.49,0,1.08.24,1.32s.48.24,1.08.24A6.69,6.69,0,0,0,55,91.82,9.23,9.23,0,0,0,56.9,89.9v-.24a5.23,5.23,0,0,1-1.32,1.08,2.18,2.18,0,0,1-1.08.49,1.51,1.51,0,0,1-.84-.49c-.24-.24-.24-.6-.24-1.08v-.84c0-.24,0-.84.24-1.07a11.72,11.72,0,0,0,3-1.33c.48-.6,1.07-1.08,1.07-1.56a1.22,1.22,0,0,0-.24-.84,1.26,1.26,0,0,0-.83-.24,2.32,2.32,0,0,0-1.69.48m-3.11,7.8c-.36-.24-.36-.83-.36-1.32a8.5,8.5,0,0,1,.36-3,9.28,9.28,0,0,1,1.32-2.17L54.74,84a8.49,8.49,0,0,1,1.92-.6c.24,0,.83,0,.83.36A1.32,1.32,0,0,1,58,84.86a2.58,2.58,0,0,1-1.32,1.81A7.42,7.42,0,0,1,53.9,88a1.29,1.29,0,0,0-.24.84v.84a1.78,1.78,0,0,0,.24,1.08,1.41,1.41,0,0,0,.6.24c.24,0,.47-.24,1.08-.48.24,0,.84-.6,1.08-1.08h.24l.24.48A4.16,4.16,0,0,1,55,91.82a3.06,3.06,0,0,1-1.79.85c-.6,0-1.08,0-1.32-.61"/><path class="cls-1" d="M68.78,79.94l.24.24c-.24,1.68-.72,3.6-1.08,5.4s-.24,3.84-.48,6l2.4.24v.48h-7v-.48l2.4-.24c.23-1.68.48-3.24.84-4.92s.48-3.48.72-5c-.48,0-.72.24-1.33.24a12.88,12.88,0,0,1-1.31.24l.24-.48a7.28,7.28,0,0,0,2.16-.6c.84-.24,1.32-.84,2.16-1.08"/><path class="cls-1" d="M67.7,92.06c.84,0,1.32.24,1.92.24v-.24l-2.4-.24v-.24c.24-2.16.48-4.09.72-6s.6-3.72.84-5.4a14.8,14.8,0,0,1-2.16.84,14.62,14.62,0,0,1-2.16.84h1.08c.24-.24.84-.24,1.08-.61h.24v.37c-.24,1.56-.24,3.48-.48,5s-.6,3.47-.84,4.91v.24l-2.4.24v.24a3.54,3.54,0,0,1,1.56-.24h3m2.16.61c-.48,0-1.32-.37-2.16-.37h-3a3.59,3.59,0,0,0-1.8.37h-.36V92.3l.36-.48,2.4-.24c.24-1.68.48-3.24.84-4.91s.24-3.24.48-5c-.24.24-.84.24-1.08.48a1.78,1.78,0,0,0-1.08.24h-.24v-.72h.24a14.8,14.8,0,0,1,2.16-.84,13.83,13.83,0,0,0,1.92-.84h.84l-.36.24c-.24,1.68-.48,3.6-.72,5.4a31.69,31.69,0,0,0-.6,6l2.4.24Z"/><path class="cls-1" d="M77.18,80.78a2,2,0,0,0-1.91,1.08,6.32,6.32,0,0,0-.49,2.4c0,.84,0,1.32.24,1.56a1.73,1.73,0,0,0,1.32.6,2.31,2.31,0,0,0,1.92-1.08,3.39,3.39,0,0,0,.85-2.4,4.76,4.76,0,0,0-.61-1.68,2.18,2.18,0,0,0-1.32-.48M72.62,90.5c0,.24.48.48.72.73a1.48,1.48,0,0,0,1.08.35,4,4,0,0,0,2.76-1.43,9.38,9.38,0,0,0,1.56-4.57,3.85,3.85,0,0,1-1.8,1.32,2.59,2.59,0,0,1-1.92.6,2.18,2.18,0,0,1-1.68-.6,2.3,2.3,0,0,1-.48-1.8,6,6,0,0,1,.24-1.92,2.93,2.93,0,0,1,1.08-1.32,4.32,4.32,0,0,1,1.92-1.32,3.86,3.86,0,0,1,2.16-.6,2.09,2.09,0,0,1,1.92.84,3.33,3.33,0,0,1,.72,2.4,11.86,11.86,0,0,1-.72,4.32,8.46,8.46,0,0,1-2.52,3.24,5.39,5.39,0,0,1-2.16,1.32,7.84,7.84,0,0,1-2.4.61c-.24,0-.48-.37-.83-.37a.86.86,0,0,1-.25-.72V91c0-.24.25-.24.6-.48"/><path class="cls-1" d="M76.34,86.67A1.42,1.42,0,0,1,75,85.82a2.11,2.11,0,0,1-.6-1.56,3.34,3.34,0,0,1,.85-2.4,2,2,0,0,1,1.91-1.08V81a2.27,2.27,0,0,0-1.68.84,4.63,4.63,0,0,0-.72,2.4,2.6,2.6,0,0,0,.49,1.56,1.23,1.23,0,0,0,1.07.6c.6,0,1.08-.24,1.68-1.08a3.38,3.38,0,0,0,.73-2.4c0-.6,0-1.08-.25-1.32-.24-.6-.84-.6-1.32-.6v-.24c.48,0,1.08,0,1.32.48.61.36.61,1.08.61,1.68a4.54,4.54,0,0,1-.85,2.64,2.66,2.66,0,0,1-1.92,1.09M72.27,91a.91.91,0,0,0-.25.6c0,.24,0,.48.25.48a1.26,1.26,0,0,0,.83.24,4.13,4.13,0,0,0,2.4-.48,8,8,0,0,0,2.16-1.32,10.62,10.62,0,0,0,2.16-3,9.78,9.78,0,0,0,.85-4.32c0-1.08,0-1.92-.48-2.16a2.84,2.84,0,0,0-1.93-.84,4.57,4.57,0,0,0-2.16.36,7.93,7.93,0,0,0-1.92,1.32c-.24.48-.84,1.08-1.08,1.56,0,.6-.24,1.08-.24,1.68a2.45,2.45,0,0,0,.48,1.57A2.29,2.29,0,0,0,75,87.5a4.41,4.41,0,0,0,1.92-.6,5.73,5.73,0,0,0,1.81-1.32l.36-.48v.48a21.09,21.09,0,0,1-1.69,4.56,3.9,3.9,0,0,1-3,1.68c-.48,0-.72-.24-1.08-.24-.48-.36-.72-.6-.72-.85-.35,0-.35.25-.35.25m0,1.32c-.25-.24-.49-.48-.49-.72s0-.36.24-.6a.79.79,0,0,1,.25-.48l.35-.36v.36l.72.72c.36,0,.84.36,1.08.36a3.5,3.5,0,0,0,2.76-1.68,10.74,10.74,0,0,0,1.32-4.08,8.52,8.52,0,0,1-1.56,1.44,4.52,4.52,0,0,1-1.92.48,2.39,2.39,0,0,1-1.92-.84,4,4,0,0,1-.48-1.8,5.65,5.65,0,0,1,.48-1.92c0-.48.6-1.08,1.08-1.56a3.87,3.87,0,0,1,1.92-1.08c.48-.61,1.32-.61,2.16-.61a2.92,2.92,0,0,1,2.17.85c.47.48.47,1.32.47,2.4a12.08,12.08,0,0,1-.71,4.32A13.26,13.26,0,0,1,78,90.73a12.27,12.27,0,0,1-2.52,1.33,3.41,3.41,0,0,1-2.4.61,1,1,0,0,1-.83-.37"/><path class="cls-1" d="M91.23,81.86c-.24-.24-.61-.6-.84-.6A2.19,2.19,0,0,0,89.31,81a2.87,2.87,0,0,0-2.4,1.32,10,10,0,0,0-1.68,4.33,4.69,4.69,0,0,1,1.92-1.57,5.62,5.62,0,0,1,1.92-.6,1.55,1.55,0,0,1,1.55.84c.61.24.85,1.08.85,1.92A5.18,5.18,0,0,1,89.91,91a6.41,6.41,0,0,1-4.09,1.69,1.92,1.92,0,0,1-1.91-1.09,3,3,0,0,1-.84-2.16,12,12,0,0,1,.84-4.32,8.1,8.1,0,0,1,2.4-3.24,5.76,5.76,0,0,1,2.16-1.32,4.48,4.48,0,0,1,2.15-.6c.37,0,.61.24.85.24.23.36.23.36.23.6s0,.48-.23.48a.92.92,0,0,1-.24.6M89.55,88a2.42,2.42,0,0,0-.48-1.56c-.24-.6-.85-.6-1.33-.6a3.1,3.1,0,0,0-1.92.85A4.44,4.44,0,0,0,85,89.42,1.88,1.88,0,0,0,85.59,91a1.29,1.29,0,0,0,1.32.84,4.46,4.46,0,0,0,1.92-1.08A5.28,5.28,0,0,0,89.55,88"/><path class="cls-1" d="M85.82,86.9a3.37,3.37,0,0,0-.59,2.52c0,.72,0,1.32.36,1.56.23.6.72.6,1.32.6a2.09,2.09,0,0,0,1.56-1.08A3.77,3.77,0,0,0,89.31,88a2.42,2.42,0,0,0-.48-1.56c-.36-.24-.6-.6-1.09-.6a2.5,2.5,0,0,0-1.92,1.08m-.59,4.32a3.85,3.85,0,0,1-.48-1.8,4.65,4.65,0,0,1,1.07-2.75,2,2,0,0,1,1.92-1.09,1.72,1.72,0,0,1,1.33.6,4,4,0,0,1,.48,1.8,5.26,5.26,0,0,1-.72,2.76,2.06,2.06,0,0,1-1.92,1.08,3.16,3.16,0,0,1-1.68-.6m3.24-10.44a5.18,5.18,0,0,0-2.16,1.08,7.83,7.83,0,0,0-2.17,3.24,12.08,12.08,0,0,0-.71,4.32c0,1.08,0,1.56.48,2.16a2.68,2.68,0,0,0,1.91.72,5.19,5.19,0,0,0,3.73-1.56,4.85,4.85,0,0,0,1.68-3.48,3,3,0,0,0-.61-1.92,2.11,2.11,0,0,0-1.55-.48,2.87,2.87,0,0,0-1.92.48,12.2,12.2,0,0,0-1.92,1.33l-.25.59v-.59a20.67,20.67,0,0,1,1.68-4.33,3,3,0,0,1,2.65-1.56c.24,0,.84.24,1.08.24.23.24.6.6.84.84,0-.24.24-.24.24-.6v-.72c-.24-.36-.48-.36-.85-.36a3.13,3.13,0,0,0-2.15.6m-4.81,11c-.59-.6-.59-1.32-.59-2.4a12,12,0,0,1,.84-4.32,10.89,10.89,0,0,1,2.15-3.24,7.15,7.15,0,0,1,2.17-1.32,3.76,3.76,0,0,1,2.39-.6,1,1,0,0,1,.85.24c.23,0,.23.36.23.6v.84c-.23,0-.23.24-.47.48H91c-.37-.24-.37-.48-.84-.84-.24,0-.6-.24-.84-.24-1.08,0-1.57.6-2.4,1.32a10.12,10.12,0,0,0-1.32,3.84,3.94,3.94,0,0,1,1.56-1.08,5.85,5.85,0,0,1,1.92-.6,4.53,4.53,0,0,1,1.92.6A5.18,5.18,0,0,1,89.91,91a5.73,5.73,0,0,1-4.09,1.69,3.21,3.21,0,0,1-2.16-.85"/><path class="cls-1" d="M99,80.78a2.06,2.06,0,0,0-1.92,1.08,3.81,3.81,0,0,0-.72,2.4,2.16,2.16,0,0,0,.48,1.56,1.72,1.72,0,0,0,1.32.6c.6,0,1.08-.24,1.92-1.08a3.39,3.39,0,0,0,.84-2.4,4.73,4.73,0,0,0-.6-1.68A2.18,2.18,0,0,0,99,80.78m-4.8,9.72a2.88,2.88,0,0,0,1.08.73c.24.35.48.35,1.08.35A3.71,3.71,0,0,0,99,90.15a9.38,9.38,0,0,0,1.56-4.57,5.59,5.59,0,0,1-1.8,1.32,2.45,2.45,0,0,1-1.92.6,1.74,1.74,0,0,1-1.56-.6,2.16,2.16,0,0,1-.84-1.8,7.77,7.77,0,0,1,.47-1.92c.37-.48.61-1.08,1.09-1.32a5.58,5.58,0,0,1,3.84-1.92,2.57,2.57,0,0,1,2.16.84,3.38,3.38,0,0,1,.72,2.4A12.08,12.08,0,0,1,102,87.5a11.67,11.67,0,0,1-2.52,3.24,5.85,5.85,0,0,1-2,1.32,9.62,9.62,0,0,1-2.53.61c-.23,0-.47-.37-.71-.37-.36-.24-.6-.48-.6-.72a1,1,0,0,1,.24-.6c0-.24.36-.24.36-.48"/><path class="cls-1" d="M98.19,86.67a1.41,1.41,0,0,1-1.32-.85,2.16,2.16,0,0,1-.48-1.56,3.38,3.38,0,0,1,.72-2.4A2.06,2.06,0,0,1,99,80.78V81c-.84,0-1.32.24-1.57.84a4,4,0,0,0-.83,2.4,2.84,2.84,0,0,0,.24,1.56c.59.36.84.6,1.32.6s1.08-.24,1.68-1.08a3.38,3.38,0,0,0,.72-2.4c0-.6,0-1.08-.48-1.32-.24-.6-.6-.6-1.08-.6v-.24c.48,0,1.08,0,1.32.48a3.5,3.5,0,0,1,.6,1.68,4.61,4.61,0,0,1-.84,2.64,3.18,3.18,0,0,1-1.92,1.09M93.87,91v.6c0,.24,0,.48.36.48a.88.88,0,0,0,.72.24,4.69,4.69,0,0,0,2.51-.48c.49-.24,1.33-.84,2.05-1.32a10.62,10.62,0,0,0,2.16-3,9.92,9.92,0,0,0,.84-4.32A3.74,3.74,0,0,0,102,81a3,3,0,0,0-2.16-.84,3.45,3.45,0,0,0-1.92.36A7.74,7.74,0,0,0,96,81.86,12.17,12.17,0,0,0,95,83.42a4.08,4.08,0,0,0-.24,1.68,1.93,1.93,0,0,0,.6,1.57c.24.59.72.83,1.56.83a5.11,5.11,0,0,0,3.48-1.92l.6-.48-.36.48A8.48,8.48,0,0,1,99,90.14a3,3,0,0,1-2.64,1.68c-.6,0-.84-.24-1.44-.24a5.81,5.81,0,0,0-.72-.85s0,.25-.36.25m0,1.32a.88.88,0,0,1-.24-.72V91c.24-.25.24-.48.6-.48v-.36l.24.36a5.78,5.78,0,0,0,.84.72c.24,0,.48.36,1.08.36a2.69,2.69,0,0,0,2.4-1.68,7.63,7.63,0,0,0,1.56-4.08,8.52,8.52,0,0,1-1.56,1.44,5.71,5.71,0,0,1-1.92.48A2.39,2.39,0,0,1,95,86.9a4,4,0,0,1-.48-1.8,5.28,5.28,0,0,1,.24-1.92c.24-.48.84-1.08,1.08-1.56a5.2,5.2,0,0,1,1.92-1.08,4,4,0,0,1,4.56.24,5.57,5.57,0,0,1,.48,2.4A12.08,12.08,0,0,1,102,87.5a8.35,8.35,0,0,1-2.52,3.23,5.82,5.82,0,0,1-2.05,1.33,3.84,3.84,0,0,1-2.51.61,1.42,1.42,0,0,1-1.08-.37"/></g></g></svg>