<svg xmlns="http://www.w3.org/2000/svg" viewBox="0 0 501.96 717.93"><defs><style>.cls-1{fill:#fff;}.cls-2{fill:none;stroke:#534741;stroke-miterlimit:10;stroke-width:1.92px;}</style></defs><g id="Layer_2" data-name="Layer 2"><g id="何謂黑客松"><g id="大衛"><path class="cls-1" d="M267.38,131,263,140C263.9,138.76,267.17,131.41,267.38,131ZM128.83,438.16c-8.61-1.16-17.89,1.54-17.89,1.54.14,2.55-25.36,22.36-43.09,9.18s-8.19-45-8.19-45c-11.06-2.73-9.94-15.6-8.6-16.49s4.68-17.69.55-22.31-21.93-10.23-21.93-10.23C7,341.82,15,321,15,321,1.3,312.28-1.2,268.36,2.51,262.38s9.52-35,9.52-35c-6.85-35.9-3-38.61-3-38.61,0-29.95,46.41-72.32,47.23-72.35s7-9.44,7-9.44c-.73-12,13.07-23.22,21.76-25.8s18.38-6.83,27.78-10S130.25,54.6,141,50s24.43-2.39,24.43-2.39l11.56-2.83c2-3.59,7-5.39,7-5.39L212,32.7c18.79-13.12,29.88-12.2,33.36-13.55s16.71,1.31,16.71,1.31l9.58-1.8c6.14.27,12.87-8.7,25.37-15.13s27.65,1.29,31.81.89S358.1-4.49,362,9.28s-6.12,20.41-6.12,20.41c17.94-4.82,32.47,17.65,33.95,18.91s3.19,8.7,3.09,10.54a11.6,11.6,0,0,1-1.74,4.38l2.28,10.71s1.18,4.24-4,9.7l-.53.54c-5.77,5.72-12.74,4.71-19.87,1.92s-7.22,2.43-7.22,2.43c-.14,16.08-23.26,21.31-23.26,21.31a167.33,167.33,0,0,1,19,9.09c4,2.33,7.06,4.62,8.32,6.64,5.8,9.27,5.07,17.48,5.07,17.48s9.45,10.53,9.2,12.23,6.37,16.3,6.57,16.75c-.37-.07-25.13-5-14.3,33.38,0,0,6.72,8.29,11.08,14a42.51,42.51,0,0,1,3.61,5.17c2.58,7.48,7.75,15.46,19.35,31.22,8.35,11.34-.56,21.86-9.77,29.09.17.46,6.74,18,4.45,20.95s-1.06,30.08-1.06,30.08,0,25.32-2.38,27.49,8.65,28.42,1.47,37.57-12.57,16.26-22.31,19.57-16.37,16.66-16.37,16.66-.1,4.35,1.47,6.9,20.37,20.27,24.55,32.14c0,0,9,14.15,10.88,20.13a125.09,125.09,0,0,0,5.25,13.09s2.46,7.3,9.34,6.45,20.24-6.77,22.44-7,8.31-2.59,15.82-2.13,19.64,7.14,26.82,12.82,23.25,11.52,23.25,11.52S480,557.36,475,582.5s-38.6,50.84-38.6,50.84S386.64,680,382.1,679.91c-3.83-.06-14.3,7.32-26.39,6.69l-.85-.06c-.16,0-.34,0-.5,0-.49,0-1-.1-1.46-.18a27.41,27.41,0,0,1-4-1c-14.83-4.88-47.64-10-48.54-9.44s-27.49,3.38-41.59,9.68-77.34,13-78.49,12.39S105,694.85,90.8,685.92c0,0,81.72-43.91,68.7-112.06-2.26-11.81-4.38-22.26-6.34-31.45-8.31-38.85-13.82-55.31-15-58.54h0c12.28-10.94,8.75-25.38,3.69-37.13C139.49,441.2,134.3,438.9,128.83,438.16Zm267-103.86c3.14,1.88,1.13-2.24-2.46-6.12,2.51-24.13-13.15-21.81-13.15-21.81-21.7-3.66-47.29,23.79-48,24.59h0S389.36,330.42,395.83,334.3ZM313.16,200.14c.77-2.6-15.24-16-49.7,14.78,0,0,46.7,5.43,53.07,1.08C316.53,216,312.38,202.73,313.16,200.14Z"/><path class="cls-1" d="M414.89,134c5.48,23.92-3.8,26.44-8.82,30s-4.55,7.51-4.55,7.51c7.06,34.1-14.34,53.36-14.34,53.36a42.51,42.51,0,0,0-3.61-5.17c5.87-3.32,4.14-23.12,4.14-23.12s8.63-19.66-.91-24.26h0c-.2-.45-6.82-15.07-6.57-16.75s-9.2-12.23-9.2-12.23.73-8.21-5.07-17.48c-1.26-2-4.31-4.31-8.32-6.64,0,0,29.08-10,32.88-25.64,5.92.54,8.76,6,8.76,6s3.21,20.49,3.51,21S414.89,134,414.89,134Z"/><path class="cls-1" d="M390.51,93.58c-3.8,15.68-32.88,25.64-32.88,25.64a167.33,167.33,0,0,0-19-9.09s23.12-5.23,23.26-21.31c0,0,.08-5.22,7.22-2.43s14.1,3.8,19.87-1.92l.53-.54A14.67,14.67,0,0,1,390.51,93.58Z"/><path class="cls-1" d="M393.37,328.18c3.59,3.88,5.6,8,2.46,6.12-6.47-3.88-63.65-3.33-63.65-3.33h0c45.28-13.54,48.65-6.88,48.65-6.88,2.69-3.36,7.23-.94,10.88,2.45C392.3,327.06,392.85,327.62,393.37,328.18Z"/><path class="cls-1" d="M386.8,172.33c9.54,4.6.91,24.26.91,24.26s1.73,19.8-4.14,23.12c-4.36-5.72-11.08-14-11.08-14-10.83-38.41,13.93-33.45,14.3-33.38Z"/><path class="cls-1" d="M380.22,306.37s15.66-2.32,13.15,21.81c-.52-.56-1.07-1.12-1.64-1.65-3.65-3.39-8.19-5.81-10.88-2.45,0,0-3.37-6.66-48.65,6.88C332.93,330.16,358.52,302.71,380.22,306.37Z"/><path class="cls-1" d="M352.9,686.31c.49.08,1,.14,1.46.18-1.9,1.59-34.46,2.51-46.56.79-6.92-1-30.19,8.08-37.31,11.44s-59,14.21-80.8,17-96.43,1.59-99.9-10.85,1-19,1-19c14.15,8.93,88.3,11.47,89.45,12.05s64.39-6.09,78.49-12.39,40.69-9.08,41.59-9.68,33.71,4.56,48.54,9.44A27.41,27.41,0,0,0,352.9,686.31Z"/><path class="cls-1" d="M263.46,214.92c34.46-30.78,50.47-17.38,49.7-14.78S316.53,216,316.53,216C310.16,220.35,263.46,214.92,263.46,214.92Z"/><path class="cls-1" d="M138.19,483.86h0c1.14,3.23,6.65,19.69,15,58.54,0,0-34,3.2-50.83-43,0,0-8.47-17.95-16.39-14.22s-18.36-23.84-18.09-36.27c17.73,13.18,43.23-6.63,43.09-9.18,0,0,9.28-2.7,17.89-1.54,5.47.74,10.66,3,13,8.57C146.94,458.48,150.47,472.92,138.19,483.86Z"/><path class="cls-2" d="M357.57,283s-.73-11.56,27.82-5.92"/><path class="cls-2" d="M351.91,256.45s-22.53,16.51,3.58,33.09"/><path class="cls-2" d="M332.18,331s57.18-.55,63.65,3.33c3.14,1.88,1.13-2.24-2.46-6.12-.52-.56-1.07-1.12-1.64-1.65-3.65-3.39-8.19-5.81-10.88-2.45,0,0-3.37-6.66-48.65,6.88"/><path class="cls-2" d="M362,350.67s18-9.05,27.81,6.24"/><path class="cls-2" d="M332.18,331h0c.73-.8,26.32-28.25,48-24.59,0,0,15.66-2.32,13.15,21.81"/><path class="cls-2" d="M347.42,192.85s12.31,14.18,4.07,26.33"/><path class="cls-2" d="M241.43,187.33s51.16-50,104.54-18.73"/><path class="cls-2" d="M256.32,207.38s24-23.25,45.9-24.37,17,28.89,20.69,28.65"/><path class="cls-2" d="M263.46,214.92s46.7,5.43,53.07,1.08c0,0-4.15-13.27-3.37-15.86S297.92,184.14,263.46,214.92Z"/><path class="cls-2" d="M386.8,172.33h0c-.37-.07-25.13-5-14.3,33.38,0,0,6.72,8.29,11.08,14a42.51,42.51,0,0,1,3.61,5.17c2.58,7.48,7.75,15.46,19.35,31.22,8.35,11.34-.56,21.86-9.77,29.09a113.94,113.94,0,0,1-9.93,6.8"/><path class="cls-2" d="M316.67,101.77s10.55,3.59,21.95,8.36a167.33,167.33,0,0,1,19,9.09c4,2.33,7.06,4.62,8.32,6.64,5.8,9.27,5.07,17.48,5.07,17.48s9.45,10.53,9.2,12.23,6.37,16.3,6.57,16.75"/><path class="cls-2" d="M383.57,219.71c5.87-3.32,4.14-23.12,4.14-23.12s8.63-19.66-.91-24.26"/><path class="cls-2" d="M396.75,285.18h0c.17.46,6.74,18,4.45,20.95s-1.06,30.08-1.06,30.08,0,25.32-2.38,27.49,8.65,28.42,1.47,37.57-12.57,16.26-22.31,19.57-16.37,16.66-16.37,16.66-.1,4.35,1.47,6.9,20.37,20.27,24.55,32.14c0,0,9,14.15,10.88,20.13a125.09,125.09,0,0,0,5.25,13.09s2.46,7.3,9.34,6.45,20.24-6.77,22.44-7,8.31-2.59,15.82-2.13,19.64,7.14,26.82,12.82,23.25,11.52,23.25,11.52S480,557.36,475,582.5s-38.6,50.84-38.6,50.84S386.64,680,382.1,679.91c-3.83-.06-14.3,7.32-26.39,6.69l-.85-.06c-.16,0-.34,0-.5,0-.49,0-1-.1-1.46-.18a27.41,27.41,0,0,1-4-1c-14.83-4.88-47.64-10-48.54-9.44s-27.49,3.38-41.59,9.68-77.34,13-78.49,12.39S105,694.85,90.8,685.92c0,0-4.48,6.51-1,19s78.05,13.65,99.9,10.85,73.7-13.63,80.8-17,30.39-12.41,37.31-11.44c12.1,1.72,44.66.8,46.56-.79"/><path class="cls-2" d="M273.24,554.86S304,646.21,320,638.13"/><path class="cls-2" d="M346,509.6s-2.05,51.6-20.77,67.65"/><path class="cls-2" d="M254.52,594s22.78,41.15,4.18,55.44"/><path class="cls-2" d="M215.93,405.81s94,42.7,130.52,27.46"/><path class="cls-2" d="M149.09,342.6s.08.29.26.81c1.71,5.08,11.77,32.7,31.92,39.91"/><path class="cls-2" d="M138.19,483.86l-.22-.61"/><path class="cls-2" d="M90.8,685.92S172.52,642,159.5,573.86c-2.26-11.81-4.38-22.26-6.34-31.45-8.31-38.85-13.82-55.31-15-58.54"/><path class="cls-2" d="M387.18,224.88s21.4-19.26,14.34-53.36c0,0-.46-3.94,4.55-7.51s14.3-6.09,8.82-30c0,0-11.8-13-12.11-13.46s-3.51-21-3.51-21-2.84-5.42-8.76-6l-.21,0"/><path class="cls-2" d="M389.33,83.57c.06.12.12.24.17.36a14.67,14.67,0,0,1,1,9.65c-3.8,15.68-32.88,25.64-32.88,25.64"/><path class="cls-2" d="M304.36,40.71s29.53-20.78,49.55,5.87c0,0,11,24.3-8.36,33.94"/><path class="cls-2" d="M281.48,72.63s2.37,22.13,21.69,16.91S319,72,319,72"/><path class="cls-2" d="M278.51,106.63c4.66,2.32,11.66,3.55,22,1,25.19-6.19,31.46-18.85,27.54-28.22"/><path class="cls-2" d="M270,97.71a17.12,17.12,0,0,0,8.52,8.91"/><path class="cls-2" d="M338.62,110.13s23.12-5.23,23.26-21.31c0,0,.08-5.22,7.22-2.43s14.1,3.8,19.87-1.92l.53-.54c5.15-5.46,4-9.7,4-9.7l-2.28-10.71a11.6,11.6,0,0,0,1.74-4.38c.1-1.84-1.6-9.27-3.09-10.54s-16-23.73-33.95-18.91c0,0,10-6.64,6.12-20.41S333,4,328.85,4.42,309.53-2.9,297,3.53s-19.23,15.4-25.37,15.13l-9.58,1.8s-13.23-2.66-16.71-1.31S230.81,19.58,212,32.7L184,39.4s-5,1.8-7,5.39l-11.56,2.83S151.65,45.43,141,50s-18.7,17.85-28.12,21.08-19.08,7.47-27.78,10-22.49,13.78-21.76,25.8c0,0-6.19,9.4-7,9.44S9.06,158.78,9.05,188.73c0,0-3.87,2.71,3,38.61,0,0-5.8,29.06-9.52,35S1.3,312.28,15,321c0,0-8,20.82,14.68,33.84,0,0,17.79,5.62,21.93,10.23s.78,21.41-.55,22.31-2.46,13.76,8.6,16.49c0,0-9.54,31.82,8.19,45s43.23-6.63,43.09-9.18,8.78-7.84,7.77-25.94"/><path class="cls-2" d="M153.16,542.41s-34,3.2-50.83-43c0,0-8.47-17.95-16.39-14.22s-18.36-23.84-18.09-36.27"/><path class="cls-2" d="M110.94,439.7s9.28-2.7,17.89-1.54c5.47.74,10.66,3,13,8.57,5.06,11.75,8.59,26.19-3.69,37.13h0a41.83,41.83,0,0,1-10.12,6.43"/><path class="cls-2" d="M278.51,106.62h0c-.21.52-9.06,22.35-37.74,20.27"/><path class="cls-2" d="M245.93,108.09s1.39,19.94-16.08,24.82c-5.5,1.54-12.88,1.58-22.76-1"/><path class="cls-2" d="M267.38,130.93v0c-.21.46-3.48,7.81-4.42,9s-27.48,10.42-33.11-7.07"/><path class="cls-2" d="M185.49,130.73s-.61,38.58,29.79,33.87c0,0,21.33,6.57,32.64-4.13S263,140,263,140l4.42-9"/><path class="cls-2" d="M107.17,177.91s8.49.14,8.33-15.53,12.19-48.81,57-37.18"/><path class="cls-2" d="M133.58,190.11s8.21-5.3,10.22-19.92,7.37-26.69,30.33-22.41"/><path class="cls-2" d="M188.81,210.1c21.06-1.31,22.25-23.08,16.65-35.3s-23.57-14.56-23.57-14.56"/><path class="cls-2" d="M177.61,188.14s6.77,2,7.91,6.52,8.58,19.57-5.46,25.71"/><path class="cls-2" d="M168.43,205.53s12.67,4,11.6,21.34-48.92,41.18-51.61,9.44"/><path class="cls-2" d="M157.89,267c-.72,3.3,40.49-3.85,22.14-40.17"/><path class="cls-2" d="M163.42,279.8c-.12,3,10.85,2.24,18.59-3.93,6.66-5.33,10.94-14.69,3.65-29.19"/><path class="cls-2" d="M182,275.86h0c.34.16,11.32,5.8,13,13.26s1.74,9.51,1.74,9.51-2.79,12.59-15,11.66c0,0,4.53-14.38-8.16-19.26"/><path class="cls-2" d="M76.09,207.09s2.15,10.07,15.49,11.44c10,1,23.49-2.53,27.65-13.72,1.41-3.76,1.75-8.38.55-14"/><path class="cls-2" d="M178.2,157.15s-6.85,2.09-8.92,12.63-11.49,33.39-19.91,36.87-17.27,10.93-30.14-1.84"/><path class="cls-2" d="M129.24,241.21s-26.8-9.68-44.61,6-11.87,39.42-11.87,39.42S71.63,316.15,97,331.84a9.23,9.23,0,0,0,2,1.68c3.44,2.25,11.72,5.67,28.16,2.58,0,0,9.37,6.39,15.39,7.89a13.51,13.51,0,0,0,6.83-.58c5.19-1.54,10.34-4.81,10.46-5.65.2-1.22,9.09-9.65-1.64-25.19"/><path class="cls-2" d="M141.2,276.1s-1.59,6.49,1.27,11.57,7.36,7.93,3.18,13.44c0,0-10.19.27-11.93,1.52s-14.66,5.16-16,4.42-15.64-8.08-8.66-24.12"/><path class="cls-2" d="M125.45,315.08S101.51,324,91,300c0,0-6.35-24.3-4.58-28.53s-3.32-10,9.07-17.38,18.18-3.87,18.18-3.87,6.8,4.06,8.05,7.13,3.78,17.79,3.78,17.79"/><path class="cls-2" d="M67.59,362.74s4.09,6.84,20-1c0,0,10.49-7.55,12.61-17.77,0,0,.83-8.8-1.19-10.47"/><path class="cls-2" d="M88.23,379.35s13.21,14.36,37.76-3.5c0,0,10.18-6.19,4.21-30.59,0,0-5.88-8.65-7.18-8.49"/><path class="cls-2" d="M17.39,272.52s14.18,28.32,31.16.79"/><path class="cls-2" d="M16.49,294.36S20.07,307.58,33,306s14.95-2.24,20.73-8.63,3.59-13,3.59-13"/><path class="cls-2" d="M128.83,438.16s17-7.18,5-32.35c0,0,4.1-1.7,4.18-7.49s-3.29-15.46-3.29-15.46-3.15-6.19-8.76-7"/></g></g></g></svg>