<svg xmlns="http://www.w3.org/2000/svg" viewBox="0 0 646.11 1027.52"><defs><style>.cls-1{fill:none;stroke:#736357;stroke-miterlimit:10;stroke-width:1.66px;}.cls-2{fill:#fff;}.cls-3,.cls-4{fill:#736357;}.cls-4{font-size:72px;font-family:PingFang-TC-Semibold-B5pc-H, PingFang TC;letter-spacing:0.1em;}.cls-5{font-size:48px;fill:#998675;font-family:HiraKakuProN-W3-90ms-RKSJ-H, Hiragino Kaku Gothic Pro;letter-spacing:0.42em;}.cls-6{letter-spacing:0.1em;}.cls-7{letter-spacing:-0.4em;}.cls-8{letter-spacing:0.1em;}.cls-9{letter-spacing:0.08em;}.cls-10{letter-spacing:0.09em;}</style></defs><g id="Layer_2" data-name="Layer 2"><g id="圖層_2" data-name="圖層 2"><g id="圖層_8" data-name="圖層 8"><rect class="cls-1" x="0.83" y="0.83" width="644.45" height="1025.86" rx="79.2"/><rect class="cls-2" x="16.65" y="22.4" width="612.81" height="975.14" rx="79.2"/><rect class="cls-3" x="253.79" y="958.45" width="144.54" height="9.9" rx="3.57"/></g><text class="cls-4" transform="translate(62.22 139.29)">o內容40%<tspan class="cls-5"><tspan x="0" y="72">	</tspan><tspan class="cls-6" x="36" y="72" xml:space="preserve"> 相關性</tspan><tspan x="0" y="144">	</tspan><tspan class="cls-6" x="36" y="144" xml:space="preserve"> 可行性</tspan><tspan x="0" y="216">	</tspan><tspan class="cls-6" x="36" y="216" xml:space="preserve"> 完整度</tspan><tspan x="0" y="288">	</tspan><tspan class="cls-6" x="36" y="288" xml:space="preserve"> 創新</tspan></tspan><tspan x="0" y="374.4">o技術35%</tspan><tspan class="cls-5"><tspan x="0" y="446.4">	</tspan><tspan class="cls-6" x="36" y="446.4" xml:space="preserve"> 複雜度</tspan><tspan x="0" y="518.4">	</tspan><tspan class="cls-6" x="36" y="518.4" xml:space="preserve"> 功能</tspan></tspan><tspan x="0" y="604.8">o設計25%</tspan><tspan class="cls-5"><tspan x="0" y="676.8">	</tspan><tspan class="cls-6" x="36" y="676.8" xml:space="preserve"> U</tspan><tspan class="cls-7" x="98.69" y="676.8">X</tspan><tspan class="cls-8" x="114.14" y="676.8">（</tspan><tspan class="cls-9" x="166.94" y="676.8">使</tspan><tspan class="cls-10" x="218.93" y="676.8">用</tspan><tspan class="cls-8" x="271.1" y="676.8">者體驗</tspan><tspan class="cls-7" x="429.5" y="676.8">）</tspan><tspan x="0" y="748.8">	</tspan><tspan class="cls-6" x="36" y="748.8" xml:space="preserve"> U</tspan><tspan class="cls-7" x="98.69" y="748.8">I</tspan><tspan class="cls-8" x="91.44" y="748.8">（</tspan><tspan class="cls-9" x="144.24" y="748.8">使</tspan><tspan class="cls-10" x="196.22" y="748.8">用</tspan><tspan class="cls-8" x="248.4" y="748.8">者介面</tspan><tspan class="cls-7" x="406.8" y="748.8">）</tspan></tspan></text></g></g></svg>