<svg xmlns="http://www.w3.org/2000/svg" viewBox="0 0 520.13 214.54"><defs><style>.cls-1,.cls-2,.cls-3,.cls-4{fill:none;stroke:#534741;stroke-miterlimit:10;}.cls-1{stroke-width:0.85px;}.cls-2{stroke-width:0.51px;}.cls-3{stroke-width:0.45px;}</style></defs><g id="Layer_2" data-name="Layer 2"><g id="圖層_2" data-name="圖層 2"><path class="cls-1" d="M484.43.08s6,30.16-17,41.18c0,0,12.4,1.59,17.67,26.93,0,0,2-23.58,11-31.51A9.41,9.41,0,0,1,503,34.14C517.92,34.93,487.63,44.43,484.43.08Z"/><path class="cls-2" d="M507.11,61.4s-.8,22.14-14.09,25.44c0,0,13.23,4.38,14.09,19.31,0,0,3.36-21.55,11.66-19.31C518.77,86.84,507.91,88.11,507.11,61.4Z"/><path class="cls-3" d="M9.42,153.69s.24,22.58-8.18,25.42c0,0,8.07-6.1,16.7,15,0,0-4.35-20.18,8.62-20.22C26.56,173.91,10.44,171,9.42,153.69Z"/><path class="cls-4" d="M49.7,179.67s.21,19.36-6.88,21.8c0,0,6.79-5.23,14,12.88,0,0-3.66-17.31,7.27-17.34C64.14,197,50.56,194.54,49.7,179.67Z"/></g></g></svg>