<svg xmlns="http://www.w3.org/2000/svg" viewBox="0 0 698.03 896.42"><defs><style>.cls-1,.cls-2{fill:none;stroke:#564534;stroke-miterlimit:10;}.cls-2{stroke-width:1.01px;}</style></defs><g id="Layer_2" data-name="Layer 2"><g id="圖層_7" data-name="圖層 7"><path class="cls-1" d="M679.85,482.1c-5,120.29-11.7,282-134,363-90.06,59.67-191.59,41.69-212.36,37.51-174-35-242.5-220.42-254.6-254.4-27.59-77.49-26.54-142.8-25.21-195.17,2-78.07,7.8-307.9,149.59-386.38C276.18,6.33,354.54,22.91,400,32.53c29.68,6.28,130,29.05,204.37,120.82C688.09,256.56,684.26,375.53,679.85,482.1Z"/><path class="cls-1" d="M673,539.29c-31.2,138.84-47.06,209.38-112.9,269.86-77.88,71.53-171.79,79.49-192.16,80.78-24.82,1.57-125.74,8.31-207.61-61.77C99.34,776,81,710.54,66.59,659,57.9,628,44.9,569,53.84,463.58c12.83-151.35,24.25-286,129.86-379.71,20-17.75,99.56-86.21,216-83.28,99.93,2.52,191.28,56.72,242,132.72,33.45,50.1,40.92,97.18,49.45,150.94C707.14,384.89,690,463.34,673,539.29Z"/><path class="cls-2" d="M621.53,580.17c-47.79,135.59-72.07,204.47-144.76,257.27-86,62.45-180.17,59.19-200.55,58-24.84-1.4-125.84-6.72-198.64-86.85C23.39,749,13.13,681.12,5,627.67.18,595.49-5.59,534.73,16,430.05,47.1,279.71,74.73,146,190.93,64.58,212.93,49.17,300.21-10,415.46,6.89c98.9,14.49,183,79.82,224.21,162.17,27.14,54.27,28.86,102.41,30.82,157.38C674.16,429.34,647.67,506,621.53,580.17Z"/></g></g></svg>