<svg xmlns="http://www.w3.org/2000/svg" viewBox="0 0 682.25 893.04"><defs><style>.cls-1,.cls-2{fill:none;stroke:#564534;stroke-miterlimit:10;}.cls-2{stroke-width:1.01px;}</style></defs><g id="Layer_2" data-name="Layer 2"><g id="圖層_7" data-name="圖層 7"><path class="cls-1" d="M679.85,478.72c-5,120.28-11.7,282-134,363-90.06,59.67-191.59,41.68-212.36,37.51-174-35-242.5-220.43-254.6-254.41C51.28,547.37,52.33,482.06,53.66,429.69c2-78.07,7.8-307.91,149.59-386.38C276.18,3,354.54,19.53,400,29.15,429.71,35.43,530,58.2,604.4,150,688.09,253.18,684.26,372.15,679.85,478.72Z"/><path class="cls-2" d="M621.53,576.79c-47.79,135.58-72.07,204.46-144.76,257.27-86,62.45-180.17,59.19-200.55,58-24.84-1.39-125.84-6.71-198.64-86.85C23.39,745.61,13.13,677.74,5,624.29.18,592.11-5.59,531.35,16,426.66,47.1,276.33,74.73,142.62,190.93,61.2c22-15.41,109.28-74.58,224.53-57.7,98.9,14.5,183,79.82,224.21,162.17,27.14,54.28,28.86,102.42,30.82,157.39C674.16,426,647.67,502.63,621.53,576.79Z"/></g></g></svg>