<svg xmlns="http://www.w3.org/2000/svg" viewBox="0 0 1705.66 427.38"><defs><style>.cls-1,.cls-4{fill:#fff;}.cls-2{font-size:70.86px;letter-spacing:0.17em;}.cls-10,.cls-11,.cls-15,.cls-16,.cls-2,.cls-5,.cls-6,.cls-7,.cls-8,.cls-9{fill:#534741;}.cls-10,.cls-2,.cls-8{font-family:HiraKakuProN-W6-90ms-RKSJ-H, Hiragino Kaku Gothic Pro;}.cls-3{fill:#998675;}.cls-4{writing-mode:tb;text-orientation:upright;glyph-orientation-vertical:0deg;font-size:73px;font-family:HiraKakuProN-W5-90ms-RKSJ-H, Hiragino Sans;letter-spacing:0.15em;}.cls-5{font-size:59.87px;}.cls-11,.cls-16,.cls-5,.cls-6,.cls-7,.cls-9{font-family:HiraKakuProN-W3-90ms-RKSJ-H, Hiragino Kaku Gothic Pro;}.cls-6{font-size:48.71px;}.cls-7{font-size:54.25px;}.cls-8{font-size:56.69px;}.cls-9{font-size:52.81px;}.cls-10{font-size:55.47px;}.cls-11{font-size:43.41px;}.cls-12{fill:#ff9d33;}.cls-13{fill:#ffce31;}.cls-14{fill:#ffdf85;}.cls-16{font-size:39.19px;}</style></defs><g id="Layer_2" data-name="Layer 2"><g id="得獎名單"><rect class="cls-1" x="229.26" width="703.79" height="125.26" rx="16.3"/><rect class="cls-1" x="1001.87" width="703.79" height="125.26" rx="16.3"/><rect class="cls-1" x="1001.87" y="151.14" width="703.79" height="273.7" rx="24.1"/><rect class="cls-1" x="229.26" y="151.14" width="703.79" height="125.26" rx="16.3"/><rect class="cls-1" x="229.26" y="302.12" width="703.79" height="125.26" rx="16.3"/><text class="cls-2" transform="translate(269.04 89.77)">1</text><text class="cls-2" transform="translate(269.04 239.48)">2</text><text class="cls-2" transform="translate(269.04 389.19)">3</text><rect class="cls-3" y="1.35" width="159.37" height="424.83" rx="21.23"/><text class="cls-4" transform="translate(80.9 84.87)">基礎組</text><text class="cls-5" transform="translate(476.69 91.19)">Artemis</text><text class="cls-6" transform="translate(391.8 231.88)">母雞抖的神奇黑客松</text><text class="cls-7" transform="translate(441.15 389.19)">Noah&apos;s Ark</text><text class="cls-8" transform="translate(1033.2 88.4)">優勝</text><text class="cls-9" transform="translate(1290.76 85.11)">兼愛非攻</text><text class="cls-10" transform="translate(1041.42 237.82)">佳作</text><text class="cls-11" transform="translate(1240.1 231.88)">為美好的世界獻上肝</text><path class="cls-12" d="M1269.84,300.34a44.86,44.86,0,0,1-5.18,3.87c-.88-5.15-3.33-11.51-8.18-19.28a49.28,49.28,0,0,1-6.87,16.22,33.85,33.85,0,0,1-3.3-6.37c-16.62,16.62-2.84,28.4,5.81,28.4C1263.23,323.18,1273,317.85,1269.84,300.34Z"/><path class="cls-13" d="M1263.31,315.17a22.3,22.3,0,0,0,1.78-8.28,31.09,31.09,0,0,1-3.62,2.58c-.62-3.44-2.33-7.68-5.73-12.86a31.79,31.79,0,0,1-4.81,10.81,21.94,21.94,0,0,1-2.3-4.24c-2.77,4.35-3.84,7.8-3.91,10.49a24.82,24.82,0,0,1-2.46-1c2.61,7.79,8,9.49,10.43,9.49,4.33,0,8.73-1.28,13.09-7.47C1265.78,314.65,1264.82,314.92,1263.31,315.17Z"/><path class="cls-14" d="M1247.5,311.61s1.79,2.44,3.14,1.85a22.65,22.65,0,0,1,6.27-6.25s-.75,6.13.12,7.21c1.16,1.44,4.29-1.6,4.29-1.6,0,3.62-4,8.18-7.5,8.18S1245.32,317.08,1247.5,311.61Z"/><path class="cls-12" d="M1265.26,295.21a29.77,29.77,0,0,0,2.24-3.93c2.24,3.68.92,5.92-.07,6.65C1266.11,298.92,1263.72,297.45,1265.26,295.21Z"/><path class="cls-12" d="M1240.9,294.58a12.81,12.81,0,0,1-1.46-5.05c-3.19,4.81-1.94,7.43-.88,8.22C1240,298.82,1242.4,297.17,1240.9,294.58Z"/><path class="cls-12" d="M1248.32,289.58a7.43,7.43,0,0,0-.47-3.08c3,2,3,3.66,2.6,4.32C1249.92,291.71,1248.13,291.32,1248.32,289.58Z"/><path class="cls-12" d="M1310.64,300.34a44.86,44.86,0,0,1-5.18,3.87c-.88-5.15-3.33-11.51-8.19-19.28a49.12,49.12,0,0,1-6.86,16.22,33.85,33.85,0,0,1-3.3-6.37c-16.62,16.62-2.84,28.4,5.81,28.4C1304,323.18,1313.8,317.85,1310.64,300.34Z"/><path class="cls-13" d="M1304.11,315.17a22.3,22.3,0,0,0,1.78-8.28,32.24,32.24,0,0,1-3.62,2.58c-.62-3.44-2.33-7.68-5.73-12.86a31.79,31.79,0,0,1-4.81,10.81,22.39,22.39,0,0,1-2.31-4.24c-2.76,4.35-3.84,7.8-3.9,10.49a23.55,23.55,0,0,1-2.46-1c2.61,7.79,8,9.49,10.43,9.49,4.33,0,8.73-1.28,13.09-7.47C1306.58,314.65,1305.62,314.92,1304.11,315.17Z"/><path class="cls-14" d="M1288.3,311.61s1.78,2.44,3.14,1.85a22.65,22.65,0,0,1,6.27-6.25s-.76,6.13.12,7.21c1.15,1.44,4.29-1.6,4.29-1.6,0,3.62-4,8.18-7.5,8.18S1286.12,317.08,1288.3,311.61Z"/><path class="cls-12" d="M1306.05,295.21a29.2,29.2,0,0,0,2.25-3.93c2.24,3.68.92,5.92-.07,6.65C1306.91,298.92,1304.51,297.45,1306.05,295.21Z"/><path class="cls-12" d="M1281.7,294.58a12.81,12.81,0,0,1-1.46-5.05c-3.19,4.81-1.94,7.43-.88,8.22C1280.78,298.82,1283.2,297.17,1281.7,294.58Z"/><path class="cls-12" d="M1289.12,289.58a7.43,7.43,0,0,0-.47-3.08c3,2,3,3.66,2.6,4.32C1290.72,291.71,1288.93,291.32,1289.12,289.58Z"/><path class="cls-15" d="M1318.26,318.09a24.77,24.77,0,0,0,.33-4.57V291.61a29.43,29.43,0,0,0-.33-4.65c1.47.08,2.61.12,4.49.12h8.32c6.29,0,9.84,3.22,9.84,8.9,0,6-3.67,9.46-10,9.46h-9.1v8a24.41,24.41,0,0,0,.33,4.61Zm12.61-15.46c4.33,0,6.77-2.33,6.77-6.49s-2.36-6.24-6.77-6.24h-9.1v12.73Z"/><path class="cls-15" d="M1359.55,315.19a10.56,10.56,0,0,1-3.75,2.49,12.08,12.08,0,0,1-4.24.82c-4.49,0-7.23-2.33-7.23-6.2,0-3.27,2-5.63,5.84-6.7,2.41-.69,4.36-.93,9.38-1.06v-2.36c0-2.78-1.75-4.2-5.14-4.2a6.71,6.71,0,0,0-5.06,1.75,5.73,5.73,0,0,0-1.26,2.37l-3.18-.7a8.08,8.08,0,0,1,2.28-3.63c1.67-1.55,4.12-2.32,7.18-2.32,5.39,0,8.16,2.28,8.16,6.69V313.6a25.55,25.55,0,0,0,.33,4.49h-3.31Zm0-8.24c-4.85.12-7.18.41-9,1.19-2.09.85-3.1,2.24-3.1,4.2,0,2.24,1.67,3.67,4.32,3.67a9.2,9.2,0,0,0,6.53-2.9,4.43,4.43,0,0,0,1.26-3.51Z"/><path class="cls-15" d="M1368.49,318.09a26.52,26.52,0,0,0,.32-4.61V300.71a28,28,0,0,0-.32-4.61h3.38v2.77a11.22,11.22,0,0,1-.12,1.76,8.86,8.86,0,0,1,8.24-4.94c2.94,0,5.23,1.06,6.53,3.06a8.27,8.27,0,0,1,1.14,4.69v10.08a27,27,0,0,0,.29,4.57h-3.67a33.59,33.59,0,0,0,.28-4.61V304c0-3.67-1.75-5.63-5-5.63-2.28,0-4.12,1-5.83,3.23a8.73,8.73,0,0,0-1.88,4v7.88a32,32,0,0,0,.29,4.61Z"/><path class="cls-15" d="M1400.43,287.73a37.45,37.45,0,0,0-4,.17v-2.53a32.92,32.92,0,0,0,4.17.24h21.21a28.24,28.24,0,0,0,4-.24v2.53a33.16,33.16,0,0,0-3.92-.17h-10v2.49h12a31.06,31.06,0,0,0,4.48-.2,23.35,23.35,0,0,0-.16,3.1v2.41a13.94,13.94,0,0,0,.25,3.06h-2.66v-6.37h-14v4.9a25.12,25.12,0,0,0,.2,4h-2.94a23.1,23.1,0,0,0,.25-4v-4.9h-13.18v6.37h-2.65a17.93,17.93,0,0,0,.24-3.06v-2.41a24.65,24.65,0,0,0-.16-3.1,30.16,30.16,0,0,0,4.45.2h11.3v-2.49Zm-.57,26.85v2.29h-2.73a22.5,22.5,0,0,0,.24-3.47v-7.55a32.16,32.16,0,0,0-.16-3.63,27.84,27.84,0,0,0,3.51.16h20.56a30.24,30.24,0,0,0,3.72-.16,27.77,27.77,0,0,0-.17,3.63v6a28.24,28.24,0,0,0,.12,2.93,32,32,0,0,0-3.67-.16h-9.42v2.78c0,1,.85,1.1,6.57,1.1,4.85,0,7-.21,7.71-.78.53-.41.69-1.63.73-4.81a10.06,10.06,0,0,0,2.53,1.14c-.08,3.22-.53,4.81-1.55,5.55s-3.47,1.1-9.83,1.1c-7.59,0-8.65-.33-8.65-2.69v-3.39Zm-1.34-20.44a19.87,19.87,0,0,0,2.48.12h3.8a18.63,18.63,0,0,0,2.36-.12v2a13.31,13.31,0,0,0-2.36-.16H1401a14.49,14.49,0,0,0-2.48.16Zm0,3.92a13.35,13.35,0,0,0,2.48.16h3.8a13,13,0,0,0,2.36-.16v2a12.07,12.07,0,0,0-2.36-.17H1401a12.9,12.9,0,0,0-2.48.17Zm1.34,6.32v2.9h9.51v-2.9Zm0,4.86v3.3h9.51v-3.3Zm22.48-2v-2.9h-10.48v2.9Zm0,5.26v-3.3h-10.48v3.3Zm-7.91-18.44a13.4,13.4,0,0,0,2.49.16h4.44a12.86,12.86,0,0,0,2.37-.16v2a13.14,13.14,0,0,0-2.37-.16h-4.44a14,14,0,0,0-2.49.16Zm0,4a13.4,13.4,0,0,0,2.49.16h4.44a13.14,13.14,0,0,0,2.37-.16v2a12.18,12.18,0,0,0-2.37-.17h-4.44a13,13,0,0,0-2.49.17Z"/><path class="cls-15" d="M1442.21,317a33,33,0,0,0,.25,4.4h-3a31.2,31.2,0,0,0,.24-4.4v-12.2a34.54,34.54,0,0,1-5.42,5.06,8.57,8.57,0,0,0-1.43-2.29,32.72,32.72,0,0,0,11.75-14h-7.14a18.33,18.33,0,0,0-3.18.2V291a16.11,16.11,0,0,0,3.06.2h2.32v-3.83a20.79,20.79,0,0,0-.24-3.18h3a16,16,0,0,0-.25,3.22v3.79h2a14.64,14.64,0,0,0,2.33-.12l1.18,1.43a6.29,6.29,0,0,0-.57,1.14,51.54,51.54,0,0,1-4.57,7.51,30,30,0,0,0,5.87,4.94,9.86,9.86,0,0,0-1.3,2.24,29.64,29.64,0,0,1-5-4.61Zm15.26-28.4a32.76,32.76,0,0,0-.24-4.32h2.93a34.73,34.73,0,0,0-.24,4.36v2.08h5.22a31.26,31.26,0,0,0,4-.16,26.38,26.38,0,0,0-.16,3.59v13.59a30.58,30.58,0,0,0,.16,3.71h-2.65V309h-6.57v7.75a36.32,36.32,0,0,0,.24,4.66h-2.93a37.55,37.55,0,0,0,.24-4.57V309h-6v2.65h-2.61a30.67,30.67,0,0,0,.17-3.71V294.1a29.38,29.38,0,0,0-.17-3.59,30.86,30.86,0,0,0,4,.16h4.61Zm-6,4.41v5.59h6V293Zm0,7.79v6h6v-6Zm15.06-2.2V293h-6.61v5.59Zm0,8.2v-6h-6.61v6Z"/><path class="cls-15" d="M1477.42,294.38a18.2,18.2,0,0,0-2.86.17v-2.49a17.05,17.05,0,0,0,2.86.16h1.8v-3.63a24.12,24.12,0,0,0-.21-4.2h2.82a25.32,25.32,0,0,0-.21,4.16v3.67h1.31a15.77,15.77,0,0,0,2.65-.16v2.49a16.71,16.71,0,0,0-2.61-.17h-1.27a24.08,24.08,0,0,0,3.88,8.29,6.72,6.72,0,0,0-1.39,2,32.47,32.47,0,0,1-2.73-6.73c.12,2.4.16,4.28.16,6.08V316.7a32.42,32.42,0,0,0,.25,4.74H1479a36.54,36.54,0,0,0,.25-4.74V305.4c0-1.71.08-3.83.24-6.53a38.48,38.48,0,0,1-4.57,12.12,7.23,7.23,0,0,0-1.55-2.32c2.69-3.92,4.41-8.37,5.59-14.29Zm11.47,9.84c-.74,5.71-1.43,8.57-3,12.12a5,5,0,0,0-2.25-1c2-3.88,2.53-6.29,3-11.67Zm3.87-6H1496a28.9,28.9,0,0,0,3.63-.2v2.65a20,20,0,0,0-3.55-.2h-2.66v17.17c0,2.37-.77,3.06-3.42,3.06a25.79,25.79,0,0,1-2.9-.16,9.85,9.85,0,0,0-.61-2.57,20.42,20.42,0,0,0,3.43.37c.85,0,1.14-.25,1.14-1V300.51h-2a26.37,26.37,0,0,0-4,.24V298a21,21,0,0,0,4,.24h1.43v-9.83a23.76,23.76,0,0,0-.25-3.88H1493a19.53,19.53,0,0,0-.25,3.84v2.08h1.43a20.4,20.4,0,0,0,3.75-.21v2.61a35.25,35.25,0,0,0-3.75-.2h-1.43Zm4.2,5.26a66.08,66.08,0,0,1,2.62,9.55l-2.25.86a42.86,42.86,0,0,0-2.36-9.79Zm10.53-16a21.75,21.75,0,0,0,3.23-.16,25.8,25.8,0,0,0-.33,3.22c-.65,7.71-1.88,12.93-4.33,18.52a26.24,26.24,0,0,0,6.45,9.47,8.91,8.91,0,0,0-1.67,2.49,34.08,34.08,0,0,1-6-9.22,32.5,32.5,0,0,1-6.73,9.14,7.49,7.49,0,0,0-1.92-2.17,26.18,26.18,0,0,0,7.47-9.83,46.79,46.79,0,0,1-2.62-10.08,64.18,64.18,0,0,1-.89-9.05,15.67,15.67,0,0,0-2.08.12v-2.65a24.77,24.77,0,0,0,3.42.2Zm-5.06,2.28a61.58,61.58,0,0,0,2.49,16.12c1.76-4.57,2.65-9.22,3.14-16.12Z"/><path class="cls-15" d="M1533.28,287.16a11.06,11.06,0,0,0-.25-3h3.1a11.22,11.22,0,0,0-.24,3v1h11.3a27.84,27.84,0,0,0,4.45-.24v2.81a35.77,35.77,0,0,0-4.45-.2h-26.6c0,11.47-.37,17.18-1.27,21.91a25.52,25.52,0,0,1-2.94,8.4,7.85,7.85,0,0,0-2.12-1.87,16.62,16.62,0,0,0,2.41-5.92c.94-4.08,1.3-9.55,1.3-19.66,0-2.74,0-4.21-.16-5.43a31.52,31.52,0,0,0,4.12.2h11.35Zm-5.55,8.37a20.14,20.14,0,0,0-.21-3.55h2.82a18,18,0,0,0-.21,3.55v2h1.39a25,25,0,0,0,3.26-.21v2.61a27,27,0,0,0-3.14-.2h-1.3c2.08,3.55,2.81,4.49,5.1,6.45a8.6,8.6,0,0,0-1.47,2.12,23.6,23.6,0,0,1-4-6.41c.12,1.92.2,4.45.2,6.12v9a29.78,29.78,0,0,0,.25,4.45h-2.9a24.22,24.22,0,0,0,.25-4.45v-8.12c0-1.19.12-4.41.24-6.49a32.49,32.49,0,0,1-6.81,13.3,7.43,7.43,0,0,0-1.72-2.16c3.47-3.43,6-7.83,8.12-13.79h-2.73a21.1,21.1,0,0,0-3.14.2v-2.61a15.81,15.81,0,0,0,3.18.21h2.86Zm11.5,4.16a30.23,30.23,0,0,0-3.22.2v-2.61a22.47,22.47,0,0,0,3.43.21h1.47v-1.23a30.27,30.27,0,0,0-.21-4.28h2.82a27.07,27.07,0,0,0-.21,4.24v1.27h4.21a16.34,16.34,0,0,0,3.38-.25v2.69a19.41,19.41,0,0,0-3.34-.24h-4c2.49,6,5.18,10,9.18,13.67a7.82,7.82,0,0,0-1.63,2.28c-3.92-4.4-5.47-7-8.08-13.54.16,2.81.16,2.81.24,6.36V317a23,23,0,0,0,.25,4.41h-2.9a23.7,23.7,0,0,0,.25-4.45v-8c0-1.47.08-4.16.2-6.32a34.33,34.33,0,0,1-7.55,13.18,6.66,6.66,0,0,0-1.75-2,36,36,0,0,0,8.81-14.12Z"/><path class="cls-12" d="M1590.31,300.34a45.2,45.2,0,0,1-5.17,3.87c-.89-5.15-3.34-11.51-8.19-19.28a49,49,0,0,1-6.87,16.22,34.12,34.12,0,0,1-3.29-6.37c-16.62,16.62-2.84,28.4,5.81,28.4C1583.71,323.18,1593.48,317.85,1590.31,300.34Z"/><path class="cls-13" d="M1583.79,315.17a22.5,22.5,0,0,0,1.78-8.28,32.24,32.24,0,0,1-3.62,2.58c-.62-3.44-2.34-7.68-5.73-12.86a31.79,31.79,0,0,1-4.81,10.81,21.7,21.7,0,0,1-2.31-4.24c-2.76,4.35-3.84,7.8-3.9,10.49a23.55,23.55,0,0,1-2.46-1c2.61,7.79,8,9.49,10.43,9.49,4.32,0,8.73-1.28,13.09-7.47C1586.26,314.65,1585.3,314.92,1583.79,315.17Z"/><path class="cls-14" d="M1568,311.61s1.78,2.44,3.14,1.85a22.65,22.65,0,0,1,6.27-6.25s-.76,6.13.11,7.21c1.16,1.44,4.3-1.6,4.3-1.6,0,3.62-4,8.18-7.5,8.18S1565.8,317.08,1568,311.61Z"/><path class="cls-12" d="M1585.73,295.21a29.2,29.2,0,0,0,2.25-3.93c2.23,3.68.91,5.92-.07,6.65C1586.59,298.92,1584.19,297.45,1585.73,295.21Z"/><path class="cls-12" d="M1561.37,294.58a12.9,12.9,0,0,1-1.45-5.05c-3.19,4.81-1.94,7.43-.88,8.22C1560.46,298.82,1562.88,297.17,1561.37,294.58Z"/><path class="cls-12" d="M1568.8,289.58a7.43,7.43,0,0,0-.47-3.08c3,2,3,3.66,2.6,4.32C1570.39,291.71,1568.61,291.32,1568.8,289.58Z"/><path class="cls-12" d="M1631.11,300.34a45.2,45.2,0,0,1-5.17,3.87c-.89-5.15-3.34-11.51-8.19-19.28a49,49,0,0,1-6.87,16.22,34.12,34.12,0,0,1-3.29-6.37c-16.62,16.62-2.85,28.4,5.81,28.4C1624.51,323.18,1634.28,317.85,1631.11,300.34Z"/><path class="cls-13" d="M1624.59,315.17a22.5,22.5,0,0,0,1.78-8.28,32.24,32.24,0,0,1-3.62,2.58c-.62-3.44-2.34-7.68-5.73-12.86a31.79,31.79,0,0,1-4.81,10.81,21.7,21.7,0,0,1-2.31-4.24c-2.76,4.35-3.84,7.8-3.9,10.49a24.47,24.47,0,0,1-2.47-1c2.62,7.79,8,9.49,10.44,9.49,4.32,0,8.73-1.28,13.09-7.47C1627.06,314.65,1626.1,314.92,1624.59,315.17Z"/><path class="cls-14" d="M1608.78,311.61s1.78,2.44,3.14,1.85a22.49,22.49,0,0,1,6.27-6.25s-.76,6.13.11,7.21c1.16,1.44,4.3-1.6,4.3-1.6,0,3.62-4,8.18-7.5,8.18S1606.6,317.08,1608.78,311.61Z"/><path class="cls-12" d="M1626.53,295.21a29.2,29.2,0,0,0,2.25-3.93c2.23,3.68.91,5.92-.07,6.65C1627.39,298.92,1625,297.45,1626.53,295.21Z"/><path class="cls-12" d="M1602.17,294.58a12.9,12.9,0,0,1-1.45-5.05c-3.19,4.81-1.94,7.43-.88,8.22C1601.26,298.82,1603.68,297.17,1602.17,294.58Z"/><path class="cls-12" d="M1609.6,289.58a7.43,7.43,0,0,0-.47-3.08c3,2,3,3.66,2.59,4.32C1611.19,291.71,1609.41,291.32,1609.6,289.58Z"/><text class="cls-16" transform="translate(1331.27 389.19)">usapnayn</text></g></g></svg>