<svg xmlns="http://www.w3.org/2000/svg" viewBox="0 0 117.65 106.77"><defs><style>.cls-1{fill:#fff;}</style></defs><g id="Layer_2" data-name="Layer 2"><g id="圖層_1" data-name="圖層 1"><path class="cls-1" d="M115.6,93.23,96.7,35Q91.21,18,85.73,1.13A9.15,9.15,0,0,1,85.48,0h-.87a8.45,8.45,0,0,1-.84.19c-1.48.15-3,.28-4.46.42l-12,1.19L55.27,2.94c-4.26.41-8.52.8-12.77,1.26a7.13,7.13,0,0,0-2.27.6c-4.5,2.11-9,4.29-13.46,6.4A3.35,3.35,0,0,0,25.05,13L9.23,48.38Q4.94,58,.66,67.55c-.23.5-.41,1-.66,1.65l14.62.48c-1.12,2.43-2.17,4.7-3.21,7S9.29,81.2,8.24,83.48,6.12,88,5.08,90.32,3,94.82,1.93,97.18c.64.08,1.13.14,1.62.18L10,98l10.5,1,10.05,1,10.32,1,10.14,1,12.15,1.18c4.05.39,8.11.76,12.16,1.16s8,.79,12.06,1.18l12.42,1.23a7.83,7.83,0,0,0,4.3-.5l13.53-6.46v-.19q-1-3.15-2.05-6.31M42.69,7.6a1.14,1.14,0,0,1,.81-.39c2.77-.27,5.54-.5,8.3-.75l10.85-1,8.83-.79,3.06-.28A4.56,4.56,0,0,1,76,4.44a6.65,6.65,0,0,1-.58.33L70.61,7a9,9,0,0,1-3.07.73c-4.16.4-8.33.81-12.5,1.2L41.94,10.2a2.48,2.48,0,0,1-.45,0c.41-.9.75-1.75,1.2-2.55m-3.15,6.85a1.36,1.36,0,0,1,1.33-1c5.71-.5,11.43-1,17.14-1.55l8.58-.78c1.23-.1,1.29,0,1.69,1.18q6.57,20.43,13.16,40.88,6.3,19.57,12.62,39.16c.1.31.18.63.3,1.06L21.68,86.86,34.65,59l-14.78-.4a2.17,2.17,0,0,1,.35-1.2q2.49-5.57,5-11.13,7.05-15.68,14.1-31.33c.06-.16.16-.32.22-.49m-.86-5.37c-.27,1.32-.44,1.5-1.5,1.59l-1.6.13a1.94,1.94,0,0,0,0-.2l3.15-1.52M5.78,63.26l-.12-.12c.11-.27.21-.54.34-.81q10.34-23,20.69-46c.13-.28.27-.55.39-.82a1.52,1.52,0,0,1,1.26-.85l7.88-.69a1.88,1.88,0,0,1,.37.07c-.15.35-.26.67-.41,1L22.86,44.78c-1.81,4-3.63,8.07-5.4,12.11A2.9,2.9,0,0,1,16,58.43c-3.17,1.49-6.31,3-9.47,4.52l-.71.31M8.7,66.5a9.31,9.31,0,0,1-.95-.09,6.21,6.21,0,0,1,.59-.4c2.87-1.37,5.72-2.75,8.6-4.09a3.91,3.91,0,0,1,1.61-.37c2.13,0,4.27.12,6.41.2.22,0,.44.06.82.12-.33.19-.51.32-.71.42q-4.26,2-8.53,4.05a3.06,3.06,0,0,1-1.25.3c-2.2,0-4.4-.08-6.59-.14m-1,24.93c.17-.42.26-.67.37-.9q4.62-9.9,9.22-19.82a2.81,2.81,0,0,1,1.45-1.47c3.08-1.45,6.15-2.93,9.22-4.41.26-.12.52-.22.92-.38-.17.42-.28.7-.4,1Q24,75.21,19.43,85a3.09,3.09,0,0,1-1.56,1.62c-3.13,1.47-6.26,3-9.38,4.48-.18.09-.38.16-.76.33m89.56,11.43-88.18-8a6,6,0,0,1,.6-.42c3.08-1.48,6.16-2.93,9.23-4.41a3.1,3.1,0,0,1,1.72-.27l6.73.62,8.48.83,10.32,1,8.21.8,10.41,1,8.31.79,10.58,1,8.22.79,3,.31a.82.82,0,0,1,.81.57c.54,1.68,1.09,3.36,1.62,5,0,.06,0,.12,0,.29m4.46.54c-.64-2-1.26-3.9-2-6l11.61,1.11,0,.23-9.69,4.63M111.23,95l-11.46-1c-1.13-.1-1.13-.09-1.48-1.16Q85.09,52.15,71.91,11.51c-.1-.31-.19-.62-.31-1L83.07,5.05l29,89.93c-.33,0-.58,0-.82,0"/><path class="cls-1" d="M47.48,36.72a8.34,8.34,0,0,0,0,16.67"/><path class="cls-1" d="M47.48,53.39a8.34,8.34,0,0,0,0-16.67"/></g></g></svg>