<svg xmlns="http://www.w3.org/2000/svg" viewBox="0 0 249.16 260.09"><defs><style>.cls-1{fill:#514c42;}</style></defs><g id="Layer_2" data-name="Layer 2"><g id="圖層_16" data-name="圖層 16"><path class="cls-1" d="M25.67,90.84c4.59-.83,8.74,2.32,11.76,5.4s5.64,7,9,10.07,7.56,5.16,12.27,4.87c5.15-.31,9.87-2.81,15-3.08a23.1,23.1,0,0,1,15.15,4.74v-3a51.17,51.17,0,0,0-16.5,11.57,53.13,53.13,0,0,0-6.26,8,11,11,0,0,1-3.35,3.81A21,21,0,0,1,58,135a47.09,47.09,0,0,0-27.47,23.65,45.51,45.51,0,0,0-5,20.09l1.3-1.7c-4.89,2-9.34-2.34-12.26-5.78-4-4.74-7.56-10-11.29-14.94a1.82,1.82,0,0,0-2.42-.63,1.78,1.78,0,0,0-.63,2.42l6.45,8.6c2,2.68,3.93,5.48,6.19,8,3.66,4,9.22,8.14,14.9,5.78a1.86,1.86,0,0,0,1.3-1.71,43.69,43.69,0,0,1,14.29-31.24,41,41,0,0,1,15.2-9c3.15-1,6.36-1.9,8.56-4.53s3.68-5.53,5.85-8.08a48.93,48.93,0,0,1,17.65-13.08c1.36-.59.92-2.35,0-3a26.21,26.21,0,0,0-13.88-5.19c-5.37-.41-10.14,1.5-15.28,2.62A13.51,13.51,0,0,1,54,107a15.63,15.63,0,0,1-5.32-3.46c-3.42-3.18-6-7.16-9.31-10.4-4-3.83-9-6.76-14.62-5.73-2.23.41-1.29,3.82.94,3.41Z"/><path class="cls-1" d="M62.05,172a15.69,15.69,0,0,0-13,7,14.91,14.91,0,0,0-1.53,14.34c1.94,4.72,5.55,8.39,8.72,12.28a29.36,29.36,0,0,1,4.11,6.31,26.5,26.5,0,0,1,2,8.55c.63,6.7.12,13.61,2.46,20a1.78,1.78,0,0,0,3.41,0A124.31,124.31,0,0,1,87,204.19c3.68-5,7.79-11.29,5.76-17.8-1.7-5.41-7-8.47-12.15-9.88-6.72-1.83-14.24-.82-20.42-4.47a1.77,1.77,0,0,0-1.79,3.06c5.58,3.29,12,3.15,18.22,4.16,4.58.75,10,2.52,12.27,7,2.9,5.68-1.85,12-5.07,16.37a131.21,131.21,0,0,0-10.54,16.55,121.88,121.88,0,0,0-8.5,20.42h3.41c-1.93-5.32-1.81-11-2.14-16.57s-1.19-10.81-4.14-15.5c-4.43-7.06-14.85-14.23-11.44-23.75a12.4,12.4,0,0,1,11.55-8.22c2.28.05,2.28-3.49,0-3.54Z"/><path class="cls-1" d="M62.93,79.77c1,3.58,2.17,7.32,4.75,10.12a9.31,9.31,0,0,0,8.89,2.87c3-.64,5.62-3,5.69-6.23.07-3.86-3.31-6.47-6.56-7.76-3.49-1.38-8-1-10.84-3.81a1.77,1.77,0,0,0-2.5,2.51c2.43,2.42,5.76,3.1,9,3.78,2.49.52,5.53,1.32,6.91,3.62a3.24,3.24,0,0,1,.45,1.33,3.37,3.37,0,0,1,0,.55s-.06.34,0,.09c0,.12,0,.23-.09.35s-.21.49-.08.23a3.32,3.32,0,0,1-1.9,1.64,5.49,5.49,0,0,1-5.92-1.15c-2.51-2.35-3.47-5.89-4.37-9.08-.61-2.19-4-1.26-3.41.94Z"/><path class="cls-1" d="M98.09,108.84l.59,10a1.77,1.77,0,0,0,3.54,0l-.59-10a1.77,1.77,0,1,0-3.54,0Z"/><path class="cls-1" d="M92.62,51.62c-23.78-3.93-47.08,9-62.93,25.89A110.55,110.55,0,0,0,2.26,132c-3.92,20.19-2.51,41.57,5.18,60.73,7.79,19.38,21.68,35.82,38.86,47.6A112.4,112.4,0,0,0,104.22,260a102.51,102.51,0,0,0,58.84-15.78,114.31,114.31,0,0,0,41.25-45.06c10.3-20.43,14.64-45.19,8.13-67.46-6.68-22.87-23.71-41.76-42.79-55.35a142.55,142.55,0,0,0-65.78-25.27,135.09,135.09,0,0,0-17.18-.92c-2.27,0-2.28,3.56,0,3.53a138.08,138.08,0,0,1,66.39,16.53c20,10.76,38.31,26.66,49.35,46.71a75,75,0,0,1,9.46,34.73,95.32,95.32,0,0,1-5.19,32.76,109.19,109.19,0,0,1-33.57,48.18c-15.24,12.69-34.15,21.33-54,23.43a105.23,105.23,0,0,1-57.86-11c-17.89-9-33.46-22.79-43.8-40S2.78,167.87,3.82,148A110.24,110.24,0,0,1,22.69,91.83C34.8,74.13,53.41,59,74.94,55.2A49.78,49.78,0,0,1,91.68,55c2.23.37,3.18-3,.94-3.41Z"/><path class="cls-1" d="M84.43,58.33c5.77,4.41,7.93,12,9.94,18.61s4.26,13.43,9.19,18.4a17.8,17.8,0,0,0,9.33,5.07A24,24,0,0,0,125,99.18c7.89-2.73,14.38-8.43,22.33-11,4.21-1.34,9.06-1.35,12.66-4.18,3-2.38,4.81-6.76,2.67-10.3-1.17-1.95-4.23-.17-3.05,1.79,1.65,2.74-1.18,5.71-3.56,6.77-3.42,1.52-7.35,1.64-10.88,2.92-7.3,2.66-13.4,7.78-20.7,10.4-3.5,1.26-7.37,2.08-11.08,1.3a14.83,14.83,0,0,1-8-4.84c-4.28-4.78-6.08-11.19-7.91-17.18-2.24-7.34-4.93-14.81-11.23-19.63a1.78,1.78,0,0,0-2.42.64,1.81,1.81,0,0,0,.63,2.42Z"/><path class="cls-1" d="M185.88,89.74c-5.79-.33-10.53,3.57-14.32,7.51-2.17,2.27-4.27,4.62-6.39,6.94a23.9,23.9,0,0,0-5.07,7.33,10.09,10.09,0,0,0,.2,8.13A8.81,8.81,0,0,0,166,124a32.58,32.58,0,0,0,7.64.67,50,50,0,0,1,9.66,1.41c6.78,1.5,14,2.94,20.48-.44,2-1,.23-4.11-1.79-3-4.84,2.52-10.54,1.64-15.64.54-2.88-.62-5.74-1.31-8.66-1.69-2.42-.32-4.83-.27-7.26-.39-1.92-.09-4.12-.27-5.72-1.48-1.8-1.35-2.13-3.73-1.62-5.81a15,15,0,0,1,3.74-6.1c1.93-2.18,3.92-4.3,5.89-6.44,3.44-3.73,7.64-8.22,13.15-7.9,2.28.13,2.27-3.4,0-3.54Z"/><path class="cls-1" d="M211.05,148.07c-6-1.72-11.43,1.7-15.9,5.27a44.3,44.3,0,0,1-6.81,4.89,18.46,18.46,0,0,1-7.25,2c-10.19.76-20.87-3.9-30.79,0a19,19,0,0,0-10.46,24.48,64.85,64.85,0,0,0,4.18,7.85,33.23,33.23,0,0,1,3.47,8.22c1.51,5.79,1.53,11.81,1.7,17.75.17,6.31.13,13.39,3.49,19,3,5,9.44,8.15,15,5.38,2-1,.25-4.06-1.78-3-4.46,2.21-9.15-1.68-10.94-5.55-2.21-4.82-2.1-10.58-2.25-15.76-.15-5.62-.23-11.28-1.38-16.8a34.52,34.52,0,0,0-2.67-8c-1.16-2.42-2.64-4.66-3.93-7-2.33-4.21-3.49-8.55-2.09-13.28a15.36,15.36,0,0,1,8.34-9.7c4.24-1.87,9-1.71,13.54-1.28,4.84.47,9.66,1.38,14.54,1.33a25.91,25.91,0,0,0,7.83-1.15,25.61,25.61,0,0,0,7.6-4.29c4.34-3.36,9.56-8.63,15.61-6.88,2.19.64,3.12-2.77.94-3.41Z"/><path class="cls-1" d="M114.56,108.38l.57,9.57a1.77,1.77,0,1,0,3.54,0l-.57-9.57a1.81,1.81,0,0,0-1.77-1.77,1.79,1.79,0,0,0-1.77,1.77Z"/><path class="cls-1" d="M88.11,137.46c3.67,7.48,8.53,15.25,17,17.81,8.06,2.44,15.71-2.08,20.17-8.66,2.77-4.09,4.39-8.84,5.9-13.5.71-2.17-2.71-3.1-3.41-.94-2.19,6.77-4.83,14.25-11.2,18.2a12.57,12.57,0,0,1-9.55,1.74,18,18,0,0,1-9-5.57,45.25,45.25,0,0,1-6.83-10.87c-1-2-4-.25-3,1.79Z"/><path class="cls-1" d="M204.56,39.91a46.42,46.42,0,0,1-9.95-18.7,45.15,45.15,0,0,1-1.52-10.33c-.05-1.37-.19-3.11.57-4.33s2-.8,2.91,0a9.46,9.46,0,0,1,2.76,4.71,21.82,21.82,0,0,1,1,6.72h3.54a35.55,35.55,0,0,1,1.77-12.38c.53-1.41,1.48-2.32,3-1.94a4.67,4.67,0,0,1,3.1,3.22c1.2,3.4,1.08,7.47.82,11a43.1,43.1,0,0,1-2.37,11,42.57,42.57,0,0,1-6.06,11.19,1.79,1.79,0,0,0,.63,2.43,1.82,1.82,0,0,0,2.42-.64,45.86,45.86,0,0,0,9-25.47c.17-4.16.19-9.42-2.23-13C211.75,0,206.57-1.51,203.67,2c-1.61,1.94-2.09,4.72-2.53,7.13a47.46,47.46,0,0,0-.79,8.83c0,2.27,3.55,2.28,3.54,0,0-4.45-1-9.6-3.95-13.06a7.05,7.05,0,0,0-5-2.66,5.1,5.1,0,0,0-4.49,2.84,12,12,0,0,0-.9,5.83,49.3,49.3,0,0,0,.62,6.42,50.1,50.1,0,0,0,11.88,25.11c1.51,1.71,4-.8,2.51-2.5Z"/><path class="cls-1" d="M235.53,105.91a53.68,53.68,0,0,1-8.86-21.27c-.57-3.15-1.27-6.9-.41-10.06.26-1,.74-2.16,1.81-2.41s1.88.67,2.39,1.51a14.45,14.45,0,0,1,1.58,4.9l1.4,7.6c.36,1.94,3.65,1.52,3.48-.47a18.73,18.73,0,0,1,2.68-11.55c.6-1,2-3.54,3.43-2.83,1.19.58,1.75,2.39,2,3.58a33.92,33.92,0,0,1,.26,11.59,40.18,40.18,0,0,1-3.11,11.08,39.45,39.45,0,0,1-7.27,11c-1.56,1.66.94,4.17,2.5,2.51a43.66,43.66,0,0,0,11.51-25.32,41.29,41.29,0,0,0,.12-7.12,20.38,20.38,0,0,0-1.19-6.43A7.06,7.06,0,0,0,244,67.91c-2.32-.82-4.46.47-5.9,2.24a21.92,21.92,0,0,0-4.74,15.56l3.47-.47c-.48-2.62-1-5.23-1.45-7.85a16.89,16.89,0,0,0-1.73-5.22c-1.77-3.18-5.74-4.93-8.76-2.2-2.76,2.5-2.65,6.85-2.36,10.24a56.07,56.07,0,0,0,9.92,27.48c1.3,1.85,4.37.09,3.06-1.78Z"/></g></g></svg>