<svg xmlns="http://www.w3.org/2000/svg" viewBox="0 0 849.58 208.16"><defs><style>.cls-1{fill:none;stroke:#998675;stroke-miterlimit:10;stroke-width:0.8px;}.cls-2{fill:#998675;}</style></defs><g id="Layer_2" data-name="Layer 2"><g id="圖層_2" data-name="圖層 2"><g id="圖層_5" data-name="圖層 5"><polygon class="cls-1" points="31.66 6.2 31.66 20.99 43.48 20.99 37.57 33.34 48.13 21.33 48.13 0.4 31.66 0.4 31.66 6.2"/><polygon class="cls-2" points="0 6.2 0 20.99 11.82 20.99 5.91 33.34 16.48 21.33 16.48 0.4 0 0.4 0 6.2"/><polygon class="cls-1" points="817.93 201.97 817.93 187.18 806.1 187.18 812.01 174.83 801.45 186.83 801.45 207.76 817.93 207.76 817.93 201.97"/><polygon class="cls-2" points="849.58 201.97 849.58 187.18 837.76 187.18 843.67 174.83 833.11 186.83 833.11 207.76 849.58 207.76 849.58 201.97"/></g></g></g></svg>