<svg xmlns="http://www.w3.org/2000/svg" viewBox="0 0 1429.02 424.57"><defs><style>.cls-1{font-size:75px;fill:#736357;letter-spacing:0.04em;}.cls-1,.cls-14,.cls-21,.cls-28{font-family:PingFang-TC-Regular-B5pc-H, PingFang TC;}.cls-2{letter-spacing:0.04em;}.cls-3{letter-spacing:0.04em;}.cls-4{letter-spacing:0.05em;}.cls-5{letter-spacing:0.04em;}.cls-6{letter-spacing:0.04em;}.cls-7{letter-spacing:0.05em;}.cls-8{letter-spacing:0.04em;}.cls-9{letter-spacing:0.04em;}.cls-10{letter-spacing:0.05em;}.cls-11,.cls-12,.cls-13{fill:none;stroke-miterlimit:10;}.cls-11{stroke:#534741;}.cls-12,.cls-13{stroke:#998675;}.cls-12{stroke-width:2px;}.cls-13{stroke-width:1.5px;}.cls-14,.cls-21,.cls-28{font-size:32px;fill:#534741;}.cls-14{letter-spacing:0.04em;}.cls-15{letter-spacing:0.04em;}.cls-16{letter-spacing:0.04em;}.cls-17{letter-spacing:0.04em;}.cls-18{letter-spacing:0.04em;}.cls-19{letter-spacing:0.04em;}.cls-20{letter-spacing:0.04em;}.cls-21{letter-spacing:0.04em;}.cls-22{letter-spacing:0.04em;}.cls-23{letter-spacing:0.04em;}.cls-24{letter-spacing:0.04em;}.cls-25{letter-spacing:0.04em;}.cls-26{letter-spacing:0.04em;}.cls-27{letter-spacing:0.04em;}.cls-28{letter-spacing:0.03em;}.cls-29{letter-spacing:0.04em;}.cls-30{letter-spacing:0.04em;}.cls-31{letter-spacing:0.04em;}</style></defs><g id="Layer_2" data-name="Layer 2"><g id="圖層_2" data-name="圖層 2"><text class="cls-1" transform="translate(557.15 178.12)">最<tspan class="cls-2" x="78.07" y="0">佳</tspan><tspan class="cls-3" x="156.21" y="0">人</tspan><tspan class="cls-4" x="234.29" y="0">氣</tspan></text><text class="cls-1" transform="translate(168.5 178.12)">最<tspan class="cls-5" x="78.07" y="0">佳</tspan><tspan class="cls-6" x="156.2" y="0">創</tspan><tspan class="cls-7" x="234.02" y="0">新</tspan></text><text class="cls-1" transform="translate(945.74 178.12)">最<tspan class="cls-8" x="78.07" y="0">佳</tspan><tspan class="cls-9" x="156.1" y="0">設</tspan><tspan class="cls-10" x="234.29" y="0">計</tspan></text><rect class="cls-11" x="541.48" y="3.09" width="342.32" height="342.32"/><rect class="cls-11" x="151.62" y="3.09" width="342.32" height="342.32"/><rect class="cls-11" x="926.06" y="0.5" width="342.32" height="342.32"/><line class="cls-12" x1="493.95" y1="184.85" x2="541.48" y2="184.85"/><line class="cls-13" x1="883.8" y1="174.25" x2="926.06" y2="174.25"/><line class="cls-12" x1="1268.39" y1="171.66" x2="1429.02" y2="171.66"/><line class="cls-12" x1="151.62" y1="184.85" y2="184.85"/><text class="cls-14" transform="translate(583.14 236.41)">參<tspan class="cls-15" x="33.31" y="0">賽</tspan><tspan class="cls-16" x="66.57" y="0">票選</tspan><tspan class="cls-17" x="133.12" y="0">最</tspan><tspan class="cls-18" x="166.36" y="0">高</tspan><tspan class="cls-19" x="199.62" y="0">分</tspan><tspan class="cls-20" x="232.95" y="0">者</tspan></text><text class="cls-21" transform="translate(967.96 236.41)">技<tspan class="cls-22" x="33.37" y="0">術</tspan><tspan class="cls-23" x="66.69" y="0">及</tspan><tspan class="cls-24" x="99.92" y="0">設</tspan><tspan class="cls-25" x="133.28" y="0">計</tspan><tspan class="cls-26" x="166.54" y="0">最</tspan><tspan class="cls-27" x="199.85" y="0">佳</tspan><tspan class="cls-20" x="233.16" y="0">者</tspan></text><text class="cls-28" transform="translate(204.88 236.41)">內<tspan class="cls-29" x="33.07" y="0">容最</tspan><tspan class="cls-30" x="99.55" y="0">具</tspan><tspan class="cls-31" x="132.86" y="0">創</tspan><tspan class="cls-22" x="166.02" y="0">意</tspan><tspan class="cls-20" x="199.34" y="0">者</tspan></text></g></g></svg>