<svg xmlns="http://www.w3.org/2000/svg" viewBox="0 0 739.43 724.1"><defs><style>.cls-1{font-size:65.66px;stroke-width:0.9px;letter-spacing:0.13em;}.cls-1,.cls-2,.cls-3{fill:#514c43;font-family:PingFangTC-Thin, PingFang TC;font-weight:200;}.cls-1,.cls-2,.cls-3,.cls-4,.cls-5,.cls-6,.cls-7,.cls-8{stroke:#514c43;}.cls-1,.cls-11,.cls-2,.cls-3,.cls-4,.cls-5,.cls-6,.cls-7,.cls-8,.cls-9{stroke-miterlimit:10;}.cls-2{font-size:63.74px;stroke-width:0.87px;letter-spacing:0.13em;}.cls-3{font-size:61.83px;stroke-width:0.84px;letter-spacing:0.13em;}.cls-11,.cls-4,.cls-5,.cls-6,.cls-7,.cls-8,.cls-9{fill:none;}.cls-4{stroke-width:3.06px;}.cls-4,.cls-5{opacity:0.47;}.cls-5,.cls-7{stroke-width:2px;}.cls-6{stroke-width:2.97px;}.cls-6,.cls-7,.cls-8{opacity:0.45;}.cls-8{stroke-width:2.76px;}.cls-9{stroke:#514c42;stroke-width:3.97px;}.cls-10{fill:#514c42;}.cls-11{stroke:#534741;stroke-width:3.37px;}</style></defs><g id="Layer_2" data-name="Layer 2"><g id="圖層_2" data-name="圖層 2"><text class="cls-1" transform="translate(228.54 276.03)">創造</text><text class="cls-2" transform="translate(488.46 561.19)">合作</text><text class="cls-3" transform="translate(121.96 664.1)">程式設計</text><path class="cls-4" d="M515.18,259.6a178,178,0,1,1,78,347.29"/><path class="cls-5" d="M521.45,259.6A178,178,0,1,1,599.4,606.89"/><path class="cls-6" d="M260.48,698.5A172.59,172.59,0,1,1,94.09,396.08"/><path class="cls-7" d="M256.81,701.7A172.59,172.59,0,0,1,90.42,399.28"/><path class="cls-8" d="M372.67,296.78A160.3,160.3,0,1,1,210,20.5"/><path class="cls-7" d="M369.11,299.37A160.3,160.3,0,1,1,206.45,23.09"/><path class="cls-4" d="M461.27,586.49a178,178,0,0,1-61-244.18"/><path class="cls-6" d="M176.54,370.53A172.58,172.58,0,0,1,344.41,547.71"/><path class="cls-8" d="M335.29,1.32A160.3,160.3,0,0,1,441.61,201.54"/></g><g id="圖層_16" data-name="圖層 16"><path class="cls-9" d="M266.45,165.9a39.74,39.74,0,0,0-4.84-20.72c-3.63-6.36-7.57-8.55-12.54-13.73a66.77,66.77,0,0,1-15.67-28.1c-.87-3.3-6.18-24.8,6.75-44,14.91-22.11,41.89-23.06,47-23.24C292,36,319.45,35,336.12,56.37a53.11,53.11,0,0,1,10.42,39.84,71.27,71.27,0,0,1-18.27,36.36c-2.95,3-6.41,6.34-9.19,12.39a40.38,40.38,0,0,0-3.23,20.38c-7.55.79-15.83,1.33-24.75,1.43S274,166.52,266.45,165.9Z"/><path class="cls-9" d="M264.7,172.88a139.47,139.47,0,0,0,27.53,2.25,140,140,0,0,0,25.57-2.81"/><path class="cls-9" d="M264.7,181.25a140.33,140.33,0,0,0,27.53,2.24,141,141,0,0,0,25.57-2.8"/><path class="cls-9" d="M271.24,182.44c1.42,11,10.14,19.2,20.19,19.14s18.84-8.66,19.83-19.86"/><path class="cls-10" d="M279.78,166.17a133.08,133.08,0,0,0,.94-35.6c-1.31-11.86-4.53-23.35-7.4-34.89-1.22-4.94-2.62-10-5.87-14a14.14,14.14,0,0,0-11.95-5.37,10.08,10.08,0,0,0-9,8.55,13.5,13.5,0,0,0,4.88,12.47c4.15,3.52,9.35,4.86,14.64,5.53,6,.76,12,1.18,18,1.57a158.31,158.31,0,0,0,18.09.35c5.37-.25,10.86-1.06,15.63-3.67a18.69,18.69,0,0,0,9-10.86,12.3,12.3,0,0,0-3-12.3c-2.85-2.85-7.3-4.52-11.24-3.13-4.49,1.58-6.67,6.06-7.66,10.41A165.93,165.93,0,0,0,302.43,102q-1.11,9-1.89,18.08-1.55,18.22-1.66,36.54,0,4.43,0,8.84c0,2.56,4,2.56,4,0a467.79,467.79,0,0,1,3.8-65.65C307.31,95,307.73,90,309,85.27c.85-3.15,2.7-6.9,6.46-6.94a8.34,8.34,0,0,1,7.37,5.13c1.49,3.67-.21,8-2.69,10.75-6.55,7.4-18.16,6.91-27.17,6.7-5.47-.13-10.94-.53-16.39-1s-10.8-.6-15.93-2.09c-3.9-1.13-7.86-3.43-9.63-7.26-1.42-3.1-.93-7.57,2.2-9.45s7.24-.55,9.77,1.66c3.35,2.92,4.79,7.41,5.89,11.57,1.37,5.12,2.57,10.28,3.84,15.43s2.52,10.34,3.34,15.62a128.79,128.79,0,0,1,.89,31.93c-.25,2.61-.59,5.2-1,7.79a2,2,0,0,0,1.39,2.44,2,2,0,0,0,2.44-1.39Z"/><path class="cls-10" d="M603,347c-11.65,8.54-26.73,5.43-40.13,4.9-2.24-.09-2.23,3.39,0,3.48,14,.56,29.68,3.57,41.89-5.38,1.79-1.31,0-4.32-1.76-3Z"/><path class="cls-10" d="M511.15,427.9c2.23-1.38,7.33-2.62,8.4.84.52,1.67-.07,3.95-.48,5.61a23.08,23.08,0,0,1-1.94,5.11,39.92,39.92,0,0,1-6.73,9c-2.67,2.8-5.48,5.86-8.86,7.8-4,2.27-8.53,2.75-12.62.52-2-1.07-3.72,1.93-1.75,3a15.81,15.81,0,0,0,14.21.44c4.37-1.91,7.81-5.5,11.07-8.87a42.53,42.53,0,0,0,8.18-11.17,26.49,26.49,0,0,0,2.11-6.43c.43-2.36.78-4.87-.28-7.11-2.3-4.85-9.25-4.14-13.07-1.78-1.9,1.18-.15,4.18,1.76,3Z"/><path class="cls-10" d="M522.21,437.07a15.34,15.34,0,0,1,7.21-1.44c1.63.06,4.45.28,5.29,2,.94,1.93-1,4.6-1.92,6.18-1.2,2-2.47,4.06-3.81,6a92.39,92.39,0,0,1-9.46,11.61c-3.16,3.29-6.8,6.52-11.49,7.19a9.14,9.14,0,0,1-6.88-1.51,5.41,5.41,0,0,1-2.25-5.3c.53-2.18-2.82-3.1-3.35-.93-1.3,5.37,3.2,10.18,8.28,11.08,6.05,1.08,11.59-1.85,15.91-5.85a86,86,0,0,0,11.74-13.8c1.78-2.55,3.45-5.18,5-7.9,1.3-2.31,2.57-5.09,1.6-7.76-1.09-3-4.4-4.05-7.31-4.38a19.1,19.1,0,0,0-10.28,1.81c-2,1-.26,4,1.75,3Z"/><path class="cls-10" d="M536.09,446.53a8.41,8.41,0,0,1,3.25-.87c.52,0,2-.15,2.41.27s.34,2.33.26,3a11.57,11.57,0,0,1-.79,2.89,33,33,0,0,1-3.32,5.84c-1.17,1.79-2.35,3.58-3.67,5.27a27.57,27.57,0,0,1-9.69,8.06c-2.86,1.33-7.88,1.88-9.29-1.86-.79-2.07-4.15-1.17-3.36.92a8.82,8.82,0,0,0,8.78,5.47c4.41-.21,8.41-2.81,11.68-5.6,3.47-3,6.07-6.72,8.56-10.51,2.35-3.58,5-7.7,4.6-12.18-.2-2.46-1.15-4.42-3.78-4.84a12.08,12.08,0,0,0-7.4,1.18c-2,1-.24,4,1.76,3Z"/><path class="cls-10" d="M509.39,425c-5,3.32-8.89,7.69-12.67,12.26-3.62,4.4-7.29,8.79-12.14,11.89-1.88,1.2-.14,4.21,1.76,3,9.91-6.35,15-17.63,24.8-24.14,1.86-1.24.12-4.25-1.75-3Z"/><path class="cls-10" d="M487,448.8c-2.53.24-5.14-1.2-5.39-3.95-.29-3.12,1.29-6.31,3-8.77a40.65,40.65,0,0,1,7.34-7.43c1.47-1.23,3-2.42,4.5-3.6a18.21,18.21,0,0,1,4.19-2.79,6.18,6.18,0,0,1,4.89-.3,2.41,2.41,0,0,1,1,2.15c0,1-.14,2-.07,3,.13,2.22,3.61,2.24,3.47,0s.4-4.58-1-6.72c-1.17-1.77-3.54-2.41-5.57-2.3-4.65.26-8.06,3.45-11.52,6.21-6.2,4.93-14.22,11.7-13.71,20.53a8.09,8.09,0,0,0,8.87,7.43c2.21-.21,2.23-3.69,0-3.48Z"/><path class="cls-10" d="M492.45,423.55q-12.63-14.18-26.38-27.3c-1.62-1.55-4.08.91-2.46,2.45Q477.35,411.83,490,426c1.49,1.68,3.95-.79,2.46-2.46Z"/><path class="cls-10" d="M493.68,362c7.72-2.69,15.48-5.29,23.4-7.33,3.77-1,7.59-1.88,11.41-2.61A26.19,26.19,0,0,1,540,352c2.17.56,3.09-2.79.92-3.36-7.8-2-16.26.56-23.85,2.47-8.24,2.07-16.3,4.77-24.32,7.57-2.1.73-1.2,4.09.92,3.35Z"/><path class="cls-10" d="M549.89,355.28c-7.95,4.41-14.71,10.72-20.53,17.63A135.6,135.6,0,0,0,521,384.05a87.61,87.61,0,0,0-7,11.55c-1.9,4.06-3.37,9.42-1,13.61,1.86,3.31,5.72,4.52,9.28,4.74,9.2.58,17.25-5.29,23.41-11.5,6.8-6.86,12.65-15.57,22-19.21,2.06-.8,1.16-4.16-.93-3.35-7.84,3.05-13.52,9.17-19,15.28s-11.61,12.7-19.85,14.78c-3.18.81-7.32,1.05-10.22-.78-3.47-2.2-2.44-7.21-1.23-10.42,1.5-3.94,4.07-7.59,6.37-11.1s4.89-7.16,7.62-10.53c6-7.39,12.9-14.19,21.26-18.83,2-1.09.21-4.1-1.75-3Z"/><path class="cls-10" d="M537.94,351.18a95.46,95.46,0,0,1,15.39,4.94,1.76,1.76,0,0,0,2.14-1.22,1.8,1.8,0,0,0-1.22-2.14,94.33,94.33,0,0,0-15.38-4.93c-2.18-.5-3.11,2.86-.93,3.35Z"/><path class="cls-10" d="M540.31,465.39c3.48,3.21,6.91,6.49,10.47,9.62,2.94,2.58,6.36,5,10.43,5,3.76,0,7.38-2.11,8.34-5.92,1.06-4.24-1.13-8.14-3.64-11.38a92.43,92.43,0,0,0-10.45-11.3c-1.65-1.52-4.11.94-2.46,2.46a93.63,93.63,0,0,1,7.89,8.17c2.18,2.54,5,5.52,5.42,9,.38,3.29-1.89,5.49-5.1,5.49s-6.09-2.25-8.44-4.36c-3.37-3-6.67-6.13-10-9.2-1.65-1.51-4.11.94-2.46,2.46Z"/><path class="cls-10" d="M561.66,462.16c2.3,3.48,6,5.54,9.7,7.33,2.12,1,4.43,1.85,6.81,1.33a7.1,7.1,0,0,0,4.08-2.76c5.62-7.55-2.68-15.44-7.43-20.7L563.1,434.41c-1.51-1.66-4,.8-2.46,2.46l8.54,9.44c2.7,3,5.51,5.9,8.09,9,1.9,2.29,3.84,5.26,3.18,8.37a5.34,5.34,0,0,1-1.78,3.16c-1.33,1-3,.69-4.48.12a34,34,0,0,1-5.25-2.73,13,13,0,0,1-4.28-3.83c-1.22-1.86-4.23-.12-3,1.76Z"/><path class="cls-10" d="M574.32,450.63l6.82,7.22c1.85,2,3.67,4.2,6.06,5.52,4.45,2.46,10,.62,12.82-3.39,3.11-4.38,2.69-10.22.68-14.94-2.17-5.09-5.94-9.54-9.72-13.52a148.85,148.85,0,0,0-14.57-12.91,1.81,1.81,0,0,0-2.46,0,1.75,1.75,0,0,0,0,2.46c7.72,6.21,15.68,12.71,21.2,21.05,2.5,3.79,4.53,8.38,3.32,13-1,3.75-5,7.23-9,5.51-2.44-1-4.26-3.53-6-5.41l-6.65-7c-1.54-1.63-4,.83-2.46,2.46Z"/><path class="cls-10" d="M570.06,393.27c.69.64,1.39,1.27,2.09,1.89a1.23,1.23,0,0,0,.56.36,1.27,1.27,0,0,0,.67.15,1.29,1.29,0,0,0,.67-.15,1.35,1.35,0,0,0,.56-.36,1.76,1.76,0,0,0,.51-1.23,1.78,1.78,0,0,0-.51-1.23l-2.09-1.88a1.82,1.82,0,0,0-1.23-.51,1.29,1.29,0,0,0-.67.15,1.35,1.35,0,0,0-.56.36,1.76,1.76,0,0,0-.51,1.23,1.73,1.73,0,0,0,.51,1.22Z"/><path class="cls-10" d="M562.41,385.81q3.14,3.24,6.42,6.32a1.74,1.74,0,1,0,2.45-2.46q-3.27-3.09-6.41-6.32a1.77,1.77,0,0,0-2.46,0,1.79,1.79,0,0,0,0,2.46Z"/><path class="cls-10" d="M569.39,392.24c4.68,5.75,10.82,10,16.93,14.07,6.73,4.51,13.23,9.29,19.66,14.22a1.75,1.75,0,0,0,2.38-.62,1.79,1.79,0,0,0-.63-2.38c-6.31-4.84-12.69-9.56-19.31-14-6-4-12-8.12-16.57-13.76-1.41-1.74-3.86.73-2.46,2.45Z"/><path class="cls-10" d="M561.17,436.89c2.33,2.91,5.28,5.19,8,7.67a55.55,55.55,0,0,1,7.74,8.48,1.8,1.8,0,0,0,2.38.62,1.75,1.75,0,0,0,.62-2.38,60.35,60.35,0,0,0-8.06-9c-2.82-2.55-5.87-4.87-8.25-7.86a1.76,1.76,0,0,0-2.46,0,1.78,1.78,0,0,0,0,2.46Z"/><path class="cls-10" d="M609.32,419.17l5.87-10.74A105.8,105.8,0,0,1,621.07,398c2.15-3.06,5.72-5,8.73-7.11l10.26-7.2c1.82-1.28.09-4.3-1.75-3L627.84,388c-3.22,2.25-6.84,4.34-9.26,7.51s-4.13,7-6.05,10.51l-6.21,11.37c-1.07,2,1.93,3.73,3,1.76Z"/><path class="cls-10" d="M606.14,420.07a41.79,41.79,0,0,1,5.31,9.06c1.38,3.27,2.82,7.23,2.1,10.82-.61,3-2.74,5.4-6,5.26-3.51-.15-6.26-2.81-8.58-5.16a1.74,1.74,0,0,0-2.46,2.46c3,3,6.4,5.88,10.83,6.17a9.08,9.08,0,0,0,9-6c1.65-4.14.54-8.78-.93-12.8a43.55,43.55,0,0,0-6.3-11.53,1.8,1.8,0,0,0-2.38-.62,1.75,1.75,0,0,0-.62,2.38Z"/><path class="cls-10" d="M537.43,462l3.54,3.66a1.79,1.79,0,0,0,1.23.5,1.72,1.72,0,0,0,1.73-1.73,1.82,1.82,0,0,0-.51-1.23l-3.53-3.66a1.78,1.78,0,0,0-1.23-.51,1.76,1.76,0,0,0-1.23.51,1.78,1.78,0,0,0-.51,1.23,1.82,1.82,0,0,0,.51,1.23Z"/><path class="cls-10" d="M484.8,449.46a10,10,0,0,0,2.31,10.24,1.76,1.76,0,0,0,2.46,0,1.78,1.78,0,0,0,0-2.46,3.88,3.88,0,0,1-.39-.42c-.06-.06-.11-.13-.16-.19s.17.25,0,.05a10.67,10.67,0,0,1-.57-.91c-.09-.16-.17-.34-.26-.51s.11.3,0,.07l-.09-.24a9.78,9.78,0,0,1-.32-1.09l-.09-.5c0-.24,0,.33,0,.09s0-.21,0-.32a7.63,7.63,0,0,1,0-1.07,2.11,2.11,0,0,1,0-.25c0-.05,0-.34,0-.08s0-.09,0-.15a2,2,0,0,1,0-.24,6,6,0,0,1,.32-1.1,1.75,1.75,0,0,0-1.22-2.13,1.78,1.78,0,0,0-2.14,1.21Z"/><path class="cls-10" d="M551.54,358.58c4.88-3.06,10.86-2.91,16.4-2.77,2.24.06,2.24-3.42,0-3.47-6.16-.16-12.75-.16-18.15,3.23-1.9,1.19-.15,4.2,1.75,3Z"/><path class="cls-10" d="M594.73,441.08l2.57,2.06a1.29,1.29,0,0,0,.56.36,1.27,1.27,0,0,0,.67.15,1.79,1.79,0,0,0,1.23-.51,1.75,1.75,0,0,0,.51-1.22,1.68,1.68,0,0,0-.51-1.23l-2.57-2.07a1.94,1.94,0,0,0-1.23-.51,1.74,1.74,0,0,0-1.74,1.74,1.7,1.7,0,0,0,.51,1.23Z"/><rect class="cls-11" x="107.68" y="445.43" width="126.47" height="98.98" rx="6.08"/><rect class="cls-11" x="115.31" y="451.4" width="111.21" height="87.04" rx="6.08"/><path class="cls-11" d="M251.29,571.34,92,571c-1.16.21-1.9.1-2.21-.3q-2.23-2.88,23.59-26h115q27.82,22.51,25.47,26C253.48,571.24,252.63,571.45,251.29,571.34Z"/></g></g></svg>