<svg xmlns="http://www.w3.org/2000/svg" viewBox="0 0 1092.47 952.21"><defs><style>.cls-1{fill:#fff;stroke-width:5.22px;}.cls-1,.cls-4{stroke:#534741;}.cls-1,.cls-2,.cls-4,.cls-6,.cls-7,.cls-8{stroke-miterlimit:10;}.cls-2{font-size:70px;stroke-width:0.64px;font-family:DFYa-W3-WIN-BF, DFYaW3-B5;letter-spacing:0.18em;}.cls-2,.cls-5{fill:#736357;}.cls-2,.cls-6,.cls-7,.cls-8{stroke:#514c43;}.cls-3{letter-spacing:-0.32em;}.cls-4,.cls-6,.cls-7,.cls-8{fill:none;}.cls-4{stroke-width:2.79px;}.cls-5{font-size:140px;font-family:HiraKakuProN-W6-90ms-RKSJ-H, Hiragino Kaku Gothic Pro;letter-spacing:0.38em;}.cls-7{stroke-width:0.64px;}.cls-8{stroke-width:0.64px;}</style></defs><g id="Layer_2" data-name="Layer 2"><g id="名人講座"><path class="cls-1" d="M131.58,24l958.19,3.28-26.72,728.19s-14,164.8-81.41,194.09L34.21,946.36S77.41,909.6,107.61,735c0,0,16.6-132.81,16.71-164.79S131.58,24,131.58,24Z"/><path class="cls-1" d="M104.43,2.62,1062.62,5.9,1035.9,734.09s-14,164.79-81.41,194.09L7.06,924.94s43.2-36.76,73.4-211.35c0,0,16.6-132.8,16.71-164.79S104.43,2.62,104.43,2.62Z"/><text class="cls-2" transform="translate(197.47 583.35) rotate(-5.21) scale(0.81 1)">站在巨人的肩膀上看世界<tspan class="cls-3" x="904.75" y="0">，</tspan><tspan x="0" y="98">透過分享開拓學員的視野</tspan></text><line class="cls-4" x1="206.27" y1="300.98" x2="1004.3" y2="300.98"/><text class="cls-5" transform="translate(192.94 225.59) scale(1.04 1)">名人講座</text><path class="cls-6" d="M97.28,570.8s46.63-111,263.48-138"/><path class="cls-6" d="M441.8,414.39s192.73-23.95,231.05-23.23"/><path class="cls-6" d="M796.21,386.32s214.61-19.39,250.41,92.4"/><path class="cls-6" d="M1043.07,583.79S891,784.32,618.26,800.09"/><path class="cls-6" d="M87.92,709.65s296.14,144.53,833.49,13.82"/><path class="cls-6" d="M796.43,368.84s214.62-19.39,250.42,92.4"/><path class="cls-7" d="M87.92,735s772.78-99.13,849.94-88.37"/><path class="cls-8" d="M142.2,737.24s754.88-99.12,830.25-88.37"/></g></g></svg>