<svg xmlns="http://www.w3.org/2000/svg" viewBox="0 0 798.88 253.19"><defs><style>.cls-1{fill:#998675;}.cls-2{opacity:0.53;}</style></defs><g id="Layer_2" data-name="Layer 2"><g id="名人講座"><path class="cls-1" d="M176.11,17.23c22.3-19.95,52.08-23,66.52-6.88S250.7,55.76,228.4,75.7L83,205.69c-13.38,12-31.25,13.81-39.91,4.12s-4.84-27.24,8.53-39.21L164.72,69.5c4.46-4,10.42-4.6,13.31-1.37s1.61,9.08-2.85,13.06L62.12,182.3c-4.46,4-5.73,9.84-2.84,13.07S68.12,198,72.58,194L217.94,64c13.38-12,17.2-29.52,8.54-39.2S199.94,17,186.56,28.92l-145.35,130C18.91,178.85,12.54,208.1,27,224.25s44.23,13.07,66.53-6.87l113.05-101.1c4.46-4,10.42-4.61,13.31-1.38S221.47,124,217,128L104,229.07C72.73,257,31,261.3,10.82,238.69S-.47,175.13,30.75,147.21Z"/><g class="cls-2"><path class="cls-1" d="M521.71,142.3c-28.86-7.86-47.64-31.18-41.94-52.08s33.71-31.46,62.57-23.6L730.48,117.9c17.32,4.72,28.59,18.71,25.17,31.25S735.42,168,718.1,163.31L571.77,123.43c-5.77-1.58-9.53-6.24-8.39-10.42s6.75-6.29,12.52-4.72l146.33,39.88c5.77,1.57,11.38-.54,12.51-4.72s-2.61-8.84-8.38-10.42L538.22,81.76C520.9,77,504.09,83.38,500.67,95.92s7.85,26.53,25.17,31.25L714,178.44c28.86,7.87,56.88-2.69,62.57-23.59s-13.08-44.22-41.94-52.09L588.27,62.88c-5.77-1.57-9.52-6.24-8.39-10.42s6.75-6.29,12.52-4.72L738.73,87.63c40.41,11,66.7,43.65,58.73,72.91s-47.2,44.05-87.61,33Z"/></g></g></g></svg>