<svg xmlns="http://www.w3.org/2000/svg" viewBox="0 0 2380.6 1306.75"><defs><style>.cls-1{opacity:0.09;}.cls-2{fill:#998675;}.cls-3{opacity:0.06;}</style></defs><g id="Layer_2" data-name="Layer 2"><g id="名人講座"><g class="cls-1"><path class="cls-2" d="M1436,781.55c-86.66-68.77-116.55-175.39-66.76-238.14s160.42-57.87,247.09,10.9l564.92,448.27c52,41.26,69.93,105.23,40.05,142.88s-96.25,34.73-148.25-6.54L1633.71,790.27c-17.33-13.75-23.31-35.08-13.35-47.63s32.08-11.57,49.41,2.18l439.39,348.66c17.33,13.75,39.46,14.72,49.41,2.17s4-33.87-13.35-47.62L1580.3,599.76c-52-41.26-118.37-44.19-148.25-6.54s-11.94,101.62,40.06,142.89L2037,1184.37c86.67,68.77,197.29,73.65,247.08,10.9s19.91-169.37-66.76-238.14L1778,608.47c-17.34-13.75-23.31-35.07-13.35-47.63S1796.7,549.27,1814,563l439.39,348.66c121.33,96.28,163.17,245.54,93.46,333.4s-224.58,81-345.92-15.26Z"/></g><g class="cls-3"><path class="cls-2" d="M251.83,700C151,745.54,42.53,723.26,9.56,650.25s22-169.11,122.88-214.64L789.71,138.83c60.5-27.32,125.58-14,145.36,29.85s-13.23,101.46-73.73,128.78L350.13,528.3c-20.16,9.1-41.86,4.65-48.45-9.95s4.41-33.83,24.58-42.93l511.2-230.84c20.17-9.1,31.17-28.32,24.58-42.92s-28.29-19.06-48.45-9.95L156.32,488.49c-60.5,27.32-93.51,85-73.73,128.78S167.45,674.45,228,647.13L885.22,350.34c100.83-45.53,155.85-141.63,122.88-214.64S866.67,40.42,765.83,86L254.63,316.78c-20.17,9.11-41.86,4.65-48.46-9.95s4.41-33.82,24.58-42.93L742,33.07c141.16-63.74,293-32.56,339.17,69.66s-30.87,236.75-172,300.49Z"/></g></g></g></svg>