<svg xmlns="http://www.w3.org/2000/svg" viewBox="0 0 979.3 763.19"><defs><style>.cls-1{fill:#fff;}.cls-16,.cls-2{font-size:37.18px;}.cls-2{fill:#534741;font-family:HiraKakuProN-W5-90ms-RKSJ-H, Hiragino Sans;letter-spacing:0.1em;}.cls-13,.cls-14,.cls-3,.cls-4{font-size:21.69px;}.cls-11,.cls-13,.cls-14,.cls-16,.cls-3,.cls-4,.cls-5,.cls-7{font-family:HiraKakuProN-W3-90ms-RKSJ-H, Hiragino Kaku Gothic Pro;}.cls-3{letter-spacing:0.1em;}.cls-4{letter-spacing:-0.4em;}.cls-5,.cls-7{font-size:27.89px;}.cls-11,.cls-15,.cls-5,.cls-7{fill:#736357;}.cls-5,.cls-8{letter-spacing:0.01em;}.cls-6{letter-spacing:-0.49em;}.cls-7{letter-spacing:0em;}.cls-9{letter-spacing:-0.01em;}.cls-10{letter-spacing:-0.01em;}.cls-11{font-size:29.44px;letter-spacing:0.01em;}.cls-12{letter-spacing:0.01em;}.cls-13{letter-spacing:0.01em;}.cls-14{letter-spacing:-0.49em;}.cls-15{font-size:55.77px;font-family:PingFang-TC-Semibold-B5pc-H, PingFang TC;letter-spacing:0.1em;}.cls-16{fill:#988575;letter-spacing:0.42em;}.cls-17{letter-spacing:0.1em;}.cls-18{letter-spacing:-0.4em;}.cls-19{letter-spacing:0.1em;}.cls-20{letter-spacing:0.08em;}.cls-21{letter-spacing:0.09em;}.cls-22{letter-spacing:-0.4em;}</style></defs><g id="Layer_2" data-name="Layer 2"><g id="評分標準"><rect class="cls-1" x="511.47" width="467.83" height="763.19" rx="78.36"/><rect class="cls-1" width="467.83" height="763.19" rx="78.36"/><text class="cls-2" transform="translate(32.26 92.14)">第一輪投票<tspan class="cls-3" x="193.66" y="0">（列入計分</tspan><tspan class="cls-4" x="312.95" y="0">）</tspan><tspan class="cls-5"><tspan x="0" y="46.48">每隊隨機分到八組隊伍的企劃書以</tspan><tspan x="0" y="92.96">星星的方式計分</tspan><tspan x="0" y="139.43">最低1顆星最高5顆星</tspan><tspan class="cls-6" x="262.53" y="139.43">，</tspan><tspan x="0" y="185.91">得分按獲得星星數佔總星星數</tspan></tspan><tspan class="cls-7"><tspan x="-0.67" y="232.39">比</tspan><tspan class="cls-8" x="27.25" y="232.39">例計算且最後挑</tspan><tspan class="cls-9" x="224.4" y="232.39">選</tspan><tspan class="cls-10" x="251.9" y="232.39">出</tspan><tspan class="cls-8" x="279.43" y="232.39">星星數統計</tspan></tspan><tspan class="cls-11"><tspan x="0" y="278.87">最高的五隊進入第二輪投票</tspan></tspan><tspan class="cls-12"><tspan x="0" y="371.82">第二輪投票</tspan><tspan class="cls-13" x="176.93" y="371.82">（不列入計分</tspan><tspan class="cls-14" x="308.37" y="371.82">）</tspan></tspan><tspan class="cls-5"><tspan x="0" y="418.3">每隊各有一票</tspan><tspan class="cls-6" x="168.99" y="418.3">，</tspan><tspan x="183.22" y="418.3">得票數最高者</tspan><tspan x="0" y="464.78">獲得人氣獎</tspan></tspan></text><text class="cls-15" transform="translate(556.45 90.86)">o內容40%<tspan class="cls-16"><tspan x="0" y="55.77">	</tspan><tspan class="cls-17" x="27.89" y="55.77" xml:space="preserve"> 相關性</tspan><tspan x="0" y="111.55">	</tspan><tspan class="cls-17" x="27.89" y="111.55" xml:space="preserve"> 可行性</tspan><tspan x="0" y="167.32">	</tspan><tspan class="cls-17" x="27.89" y="167.32" xml:space="preserve"> 完整度</tspan><tspan x="0" y="223.09">	</tspan><tspan class="cls-17" x="27.89" y="223.09" xml:space="preserve"> 創新</tspan></tspan><tspan x="0" y="290.02">o技術35%</tspan><tspan class="cls-16"><tspan x="0" y="345.8">	</tspan><tspan class="cls-17" x="27.89" y="345.8" xml:space="preserve"> 複雜度</tspan><tspan x="0" y="401.57">	</tspan><tspan class="cls-17" x="27.89" y="401.57" xml:space="preserve"> 功能</tspan></tspan><tspan x="0" y="468.5">o設計25%</tspan><tspan class="cls-16"><tspan x="0" y="524.27">	</tspan><tspan class="cls-17" x="27.89" y="524.27" xml:space="preserve"> U</tspan><tspan class="cls-18" x="76.45" y="524.27">X</tspan><tspan class="cls-19" x="88.42" y="524.27">（</tspan><tspan class="cls-20" x="129.32" y="524.27">使</tspan><tspan class="cls-21" x="169.59" y="524.27">用</tspan><tspan class="cls-17" x="210.01" y="524.27">者體驗</tspan><tspan class="cls-22" x="332.71" y="524.27">）</tspan><tspan x="0" y="580.04">	</tspan><tspan class="cls-17" x="27.89" y="580.04" xml:space="preserve"> U</tspan><tspan class="cls-18" x="76.45" y="580.04">I</tspan><tspan class="cls-19" x="70.83" y="580.04">（</tspan><tspan class="cls-20" x="111.73" y="580.04">使</tspan><tspan class="cls-21" x="152" y="580.04">用</tspan><tspan class="cls-17" x="192.42" y="580.04">者介面</tspan><tspan class="cls-22" x="315.12" y="580.04">）</tspan></tspan></text></g></g></svg>