<svg xmlns="http://www.w3.org/2000/svg" viewBox="0 0 845.21 444.91"><defs><style>.cls-1{fill:#736357;}.cls-2{fill:#988575;}.cls-3{fill:none;stroke:#604d3f;stroke-miterlimit:10;stroke-width:4.33px;}</style></defs><g id="Layer_2" data-name="Layer 2"><g id="評分標準"><path class="cls-1" d="M483.52,161.33a24.36,24.36,0,0,0,4.5.28h11.14a30.49,30.49,0,0,0,4.5-.22v5.68a25.37,25.37,0,0,0-4.27-.22H488a33.51,33.51,0,0,0-4.5.22Zm2,42.7a53,53,0,0,0,.28-5.45v-8.39a36.34,36.34,0,0,0-.22-4.44,32.47,32.47,0,0,0,4.27.22h9.57a20.81,20.81,0,0,0,3.82-.17,36.31,36.31,0,0,0-.17,4.06V198a36.17,36.17,0,0,0,.28,5.24h-5.68v-1.92h-6.47V204Zm.11-50.57a34.65,34.65,0,0,0,4.73.22h7.93a35.21,35.21,0,0,0,4.73-.22v5.4a36,36,0,0,0-4.73-.23h-7.93a35.4,35.4,0,0,0-4.73.23Zm.17,16.37a31.55,31.55,0,0,0,3.71.17h10a28,28,0,0,0,3.6-.17v5.23a32.77,32.77,0,0,0-3.6-.17h-10a32.15,32.15,0,0,0-3.71.17Zm0,7.87a29.49,29.49,0,0,0,3.71.17h10a26.26,26.26,0,0,0,3.6-.17v5.24a31.23,31.23,0,0,0-3.71-.17h-9.9a29.66,29.66,0,0,0-3.66.17Zm5.4,18.68h6.47v-5.57h-6.47ZM511,159.53c-2,0-3.89.11-5.74.28v-6.18a43.34,43.34,0,0,0,6,.33h17.6a41,41,0,0,0,5.91-.33v6.18c-1.85-.17-3.77-.28-5.74-.28h-6.3v20.09h7.37a39.28,39.28,0,0,0,5.68-.28v6.24a44,44,0,0,0-5.85-.34h-7.2v11.59a45.85,45.85,0,0,0,.4,6.92h-6.87a46.3,46.3,0,0,0,.4-7V185.24H510a39.68,39.68,0,0,0-5.68.34v-6.24a34.74,34.74,0,0,0,5.62.28h6.7V159.53Zm-1,2.25a78.64,78.64,0,0,1,4.72,14.29l-5,1.86a66.41,66.41,0,0,0-4.62-14.12Zm24.87,2.08a100.71,100.71,0,0,1-5.8,14.07l-4.78-1.86a57.55,57.55,0,0,0,5.23-14.29Z"/><path class="cls-1" d="M551.87,176.69a47.38,47.38,0,0,0-6.13.34v-5.51a48.19,48.19,0,0,0,6.13.33h6a10.43,10.43,0,0,0-2-2.87l4.28-1.35c-2.87.06-2.87.06-5.23.06a20.88,20.88,0,0,0-2-3.77v2.7h-6.07a29.76,29.76,0,0,0,.28-4.22v-3.15a29,29,0,0,0-.23-4.16,60.65,60.65,0,0,0,6.19.22h14.69a16.44,16.44,0,0,0-.29-3.71h6.81a18.49,18.49,0,0,0-.28,3.71h15.58c2.7,0,4.5-.05,6.25-.22a26.14,26.14,0,0,0-.23,4.16v3.15a29,29,0,0,0,.23,4.16h-6.08v-1.29c-2.87.45-4.22.62-7.14.9l4.44,1.58c-1.91,2.92-2,3.09-2.75,4.1h6.35a47.26,47.26,0,0,0,6.19-.33V177a48.27,48.27,0,0,0-6.19-.34h-9.79A40.57,40.57,0,0,0,598,185.35a16.53,16.53,0,0,0-2.64,5.63,41.46,41.46,0,0,1-5.51-2.53v9.39a46.51,46.51,0,0,0,.28,6H584v-2.08H558.45v2h-6.24a48.76,48.76,0,0,0,.34-6v-9.4c-1.69.9-2.54,1.3-4.79,2.31a16,16,0,0,0-3-5.29c7.37-2.36,11.37-4.5,16.43-8.72Zm1-13.44c2.14.05,2.48.05,3.6.05,12.72,0,22.79-.84,29.77-2.53l3.48,3.83v-4.11H552.88ZM558.45,190h9.68v-3h-9.68Zm0,7.21h9.68v-3h-9.68Zm9.74-29.93c-2.42.11-4.79.22-7,.28a41.34,41.34,0,0,1,2.53,4.27h4.45Zm-.23,9.39a42.18,42.18,0,0,1-6.47,6H580.9a54,54,0,0,1-6.69-6h-.29c0,.4.06,1.24.06,1.69v.79a9.91,9.91,0,0,0,.23,2.3H568a10.39,10.39,0,0,0,.23-2.36v-.79c0-.34,0-1.12,0-1.63ZM573.87,190H584v-3H573.87Zm0,7.21H584v-3H573.87Zm.11-25.38h4.5a22.79,22.79,0,0,0,3.32-5.62c-1.07.11-2,.22-2.47.28-3,.28-3,.28-5.35.45Z"/><path class="cls-1" d="M608.46,204.2a53.53,53.53,0,0,0,.34-7.26V160.21a59.37,59.37,0,0,0-.34-6.75,66.47,66.47,0,0,0,6.92.28h35.67a57.23,57.23,0,0,0,6.64-.28,56.72,56.72,0,0,0-.34,6.75V197a53.71,53.71,0,0,0,.34,7.2H651.5v-2H614.65v2Zm26.72-43.82h9.4a32,32,0,0,0,5-.29v4.67a42.77,42.77,0,0,0-5-.22h-9.46v1.63h8c2,0,2.82-.06,3.88-.11a29.19,29.19,0,0,0-.11,3.32v5.79a31.76,31.76,0,0,0,.11,3.43c-.67,0-.84-.11-1.34-.11a46.92,46.92,0,0,1,4.5,4.61l-4.05,2.37c-1-1.3-1.24-1.75-1.69-2.37-.45.06-.51.06-1.18.12h-.4v2.36h2.7a27.56,27.56,0,0,0,4.62-.28V190a36.52,36.52,0,0,0-4.5-.22h-2.82v2.36c0,3.38-1.35,4.11-7.42,4.11-.68,0-1.3,0-2.71-.11a16,16,0,0,0-1.34-4.62,24.1,24.1,0,0,0,3.93.34c2,0,2.37-.22,2.37-1.29v-.79H626.46a35.3,35.3,0,0,1,4.22,3.77l-3.82,2.92a38.21,38.21,0,0,0-5.07-4.83l2.76-1.86h-4a37.46,37.46,0,0,0-4.56.22V185.3a27.83,27.83,0,0,0,4.67.28h17.11v-2c-6.14.23-11.71.34-16.71.45a28.43,28.43,0,0,0-3.55.17l-1-4.38a61.18,61.18,0,0,0,8,.28l5.79-.06v-1.58H623a33,33,0,0,0-3.82.17c0-1.12.11-2,.11-3.43v-5.79c0-1.46-.06-2.25-.11-3.32,1.07.05,1.91.11,3.82.11h7.2v-1.63h-8.44a40.63,40.63,0,0,0-5,.22v-4.67a30.45,30.45,0,0,0,5,.29h8.44v-1.8H614.65v38.76H651.5V158.58H635.18Zm-10.85,9V171h5.9v-1.57Zm0,4.33v1.69h5.9v-1.69ZM641.94,171v-1.57h-6.81V171Zm0,4.45v-1.69h-6.81v1.69ZM637,180c1.06,0,2.47,0,4.61-.16a4.9,4.9,0,0,0-.51-.45l-.84-.91h-5.12V180Z"/><path class="cls-1" d="M669.16,161.33a24.36,24.36,0,0,0,4.5.28H684.8a30.49,30.49,0,0,0,4.5-.22v5.68a25.44,25.44,0,0,0-4.28-.22H673.66a33.51,33.51,0,0,0-4.5.22Zm2,42.7a53,53,0,0,0,.28-5.45v-8.39a36.25,36.25,0,0,0-.23-4.44,32.72,32.72,0,0,0,4.28.22H685a20.88,20.88,0,0,0,3.83-.17,36.31,36.31,0,0,0-.17,4.06V198a36.17,36.17,0,0,0,.28,5.24h-5.68v-1.92h-6.47V204Zm.11-50.57a34.65,34.65,0,0,0,4.73.22h7.93a35.21,35.21,0,0,0,4.73-.22v5.4a36,36,0,0,0-4.73-.23H676a35.4,35.4,0,0,0-4.73.23Zm.17,16.37a31.55,31.55,0,0,0,3.71.17h10a28,28,0,0,0,3.6-.17v5.23a32.77,32.77,0,0,0-3.6-.17h-10a32.15,32.15,0,0,0-3.71.17Zm0,7.87a29.49,29.49,0,0,0,3.71.17h10a26.26,26.26,0,0,0,3.6-.17v5.24a31.23,31.23,0,0,0-3.71-.17h-9.9a29.66,29.66,0,0,0-3.66.17Zm5.4,18.68h6.47v-5.57h-6.47Zm19.8-36.85c-2,0-3.88.11-5.73.28v-6.18a43.34,43.34,0,0,0,6,.33h17.6a41,41,0,0,0,5.91-.33v6.18c-1.85-.17-3.77-.28-5.74-.28h-6.3v20.09h7.37a39.28,39.28,0,0,0,5.68-.28v6.24a44,44,0,0,0-5.85-.34h-7.2v11.59a44.56,44.56,0,0,0,.4,6.92H701.9a47.67,47.67,0,0,0,.4-7V185.24h-6.64a39.68,39.68,0,0,0-5.68.34v-6.24a34.74,34.74,0,0,0,5.62.28h6.7V159.53Zm-1,2.25a78.64,78.64,0,0,1,4.72,14.29l-5,1.86a67,67,0,0,0-4.62-14.12Zm24.86,2.08a99.48,99.48,0,0,1-5.79,14.07L710,176.07a57.55,57.55,0,0,0,5.23-14.29Z"/><path class="cls-1" d="M746.06,177.09a38.84,38.84,0,0,0-4.78.28v-4a56,56,0,0,1-7,6.25,19.6,19.6,0,0,0-4.34-5.52c7-4.84,11.2-9.45,14.8-16.14a17.51,17.51,0,0,0,2.25-5.69l6.75,2.42a16.6,16.6,0,0,0-1.52,2.87,62.29,62.29,0,0,1-9.06,13.67,27.32,27.32,0,0,0,2.93.12h20.7c1.35,0,2.14,0,3.49-.06A56.16,56.16,0,0,1,761,157.17a24.67,24.67,0,0,0-1.18-2.36l6.24-2.42a21.29,21.29,0,0,0,2.2,4.89,43.63,43.63,0,0,0,15.58,16.32,26.37,26.37,0,0,0-4.28,6.07,57.4,57.4,0,0,1-7-5.9v1.91c0,11.64-1,20.53-2.36,23.51-1.24,2.48-3.27,3.27-8.28,3.27-1.12,0-2-.06-5.79-.23a23.92,23.92,0,0,0-1.69-6.58,46.27,46.27,0,0,0,6.81.73c2.08,0,2.7-.22,3.21-1.07.84-1.68,1.74-9.11,1.74-15v-3.26H755.4a30,30,0,0,1-4.39,14.4c-3.09,5.17-7.65,9.06-14.29,12.37a20.06,20.06,0,0,0-4.11-5.51,26.48,26.48,0,0,0,8.72-5.17,21.74,21.74,0,0,0,7.37-12.83,27.12,27.12,0,0,0,.34-3.26Z"/><path class="cls-1" d="M122.42,170.91c-.74-1.38-1-1.81-1.6-2.82-.58,0-.58,0-1.49.16-2.45.26-6.55.64-10.33.85a43.82,43.82,0,0,0,7.46,3.62,48.69,48.69,0,0,0,11.93,3,12.77,12.77,0,0,0-2.45,5.27,49.14,49.14,0,0,1-13.21-4.53,40.71,40.71,0,0,1-10-6.33,41.3,41.3,0,0,1-11,6.76,57.23,57.23,0,0,1-11.18,3.57,10.76,10.76,0,0,0-2.61-5,41.71,41.71,0,0,0,12.62-3.41,40.88,40.88,0,0,0,6.87-3.51c-.11-.22-.11-.27-.21-.48-5.92.64-5.92.64-14.28,1.33a18.38,18.38,0,0,0-2.82.32l-.9-5.17a15.43,15.43,0,0,0,3,.22h1.12a26.3,26.3,0,0,0,3.94-6,36.94,36.94,0,0,0-4,.27l-1-5.59c2.07.21,2.07.21,8.84.26a24.34,24.34,0,0,0,4.36-6l5.7,1.81a50.32,50.32,0,0,1-3.67,4.2c4.79-.1,8.09-.21,12.83-.48-1-.85-1.54-1.22-3.19-2.39l4.36-2.19a87.63,87.63,0,0,1,9.86,8.1L117,159.73c-1.07-1.17-1.44-1.6-2.13-2.35-9.11.8-15.34,1.12-26.31,1.39l3.73,1.6c-1.7,2.29-2.4,3.14-3.3,4.2,3.35-.16,4.15-.21,6.28-.37a21.79,21.79,0,0,0-1.76-2.61l4-1.7a59.65,59.65,0,0,1,4.21,6.65h1.86l-.32-1.86a12.73,12.73,0,0,0,2.45.11,27.69,27.69,0,0,0,3.78-6.61l4.69,2a38.3,38.3,0,0,1-2.93,4.36c3.68-.21,3.68-.21,6.71-.42-.69-.8-1-1.17-2-2.19l4-2.45a45.16,45.16,0,0,1,6.66,8.37Zm.27,14.06c-.48.32-.54.37-1.17.85a64,64,0,0,1-17.15,8.74A79.65,79.65,0,0,1,86,198a13.44,13.44,0,0,0-3-5.43c10.39-.27,18.22-1.92,26.2-5.7,4.32-2,7.09-3.84,8.63-5.7ZM114,180.44c-.64.43-.64.43-3,1.92-6.23,4.15-14.8,7.08-24.18,8.36a12.87,12.87,0,0,0-2.6-4.84A54.41,54.41,0,0,0,103,181.4a21.49,21.49,0,0,0,6.71-4.37Zm-6.76-4.52c-.8.48-.8.48-2.5,1.59-4.79,3.09-10,5.06-17.31,6.45a10.74,10.74,0,0,0-2.45-4.21A41.66,41.66,0,0,0,98.14,176a18.77,18.77,0,0,0,5.22-3.35Z"/><path class="cls-1" d="M138.23,159.94a16.09,16.09,0,0,0,.27-3.51v-2.29a18.73,18.73,0,0,0-.21-3.2c1.65.16,3.3.21,5.85.21h14.11a17.87,17.87,0,0,0-.26-2.87h6.44a10.86,10.86,0,0,0-.26,2.87h15c2.56,0,4.21-.05,5.86-.21a17.42,17.42,0,0,0-.21,3.2v2.39a16.28,16.28,0,0,0,.26,3.52h-4.15v1.17a45.22,45.22,0,0,0-5.11-.21h-5v1.65h4.63a31.21,31.21,0,0,0,4.69-.22v3.94a35.05,35.05,0,0,0-4.69-.21h-4.63v1.55h9.85a34.55,34.55,0,0,0,5.16-.27V172a28.26,28.26,0,0,0-5.16-.32h-5a33.37,33.37,0,0,0,11.19,4.1,21.52,21.52,0,0,0-2.51,4.63,54.37,54.37,0,0,1-6.12-2.39v8a37.3,37.3,0,0,0,.21,5.43c-1.7-.11-2.77-.16-5.64-.16H171c3.46,1.33,7.78,2,15.29,2.5a17.25,17.25,0,0,0-3.36,4.37,50.83,50.83,0,0,1-17.36-4.85l3.14-2H154.26l3,2c-5.49,2.71-9.59,3.94-16.83,4.95-.8-1.44-.8-1.44-3.3-4.42,7-.37,11.18-1.12,14.48-2.5h-1.17c-2.88,0-3.94.05-5.64.16a38.86,38.86,0,0,0,.21-5.06v-8.15a47.13,47.13,0,0,1-6.13,2.45,16.3,16.3,0,0,0-2.55-4.63,33.57,33.57,0,0,0,11-4.37h-4.68a29,29,0,0,0-5.22.32v-4.58a34.44,34.44,0,0,0,5.22.27h9.53v-1.55H148a34.77,34.77,0,0,0-4.74.21v-3.94a31.92,31.92,0,0,0,4.74.22h4.21V161h-4.53a44.67,44.67,0,0,0-5.11.21v-1.28Zm5.75-2.87a31,31,0,0,0,3.25.1h5v-1.81H144Zm6.55,21.62h22.1V177.2h-22.1Zm0,4.36h22.1v-1.49h-22.1Zm0,4.58h22.1v-1.44h-22.1Zm20.4-13.95c-1-.8-1.44-1.17-2.34-2H154.37a25.82,25.82,0,0,1-2.13,2Zm-5.38-18.32h-8v1.81h8Zm-8,5.65v1.65h8V161Zm8,6.71v-1.55h-8v1.55Zm10.65-10.55c1.55,0,2.13,0,3.14,0v-1.76h-8.46v1.81Z"/><path class="cls-1" d="M202.77,168.94a54.21,54.21,0,0,0-6.39.32V163.4a45.79,45.79,0,0,0,6.5.32H215v-4.63h-8a58.78,58.78,0,0,0-6.07.21v-5.59a45.28,45.28,0,0,0,6.28.32H215v-.91a28.82,28.82,0,0,0-.32-4.68h6.5a22.35,22.35,0,0,0-.32,4.68V154h3.83a42.62,42.62,0,0,0,6-.32v4.58a37.85,37.85,0,0,0,6.18-8.09l5.27,3.46c-.37.37-1.17,1.27-2.39,2.71a76.53,76.53,0,0,1-7.24,7.35H238a43.91,43.91,0,0,0,6.07-.32v5.86a56.31,56.31,0,0,0-6.6-.32H226c-2,1.44-3.36,2.34-5.75,3.89,1.17-.06,2.93-.06,4.31-.06h7.83c2.55,0,4.05-.05,5.59-.15a51.19,51.19,0,0,0-.21,5.8v13.15a40.67,40.67,0,0,0,.32,6H231.9V195.3H212.57v2.29h-6.23a50,50,0,0,0,.32-6v-8.25c0-.85,0-2,.05-3-3.25,1.59-4.37,2.07-8.47,3.72a19.2,19.2,0,0,0-3.14-5.32,88.68,88.68,0,0,0,21.94-9.8Zm9.8,12.62h19.28v-3.94H212.57Zm0,8.73h19.28v-4.1H212.57Zm12-26.57a52.87,52.87,0,0,0,5.12-4.47c-1.44-.11-2.35-.16-4.48-.16h-4.36v4.63Z"/><path class="cls-1" d="M261,154a30.85,30.85,0,0,0-.32-5.43H267a30.24,30.24,0,0,0-.32,5.38v4.36h3a13.91,13.91,0,0,0,2.67-.21v5.54a22.79,22.79,0,0,0-2.77-.16h-2.88v8.09c1.49-.48,2.34-.8,4.69-1.75l0,5.27c-2.24.85-2.82,1.06-4.74,1.76v15.44c0,2.34-.8,3.89-2.4,4.42a21,21,0,0,1-5.11.58c-.9,0-1.65,0-3.25-.1a16.46,16.46,0,0,0-1.27-5.59,38.34,38.34,0,0,0,4.79.37c1.22,0,1.54-.32,1.54-1.6V178.79a51.64,51.64,0,0,0-5.91,2l-1.12-6a36.31,36.31,0,0,0,7-1.49v-9.85h-2.71a31,31,0,0,0-3.78.21v-5.64a20.82,20.82,0,0,0,3.83.26H261Zm38.77,20.18a24.39,24.39,0,0,0-1.38,2.19,46.74,46.74,0,0,1-7.78,10.17,35,35,0,0,0,13.16,5.06,20.69,20.69,0,0,0-3.36,5.75c-6.55-2-10.6-3.89-14.54-6.87a44.16,44.16,0,0,1-15,7,24.12,24.12,0,0,0-3.3-5.32,38.21,38.21,0,0,0,13.9-5.65,32.69,32.69,0,0,1-6.66-10.38c-1.23.05-1.6.11-2.5.21v-5.59a23.89,23.89,0,0,0,4.31.27H293.4a13,13,0,0,0,3.25-.27Zm-6-12.83c0,1.17.21,1.33,1.86,1.33a3.55,3.55,0,0,0,1.81-.32c.48-.32.64-1.44.64-4.31v-2.4a22.88,22.88,0,0,0,5.22,2.45c-.05.53-.11.91-.11,1.17-.58,8-1.22,8.68-8.2,8.68a16.33,16.33,0,0,1-4.63-.37c-1.65-.59-2.13-1.54-2.13-4.05v-8.09h-6.45c-.21,7.83-2.23,12-7.56,15.44A18.1,18.1,0,0,0,270,167c4.95-2.77,6.39-6.12,6.39-14.8a20.09,20.09,0,0,0-.16-2.35,32.6,32.6,0,0,0,3.46.16h11a30.27,30.27,0,0,0,3.3-.16,24.24,24.24,0,0,0-.16,3.36Zm-13.05,14.75a24.57,24.57,0,0,0,5.38,7.08,27.54,27.54,0,0,0,5.91-7.08Z"/><path class="cls-1" d="M329.5,187.58c-3.94,4.58-6.76,6.66-12.67,9.42a17.08,17.08,0,0,0-3.78-4.58,30.15,30.15,0,0,0,6.81-3.24,16.71,16.71,0,0,0,4.9-4.53Zm-10.17-32.11a31.47,31.47,0,0,0-5.48.32V150.3a43.49,43.49,0,0,0,6.17.32h34.67a43.65,43.65,0,0,0,6.18-.32v5.49a31.83,31.83,0,0,0-5.59-.32h-9.7v2.82h7.25a45.68,45.68,0,0,0,5.22-.21,33.8,33.8,0,0,0-.22,4.52V166a31.23,31.23,0,0,0,.22,4.42,42.59,42.59,0,0,0-5.12-.21H321.67a49.36,49.36,0,0,0-5.16.21,34.7,34.7,0,0,0,.21-4.37V162.6a36.66,36.66,0,0,0-.21-4.52,46.19,46.19,0,0,0,5.16.21h7v-2.82Zm.21,28.91a45.48,45.48,0,0,0-5.64.32v-5.59a43.51,43.51,0,0,0,5.64.32H355a41,41,0,0,0,5.65-.32v5.59a43.28,43.28,0,0,0-5.65-.32H340.9v8.68c0,3.68-1.6,4.53-8.47,4.53-1.28,0-2.13-.05-3.94-.16a17.38,17.38,0,0,0-1.17-5.22,38.28,38.28,0,0,0,5.64.48c1.81,0,2.08-.21,2.08-1.49v-6.82Zm-.79-12.19a40.35,40.35,0,0,0,5.27.27h26.46a43.23,43.23,0,0,0,5.28-.27v5.22a44.44,44.44,0,0,0-5.28-.21H324a45.33,45.33,0,0,0-5.27.21Zm3.56-9.53v3.19h6.39v-3.19ZM334,158.29h6.33v-2.82H334Zm0,7.56h6.33v-3.19H334Zm15.81,18.91c3.62,3.41,6.5,5.16,12,7.24a22.41,22.41,0,0,0-3.52,4.9c-5.91-2.88-8.73-4.85-12.88-9Zm-4.21-18.91h6.77v-3.19h-6.77Z"/><path class="cls-2" d="M143.11,295.34c-5.86,0-7.36.06-9.77.26a32.94,32.94,0,0,1,1.37-7.68,33.5,33.5,0,0,1,9.37-14.58c2.48-2.28,4.95-4.17,11.59-8.66,5.6-3.77,7-5.46,7-8.46s-2.79-5.2-7-5.2c-3.12,0-5.34,1-6.77,3.25-.91,1.43-1.3,2.73-1.63,5.47l-13.66-1.43c1-5.67,2.14-8.53,4.75-11.59,3.71-4.36,9.63-6.7,17.24-6.7,8.79,0,15.5,2.92,18.75,8.2a14,14,0,0,1,2.15,7.61,15.09,15.09,0,0,1-6,12.11c-2.15,1.89-2.8,2.34-9.44,7-5.66,3.91-8.07,6.19-9.57,9.05h15.17a81.24,81.24,0,0,0,10.41-.46V295.8c-3.77-.33-6.51-.46-11.13-.46Z"/><path class="cls-2" d="M196.47,290.46a20.63,20.63,0,0,1-4.75-7.23,43.22,43.22,0,0,1-2.54-14.9c0-6.84,1.63-13.93,4.11-18,4-6.64,10.73-10.28,18.94-10.28a22.1,22.1,0,0,1,15.81,6,20.41,20.41,0,0,1,4.75,7.22,43.14,43.14,0,0,1,2.54,15c0,6.84-1.63,14-4.1,18.1-3.9,6.51-10.74,10.15-19,10.15C205.85,296.51,200.44,294.43,196.47,290.46Zm6.06-22.65c0,11.65,3.32,17.64,9.76,17.64s9.63-5.86,9.63-17.45c0-11.13-3.38-17-9.69-17C206.11,251,202.53,257.2,202.53,267.81Z"/><path class="cls-2" d="M250,266.83c-2.54-2.47-3.9-6.51-3.9-11.45s1.36-8.92,4-11.52a14.11,14.11,0,0,1,10.08-3.71,13.92,13.92,0,0,1,10.09,3.71c2.61,2.6,3.91,6.5,3.91,11.45s-1.37,9.05-4,11.59a15.47,15.47,0,0,1-20.18-.07Zm45.69-27.34,3.45,2.61-42.43,55.06-3.39-2.6Zm-40.55,15.82c0,5.47,1.7,8.33,5,8.33s4.95-2.8,4.95-8.33-1.69-8.14-4.95-8.14S255.11,250,255.11,255.31Zm27.08,37.36c-2.54-2.47-3.91-6.51-3.91-11.52s1.37-8.85,4-11.46a14.25,14.25,0,0,1,10.16-3.7c8.85,0,14,5.59,14,15.16,0,5-1.37,9.05-4,11.59a15.55,15.55,0,0,1-20.24-.07ZM287.33,281c0,5.6,1.69,8.46,5,8.46s5-2.8,5-8.46c0-5.27-1.69-8-4.94-8S287.33,275.75,287.33,281Z"/><path class="cls-2" d="M589.14,272.45c2.13,2.54,3,5.43,3,9.42a14.79,14.79,0,0,1-4.53,11c-4.2,4-11.21,6.12-19.81,6.12s-15.81-2.27-19.94-6.33a14.71,14.71,0,0,1-4.19-10.79A13.63,13.63,0,0,1,549,270.59a15.44,15.44,0,0,1,7.22-3.16c-3.44-1.1-5-1.93-6.67-3.78a12.71,12.71,0,0,1-3.3-8.81,14.19,14.19,0,0,1,2.82-9c3.65-4.47,10.45-7,18.84-7,13.34,0,21.8,6.05,21.8,15.61,0,6.53-3.16,10.73-9.7,13C584.33,268.18,586.87,269.56,589.14,272.45Zm-31.29,8.25c0,4.47,3.78,7.15,10,7.15s10-2.68,10-7.29-3.71-7.29-9.9-7.29S557.85,276.09,557.85,280.7Zm2-25c0,3.78,3.16,6.19,8.18,6.19s8-2.34,8-6.19-3.1-6.05-8-6.05S559.85,252,559.85,255.74Z"/><path class="cls-2" d="M611.27,292.39a21.68,21.68,0,0,1-5-7.64A45.53,45.53,0,0,1,603.57,269c0-7.22,1.72-14.72,4.34-19,4.19-7,11.34-10.86,20-10.86a23.37,23.37,0,0,1,16.7,6.39,21.63,21.63,0,0,1,5,7.63,45.74,45.74,0,0,1,2.69,15.82c0,7.22-1.72,14.78-4.34,19.11-4.12,6.88-11.34,10.73-20.07,10.73C621.18,298.78,615.47,296.58,611.27,292.39Zm6.4-23.93c0,12.31,3.51,18.63,10.31,18.63s10.18-6.19,10.18-18.43c0-11.75-3.57-17.94-10.24-17.94C621.45,250.72,617.67,257.25,617.67,268.46Z"/><path class="cls-2" d="M667.79,267.43c-2.68-2.62-4.12-6.88-4.12-12.1s1.44-9.42,4.19-12.18a15,15,0,0,1,10.66-3.91c4.4,0,8.11,1.37,10.66,3.91,2.75,2.76,4.12,6.88,4.12,12.11s-1.44,9.55-4.19,12.24a16.34,16.34,0,0,1-21.32-.07Zm48.27-28.88,3.65,2.75-44.84,58.17-3.57-2.75Zm-42.84,16.71c0,5.77,1.79,8.8,5.3,8.8s5.22-3,5.22-8.8-1.78-8.6-5.22-8.6S673.22,249.62,673.22,255.26Zm28.61,39.47c-2.68-2.62-4.13-6.88-4.13-12.18s1.45-9.35,4.2-12.1a15,15,0,0,1,10.72-3.92c9.36,0,14.79,5.92,14.79,16,0,5.3-1.45,9.56-4.2,12.24-2.54,2.55-6.32,3.92-10.65,3.92A15,15,0,0,1,701.83,294.73Zm5.43-12.31c0,5.91,1.79,8.94,5.3,8.94s5.29-3,5.29-8.94c0-5.57-1.79-8.46-5.23-8.46S707.26,276.85,707.26,282.42Z"/><circle class="cls-3" cx="222.45" cy="222.45" r="220.29"/><circle class="cls-3" cx="622.76" cy="222.45" r="220.29"/></g></g></svg>