<svg xmlns="http://www.w3.org/2000/svg" viewBox="0 0 1288.42 1098.61"><defs><style>.cls-1{fill:#fff;stroke:#534741;stroke-width:2.55px;}.cls-1,.cls-2,.cls-3{stroke-miterlimit:10;}.cls-2{font-size:92.01px;fill:#534741;stroke:#394444;stroke-width:0.92px;font-family:STSongti-TC-Bold, Songti TC;font-weight:700;letter-spacing:0.25em;}.cls-3{stroke:#514c42;stroke-width:4.6px;}.cls-4{fill:#736357;}</style></defs><g id="Layer_2" data-name="Layer 2"><g id="本屆主題"><polygon class="cls-1" points="1.28 1.29 1186.87 16.5 1167.36 1097.32 6.59 1082.33 1.28 1.29"/><text class="cls-2" transform="translate(154.6 480.05)">SDGs聯合國<tspan x="0" y="110.41" xml:space="preserve">     永續發展目標</tspan></text><line class="cls-3" x1="114.15" y1="708.56" x2="1031.34" y2="708.56"/><line class="cls-3" x1="121.74" y1="287.51" x2="1061.93" y2="287.51"/><path class="cls-4" d="M1197.27,441.4a91.15,91.15,0,1,1-91.16,91.15A91.15,91.15,0,0,1,1197.27,441.4Zm-39.88,85.45a5.7,5.7,0,0,0,0,11.4h66l-24.46,24.45a5.7,5.7,0,0,0,8.07,8.06l34.18-34.18a5.69,5.69,0,0,0,0-8.05h0L1207,494.33a5.71,5.71,0,0,0-8.07,8.07l24.46,24.45Z"/></g></g></svg>