<svg xmlns="http://www.w3.org/2000/svg" viewBox="0 0 2231.23 1910.14"><defs><style>.cls-1,.cls-3{fill:#fff;stroke:#736357;stroke-miterlimit:10;}.cls-1{stroke-width:1.35px;}.cls-2{fill:#c7b299;}.cls-3{stroke-width:1.48px;}.cls-4{fill:#736357;}.cls-5{fill:#998675;}</style></defs><g id="Layer_2" data-name="Layer 2"><g id="本屆主題"><path class="cls-1" d="M467,1898.71A10.79,10.79,0,1,1,484,1885.3c.12.15.19.32.3.47l17-13.47c-.13-.14-.27-.25-.39-.4a10.79,10.79,0,0,1,16.92-13.4c.12.15.19.31.3.46l17-13.47c-.12-.14-.27-.25-.38-.39a10.79,10.79,0,1,1,16.92-13.41c.12.15.19.32.3.47l17-13.47c-.12-.14-.26-.25-.38-.4a10.79,10.79,0,0,1,16.92-13.4c.12.15.19.31.3.46l17-13.47a10.75,10.75,0,0,1,16.83-13.33l17-13.47c-.12-.14-.27-.25-.38-.4a10.79,10.79,0,0,1,16.92-13.4c.12.15.19.31.3.47l17-13.48c-.12-.14-.26-.24-.38-.39a10.79,10.79,0,0,1,16.92-13.4c.12.14.19.31.3.46L700,1714.85,690,1702.12a10.75,10.75,0,0,1-13.34-16.84l-13.47-17a10.75,10.75,0,0,1-13.33-16.84l-13.47-17c-.14.13-.25.27-.4.39a10.79,10.79,0,0,1-13.4-16.92c.15-.12.31-.19.47-.3l-13.48-17a10.75,10.75,0,0,1-13.33-16.84l-13.47-17a10.75,10.75,0,0,1-13.33-16.84l-13.47-17a10.75,10.75,0,0,1-13.34-16.83l-10.08-12.74-8.08,6.4a10.75,10.75,0,0,1-16.83,13.33l-17,13.47a10.75,10.75,0,0,1-16.84,13.34l-17,13.47c.13.14.27.25.39.39a10.79,10.79,0,1,1-16.92,13.4c-.12-.14-.19-.31-.3-.46l-17,13.47a10.75,10.75,0,0,1-16.83,13.33l-17,13.48a10.75,10.75,0,0,1-16.84,13.33l-17,13.47a10.75,10.75,0,0,1-16.83,13.33l-17,13.47a10.75,10.75,0,0,1-16.83,13.34l-17.4,13.78,10.12,12.77c.26-.25.5-.53.79-.76a10.79,10.79,0,0,1,13.41,16.92c-.3.23-.62.39-.93.59l13.54,17.1a8.22,8.22,0,0,1,.79-.77,10.79,10.79,0,1,1,13.4,16.92c-.29.23-.62.4-.93.6l13.54,17.09c.26-.26.5-.53.79-.77a10.79,10.79,0,1,1,13.4,16.92,9.06,9.06,0,0,1-.92.6l13.47,17a10.79,10.79,0,1,1,13.4,16.92l13.47,17a9.57,9.57,0,0,1,.79-.77,10.79,10.79,0,1,1,13.4,16.92c-.29.23-.62.4-.93.6l13.54,17.09c.27-.26.5-.53.8-.77a10.79,10.79,0,1,1,13.4,16.92,10.47,10.47,0,0,1-.93.6l10.12,12.78,12.73-10.09C467.29,1899,467.15,1898.85,467,1898.71Z"/><rect class="cls-2" x="386.72" y="1574.57" width="217.96" height="260.75" transform="translate(1524.46 257.81) rotate(51.62)"/><path class="cls-1" d="M882.51,396.32a10.79,10.79,0,0,1,16.92-13.4c.12.15.19.31.3.46l17-13.47c-.13-.14-.27-.25-.39-.39a10.79,10.79,0,1,1,16.92-13.41c.12.15.19.32.3.47l17-13.47c-.12-.14-.27-.25-.38-.4a10.79,10.79,0,0,1,16.92-13.4c.11.15.19.31.3.46l17-13.47c-.12-.14-.26-.25-.38-.39A10.79,10.79,0,1,1,1001,302.5c.12.15.19.32.3.47l17-13.47a10.75,10.75,0,0,1,16.83-13.34l17-13.47c-.12-.14-.27-.25-.38-.39a10.79,10.79,0,0,1,16.92-13.41c.12.15.19.32.3.47l17-13.47c-.12-.14-.26-.25-.38-.4a10.79,10.79,0,0,1,16.92-13.4c.12.15.19.31.3.47l12.73-10.09-10.08-12.74a10.75,10.75,0,0,1-13.34-16.83l-13.47-17a10.75,10.75,0,0,1-13.33-16.83l-13.47-17c-.14.12-.25.27-.4.38a10.79,10.79,0,0,1-13.4-16.92c.15-.12.31-.19.47-.3L1025,98.2a10.75,10.75,0,0,1-13.33-16.83l-13.47-17a10.75,10.75,0,0,1-13.33-16.83l-13.47-17a10.75,10.75,0,0,1-13.34-16.84L948,1l-8.08,6.39a10.75,10.75,0,0,1-16.83,13.34l-17,13.47a10.75,10.75,0,0,1-16.84,13.33L872.23,61c.13.14.27.25.39.4a10.79,10.79,0,1,1-16.92,13.4c-.12-.15-.19-.31-.3-.46l-17,13.47a10.75,10.75,0,0,1-16.83,13.33l-17,13.47a10.75,10.75,0,0,1-16.84,13.33l-17,13.48a10.75,10.75,0,0,1-16.83,13.33l-17,13.47A10.75,10.75,0,0,1,720,181.5l-17.4,13.78,10.12,12.78a9.57,9.57,0,0,1,.79-.77,10.79,10.79,0,1,1,13.4,16.92,9.06,9.06,0,0,1-.92.6l13.54,17.09a9.61,9.61,0,0,1,.79-.77,10.8,10.8,0,0,1,13.4,16.93c-.3.23-.62.39-.93.59l13.54,17.1a9.57,9.57,0,0,1,.79-.77,10.79,10.79,0,1,1,13.4,16.92,9.1,9.1,0,0,1-.93.59l13.48,17a10.79,10.79,0,1,1,13.4,16.92l13.47,17c.26-.25.5-.53.79-.77a10.8,10.8,0,0,1,13.4,16.93c-.29.23-.62.39-.93.59l13.54,17.1a9.7,9.7,0,0,1,.8-.77A10.79,10.79,0,1,1,861,393.43a10.34,10.34,0,0,1-.93.59l10.12,12.78,12.73-10.08C882.77,396.58,882.63,396.47,882.51,396.32Z"/><rect class="cls-2" x="802.2" y="72.19" width="217.96" height="260.75" transform="translate(504.25 -637.49) rotate(51.62)"/><path class="cls-3" d="M15.43,1576a11.85,11.85,0,1,1,18.68,14.58c-.12.16-.28.28-.42.44l18.79,14.65a5.43,5.43,0,0,1,.32-.51,11.85,11.85,0,1,1,18.69,14.57c-.13.17-.29.29-.42.44l18.78,14.65c.12-.16.2-.34.32-.51a11.85,11.85,0,0,1,18.69,14.58c-.13.16-.28.28-.42.44L127.23,1664a5.43,5.43,0,0,1,.32-.51,11.85,11.85,0,1,1,18.69,14.57c-.13.17-.29.29-.42.44l18.78,14.65a11.8,11.8,0,0,1,18.59,14.51L202,1722.31c.12-.17.2-.35.33-.51A11.85,11.85,0,1,1,221,1736.37a5.76,5.76,0,0,1-.41.44l18.78,14.65c.12-.16.19-.35.32-.51a11.85,11.85,0,0,1,18.69,14.58c-.13.16-.29.28-.42.44l14.06,11,11-14.07a11.8,11.8,0,0,1,14.51-18.59l14.65-18.78a11.8,11.8,0,0,1,14.5-18.59l14.65-18.79c-.16-.11-.35-.19-.51-.32a11.85,11.85,0,1,1,14.58-18.69c.16.13.28.29.44.42l14.65-18.78a11.8,11.8,0,0,1,14.5-18.59l14.65-18.78a11.81,11.81,0,0,1,14.5-18.6L428.75,1576a11.8,11.8,0,0,1,14.5-18.59l11-14.06-8.92-7a11.8,11.8,0,0,1-18.59-14.5l-18.78-14.65a11.8,11.8,0,0,1-18.59-14.51l-18.79-14.65a5.43,5.43,0,0,1-.32.51A11.85,11.85,0,0,1,351.54,1464c.13-.17.29-.29.42-.44l-18.78-14.65a11.8,11.8,0,0,1-18.59-14.51l-18.78-14.65a11.81,11.81,0,0,1-18.6-14.5l-18.78-14.65a11.8,11.8,0,0,1-18.59-14.5l-18.78-14.66a11.8,11.8,0,0,1-18.59-14.5l-19.21-15-11,14.11a10.87,10.87,0,0,1,1,.64,11.85,11.85,0,0,1-14.57,18.69,10,10,0,0,1-.88-.84l-14.73,18.88a11.12,11.12,0,0,1,1,.65,11.85,11.85,0,0,1-14.58,18.68,11.37,11.37,0,0,1-.87-.83l-14.73,18.88a10.87,10.87,0,0,1,1,.64,11.85,11.85,0,0,1-14.57,18.69,11.73,11.73,0,0,1-.88-.84l-14.65,18.78a11.85,11.85,0,0,1-14.58,18.69l-14.65,18.78c.34.22.7.4,1,.65a11.86,11.86,0,1,1-15.45,17.85L26.47,1533a11,11,0,0,1,1,.64,11.85,11.85,0,0,1-14.58,18.69,11.5,11.5,0,0,1-.87-.84L1,1565.57l14.06,11C15.22,1576.37,15.3,1576.19,15.43,1576Z"/><rect class="cls-4" x="109.92" y="1413.21" width="239.31" height="286.29" transform="translate(1597.93 2332.61) rotate(127.96)"/><path class="cls-3" d="M1791.39,983.18a11.85,11.85,0,1,1,18.69,14.57c-.13.17-.29.29-.42.44l18.78,14.65c.12-.16.2-.35.33-.51a11.85,11.85,0,1,1,18.68,14.58c-.12.16-.28.28-.41.44l18.78,14.65c.11-.17.19-.35.32-.52a11.85,11.85,0,0,1,18.69,14.58c-.13.16-.29.29-.42.44l18.78,14.65c.12-.17.2-.35.33-.51a11.85,11.85,0,1,1,18.68,14.58,5.66,5.66,0,0,1-.42.43l18.79,14.66a11.8,11.8,0,0,1,18.59,14.5l18.78,14.65c.12-.17.2-.35.32-.51a11.85,11.85,0,1,1,18.69,14.58c-.13.16-.28.28-.42.43l18.79,14.66c.11-.17.19-.35.32-.52a11.85,11.85,0,0,1,18.69,14.58c-.13.16-.29.28-.42.44l14.06,11,11-14.07a11.8,11.8,0,0,1,14.5-18.59l14.65-18.78a11.8,11.8,0,0,1,14.51-18.59l14.65-18.78c-.17-.12-.35-.2-.51-.33a11.85,11.85,0,1,1,14.57-18.68,5.76,5.76,0,0,1,.44.41l14.65-18.78a11.8,11.8,0,0,1,14.51-18.59l14.65-18.78a11.8,11.8,0,0,1,14.5-18.59l14.65-18.79a11.8,11.8,0,0,1,14.51-18.59l11-14.06-8.92-7a11.8,11.8,0,0,1-18.59-14.5l-18.79-14.65a11.8,11.8,0,0,1-18.59-14.5l-18.78-14.66c-.12.17-.2.35-.32.52a11.85,11.85,0,0,1-18.69-14.58c.13-.16.29-.28.42-.44l-18.78-14.65a11.81,11.81,0,0,1-18.6-14.5l-18.78-14.65a11.8,11.8,0,0,1-18.59-14.51l-18.78-14.65a11.8,11.8,0,0,1-18.59-14.5L1997,768.62a11.8,11.8,0,0,1-18.59-14.51l-19.21-15-11,14.11a9.35,9.35,0,0,1,1,.65,11.85,11.85,0,1,1-14.58,18.68c-.32-.25-.58-.56-.87-.83l-14.73,18.87c.34.22.7.4,1,.65a11.86,11.86,0,1,1-15.45,17.85L1889.91,828c.34.21.69.39,1,.64a11.85,11.85,0,0,1-14.58,18.69,11.5,11.5,0,0,1-.87-.84l-14.65,18.79A11.85,11.85,0,1,1,1846.25,884l-14.65,18.79a10.87,10.87,0,0,1,1,.64A11.85,11.85,0,1,1,1818,922.07a11.5,11.5,0,0,1-.87-.84l-14.73,18.88c.34.22.7.39,1,.65a11.85,11.85,0,0,1-14.58,18.68,11.51,11.51,0,0,1-.88-.83l-11,14.11,14.06,11C1791.19,983.52,1791.27,983.34,1791.39,983.18Z"/><rect class="cls-4" x="1885.89" y="820.37" width="239.31" height="286.29" transform="translate(3998.79 -25.19) rotate(127.96)"/><path class="cls-5" d="M2030.9,1042l28.69-76.68q8.32-22.26,16.67-44.51a12.46,12.46,0,0,1,.68-1.37l-.93-.75a8.41,8.41,0,0,1-1-.52c-1.71-1.11-3.39-2.25-5.1-3.38l-13.7-9c-4.59-3-9.18-6.09-13.77-9.13-4.85-3.22-9.7-6.46-14.6-9.62a10.07,10.07,0,0,0-2.91-1.32c-6.54-1.66-13.11-3.22-19.64-4.87a4.56,4.56,0,0,0-3.34.41q-23.19,11.61-46.39,23.19L1930.39,917c-.66.33-1.3.71-2.08,1.15l15.11,13c-3.22,1.56-6.23,3-9.24,4.48l-9.08,4.39c-3,1.46-6.06,2.91-9.07,4.39s-6,2.86-9.09,4.43c.62.62,1.09,1.11,1.57,1.57,2.11,2.07,4.24,4.12,6.36,6.17l10.28,10,9.87,9.59c3.38,3.29,6.73,6.59,10.11,9.87l9.95,9.69,11.91,11.62c4,3.86,8,7.73,11.94,11.6s7.87,7.7,11.81,11.55l12.15,11.89a10.87,10.87,0,0,0,5,3.16q9.9,2.41,19.78,4.86l.15-.19c1-2.77,2.07-5.53,3.1-8.3m-5.75-151.27a1.54,1.54,0,0,1,1.19.29c3.16,2.08,6.3,4.21,9.44,6.32,4.12,2.75,8.23,5.48,12.35,8.24l10,6.73,3.49,2.32a6.66,6.66,0,0,1,1.46,1.27c-.29,0-.6-.08-.88-.15-2.33-.57-4.64-1.15-7-1.74a12.53,12.53,0,0,1-3.86-1.86l-14.27-9.45q-7.47-4.94-15-9.92a3.62,3.62,0,0,1-.43-.44c1.18-.58,2.27-1.16,3.4-1.61m-9.07,4.41a1.82,1.82,0,0,1,2.21.15q9.74,6.54,19.5,13.05c3.25,2.18,6.51,4.34,9.76,6.53,1.38.94,1.4,1.06.81,2.66q-10.13,26.84-20.24,53.7-9.69,25.72-19.37,51.47c-.15.39-.33.79-.56,1.34-23.92-23-47.7-45.93-71.65-69,12.41-6,24.65-11.84,37.08-17.83l-15.36-13.06a3,3,0,0,1,1.38-.95l14.61-7.28,41.19-20.47c.2-.11.44-.19.64-.32m3.58-6.31c-1.39,1.15-1.72,1.19-2.91.37-.61-.4-1.21-.82-1.82-1.23l.12-.26,4.61,1.12M1939.41,917a2,2,0,0,0,0-.24c.35-.18.69-.37,1-.54q30.24-15.06,60.48-30.09c.36-.19.73-.35,1.1-.52a2,2,0,0,1,2,.19l8.93,6a2.34,2.34,0,0,1,.33.39c-.44.24-.83.47-1.24.68L1973,912.37c-5.29,2.64-10.6,5.28-15.87,8a3.91,3.91,0,0,1-2.88.32c-4.6-1.17-9.22-2.28-13.83-3.4l-1-.29m.39,5.85a10.15,10.15,0,0,1-.93-.9,9.56,9.56,0,0,1,1,.09c4.18,1,8.37,2,12.55,3.11a5.45,5.45,0,0,1,2,1c2.24,1.84,4.42,3.78,6.63,5.68.22.21.42.46.77.83-.51-.07-.81-.1-1.11-.17-4.14-1-8.29-2-12.43-3.08a4.09,4.09,0,0,1-1.58-.77c-2.32-1.89-4.6-3.84-6.88-5.78m-21.9,25.06c.54-.29.84-.47,1.15-.62q13.2-6.33,26.38-12.69a3.83,3.83,0,0,1,2.76-.29c4.49,1.14,9,2.21,13.48,3.32.38.09.74.21,1.29.38-.53.3-.88.5-1.22.66q-13,6.27-26,12.57a4.14,4.14,0,0,1-3,.35c-4.56-1.15-9.14-2.25-13.71-3.37-.27-.06-.53-.15-1.09-.31m85.52,88.48-86.94-83.71a9.67,9.67,0,0,1,1,.08c4.5,1.1,9,2.23,13.49,3.31a4.35,4.35,0,0,1,2,1.2q3.33,3.19,6.63,6.4l8.31,8.11,10.11,9.88,8,7.85q5.12,5,10.2,9.95c2.73,2.64,5.44,5.27,8.16,7.92l10.38,10.11,8.06,7.85,2.9,2.87a1.11,1.11,0,0,1,.39,1.27c-.84,2.21-1.66,4.42-2.5,6.63,0,.07-.11.11-.27.28m4.28,4.37c1-2.62,1.91-5.13,2.92-7.87l11.39,11.08-.15.27-14.16-3.48m17.11-.63c-3.79-3.63-7.54-7.26-11.3-10.88-1.12-1.08-1.13-1.07-.61-2.48q20-53.47,40-106.94c.15-.41.31-.8.5-1.29l16.75,4.12-44.48,118.17c-.36-.29-.63-.47-.86-.7"/><path class="cls-5" d="M1991.89,942.33a11.11,11.11,0,1,0-1.49-15.66,11.11,11.11,0,0,0,1.49,15.66"/><path class="cls-5" d="M255.55,1653l25.5-77.79q7.4-22.59,14.81-45.16a14.78,14.78,0,0,1,.63-1.41l-1-.7a8.53,8.53,0,0,1-1.06-.48c-1.75-1-3.48-2.11-5.23-3.16q-7-4.23-14.06-8.44L261,1507.26c-5-3-10-6-15-9a10.35,10.35,0,0,0-3-1.2c-6.6-1.39-13.23-2.67-19.82-4a4.53,4.53,0,0,0-3.32.54q-22.68,12.56-45.39,25.09L150,1532.23c-.65.36-1.28.77-2,1.24l15.64,12.37c-3.16,1.7-6.1,3.27-9,4.87l-8.89,4.75c-3,1.58-5.93,3.16-8.88,4.76s-5.9,3.1-8.9,4.8c.64.6,1.13,1.06,1.64,1.51q3.28,3,6.61,5.9,5.33,4.82,10.68,9.61l10.25,9.19c3.51,3.14,7,6.3,10.51,9.44l10.34,9.27,12.39,11.11c4.12,3.7,8.27,7.4,12.4,11.1l12.28,11,12.63,11.39a10.94,10.94,0,0,0,5.11,3c6.66,1.33,13.31,2.69,20,4l.14-.2,2.76-8.42m-12-150.91a1.61,1.61,0,0,1,1.21.25c3.24,2,6.46,3.94,9.69,5.92l12.67,7.72,10.31,6.31,3.57,2.18a6.85,6.85,0,0,1,1.52,1.21c-.3,0-.6-.06-.89-.11l-7-1.45a12.53,12.53,0,0,1-3.93-1.71q-7.32-4.41-14.65-8.84-7.68-4.63-15.35-9.3a4.42,4.42,0,0,1-.45-.42c1.16-.63,2.22-1.26,3.33-1.76m-8.87,4.79a1.83,1.83,0,0,1,2.21.05c6.66,4.1,13.34,8.16,20,12.24,3.33,2,6.68,4.07,10,6.12,1.43.89,1.45,1,.92,2.63q-9,27.22-18,54.49-8.61,26.1-17.23,52.22c-.14.4-.3.8-.51,1.37l-74.43-66L194,1550.64l-15.88-12.42c.32-.58.88-.74,1.34-1q7.14-3.95,14.3-7.87l40.3-22.16c.2-.11.43-.21.64-.34m3.31-6.46c-1.35,1.21-1.67,1.26-2.9.49-.62-.37-1.24-.76-1.86-1.15l.11-.26c1.52.3,3,.61,4.65.92m-79,31.41a2.24,2.24,0,0,0,0-.24c.34-.19.67-.4,1-.58l59.19-32.56c.35-.2.72-.38,1.07-.56a2.05,2.05,0,0,1,2.06.1q4.59,2.8,9.18,5.65a3.23,3.23,0,0,1,.34.38c-.43.26-.81.5-1.22.72l-38.22,21.13c-5.18,2.86-10.38,5.71-15.53,8.6a3.87,3.87,0,0,1-2.86.43c-4.65-1-9.31-1.89-14-2.83l-1-.24m.64,5.83a10.75,10.75,0,0,1-1-.86,9.17,9.17,0,0,1,1,0c4.22.86,8.45,1.7,12.67,2.59a5.59,5.59,0,0,1,2.06.9c2.31,1.76,4.58,3.6,6.86,5.41.23.2.44.44.8.8-.51-.06-.81-.07-1.11-.13q-6.28-1.26-12.55-2.56a4.29,4.29,0,0,1-1.62-.71c-2.39-1.8-4.75-3.64-7.1-5.49m-20.85,25.94c.53-.31.82-.5,1.12-.66q12.93-6.89,25.84-13.77a3.8,3.8,0,0,1,2.74-.41c4.53,1,9.07,1.85,13.61,2.76.38.08.75.18,1.3.33-.52.32-.85.53-1.19.71q-12.75,6.81-25.49,13.64a4.16,4.16,0,0,1-3,.47c-4.61-1-9.23-1.88-13.84-2.8l-1.1-.27m89.09,84.88-90.31-80c.51,0,.76,0,1,0,4.54.91,9.07,1.85,13.61,2.75a4.25,4.25,0,0,1,2.09,1.11c2.3,2,4.61,4.08,6.89,6.12l8.64,7.77q5.25,4.71,10.5,9.45l8.38,7.51,10.6,9.52,8.48,7.58q5.39,4.83,10.79,9.66l8.37,7.52c1,.91,2,1.83,3,2.75a1.1,1.1,0,0,1,.45,1.25c-.75,2.24-1.48,4.49-2.23,6.73,0,.07-.1.11-.26.29m4.46,4.19c.87-2.65,1.7-5.21,2.6-8l11.84,10.6c-.05.09-.1.18-.14.27l-14.3-2.89m17.07-1.34c-3.93-3.47-7.83-6.94-11.74-10.4-1.16-1-1.17-1-.7-2.45q17.76-54.26,35.55-108.5c.13-.42.27-.82.44-1.31l16.91,3.43q-19.79,60-39.57,119.9a10.74,10.74,0,0,1-.89-.67"/><path class="cls-5" d="M212.46,1555a11.11,11.11,0,1,0-2.13-15.58,11.11,11.11,0,0,0,2.13,15.58"/><path class="cls-5" d="M592.54,1710.87l-63.49-44q-18.42-12.78-36.85-25.57a12.15,12.15,0,0,1-1.1-.94l-.9.67a9.82,9.82,0,0,1-.71.84c-1.41,1.3-2.85,2.57-4.28,3.88l-11.42,10.44c-3.84,3.49-7.7,7-11.54,10.48-4.07,3.69-8.16,7.38-12.19,11.12a9.14,9.14,0,0,0-1.88,2.36c-3,5.6-6,11.25-9,16.84a4.27,4.27,0,0,0-.4,3.15q5.25,23.89,10.46,47.81,2.82,12.94,5.68,25.9c.14.69.35,1.36.56,2.17l15.41-10.8c.68,3.31,1.31,6.39,2,9.49s1.26,6.21,1.9,9.32,1.26,6.22,1.92,9.32,1.21,6.17,1.94,9.34c.72-.42,1.27-.74,1.81-1.07l7.12-4.39,11.57-7.08,11.06-6.79c3.8-2.33,7.59-4.64,11.37-7l11.18-6.85,13.38-8.21,13.38-8.22q6.64-4.08,13.31-8.13l13.69-8.35a10.36,10.36,0,0,0,4-3.83q4.5-8.49,9-17l-.14-.19-6.87-4.76m-139.71-29.82a1.52,1.52,0,0,1,.54-1c2.64-2.41,5.31-4.78,8-7.17l10.4-9.38,8.48-7.62c1-.88,1.95-1.77,2.94-2.65a6.34,6.34,0,0,1,1.5-1c-.11.25-.21.52-.34.77-1.07,2-2.13,4-3.21,6a11.89,11.89,0,0,1-2.6,3.1c-4,3.61-7.95,7.24-11.95,10.86-4.17,3.8-8.35,7.58-12.54,11.38a3.74,3.74,0,0,1-.5.29c-.26-1.22-.54-2.34-.69-3.49m1.93,9.32a1.73,1.73,0,0,1,.65-2q8.25-7.38,16.46-14.81c2.75-2.46,5.48-5,8.24-7.4,1.18-1.05,1.29-1.05,2.62-.13q22.2,15.49,44.43,31l42.58,29.66c.33.23.65.49,1.11.83L491.12,1777c-2.58-12.73-5.12-25.29-7.71-38l-15.51,11a2.75,2.75,0,0,1-.55-1.48l-3.27-15q-4.57-21.23-9.18-42.42c0-.22-.07-.45-.14-.67m-4.94-4.74c.73,1.55.69,1.86-.34,2.76-.5.46-1,.92-1.54,1.37l-.21-.17c.68-1.3,1.37-2.58,2.09-4m7.11,79.94a1.46,1.46,0,0,0-.22,0c-.09-.37-.19-.72-.26-1.08q-6.76-31.15-13.5-62.3c-.08-.38-.14-.75-.22-1.12a2,2,0,0,1,.65-1.84l7.58-6.77a2,2,0,0,1,.44-.21c.11.46.23.86.33,1.29q4.39,20.13,8.81,40.27c1.18,5.45,2.36,10.92,3.59,16.35a3.7,3.7,0,0,1-.38,2.71c-2.13,3.94-4.22,7.91-6.32,11.87-.16.28-.34.57-.5.86m5.45,1a12.2,12.2,0,0,1-1,.65,7.71,7.71,0,0,1,.3-.86c1.92-3.59,3.81-7.18,5.76-10.75a5,5,0,0,1,1.37-1.62c2.21-1.63,4.48-3.18,6.74-4.75.24-.16.51-.28.94-.51-.19.44-.29.71-.42,1-1.89,3.55-3.79,7.11-5.7,10.65a4,4,0,0,1-1.07,1.28c-2.27,1.68-4.58,3.31-6.88,4.94m17.84,25.85c-.14-.57-.23-.88-.3-1.2q-2.73-13.53-5.49-27.07a3.6,3.6,0,0,1,.37-2.59c2.08-3.84,4.11-7.71,6.16-11.56.18-.33.37-.63.66-1.1.14.56.24.92.32,1.28,1.81,8.9,3.61,17.82,5.46,26.72a3.92,3.92,0,0,1-.38,2.83c-2.11,3.91-4.18,7.84-6.26,11.76-.12.23-.27.46-.54.93M581,1734.7q-48.27,30-96.73,60.12a8.26,8.26,0,0,1,.3-.9c2.05-3.85,4.12-7.7,6.16-11.56a4.21,4.21,0,0,1,1.56-1.6l7.39-4.57,9.36-5.72,11.37-7,9.05-5.55,11.47-7,9.14-5.63,11.65-7.15,9-5.55,3.3-2a1,1,0,0,1,1.25-.07l5.48,3.83c.06,0,.08.12.2.31m5-2.9c-2.17-1.5-4.25-3-6.52-4.5l12.78-7.85.2.2c-2.13,4-4.25,8-6.46,12.15m3.39-15.8-12.58,7.82c-1.24.77-1.23.78-2.4,0l-88.55-61.39-1.06-.74,7.65-14.38,97.78,68.09c-.34.26-.58.47-.84.63"/><path class="cls-5" d="M492.31,1723.45a10.49,10.49,0,1,0-14.66-2.28,10.48,10.48,0,0,0,14.66,2.28"/></g></g></svg>