<svg xmlns="http://www.w3.org/2000/svg" viewBox="0 0 1548.55 765.17"><defs><style>.cls-1{fill:#ffe1a8;stroke:#534741;stroke-miterlimit:10;stroke-width:3.76px;}.cls-2{fill:#514c42;}.cls-3{font-size:45.83px;fill:#534741;font-family:PingFang-TC-Medium-B5pc-H, PingFang TC;letter-spacing:0.25em;}.cls-4{letter-spacing:-0.25em;}</style></defs><g id="Layer_2" data-name="Layer 2"><g id="本屆主題"><path class="cls-1" d="M1514.68,287.65l31.22,124.27a25.23,25.23,0,0,1-18.82,30.74L1186.51,521a25.28,25.28,0,0,1-17-2.08l-8.55-4.33a25.23,25.23,0,0,0-15-2.45l-4.33.63a25.27,25.27,0,0,0-18.23,12.39h0a25.23,25.23,0,0,1-16.18,12L133.42,762.63a25.24,25.24,0,0,1-30.32-19.08L75.23,618.62a25.23,25.23,0,0,1,12.25-27.48c19.61-11,47.94-33,34.05-62.72-12.91-27.61-42.13-31.85-61.92-31.22a25.25,25.25,0,0,1-25.32-19L2.66,352.9a25.23,25.23,0,0,1,18.89-30.79L992.36,102.23a25.27,25.27,0,0,1,14.45,1l12.58,4.73a25.26,25.26,0,0,0,16.4.46l.62-.19,1.1-.35a25.28,25.28,0,0,0,11.49-7.5l4.59-5.27a25.24,25.24,0,0,1,13.12-7.94L1418.42,2.59a25.23,25.23,0,0,1,30.43,18.61l29.73,123.17a25.34,25.34,0,0,1-14.29,29.17c-16.84,7.4-38.36,23-38.8,54.18-.49,35.43,39.58,40.88,64.57,40.85A25.29,25.29,0,0,1,1514.68,287.65Z"/><line class="cls-1" x1="1042.82" y1="141.87" x2="1036.41" y2="108.21"/><line class="cls-1" x1="1050.9" y1="169.89" x2="1058.21" y2="207.35"/><line class="cls-1" x1="1067.5" y1="236.64" x2="1074.36" y2="271.79"/><line class="cls-1" x1="1084.81" y1="300.86" x2="1092.11" y2="338.32"/><line class="cls-1" x1="1102.11" y1="365.08" x2="1109.3" y2="401.96"/><line class="cls-1" x1="1118.95" y1="429.99" x2="1126.25" y2="467.45"/><line class="cls-1" x1="1134.75" y1="495.7" x2="1138.17" y2="513.24"/><line class="cls-1" x1="144.88" y1="678.38" x2="1067.95" y2="466.51"/><line class="cls-1" x1="147.88" y1="693.76" x2="1070.95" y2="481.9"/><line class="cls-1" x1="150.88" y1="709.15" x2="1073.95" y2="497.28"/><line class="cls-1" x1="153.88" y1="724.54" x2="1076.95" y2="512.67"/><path class="cls-2" d="M1166.06,231.1c4.59-1.82,9.23.33,13,2.92s7.18,6,11.29,8.37a16.43,16.43,0,0,0,13,1.81c4.52-1.36,8.34-4.34,12.87-5.64a22.66,22.66,0,0,1,16,1.34v-3.05a52.17,52.17,0,0,0-14.27,15,53.86,53.86,0,0,0-4.56,9.23,10.56,10.56,0,0,1-2.59,4.26,21.93,21.93,0,0,1-4.21,2.61,47.13,47.13,0,0,0-22.16,28.61,45.5,45.5,0,0,0-.89,20.75l.81-2c-4.32,2.91-9.66-.54-13.11-3.32-4.86-3.92-9.39-8.3-14-12.46-1.7-1.51-4.21,1-2.5,2.5l8,7.16c2.51,2.24,5,4.57,7.65,6.57,4.43,3.26,10.64,6.06,15.77,2.61a1.87,1.87,0,0,0,.81-2c-2.21-11.56,1-23.73,7.78-33.23a41.22,41.22,0,0,1,13-11.77c2.74-1.56,5.61-2.92,7.37-5.65a25,25,0,0,0,2-4.45,47.4,47.4,0,0,1,2.19-4.68,48.18,48.18,0,0,1,14.72-16.65c1-.7,1.3-2.43,0-3.05a26.29,26.29,0,0,0-14.76-2.5c-5.14.64-9.3,3.1-13.9,5.27a15.23,15.23,0,0,1-6.86,1.73,13.76,13.76,0,0,1-6.26-1.92c-4.25-2.35-7.63-5.9-11.64-8.59-4.51-3-10.25-5.27-15.6-3.15a1.81,1.81,0,0,0-1.23,2.17,1.77,1.77,0,0,0,2.17,1.24Z"/><path class="cls-2" d="M1218,303.33a15.53,15.53,0,0,0-11.21,9.34,15,15,0,0,0,1.37,14.59c3,4.33,7.39,7.2,11.32,10.53a26.75,26.75,0,0,1,5.18,5.5,29.47,29.47,0,0,1,3.48,8c1.86,6.34,2.78,13,6.28,18.77a1.78,1.78,0,0,0,3.29-.89,117.82,117.82,0,0,1,4-20.4,143.94,143.94,0,0,1,7.45-19.25c2.55-5.6,5.1-12.34,1.86-18.21-2.63-4.77-8.1-6.67-13.23-7.14-7.19-.68-14.55,2-21.58-.43-2.16-.75-3.09,2.67-1,3.41,6.29,2.18,12.78.58,19.22.44,4.47-.09,10.17.68,13,4.65,3.57,5.06.41,11.76-1.87,16.67a132.58,132.58,0,0,0-7.08,18.26,122.88,122.88,0,0,0-4.34,22l3.29-.9c-2.91-4.77-3.9-10.33-5.3-15.67-1.36-5.19-3.23-10.2-6.92-14.2-5.66-6.15-17.93-11.3-16.09-21.45a12.46,12.46,0,0,1,9.78-10.17c2.24-.4,1.29-3.81-.94-3.42Z"/><path class="cls-2" d="M1200.78,212.84c1.67,3.28,3.52,6.6,6.53,8.83a9.23,9.23,0,0,0,9.35,1.11c3-1.3,5-4.26,4.27-7.58s-4.13-5.17-7.22-5.82c-3.94-.83-8.6.55-12.13-1.77-1.91-1.26-3.68,1.8-1.79,3,2.91,1.91,6.43,1.84,9.78,1.88,2.42,0,5.28.26,7.09,2.08a2.94,2.94,0,0,1,.87,2.5,3.21,3.21,0,0,1-1.58,2,5.63,5.63,0,0,1-6.3-.17c-2.77-1.82-4.36-5.09-5.82-7.94-1-2-4.09-.24-3,1.78Z"/><path class="cls-2" d="M1241,234.42l2.55,9.71a1.77,1.77,0,1,0,3.41-.94l-2.55-9.71a1.77,1.77,0,1,0-3.41.94Z"/><path class="cls-2" d="M1224.14,179.29c-23,.8-42.46,16.75-54.73,35.13-11.8,17.69-17.76,39.05-17.85,60.25s5.62,42.37,17.27,60c11.34,17.18,28,30.45,46.91,38.51a112.89,112.89,0,0,0,60.3,8.16,102.27,102.27,0,0,0,54.7-26.61,114.23,114.23,0,0,0,32.15-52.84c6.07-21.94,5.44-46.92-5.14-67.41-10.65-20.65-30.41-35.73-51.15-45.32a142.54,142.54,0,0,0-71-12.69A140.38,140.38,0,0,0,1218,179c-2.23.47-1.28,3.89.94,3.42a138.1,138.1,0,0,1,69.77,3.58c21.63,6.82,42.58,19.06,57.07,36.75A74.78,74.78,0,0,1,1361,254.11a95.37,95.37,0,0,1,1.31,32.88,109,109,0,0,1-23.85,54.36c-12.72,15.49-29.65,27.56-48.91,33.39-18.94,5.73-39.42,5.46-58.43.16a107.11,107.11,0,0,1-50.08-30.25c-13.83-15.07-22.3-34.47-25-54.67a109.71,109.71,0,0,1,8.66-59.85c8.7-19,23.9-36.93,44-44.24a50.57,50.57,0,0,1,15.44-3.07c2.27-.07,2.28-3.61,0-3.53Z"/><path class="cls-2" d="M1217.24,187.34c6.58,3.21,10.21,9.86,13.54,16s7.06,12.86,13.21,16.84a17.64,17.64,0,0,0,10.68,2.86,25.21,25.21,0,0,0,11.51-4c7-4.33,12.18-11.08,19.46-15,3.77-2,8.41-3,11.21-6.46,2.43-3,3.19-7.52.4-10.57-1.55-1.68-4,.83-2.5,2.51,2,2.16,0,5.57-1.9,7-2.94,2.24-6.73,3.11-9.91,5-6.58,3.83-11.47,9.86-17.82,14-3.12,2-6.68,3.76-10.45,4a14.62,14.62,0,0,1-9.34-2.68c-5.45-3.74-8.62-10-11.67-15.6-3.56-6.6-7.63-13.58-14.63-17-2-1-3.84,2.06-1.79,3.06Z"/><path class="cls-2" d="M1323.1,198.26c-5.38.76-9.12,5.14-11.95,9.42-1.75,2.65-3.33,5.42-5,8.13s-3.26,5.3-3.84,8.33a10.55,10.55,0,0,0,1.32,7.93,8.72,8.72,0,0,0,6.67,3.6c2.8.25,5.62-.46,8.37-.93a51.54,51.54,0,0,1,9.78-.41c6.81.13,13.91-.07,19.45-4.56,1.77-1.43-.74-3.92-2.5-2.5-4,3.27-9.59,3.6-14.56,3.56-2.94,0-5.89-.18-8.83,0-2.6.15-5.13.7-7.7,1.1-2.08.32-4.56.59-6.44-.58s-2.45-3.56-2.24-5.67c.27-2.65,1.76-5.07,3.1-7.3,1.45-2.41,2.89-4.82,4.36-7.2,2.55-4.15,5.73-8.78,10.92-9.51a1.78,1.78,0,0,0,1.24-2.18,1.82,1.82,0,0,0-2.18-1.23Z"/><path class="cls-2" d="M1359.29,250.43c-6.11-.52-10.85,4-14.46,8.36a38.62,38.62,0,0,1-6,6.4,19.11,19.11,0,0,1-6.46,3.06c-9.68,2.71-20.69.39-29.61,5.82a19.06,19.06,0,0,0-5.61,26.72,76.61,76.61,0,0,0,5.68,6.8,33.1,33.1,0,0,1,4.85,7.26c2.51,5.2,3.7,10.94,5,16.54,1.44,6.22,2.77,13.11,7.1,18.06,4,4.55,11,6.31,16,2.42a1.78,1.78,0,0,0,0-2.5,1.82,1.82,0,0,0-2.5,0c-4,3.09-9.55-.11-11.94-3.63-3-4.42-4-10-5.21-15.09-1.23-5.33-2.41-10.68-4.56-15.73a33.7,33.7,0,0,0-4-7.09c-1.61-2.16-3.48-4.1-5.24-6.13a20.93,20.93,0,0,1-4.07-6.32,15.58,15.58,0,0,1-.81-6.67,15.22,15.22,0,0,1,6.52-11.22c3.78-2.5,8.34-3.31,12.78-3.75,4.84-.48,9.74-.57,14.52-1.58a26.23,26.23,0,0,0,7.29-2.6,24.79,24.79,0,0,0,6.66-5.67c3.67-4.24,7.72-10.46,14.13-9.92,2.27.19,2.26-3.35,0-3.54Z"/><path class="cls-2" d="M1257,230.71l2.45,9.27a1.77,1.77,0,0,0,3.42-.94l-2.45-9.27a1.77,1.77,0,0,0-3.42.94Z"/><path class="cls-2" d="M1236.6,264c5.17,6.73,11.39,13.46,20.35,14.38,8.23.84,14.87-5,17.94-12.17,2-4.71,2.69-9.78,3.27-14.82a1.79,1.79,0,0,0-1.77-1.77,1.81,1.81,0,0,0-1.77,1.77c-.81,7-2,14.74-7.32,19.87a12.55,12.55,0,0,1-8.7,3.66,17.81,17.81,0,0,1-10.22-3.61,43.26,43.26,0,0,1-8.73-9.09,1.83,1.83,0,0,0-2.42-.64,1.78,1.78,0,0,0-.63,2.42Z"/><path class="cls-2" d="M1331.59,145.63a46.51,46.51,0,0,1-13.31-16.19,45.6,45.6,0,0,1-3.53-9.72c-.33-1.38-.86-3.13-.37-4.53s1.81-1.23,2.91-.64a9.75,9.75,0,0,1,3.7,4.23,22.12,22.12,0,0,1,2.25,6.31l3.41-.94c-.81-3.92-1.39-8.42-.68-12.4.67-3.71,4.53-2.62,6.11-.16,1.91,3,2.63,7,3.09,10.42a42.83,42.83,0,0,1,0,11.31,42,42,0,0,1-3.65,12.29c-1,2,2.08,3.85,3,1.79a46.25,46.25,0,0,0,3.87-27.37c-.66-4.06-1.69-9.11-4.77-12.09-2.84-2.76-8.14-3.22-10.3.65-1.24,2.23-1.15,5.12-1.12,7.59a47.7,47.7,0,0,0,1,8.91c.46,2.23,3.87,1.28,3.41-.94-.87-4.33-2.87-9.23-6.51-12a6.88,6.88,0,0,0-5.46-1.54,5.16,5.16,0,0,0-3.83,4.07,14.27,14.27,0,0,0,.53,6.12,47,47,0,0,0,1.91,6,50.13,50.13,0,0,0,6.25,11.42,50.87,50.87,0,0,0,10.26,10.41,1.77,1.77,0,0,0,2.42-.63,1.8,1.8,0,0,0-.63-2.42Z"/><path class="cls-2" d="M1375,204.19a52.91,52.91,0,0,1-12.45-18.11c-1.25-3-2.69-6.55-2.77-9.87,0-1.06,0-2.48.86-3.25s1.95-.36,2.71.33a11.49,11.49,0,0,1,2.68,4.31l3,7.41c.83,2.06,4.07,1.3,3.41-.94a18.77,18.77,0,0,1,.39-11.78c.36-1,1.19-3.63,2.62-3.45s2.5,2.26,3,3.41a38.6,38.6,0,0,1,1.54,22.6,39.6,39.6,0,0,1-5,12.19c-1.2,1.94,1.86,3.72,3.06,1.79a43.57,43.57,0,0,0,4.94-34,20.31,20.31,0,0,0-2.53-6.21c-1.16-1.66-2.91-3.29-5.07-3.31s-3.88,1.6-4.85,3.5A22,22,0,0,0,1369,185l3.41-.94c-1-2.55-2-5.1-3.07-7.64a16.69,16.69,0,0,0-3-5.17c-2.54-2.79-7.07-3.18-9.11.42-1.89,3.33-.71,7.54.34,10.93a56.31,56.31,0,0,0,15,24.08c1.65,1.57,4.15-.93,2.5-2.5Z"/><text class="cls-3" transform="translate(161.65 443.3) rotate(-12.86)">黑客松同樣關注全球永續發展議題<tspan class="cls-4" x="859.41" y="0">，</tspan><tspan x="0" y="56.3">期望參賽者在創造的同時</tspan><tspan class="cls-4" x="630.23" y="56.3">，</tspan><tspan x="0" y="112.6">也能藉由想像力的火花為</tspan><tspan x="0" y="168.9">世界貢獻一份心力</tspan></text></g></g></svg>