<svg xmlns="http://www.w3.org/2000/svg" viewBox="0 0 827.15 77.1"><defs><style>.cls-1{fill:#fff;}</style></defs><g id="Layer_2" data-name="Layer 2"><g id="圖層_2" data-name="圖層 2"><path class="cls-1" d="M69.31,0H6.3A6.3,6.3,0,0,0,0,6.42V70.67A6.3,6.3,0,0,0,6.3,77.1h63a6.3,6.3,0,0,0,6.3-6.43V6.42A6.3,6.3,0,0,0,69.31,0ZM37.81,74.53V48.83H27.72V38.55H37.81v-9a14.12,14.12,0,0,1,12.6-14.13H61.75V25.7H51.67a3.74,3.74,0,0,0-3.78,3.85v9h12.6V48.83H47.89v25.7Z"/><path class="cls-1" d="M142.87,18.41V34.92H127.41v3.85h16.28v3.07H127.41v4h19.06V49H104.9V45.87H124v-4H107.68V38.77H124V34.92H108.55V18.41ZM112.58,51.77a33.21,33.21,0,0,1-4.13,8.74l-3.17-1.1A33.6,33.6,0,0,0,109.56,51ZM124.1,21.39H111.86V32H124.1Zm-3.21,8.4-2.84.77a45.16,45.16,0,0,0-3.16-6.72l2.78-.92A41.8,41.8,0,0,1,120.89,29.79Zm2.4,30-3.36.77a52.84,52.84,0,0,0-2.4-8.4l3.07-.67C121.56,54,122.47,56.77,123.29,59.74Zm16.27-38.35H127.27V32h12.29Zm-5.28,38.26-3.31.76a43.91,43.91,0,0,0-3.41-8.49l3.07-.67A61.1,61.1,0,0,1,134.28,59.65Zm2-36.2a28.29,28.29,0,0,1-3.32,7.06l-2.78-1a27.43,27.43,0,0,0,3.22-6.82Zm9.93,35.14-2.73,1.92a73.7,73.7,0,0,0-5.76-8.21l2.59-1.63A58.76,58.76,0,0,1,146.18,58.59Z"/><path class="cls-1" d="M171,24.94c-.72,1.1-1.44,2.16-2.21,3.17H186.5v2.78A26.24,26.24,0,0,1,178,38.14a59.5,59.5,0,0,0,17.57,3.79l-.77,3.12a55.82,55.82,0,0,1-20.4-5.13A88,88,0,0,1,153,46l-1.3-3.07a93.9,93.9,0,0,0,19.25-4.85,43.92,43.92,0,0,1-6.77-4.89,46.11,46.11,0,0,1-6,4.51L155.92,35a35.58,35.58,0,0,0,11.72-10.8Zm22.18,4.22h-3.51V23.21h-32v5.95h-3.5V20.09h17.57A32.61,32.61,0,0,0,170,16.73l3.79-.57c.58,1.15,1.11,2.49,1.68,3.93h17.72Zm-5.38,31.5h-3.36V58.59H163.8v2.07h-3.36v-15H187.8Zm-3.36-5.19V48.75H163.8v6.72ZM182.37,31H166.29l-.14.14a43.38,43.38,0,0,0,8.3,5.38A28.8,28.8,0,0,0,182.37,31Z"/><path class="cls-1" d="M210.79,60.32h-3.41V36.46a55.05,55.05,0,0,1-6.29,12.72l-1.49-3.74a44,44,0,0,0,7.73-16.23h-7V25.9h7V16.54h3.41V25.9h5.76v3.31h-5.76v3.36c2.21,2.59,4.51,5.57,6.86,8.88l-2,3c-1.87-3.36-3.51-6-4.85-8.07ZM227.3,18.6q-3.09,13.4-8.11,20.45l-2.64-2.3c3.36-4.8,5.9-11.23,7.58-19.39Zm14.79,40.76-3.22,1.44c-.53-1.63-1.05-3.17-1.58-4.61a141,141,0,0,1-18.92,3.07L217.7,56c2.79-2,6.24-9.65,10.42-22.9l3.41,1.15a121.75,121.75,0,0,1-9,21.32,94.51,94.51,0,0,0,13.64-2.31c-1.3-3.26-2.65-6.28-4-9l3.17-1.06A114.7,114.7,0,0,1,242.09,59.36Zm1.68-23-2.31,2.74c-4.32-5.38-7.29-12.24-9-20.69l2.88-1.58C236.9,24.8,239.74,31.28,243.77,36.36Z"/><path class="cls-1" d="M269.06,21.44V36.32h19.83V21.44h3.93V55.71h-3.93v-16H269.06v16h-3.94V21.44Z"/><path class="cls-1" d="M317.88,33a9.91,9.91,0,0,1,2.2,6.77V55.71h-3.59V51.53a11.56,11.56,0,0,1-3.8,3.32,12.67,12.67,0,0,1-6.19,1.53,8.91,8.91,0,0,1-5.95-1.87,6.26,6.26,0,0,1-2.31-5,7,7,0,0,1,3.41-6.39c2-1.34,4.9-2.06,8.64-2.11l5.95-.09v-1.3c0-4.18-2.16-6.24-6.48-6.24a7.87,7.87,0,0,0-4.46,1.1A5.42,5.42,0,0,0,302.8,38L299,37.76A8.53,8.53,0,0,1,302.85,32,13.18,13.18,0,0,1,310,30.22C313.56,30.22,316.15,31.13,317.88,33Zm-7.35,10.9c-5.57.1-8.35,1.92-8.35,5.52a3.4,3.4,0,0,0,1.39,2.83,6.1,6.1,0,0,0,3.75,1.11,9.39,9.39,0,0,0,6.24-2.31,6.61,6.61,0,0,0,2.68-5.13V43.81Z"/><path class="cls-1" d="M344.13,32.38a9.92,9.92,0,0,1,3.51,6.77h-3.8a6.75,6.75,0,0,0-2.3-4.32,7.6,7.6,0,0,0-4.8-1.39A6.81,6.81,0,0,0,331,36.17a11.63,11.63,0,0,0-2,7.2c0,3,.63,5.43,2,7.16a6.78,6.78,0,0,0,5.71,2.64c4.23,0,6.67-2.16,7.25-6.44h3.84a12,12,0,0,1-3.7,7.25,11,11,0,0,1-7.39,2.4A10.66,10.66,0,0,1,328,52.64a13.87,13.87,0,0,1-2.93-9.22A14.08,14.08,0,0,1,328,34.16a10.59,10.59,0,0,1,8.74-3.94A11.76,11.76,0,0,1,344.13,32.38Z"/><path class="cls-1" d="M356.13,20.76V42.41l12.43-11.52h5.09l-10.94,10,12,14.83h-4.95l-9.69-12.34-3.94,3.56v8.78h-3.84V20.76Z"/><path class="cls-1" d="M396.36,33a9.91,9.91,0,0,1,2.2,6.77V55.71H395V51.53a11.52,11.52,0,0,1-3.79,3.32A12.67,12.67,0,0,1,385,56.38a8.89,8.89,0,0,1-6-1.87,6.26,6.26,0,0,1-2.31-5,7,7,0,0,1,3.41-6.39c2-1.34,4.9-2.06,8.64-2.11l6-.09v-1.3c0-4.18-2.16-6.24-6.48-6.24a7.87,7.87,0,0,0-4.46,1.1,5.42,5.42,0,0,0-2.5,3.55l-3.79-.28A8.5,8.5,0,0,1,381.33,32a13.18,13.18,0,0,1,7.15-1.73C392,30.22,394.63,31.13,396.36,33ZM389,43.9c-5.57.1-8.35,1.92-8.35,5.52a3.4,3.4,0,0,0,1.39,2.83,6.09,6.09,0,0,0,3.74,1.11A9.39,9.39,0,0,0,392,51.05a6.61,6.61,0,0,0,2.68-5.13V43.81Z"/><path class="cls-1" d="M411.14,30.89h6.14v3.22h-6.14V49.9a2.74,2.74,0,0,0,.53,2,2.38,2.38,0,0,0,1.82.62h3.17v3.22h-3.75c-2,0-3.5-.53-4.36-1.58a6.34,6.34,0,0,1-1.2-4.23V34.11h-5V30.89h5V24.46l3.79-1.58Z"/><path class="cls-1" d="M425.39,20.76V35a9,9,0,0,1,3.46-3.6,8.88,8.88,0,0,1,4.51-1.15c2.88,0,5.14.82,6.68,2.54s2.3,4.13,2.3,7.3V55.71H438.5V40.64a8.06,8.06,0,0,0-1.63-5.33,6.18,6.18,0,0,0-4.8-1.87,5.87,5.87,0,0,0-4.76,2.3,8.77,8.77,0,0,0-1.92,5.81V55.71h-3.84V20.76Z"/><path class="cls-1" d="M468.21,34.06a13.67,13.67,0,0,1,3.17,9.27,13.61,13.61,0,0,1-3.12,9.16,11.24,11.24,0,0,1-8.93,3.89,11,11,0,0,1-8.88-3.89,13.4,13.4,0,0,1-3.17-9.16,13.67,13.67,0,0,1,3.17-9.27,12.19,12.19,0,0,1,17.76,0Zm-15,2.4a11.14,11.14,0,0,0-2,6.87,11.07,11.07,0,0,0,2,6.81,7.11,7.11,0,0,0,6.14,3,7.37,7.37,0,0,0,6.19-3,11.51,11.51,0,0,0,2-6.81,11.47,11.47,0,0,0-2-6.87,7.39,7.39,0,0,0-6.19-3A7.12,7.12,0,0,0,453.19,36.46Z"/><path class="cls-1" d="M497.25,40.45V55.71h-3.84v-15c0-4.85-2.21-7.24-6.53-7.24a6.08,6.08,0,0,0-4.46,1.87,7.93,7.93,0,0,0-2.21,5.37v15h-3.84V30.89h3.84v3.65a8.73,8.73,0,0,1,3.31-3.17A8.83,8.83,0,0,1,488,30.22C494.13,30.22,497.25,33.63,497.25,40.45Z"/><path class="cls-1" d="M545.11,21.44v3.4H533V55.71h-3.89V24.84H517v-3.4Z"/><path class="cls-1" d="M567.57,33a9.92,9.92,0,0,1,2.21,6.77V55.71h-3.6V51.53a11.62,11.62,0,0,1-3.79,3.32,12.71,12.71,0,0,1-6.2,1.53,8.93,8.93,0,0,1-6-1.87,6.25,6.25,0,0,1-2.3-5,7,7,0,0,1,3.4-6.39c2-1.34,4.9-2.06,8.65-2.11l6-.09v-1.3c0-4.18-2.16-6.24-6.48-6.24a7.89,7.89,0,0,0-4.47,1.1A5.4,5.4,0,0,0,552.5,38l-3.8-.28A8.53,8.53,0,0,1,552.54,32a13.2,13.2,0,0,1,7.16-1.73C563.25,30.22,565.84,31.13,567.57,33Zm-7.34,10.9c-5.57.1-8.36,1.92-8.36,5.52a3.4,3.4,0,0,0,1.39,2.83A6.1,6.1,0,0,0,557,53.36a9.39,9.39,0,0,0,6.24-2.31,6.6,6.6,0,0,0,2.69-5.13V43.81Z"/><path class="cls-1" d="M581,22.35a2.46,2.46,0,0,1,.86,2,2.79,2.79,0,0,1-.86,2.07,3,3,0,0,1-4.13,0,2.78,2.78,0,0,1-.81-2.07,2.45,2.45,0,0,1,.81-2,3,3,0,0,1,4.13,0Zm-.14,8.54V55.71H577V30.89Z"/><path class="cls-1" d="M589.5,30.89,595.6,51l5.76-20.12H605L610.72,51l6.1-20.12H621l-8.45,24.82H609l-5.76-20-5.86,20h-3.6l-8.45-24.82Z"/><path class="cls-1" d="M642.93,33a9.92,9.92,0,0,1,2.21,6.77V55.71h-3.6V51.53a11.56,11.56,0,0,1-3.8,3.32,12.65,12.65,0,0,1-6.19,1.53,8.93,8.93,0,0,1-5.95-1.87,6.25,6.25,0,0,1-2.3-5,7,7,0,0,1,3.4-6.39c2-1.34,4.9-2.06,8.64-2.11l6-.09v-1.3c0-4.18-2.16-6.24-6.48-6.24a7.89,7.89,0,0,0-4.47,1.1A5.4,5.4,0,0,0,627.86,38l-3.8-.28A8.53,8.53,0,0,1,627.9,32a13.2,13.2,0,0,1,7.16-1.73C638.61,30.22,641.2,31.13,642.93,33Zm-7.35,10.9c-5.56.1-8.35,1.92-8.35,5.52a3.4,3.4,0,0,0,1.39,2.83,6.1,6.1,0,0,0,3.75,1.11,9.39,9.39,0,0,0,6.24-2.31,6.63,6.63,0,0,0,2.69-5.13V43.81Z"/><path class="cls-1" d="M672,40.45V55.71h-3.84v-15c0-4.85-2.21-7.24-6.53-7.24a6.06,6.06,0,0,0-4.46,1.87,7.93,7.93,0,0,0-2.21,5.37v15h-3.84V30.89h3.84v3.65a9.08,9.08,0,0,1,7.77-4.32C668.85,30.22,672,33.63,672,40.45Z"/><path class="cls-1" d="M712.34,21.44V44.77c0,3.74-.77,6.52-2.31,8.44-1.73,2.12-4.51,3.17-8.3,3.17-3.22,0-5.67-.91-7.4-2.64s-2.68-4.41-2.68-7.77v-1.2h3.93v1.15c0,4.61,2.07,7,6.24,7a6,6,0,0,0,5-2.07c1-1.29,1.54-3.36,1.54-6.19V21.44Z"/><path class="cls-1" d="M722.56,30.89V46.06c0,2.35.48,4.13,1.49,5.28a6.2,6.2,0,0,0,4.89,1.78,6.29,6.29,0,0,0,4.42-1.92A8.82,8.82,0,0,0,735.81,46V30.89h3.84V55.71h-3.84V51.87a9.36,9.36,0,0,1-8.07,4.51c-6,0-9-3.41-9-10.13V30.89Z"/><path class="cls-1" d="M766.48,40.45V55.71h-3.84v-15c0-4.85-2.21-7.24-6.53-7.24a6.06,6.06,0,0,0-4.46,1.87,7.93,7.93,0,0,0-2.21,5.37v15H745.6V30.89h3.84v3.65a9.08,9.08,0,0,1,7.77-4.32C763.36,30.22,766.48,33.63,766.48,40.45Z"/><path class="cls-1" d="M777.66,22.35a2.47,2.47,0,0,1,.87,2,2.8,2.8,0,0,1-.87,2.07,3,3,0,0,1-4.13,0,2.78,2.78,0,0,1-.81-2.07,2.45,2.45,0,0,1,.81-2,3,3,0,0,1,4.13,0Zm-.14,8.54V55.71h-3.84V30.89Z"/><path class="cls-1" d="M804.69,34.06a13.67,13.67,0,0,1,3.17,9.27,13.61,13.61,0,0,1-3.12,9.16,11.25,11.25,0,0,1-8.93,3.89,11,11,0,0,1-8.88-3.89,13.35,13.35,0,0,1-3.17-9.16,13.62,13.62,0,0,1,3.17-9.27,12.19,12.19,0,0,1,17.76,0Zm-15,2.4a11.2,11.2,0,0,0-2,6.87,11.14,11.14,0,0,0,2,6.81,7.13,7.13,0,0,0,6.15,3,7.38,7.38,0,0,0,6.19-3,11.58,11.58,0,0,0,2-6.81,11.54,11.54,0,0,0-2-6.87,7.4,7.4,0,0,0-6.19-3A7.14,7.14,0,0,0,789.66,36.46Z"/><path class="cls-1" d="M827.15,30.8v3.84a12.35,12.35,0,0,0-3.7-.53,5.79,5.79,0,0,0-4.84,2.54,8.92,8.92,0,0,0-2,5.91V55.71h-3.79V30.89h3.79v4.32a9,9,0,0,1,2.59-3.41,6.93,6.93,0,0,1,4.51-1.58A8.73,8.73,0,0,1,827.15,30.8Z"/></g></g></svg>