<svg xmlns="http://www.w3.org/2000/svg" viewBox="0 0 307.73 78.19"><defs><style>.cls-1{fill:#fff;}.cls-2,.cls-3{fill:none;stroke:#fff;stroke-miterlimit:10;}.cls-2{stroke-width:4.78px;}.cls-3{stroke-width:0.8px;}</style></defs><g id="Layer_2" data-name="Layer 2"><g id="圖層_2" data-name="圖層 2"><path class="cls-1" d="M112,21.62V35.83a8.77,8.77,0,0,1,8-4.75c2.88,0,5.13.81,6.67,2.54s2.3,4.13,2.3,7.3V56.57h-3.84V41.5a8,8,0,0,0-1.63-5.33,6.19,6.19,0,0,0-4.8-1.88,5.86,5.86,0,0,0-4.75,2.31A8.7,8.7,0,0,0,112,42.41V56.57h-3.84V21.62Z"/><path class="cls-1" d="M153.51,33.86a9.9,9.9,0,0,1,2.21,6.77V56.57h-3.6V52.39a11.42,11.42,0,0,1-3.8,3.31,12.54,12.54,0,0,1-6.19,1.54,8.93,8.93,0,0,1-5.95-1.87,6.26,6.26,0,0,1-2.31-5A7,7,0,0,1,137.28,44c2-1.34,4.9-2.06,8.64-2.11l6-.1V40.49c0-4.18-2.16-6.24-6.48-6.24a7.89,7.89,0,0,0-4.47,1.1,5.4,5.4,0,0,0-2.49,3.55l-3.8-.28a8.51,8.51,0,0,1,3.84-5.81,13.11,13.11,0,0,1,7.16-1.73C149.19,31.08,151.78,32,153.51,33.86Zm-7.35,10.9c-5.56.1-8.35,1.92-8.35,5.52a3.41,3.41,0,0,0,1.39,2.83A6.1,6.1,0,0,0,143,54.22a9.39,9.39,0,0,0,6.24-2.31,6.64,6.64,0,0,0,2.69-5.13V44.66Z"/><path class="cls-1" d="M179.76,33.24A9.88,9.88,0,0,1,183.27,40h-3.79a6.8,6.8,0,0,0-2.31-4.32,7.6,7.6,0,0,0-4.8-1.4A6.82,6.82,0,0,0,166.66,37a11.63,11.63,0,0,0-2,7.2c0,3,.63,5.43,2,7.15A6.75,6.75,0,0,0,172.32,54c4.23,0,6.68-2.16,7.25-6.43h3.84a11.9,11.9,0,0,1-3.69,7.25,11.08,11.08,0,0,1-7.4,2.4,10.66,10.66,0,0,1-8.69-3.74,13.94,13.94,0,0,1-2.92-9.22A14.17,14.17,0,0,1,163.63,35a10.58,10.58,0,0,1,8.74-3.93A11.76,11.76,0,0,1,179.76,33.24Z"/><path class="cls-1" d="M191.76,21.62V43.27L204.2,31.75h5.08l-10.94,10,12,14.83H205.4l-9.7-12.34-3.94,3.55v8.79h-3.84V21.62Z"/><path class="cls-1" d="M218.88,31.75v27.7c0,4.42-2.35,6.62-7,6.62h-2.3V62.86h2c2.26,0,3.41-1.2,3.41-3.56V31.75Zm.19-8.54a2.59,2.59,0,0,1,.82,2,3,3,0,0,1-.82,2.07,3.07,3.07,0,0,1-2.11.81,3,3,0,0,1-2.06-.81,2.75,2.75,0,0,1-.82-2.07,2.43,2.43,0,0,1,.82-2,2.73,2.73,0,0,1,2.06-.82A2.82,2.82,0,0,1,219.07,23.21Z"/><path class="cls-1" d="M240.43,31.65v3.84a12.55,12.55,0,0,0-3.69-.52,5.82,5.82,0,0,0-4.85,2.54,9,9,0,0,0-2,5.91V56.57h-3.79V31.75h3.79v4.32a9.13,9.13,0,0,1,2.59-3.41A7,7,0,0,1,237,31.08,8.92,8.92,0,0,1,240.43,31.65Z"/><path class="cls-1" d="M264.82,22.29v3.22L252.19,56.57H248l12.77-30.68H242.31v-3.6Z"/><path class="cls-1" d="M276.53,31.75h6.14V35h-6.14V50.76a2.75,2.75,0,0,0,.53,2,2.38,2.38,0,0,0,1.82.62h3.17v3.22h-3.74c-2,0-3.51-.53-4.37-1.59a6.31,6.31,0,0,1-1.2-4.22V35h-5V31.75h5V25.32l3.79-1.59Z"/><path class="cls-1" d="M290.79,21.62V35.83a8.77,8.77,0,0,1,8-4.75c2.88,0,5.14.81,6.68,2.54s2.3,4.13,2.3,7.3V56.57h-3.84V41.5a8.06,8.06,0,0,0-1.63-5.33,6.19,6.19,0,0,0-4.8-1.88,5.84,5.84,0,0,0-4.75,2.31,8.7,8.7,0,0,0-1.92,5.81V56.57h-3.85V21.62Z"/><rect class="cls-2" x="2.39" y="2.39" width="73.41" height="73.41" rx="21.52"/><circle class="cls-2" cx="39.09" cy="39.09" r="16.96"/><circle class="cls-3" cx="60.82" cy="17.48" r="4.77"/></g></g></svg>