<svg xmlns="http://www.w3.org/2000/svg" viewBox="0 0 1669.67 1425.6"><defs><style>.cls-1,.cls-10{fill:#736357;}.cls-2{fill:#998675;}.cls-11,.cls-3,.cls-35,.cls-36,.cls-4,.cls-5,.cls-6,.cls-7,.cls-8,.cls-9{fill:none;}.cls-10,.cls-3,.cls-35,.cls-36,.cls-4,.cls-40,.cls-6,.cls-7,.cls-8,.cls-9{stroke:#534741;}.cls-10,.cls-11,.cls-3,.cls-35,.cls-36,.cls-4,.cls-40,.cls-5,.cls-6,.cls-7,.cls-8,.cls-9{stroke-miterlimit:10;}.cls-3{stroke-width:1.84px;}.cls-4{stroke-width:0.57px;}.cls-11,.cls-5{stroke:#fff;}.cls-5{stroke-width:0.8px;}.cls-6{stroke-width:1.9px;}.cls-7{stroke-width:0.58px;}.cls-8{stroke-width:1.9px;}.cls-9{stroke-width:0.58px;}.cls-10{stroke-width:1.5px;}.cls-11{stroke-width:1.41px;}.cls-12{font-size:68px;font-family:HiraKakuProN-W3-90ms-RKSJ-H, Hiragino Kaku Gothic Pro;letter-spacing:0.07em;}.cls-12,.cls-15,.cls-17,.cls-23,.cls-24,.cls-28,.cls-33{fill:#fff;}.cls-13{font-size:64.11px;letter-spacing:0.2em;}.cls-13,.cls-14,.cls-18,.cls-20,.cls-26,.cls-31,.cls-32,.cls-34,.cls-37,.cls-40{fill:#534741;}.cls-13,.cls-14,.cls-17,.cls-20,.cls-23,.cls-32,.cls-33,.cls-34,.cls-37{font-family:HiraKakuProN-W5-90ms-RKSJ-H, Hiragino Sans;}.cls-14{font-size:48px;letter-spacing:0.2em;}.cls-15,.cls-18{font-size:36.91px;}.cls-15,.cls-18,.cls-24,.cls-26,.cls-28,.cls-31{font-family:HiraKakuProN-W6-90ms-RKSJ-H, Hiragino Kaku Gothic Pro;}.cls-15,.cls-19{letter-spacing:-0.17em;}.cls-16,.cls-18{letter-spacing:0.08em;}.cls-17{font-size:56.34px;letter-spacing:0.08em;}.cls-20{font-size:68.52px;letter-spacing:0.04em;}.cls-21{letter-spacing:0.07em;}.cls-22{letter-spacing:0.07em;}.cls-23{font-size:54px;letter-spacing:0.02em;}.cls-24,.cls-26,.cls-31{font-size:35px;}.cls-24,.cls-27,.cls-31{letter-spacing:0.07em;}.cls-25,.cls-26{letter-spacing:-0.17em;}.cls-28{font-size:37px;letter-spacing:0.08em;}.cls-29{letter-spacing:-0.18em;}.cls-30{letter-spacing:0.07em;}.cls-32{font-size:55px;}.cls-32,.cls-33,.cls-37{letter-spacing:0.2em;}.cls-33{font-size:60px;}.cls-34{font-size:47.6px;letter-spacing:0.2em;}.cls-35{stroke-width:1.94px;}.cls-36{stroke-width:2.7px;}.cls-37{font-size:40px;}.cls-38{letter-spacing:0.16em;}.cls-39{letter-spacing:0.16em;}.cls-40{stroke-width:4px;}</style></defs><g id="Layer_2" data-name="Layer 2"><g id="參賽流程"><circle class="cls-1" cx="200.66" cy="344.03" r="165.04"/><circle class="cls-2" cx="724.46" cy="363.8" r="182.99"/><circle class="cls-3" cx="162.06" cy="633.09" r="161.14"/><circle class="cls-4" cx="162.06" cy="633.09" r="151.56"/><circle class="cls-5" cx="200.66" cy="344.03" r="154.36"/><circle class="cls-6" cx="872.4" cy="641.87" r="166.44"/><circle class="cls-7" cx="872.4" cy="641.87" r="156.56"/><circle class="cls-8" cx="218.52" cy="1259.05" r="165.6"/><circle class="cls-9" cx="218.52" cy="1259.05" r="155.76"/><circle class="cls-10" cx="687.44" cy="902.5" r="195.03"/><circle class="cls-11" cx="689.17" cy="902.5" r="183.78"/><text class="cls-12" transform="translate(132.64 349.32)">開幕</text><text class="cls-13" transform="translate(93.22 595.85)">開始<tspan x="0" y="69.94">創作</tspan></text><text class="cls-14" transform="translate(733.2 623.41)">企劃書投票<tspan x="57.6" y="57.6">第一輪</tspan></text><text class="cls-15" transform="translate(150.92 405.69)">9：<tspan class="cls-16" x="50.28" y="0">00</tspan></text><text class="cls-17" transform="translate(672.44 320.73)">作品<tspan x="-60.57" y="79.66">收件截止</tspan></text><circle class="cls-2" cx="1494.1" cy="937.67" r="163.84"/><text class="cls-17" transform="translate(1381.86 897.61)">獲獎名單<tspan x="60.57" y="79.66">公布</tspan></text><text class="cls-18" transform="translate(93.6 729.09)">1<tspan class="cls-19" x="29.05" y="0">0：</tspan><tspan x="79.33" y="0">00</tspan></text><text class="cls-20" transform="translate(147.74 1234.26)">自<tspan class="cls-21" x="70.99" y="0">行</tspan><tspan class="cls-22"><tspan x="2.6" y="88.22">創作</tspan></tspan></text><text class="cls-23" transform="translate(549.74 868.18)">企劃書投票<tspan x="55.35" y="70.52">第二輪</tspan></text><text class="cls-24" transform="translate(668.79 464.55)">1<tspan class="cls-25" x="27.54" y="0">2：</tspan><tspan x="75.21" y="0">00</tspan></text><text class="cls-24" transform="translate(1437.04 1031.16)">1<tspan class="cls-25" x="27.54" y="0">6：</tspan><tspan x="75.21" y="0">00</tspan></text><text class="cls-26" transform="translate(1450.81 446.76)">9：<tspan class="cls-27" x="47.67" y="0">00</tspan></text><text class="cls-28" transform="translate(621.6 1004)">1<tspan class="cls-29" x="29.12" y="0">4：</tspan><tspan class="cls-30" x="79.51" y="0">00</tspan></text><text class="cls-31" transform="translate(803.94 729.74)">1<tspan class="cls-25" x="27.54" y="0">3：</tspan><tspan x="75.21" y="0">00</tspan></text><circle class="cls-6" cx="1501.88" cy="364.46" r="166.44"/><circle class="cls-7" cx="1501.88" cy="364.46" r="156.56"/><circle class="cls-10" cx="1356.91" cy="645.09" r="195.03"/><circle class="cls-11" cx="1358.65" cy="645.09" r="183.78"/><text class="cls-32" transform="translate(1407.38 319.75)">基礎組<tspan x="-12.21" y="66">DEMO</tspan></text><text class="cls-33" transform="translate(1254.91 599.81)">進階組<tspan x="-13.32" y="70.52">DEMO</tspan></text><text class="cls-34" transform="translate(133.59 61.8)">7/13</text><rect class="cls-35" x="89.28" y="1.56" width="233.31" height="82.6"/><text class="cls-34" transform="translate(132.37 962.74)">7/14</text><rect class="cls-35" x="88.06" y="902.5" width="233.31" height="82.6"/><text class="cls-34" transform="translate(693.47 61.21)">7/15</text><rect class="cls-35" x="649.16" y="0.97" width="233.31" height="82.6"/><rect class="cls-36" x="1219.17" y="2.5" width="449.15" height="82.6"/><text class="cls-34" transform="translate(1242.54 61.21)">7/21</text><text class="cls-37" transform="translate(1453.81 60.56)">決賽<tspan class="cls-38" x="96" y="0">當</tspan><tspan class="cls-39" x="142.36" y="0">日</tspan></text><circle class="cls-40" cx="1420.38" cy="46.81" r="3.53"/><text class="cls-28" transform="translate(1289.43 729.84)">1<tspan class="cls-29" x="29.12" y="0">2：</tspan><tspan class="cls-30" x="79.51" y="0">00</tspan></text></g></g></svg>