<?xml version="1.0" encoding="utf-8"?>
<!-- Generator: Adobe Illustrator 25.0.0, SVG Export Plug-In . SVG Version: 6.00 Build 0)  -->
<svg version="1.1" id="Layer_1" xmlns="http://www.w3.org/2000/svg" xmlns:xlink="http://www.w3.org/1999/xlink" x="0px" y="0px"
	 viewBox="0 0 466.8 1003.5" style="enable-background:new 0 0 466.8 1003.5;" xml:space="preserve">
<style type="text/css">
	.st0{fill:#998675;}
	.st1{fill:none;stroke:#534741;stroke-width:1.95;stroke-miterlimit:10;}
	.st2{fill:none;stroke:#534741;stroke-width:0.6;stroke-miterlimit:10;}
	.st3{fill:none;stroke:#534741;stroke-width:2;stroke-miterlimit:10;}
	.st4{fill:none;stroke:#534741;stroke-miterlimit:10;}
	.st5{fill:#FFFFFF;}
	.st6{font-family:'HiraKakuProN-W3-90ms-RKSJ-H';}
	.st7{font-size:61px;}
	.st8{letter-spacing:4;}
	.st9{fill:#534741;}
	.st10{font-size:70.54px;}
	.st11{font-family:'HiraKakuProN-W5-90ms-RKSJ-H';}
	.st12{font-size:56px;}
	.st13{font-family:'HiraKakuProN-W6-90ms-RKSJ-H';}
	.st14{font-size:32px;}
	.st15{letter-spacing:2;}
	.st16{letter-spacing:-5;}
	.st17{font-size:38px;}
	.st18{letter-spacing:-6;}
	.st19{letter-spacing:3;}
	.st20{font-size:49px;}
	.st21{letter-spacing:9;}
</style>
<g id="Layer_2_1_">
	<g id="圖層_2">
		<circle class="st0" cx="149.9" cy="616.6" r="149.9"/>
		<circle class="st1" cx="268.1" cy="368" r="170.5"/>
		<circle class="st2" cx="268.1" cy="368" r="160.4"/>
		<circle class="st3" cx="299.9" cy="836.6" r="165.9"/>
		<circle class="st4" cx="299.9" cy="836.6" r="156"/>
		<text transform="matrix(1 0 0 1 89.39 617.59)" class="st5 st6 st7 st8">午餐</text>
		<text transform="matrix(1 0 0 1 194.53 375.01)" class="st9 st6 st10 st8">創作</text>
		<text transform="matrix(1 0 0 1 214.3 802.65)" class="st9 st11 st12 st8">Pizza</text>
		<text transform="matrix(1 0 0 1 214.3 861.65)" class="st9 st11 st12 st8">Night</text>
		<text transform="matrix(1 0 0 1 94.09 670.16)" class="st5 st13 st14 st15">1</text>
		<text transform="matrix(1 0 0 1 119.27 670.16)" class="st5 st13 st14 st16">2：</text>
		<text transform="matrix(1 0 0 1 162.86 670.16)" class="st5 st13 st14 st15">30</text>
		<text transform="matrix(1 0 0 1 211.64 439.17)" class="st9 st13 st17 st18">8：</text>
		<text transform="matrix(1 0 0 1 263.4 439.17)" class="st9 st13 st17 st15">00</text>
		<text transform="matrix(1 0 0 1 229.39 927.7)" class="st9 st13 st17 st19">2</text>
		<text transform="matrix(1 0 0 1 259.3 927.7)" class="st9 st13 st17 st18">0：</text>
		<text transform="matrix(1 0 0 1 311.05 927.7)" class="st9 st13 st17 st19">00</text>
		<text transform="matrix(1 0 0 1 179.43 63.02)" class="st9 st11 st20 st21">7/14</text>
		<rect x="133.8" y="1" class="st3" width="240.2" height="85"/>
	</g>
</g>
</svg>
