<svg xmlns="http://www.w3.org/2000/svg" viewBox="0 0 3540.39 1948.41"><defs><style>.cls-1{opacity:0.5;}.cls-2,.cls-3{fill:none;stroke:#fff;stroke-miterlimit:10;}.cls-2{stroke-width:6.92px;}.cls-3{stroke-width:8.44px;}</style></defs><g id="Layer_2" data-name="Layer 2"><g id="參考"><g class="cls-1"><path class="cls-2" d="M818.7,208.35s57.61,40.8,75.07,61,93.88,114.74,93.88,114.74,9.51-35.27-73.9-129.06c0,0-16.11-11.57-35.25-23.34C855.21,217.37,827.42,202.75,818.7,208.35Z"/><path class="cls-2" d="M878.5,231.69s13.94-69.93,31.72-87.86,105.18-21.13,133.66-16.1S1069,142.64,1069,142.64s-13.72,67.15-8.68,119.27-85.41,77.25-85.41,77.25"/><path class="cls-2" d="M807,320.53s72.11-56.43,86.81-51.18l-21.63,23.43-55.57,43.56"/><path class="cls-2" d="M815.16,377.65s19.91-53.47-122.82-239.84c0,0,16.06,159.76,42.12,175.84,25.22,15.57,28,36.14,75.74,61.44C811.8,375.94,813.46,376.79,815.16,377.65Z"/><path class="cls-2" d="M814.2,352.2s50.49,2.06,221,102.8c0,0-88.29,5.7-120.31-13.34s-99.54-44.14-104.66-66.57c-5.9-25.85-2.49-46.22-41.75-82.2s-76.11-155.08-76.11-155.08"/><path class="cls-2" d="M789.4,363.06S684,481.39,683.75,494.87"/><path class="cls-2" d="M774.05,353.94S695.75,432.09,670,482.43"/><path class="cls-2" d="M726.88,404.78S668.46,294.29,625.62,273.15s-36-14.74-36-14.74S551.09,265,541.81,278s-12.52,11.81-15.09,34.64,22,130.56,36.17,144.89,59.49,41.26,76.82,29.95"/><path class="cls-2" d="M648.06,484.08c-52.48-10.37-51.79-55.86-51.79-55.86S635.7,437,673,531.64c0,0-3.23,86.91,25.1,94.24,0,0,108.35,81.64,127.1,82.09,0,0-80.24-156.61-106.17-163.62,0,0,29.8,11.78,47.17-.46s-11.15-86.36-28.28-121.47"/><path class="cls-2" d="M596.27,428.22s67.64,28.6,122.78,116.13"/><path class="cls-2" d="M703,629.54s19.55,57.22,51.6,76.27,57.2,19.74,57.2,19.74l18.45-8-5-9.53"/><path class="cls-2" d="M657.37,496.79S547.61,686.14,543,703"/><path class="cls-2" d="M666.8,516.67s-116.1,182-113.1,195.1c0,0,54-18.61,99.25,2S797.81,780.4,797.81,780.4s-55.16,42.74-88.9,42.71-142-81.72-142-81.72"/><path class="cls-2" d="M521.76,685.54s-6.85,40.56,15,54.7,39.28,23.36,39.28,23.36S555.4,702.1,521.76,685.54Z"/><path class="cls-2" d="M521.76,685.54s-44.13-105.76-63-116.4c0,0-79-62.43-92.22-69.12s12.07,64.39,42.6,84.26c0,0,103.36,122.5,111.7,120"/><path class="cls-2" d="M528,735.5s-104.85,209-92.14,208.79"/><path class="cls-2" d="M544.41,745.29s-39.49,57.16-76.75,146.26q-1.57,3.76-3.14,7.6c-5.85,14.34-11.62,29.45-17.14,45.24"/><path class="cls-2" d="M360.84,948.17S398.91,933,492,957.35l171.2,95s24.22,19.56-12,20.16c0,0-62.75-29.71-70.47-31.39s-120-34.5-125.52-30S342.47,959.53,360.84,948.17Z"/><path class="cls-2" d="M492,957.35s60.84,3.26-24.33-65.8"/><path class="cls-2" d="M456.43,884.88,402.27,836l-113.2-67.29s-21.25-7.34-43,45.54S315.5,947.81,339,949.85l54.23-6.27"/><path class="cls-2" d="M354.18,1185.3c1.6-29.74,61.29-187.23,61.29-187.23"/><path class="cls-2" d="M430.8,1002.48s-31.64,102.93-50.41,157.58c-6.43,18.76-11.36,31.83-13,33.11"/><path class="cls-2" d="M380.39,1160.06c24.35-13.85,269.94,11.31,269.94,11.31s-38.64,42.89-51.11,44.19-58.57,22.33-121.3,2.48S391,1207.18,391,1207.18"/><path class="cls-2" d="M113.85,1152s-12.55-13.31-5-23.47,112.21,9.06,132.25,16.77,118.46,38.05,149.94,61.84l55.28,32.25s-67.42-29-74.4-25.33-80.92-9.3-125.47-38.38S113.85,1152,113.85,1152Z"/><path class="cls-2" d="M246.4,1175.72S112,1169,113.85,1152"/><path class="cls-2" d="M346.05,1212.21S296.84,1414,302.94,1415.7"/><path class="cls-2" d="M363.85,1214.58s-42.37,199.23-35.92,192.73"/><path class="cls-2" d="M237,1470.11s-14.35-18.21,77.12-58.08,188.31-55.11,188.31-55.11,31.66-.67,36.32,2.11l27.56,16.38,53.42,31.75-9.27,5.7-12.09,7.42L577,1454.06s-190.93,80.14-231.17,58.8c0,0-8.32-32.7-17.19-37.32s-17.1-17.92-38-14.22S236.62,1486,237,1470.11Z"/><path class="cls-2" d="M610.49,1412.86c2.16,9.26,21.67,1.67,21.67,1.67s5.91-19.72-13.46-33.82-59-9.27-59-9.27"/><path class="cls-2" d="M302.71,1409.22s-34.36-38.14-75.47-84l-44.11-30.51s-44.91,2.6-98.65-23.73c0,0-25.36-2.83-29.61,6.89s-19,14.74,20.22,68.14c0,0,39.1,32.93,83.56,54.26s75.47,25,75.47,25,17.82,6.32,26.26,14.75"/><path class="cls-2" d="M290.66,1461.32s-13.25,242.46-5.36,241.09"/><line class="cls-2" x1="315.56" y1="1466.18" x2="311.27" y2="1719.93"/><path class="cls-2" d="M278.23,1752.73s-11.19,184.44-1.36,183.21c0,0,2.9,7,14.35,8.71L302.88,1925s-10.24-137.42,5-167.74"/><path class="cls-2" d="M62.38,1576.47l-20.1-3.34c-17-1.15-37,11.87-37,11.87-4.44,7.48-.27,9.75,7.71,9.07,13.29-1.15,37.12-10.47,49.4-17.6,18.71-10.87,40.54-21.41,54.55-21.17,28.74.49,56.86,24.12,56.86,24.12,7.87,30.94,46.29,81.43,46.29,81.43s116.26,75.33,129.75,84,2.31,15.88,2.31,15.88l-73.91-8c-55.86-54.69-129.13-79.47-129.13-79.47s-103.17-79-130.83-80"/><path class="cls-2" d="M317,1723.32s51-28.16,152.32-27.79,122.22-20.12,122.22-20.12-.33,2-1.13,5.35c-2.38,10.07-8.86,32.37-22.55,49.69a71.67,71.67,0,0,1-11,11.27c-27.17,22-168.64-10.37-168.64-10.37s-39-6.68-48,7.28"/><path class="cls-2" d="M588,1690.83s8.83-24.37,17.41-10.53,14,31.86,8.61,45.46-46.19,4.69-46.19,4.69"/></g><g class="cls-1"><path class="cls-3" d="M1736.22,344.7s278.69,198.77,459.12,1207.67c0,0,7.11,23.23-21.8,28.6s-47.78-117.46-47.78-117.46-71.69-169.74-131.21-217.52-350-507.2-296.83-691.77Z"/><path class="cls-3" d="M1918.34,610.13l14-50.9S2131.55,753,2213.13,1210.34c0,0-3.49,54.28-8.87,105.7"/><path class="cls-3" d="M2213.13,1210.34c-11.31-20.76,100.31-75.66-1.83-319.59s-259.52-310-259.52-310"/><path class="cls-3" d="M2206.55,1313.15l16.88-6.08,21-66.11s28-136,34.18-147.31,9.4-129,9.4-129L2216.64,697s-17.53-342.07-5.57-373-5.87-118.76-30.93-150.28C2160.39,148.9,2113.28,56.19,2094.19,18c-2.58-5.17,1.56-10.78,7.33-10.51a23.64,23.64,0,0,0,12.05-2.68C2128.62-2.87,2152,68,2152,68s28.69,47,98.93,113.24S2361,312.81,2361,312.81s122.06,445.33,122.74,451.3-12.24,100.78-165.68,240.25c0,0-32.33,249.06-67,349.11,0,0,84.76-33.8,137.36-156.28S2440.68,1006,2440.68,1006s65.22-257.45,125.26-307,150.32-184.17,416.72-256.93c0,0,31.09,57.05-35.2,270.93,0,0-25.05,73.3-82.83,192.55q-5,10.28-10.28,21c-32.35,65.39-73.86,143-125.64,229,0,0-143.81,91.18-236.94,87.26,0,0-149.25,62.61-175.31,147.34,0,0,81.13-100.23,185.27-136.38s418-24.63,418-24.63c-28.6-16-145.29-42.58-145.29-42.58s400.34-105.68,417.8-120S3324,975.27,3360,935s112.17-142.49,166.67-175c0,0-155.2-10.55-167.56,6.69,0,0-485.87,107.37-499.46,149.17"/><path class="cls-3" d="M2919.7,1229.13c98-48.3,428.81-95.8,459.12-100.08a.29.29,0,0,1,.15.55c-158.9,66.28-306.78,225.29-306.78,225.29s-114.81,33.23-370.16,82.29-265.29,27.2-265.29,27.2l-32.88,11.14-127.43,55.74L2236.08,1590c-36.42-11.56-15.48-69.34-15.48-69.34s197.07-80.28,210.84-78.47,59-63,109.35-76.24S2919.7,1229.13,2919.7,1229.13Z"/><path class="cls-3" d="M3381.05,1128.74l-250.6,239.57-29.91,28.59a162.58,162.58,0,0,1-60,36.44c-59.79,20.35-181.05,57.67-238.55,47.1-78-14.32-277.74,2.67-277.74,2.67l-160.34,43.64-3.54,6.31a26.16,26.16,0,0,1-18.45,13l-52.74,9-19.67,27.89a21.33,21.33,0,0,1-20.24,8.84l-13.18-1.75"/><path class="cls-3" d="M3130.45,1368.31c35.57-7.74,211.42,70,267.46,95.32a7.13,7.13,0,0,0,9.14-10c-16.13-28.55-62.84-89.11-192.83-165.38"/></g></g></g></svg>