<svg xmlns="http://www.w3.org/2000/svg" viewBox="0 0 2011.96 257.66"><defs><style>.cls-1{fill:#c7b299;stroke:#534741;stroke-width:2.32px;}.cls-1,.cls-2{stroke-miterlimit:10;}.cls-2{fill:#514c43;stroke:#736357;stroke-width:14.72px;}.cls-3{font-size:64px;fill:#534741;font-family:PingFangTC-Thin, PingFang TC;font-weight:200;letter-spacing:0.04em;}.cls-4{letter-spacing:0.04em;}.cls-5{letter-spacing:0.04em;}.cls-6{letter-spacing:0.04em;}.cls-7{letter-spacing:0.04em;}.cls-8{letter-spacing:0.04em;}.cls-9{letter-spacing:0.04em;}.cls-10{letter-spacing:0.04em;}.cls-11{letter-spacing:0.04em;}.cls-12{letter-spacing:0.04em;}.cls-13{letter-spacing:0.04em;}.cls-14{letter-spacing:0.04em;}.cls-15{letter-spacing:0.04em;}.cls-16{letter-spacing:0.03em;}.cls-17{letter-spacing:0em;}.cls-18{letter-spacing:0.01em;}.cls-19{letter-spacing:0.03em;}.cls-20{letter-spacing:0.04em;}.cls-21{letter-spacing:0.04em;}.cls-22{letter-spacing:0.04em;}.cls-23{letter-spacing:0.04em;}.cls-24{letter-spacing:0.03em;}.cls-25{letter-spacing:0em;}.cls-26{letter-spacing:0em;}.cls-27{letter-spacing:0.04em;}.cls-28{letter-spacing:0.04em;}.cls-29{letter-spacing:0.04em;}.cls-30{letter-spacing:0.04em;}.cls-31{letter-spacing:0.04em;}.cls-32{letter-spacing:0.04em;}.cls-33{letter-spacing:0.04em;}</style></defs><g id="Layer_2" data-name="Layer 2"><g id="比賽辦法"><polygon class="cls-1" points="1.16 1.16 2009.63 1.16 1917.37 123.91 1987.54 256.5 1.16 256.5 1.16 1.16"/><line class="cls-2" x1="288.36" y1="49.76" x2="288.36" y2="215.32"/><text class="cls-3" transform="translate(348.53 105.06)">這<tspan class="cls-4" x="66.62" y="0">次</tspan><tspan class="cls-5" x="133.19" y="0">競</tspan><tspan class="cls-6" x="199.74" y="0">賽</tspan><tspan class="cls-7" x="266.27" y="0">我</tspan><tspan class="cls-8" x="332.88" y="0">們</tspan><tspan class="cls-9" x="399.19" y="0">著</tspan><tspan class="cls-10" x="465.51" y="0">重</tspan><tspan class="cls-11" x="531.99" y="0">網</tspan><tspan class="cls-12" x="598.23" y="0">頁</tspan><tspan class="cls-13" x="664.71" y="0">設</tspan><tspan class="cls-14" x="731.37" y="0">計</tspan><tspan class="cls-15" x="797.87" y="0">與</tspan><tspan class="cls-16" x="864.4" y="0">創</tspan><tspan class="cls-17" x="930.59" y="0">造</tspan><tspan class="cls-18" x="994.61" y="0">，</tspan><tspan class="cls-19"><tspan x="-0.39" y="102">同</tspan><tspan class="cls-20" x="65.45" y="102">時</tspan><tspan class="cls-21" x="131.99" y="102">提</tspan><tspan class="cls-22" x="198.4" y="102">案</tspan><tspan class="cls-12" x="264.74" y="102">與</tspan><tspan class="cls-23" x="331.21" y="102">報</tspan><tspan class="cls-24" x="397.75" y="102">告內</tspan><tspan class="cls-25" x="529.76" y="102">容</tspan><tspan class="cls-26" x="593.68" y="102">，</tspan><tspan class="cls-27" x="657.7" y="102">也</tspan><tspan class="cls-28" x="724.18" y="102">是</tspan><tspan class="cls-29" x="790.64" y="102">評</tspan><tspan class="cls-11" x="857.2" y="102">分</tspan><tspan class="cls-30" x="923.45" y="102">的</tspan><tspan class="cls-15" x="989.7" y="102">一</tspan><tspan class="cls-31" x="1056.24" y="102">大</tspan><tspan class="cls-32" x="1122.72" y="102">重</tspan><tspan class="cls-33" x="1189.22" y="102">點</tspan></tspan></text></g></g></svg>