<svg xmlns="http://www.w3.org/2000/svg" viewBox="0 0 670.95 1360.29"><defs><style>.cls-1{fill:#fff;}.cls-2{fill:#9883aa;}.cls-3{fill:#534741;}.cls-4,.cls-5{fill:none;stroke:#534741;stroke-miterlimit:10;}.cls-4{stroke-width:1.64px;}.cls-5{stroke-width:2px;}</style></defs><g id="Layer_2" data-name="Layer 2"><g id="比賽辦法"><path class="cls-1" d="M97.69,127.94c-17.08-42.86,23-124.27,23-124.27s6.51,76.73,34.81,81h0c52-30.79,113.75-48.64,180-48.64,67.08,0,129.54,18.28,181.9,49.76,45,27,82.49,63.79,109.06,107.06q7,11.46,13,23.5a294.59,294.59,0,0,1,12.84,29.82A288.62,288.62,0,0,1,670,345.72c0,146.39-109.71,269-257.15,301.35h0a362.59,362.59,0,0,1-180.91-6.82C97.86,599.88,1,483.28,1,345.72,1,260.81,37.91,183.88,97.69,127.94Z"/><path class="cls-2" d="M412.8,647.07c2.95,1.67,46.53,232.06,40,243s-34.93,23.28-34.93,23.28c-20.44,4.43-36.54,7.6-49.39,9.85-58.94,10.33-49.9,1.39-81.56,6.16-38.55,5.82-65.47-25.46-65.47-25.46l2.22-38.59a110.13,110.13,0,0,0-3.37-33.37c-3-11.92-2.76-33.07-2.76-48.54,0-21.14,14.35-143.11,14.35-143.11a362.59,362.59,0,0,0,180.91,6.82Z"/><path class="cls-3" d="M417.86,1284.35c6,7.18,4.61,19.28,4.61,19.28s-5.76,11.51-8.63,13.19-16.19.37-16.19.37l-5.42,4.72-6.34,3.89c-15.3-8.32-39.24-23.42-50.42-41.45,0,0-.26-1.21-.66-3.31l7.4,2.1c-1.53-18,19.64-27.9,19.64-27.9s12.06,15.36,27.53,18.46S411.83,1277.15,417.86,1284.35Zm-37.3-4.4-1.58-5.86s-9.5-2.37-12.4-6.33a19.59,19.59,0,0,0-7.12-5.8s-13.19,10.45-12.14,21.18c0,0,8.45-8.52,22.16,2.29C369.48,1285.43,368.43,1279.22,380.56,1280Z"/><path class="cls-3" d="M400.81,1343.57c.66,5.91-11.65,11.27-15.61,12.83a9.76,9.76,0,0,1-2.37.63c-6.54.92-38.65,5.1-41.46-.17-2.57-4.82-14.4-9.64-18.52-11.2A10.2,10.2,0,0,0,320,1345c-2.72-.22-8.83-.66-13.83-.66-4.05,0-8.11,3.06-10.66,5.45a10.31,10.31,0,0,1-7,2.76H273.13c-4.94,0-7.47-7.33-8.38-10.77a10.11,10.11,0,0,1-.33-3.19c.32-6.06,1.54-29.36,1.88-36.48.38-8.14,15.39-16.56,15.62-16.69a15.86,15.86,0,0,1-1.55,5.46s10.91-1.46,19.64,5.82c0,0,20-21.09,35.46-12.36,11.18,18,35.12,33.13,50.42,41.45,3.4,1.85,6.38,3.37,8.69,4.51a10.34,10.34,0,0,1,5.75,8.31Zm-47.42-26.75s4-2.64,0-6.33-18.63-16.09-18.63-16.09-3.46-4-10.49-4c0,0-14.14,10-14.66,15s11.6,11.34,11.6,11.34,15.83-2.11,18.47-1.84S337.1,1315,353.39,1316.82Z"/><path class="cls-1" d="M351.56,1106.14a4.15,4.15,0,0,0,.27-.93c.24-1.22.71-3.64,1.35-7l.14,0s5.32,13.82,41.91,0c-1,3-1.91,5-2.83,5.69,0,0-34.91,109.13-30.55,151.32,0,0-21.17,9.91-19.64,27.9l-7.4-2.1c-1.88-10-6.84-40.31-1.32-58a66.27,66.27,0,0,0,2.7-14.45c2-25.68,10-93.32,15.15-102A3.61,3.61,0,0,0,351.56,1106.14Z"/><path class="cls-1" d="M379,1274.09l1.58,5.86c-12.13-.73-11.08,5.48-11.08,5.48-13.71-10.81-22.16-2.29-22.16-2.29-1.05-10.73,12.14-21.18,12.14-21.18a19.59,19.59,0,0,1,7.12,5.8C369.48,1271.72,379,1274.09,379,1274.09Z"/><path class="cls-1" d="M353.39,1310.49c4,3.69,0,6.33,0,6.33-16.29-1.78-11.08-1.58-13.71-1.84s-18.47,1.84-18.47,1.84-12.13-6.33-11.6-11.34,14.66-15,14.66-15c7,0,10.49,4,10.49,4S349.43,1306.8,353.39,1310.49Z"/><path class="cls-1" d="M334.81,1281c.4,2.1.66,3.31.66,3.31C320,1275.62,300,1296.71,300,1296.71c-8.73-7.28-19.64-5.82-19.64-5.82a15.86,15.86,0,0,0,1.55-5.46h0c3.65-22.59,1-101.06-2.28-116-3.64-16.73-3.64-45.83-3.64-45.83s1-8.51,2.67-20.89c1.41,1.92,5.53,6.29,14.47,7.26,11.55,1.26,23.4,2.84,31.13,2.31,7.41-.51,25.72-5.67,27.29-6.11a3.61,3.61,0,0,1-.22.44c-5.11,8.67-13.11,76.31-15.15,102a66.27,66.27,0,0,1-2.7,14.45C328,1240.73,332.93,1271.05,334.81,1281Z"/><path class="cls-4" d="M231.88,640.25s-14.35,122-14.35,143.11c0,15.47-.24,36.62,2.76,48.54a110.13,110.13,0,0,1,3.37,33.37l-2.22,38.59s26.92,31.28,65.47,25.46c31.66-4.77,22.62,4.17,81.56-6.16,12.85-2.25,28.95-5.42,49.39-9.85,0,0,28.38-12.36,34.93-23.28s-37-241.29-40-243"/><path class="cls-4" d="M281.92,1285.43a15.86,15.86,0,0,1-1.55,5.46s10.91-1.46,19.64,5.82c0,0,20-21.09,35.46-12.36,0,0-.26-1.21-.66-3.31-1.88-10-6.84-40.31-1.32-58a66.27,66.27,0,0,0,2.7-14.45c2-25.68,10-93.32,15.15-102a3.61,3.61,0,0,0,.22-.44,4.15,4.15,0,0,0,.27-.93c.24-1.22.71-3.64,1.35-7,5-26.08,20.36-108.5,18.85-120.86,0,0-6.64-53.63-3.56-54.17"/><path class="cls-4" d="M286.91,929.32s-1.2,14.43,0,21.82c1.95,12,11.38,41.24,5.1,67.66-4.42,18.61-10.07,59-13.34,83.88-1.63,12.38-2.67,20.89-2.67,20.89s0,29.1,3.64,45.83c3.26,15,5.93,93.44,2.28,116"/><path class="cls-4" d="M278.08,1101.76a7.21,7.21,0,0,0,.59.92c1.41,1.92,5.53,6.29,14.47,7.26,11.55,1.26,23.4,2.84,31.13,2.31,7.41-.51,25.72-5.67,27.29-6.11l.1,0"/><path class="cls-4" d="M353.32,1098.23s5.32,13.82,41.91,0h0"/><path class="cls-4" d="M281.92,1285.43h0c-.23.13-15.24,8.55-15.62,16.69-.34,7.12-1.56,30.42-1.88,36.48a10.11,10.11,0,0,0,.33,3.19c.91,3.44,3.44,10.77,8.38,10.77h15.35a10.31,10.31,0,0,0,7-2.76c2.55-2.39,6.61-5.45,10.66-5.45,5,0,11.11.44,13.83.66a10.2,10.2,0,0,1,2.84.65c4.12,1.56,15.95,6.38,18.52,11.2,2.81,5.27,34.92,1.09,41.46.17a9.76,9.76,0,0,0,2.37-.63c4-1.56,16.27-6.92,15.61-12.83l-.48-5a10.34,10.34,0,0,0-5.75-8.31c-2.31-1.14-5.29-2.66-8.69-4.51-15.3-8.32-39.24-23.42-50.42-41.45"/><path class="cls-4" d="M324.27,1290.45s-14.14,10-14.66,15,11.6,11.34,11.6,11.34,15.83-2.11,18.47-1.84-2.58.06,13.71,1.84c0,0,4-2.64,0-6.33s-18.63-16.09-18.63-16.09S331.3,1290.45,324.27,1290.45Z"/><path class="cls-4" d="M417.86,913.31s-12.19,152.5-22.63,184.92c-1,3-1.91,5-2.83,5.69,0,0-34.91,109.13-30.55,151.32,0,0-21.17,9.91-19.64,27.9l-7.4-2.1h-.05"/><path class="cls-4" d="M347.32,1283.14s8.45-8.52,22.16,2.29c0,0-1.05-6.21,11.08-5.48l-1.58-5.86s-9.5-2.37-12.4-6.33a19.59,19.59,0,0,0-7.12-5.8S346.27,1272.41,347.32,1283.14Z"/><path class="cls-4" d="M361.85,1255.24s12.06,15.36,27.53,18.46,22.45,3.45,28.48,10.65,4.61,19.28,4.61,19.28-5.76,11.51-8.63,13.19-16.19.37-16.19.37l-5.42,4.72-6.34,3.89"/><path class="cls-5" d="M412.79,647.07a362.59,362.59,0,0,1-180.91-6.82C97.86,599.88,1,483.28,1,345.72c0-84.91,36.91-161.84,96.69-217.78"/><path class="cls-4" d="M412.8,647.07h0"/><path class="cls-5" d="M652.3,246.19A288.62,288.62,0,0,1,670,345.72c0,146.39-109.71,269-257.15,301.35"/><path class="cls-5" d="M639.46,216.37a294.59,294.59,0,0,1,12.84,29.82"/><path class="cls-5" d="M613.6,224a295.33,295.33,0,0,1,12.83,29.81"/><path class="cls-5" d="M626.43,192.87q7,11.46,13,23.5"/><path class="cls-5" d="M517.37,85.81c45,27,82.49,63.79,109.06,107.06"/><path class="cls-5" d="M489.63,97.28c45,27,82.48,63.79,109.06,107.06"/><path class="cls-5" d="M155.45,84.69c52-30.79,113.75-48.64,180-48.64,67.08,0,129.54,18.28,181.9,49.76"/><path class="cls-5" d="M97.7,127.94h0c-17.08-42.86,23-124.27,23-124.27s6.51,76.73,34.81,81"/><path class="cls-3" d="M176.26,297.76a10.19,10.19,0,0,0,4.53-9V168.49h15.38v42.93h40.3v15h-40.3v67.21c13.59-3.22,27-6.91,40.46-11.25l3.88,14.3c-18.45,5.79-38.35,10.94-59.55,15.44Zm85.94-8.84c0,4.18,2.1,6.43,6.31,6.43h23a9.17,9.17,0,0,0,6.47-2.9c2.27-2.25,3.73-11.57,4.37-27.65l14.73,4.82c-1.78,19.62-4.21,31.36-7.44,34.89-3.56,3.54-8.26,5.31-14.25,5.47H264.14c-11.65,0-17.32-6.11-17.32-18.33V168H262.2v48.4A231.4,231.4,0,0,0,305.25,199l9.06,12.38c-18.45,8.68-35.77,15.12-52.11,19.3Z"/><path class="cls-3" d="M355.89,197.43V174h57.94a62.65,62.65,0,0,0-4-6.75l14.89-2.41a81.25,81.25,0,0,1,4.2,9.16h59.56v23.47H475.65v3.38h-27v6.59h23.79v8.85H448.63v6.43h44v10.77h-33.5c8.74,6,20.87,10.77,36.57,14.31l-5.5,11.57A152.17,152.17,0,0,1,471,252.1v42.77H444.9a380.76,380.76,0,0,1,43.21,10.77L480,315.45c-12.62-4.83-28.48-9.17-47.9-13.19l6-7.39H405.42l5.66,7.23c-11.65,5.47-28.16,10-49.68,13.51l-6.48-11.1c18.45-2.57,33.18-5.78,44-9.64H373.7V253.39c-5.51,2.57-11.66,5.14-18.29,7.55l-7.28-11.57q24.75-6.52,37.87-15.92H351.69V222.68h43.69v-6.43H371.75V207.4h23.63v-6.59H368.52v-3.38Zm13.76-13v6.91h25.73v-6.91Zm87.07,64H387.94v6.91h68.78Zm-68.78,21.71h68.78v-6.76H387.94Zm0,14.95h68.78V278H387.94Zm62.47-45.18a53.64,53.64,0,0,1-7-6.43H401.21a62.54,62.54,0,0,1-6.64,6.43ZM410,184.41v6.91h24.11v-6.91Zm24.11,16.4H410v6.59h24.11Zm0,21.87v-6.43H410v6.43Zm40.46-38.27H448.63v6.91h25.89Z"/><path class="cls-3" d="M170.11,478.3V465.12h26.22a170.18,170.18,0,0,0,6-27.49l12.62,1.77a171.42,171.42,0,0,1-6.47,25.72h11V478.3H201.35c-.16,5.79-.49,11.26-.81,16.4H216.4v13H199.24c-.32,2.41-.81,4.66-1.13,6.91-2.75,15-9.06,27.49-19.1,37.46l-8.9-10.77q10.94-12.54,14.57-30.39l.48-3.21h-13.1v-13h14.56c.32-5.14.65-10.61.81-16.4Zm69.59-74.11v29.9h20.72q0,79.59-1.94,98.4c-1.3,11.89-6.8,17.84-16.84,17.84-1.77,0-4.69-.32-8.9-.64l-3.23-12.38c3.72.32,7.12.64,10,.64,3.56,0,5.67-3.86,6.31-11.41,1-8,1.46-34.73,1.78-80.07H239.7q-.72,72.11-24.76,105.15l-10-8.84q21.36-30.15,21.85-96.31h-7.93v-11.9h-47.1V421.39h16a160.45,160.45,0,0,0-5.5-16.4l14.4-2.25c1.62,5.46,3.08,11.57,4.7,18.65H219v12.7h7.77v-29.9Zm-46.93,55.14-11.17,4.5a154,154,0,0,0-9.06-21.7l11.17-4.34A162.28,162.28,0,0,1,192.77,459.33ZM264.63,478V464.8h28.64a189.39,189.39,0,0,0,6.8-27.82l12.62,1.77a153.62,153.62,0,0,1-7.28,26.05h12.78V478h-19.9v16.88h18.77v13.19H298.29v43.41H284.37V508.05H265.92V494.86h18.45V478Zm33-56.59h19.42v13.18H265.11V421.39h18.94a156.62,156.62,0,0,0-4.86-15.92l14.41-2.25C294.89,408.53,296.35,414.64,297.64,421.39Zm-9.06,37-10.68,4.5a139,139,0,0,0-8.74-20.74l11-4.18A122.69,122.69,0,0,1,288.58,458.37Z"/><path class="cls-3" d="M383.73,466.73l-11.17,10.93c-5.66-7.56-13.75-15.76-24.27-24.44l11-10.61A203.46,203.46,0,0,1,383.73,466.73Zm5.18,26.85a573.5,573.5,0,0,1-23.14,56.91l-15.38-6.75A487.17,487.17,0,0,0,375,488Zm.81-64.8-11,11.1c-6.15-7.56-15-15.6-26.54-24.28L363.34,405A217,217,0,0,1,389.72,428.78Zm59.39-25.08V428h40.3v14.79h-40.3V469.3h44.67v14.79h-52.6c-9.22,21.55-17.31,37.46-24.44,47.75,17.81-1.93,35.45-4.82,52.92-8.36-4.2-8.68-8.57-16.72-12.94-24.11l14.89-4.83A345,345,0,0,1,496.69,546l-14.56,6.43c-2.11-5.46-4.21-10.77-6.32-15.59-24.11,4.66-50.33,8.36-78.65,11.25l-3.56-13.34a21.82,21.82,0,0,0,3.24-1.45q10.68-9.4,27.67-49.2H388.75V469.3h44.83V442.77H396.52V428h37.06V403.7Z"/></g></g></svg>