<svg xmlns="http://www.w3.org/2000/svg" viewBox="0 0 1683.47 1035.66"><defs><style>.cls-1,.cls-5{fill:#b3b3b3;}.cls-1,.cls-12,.cls-13,.cls-2,.cls-3,.cls-4,.cls-7,.cls-8{stroke:#534741;stroke-miterlimit:10;}.cls-1,.cls-2{stroke-width:2.05px;}.cls-2,.cls-7,.cls-9{fill:#fff;}.cls-11,.cls-3{fill:#534741;}.cls-3{stroke-width:1.02px;}.cls-4{fill:#666;}.cls-4,.cls-7,.cls-8{stroke-width:0.71px;}.cls-6{fill:#ccc;}.cls-7{opacity:0.52;}.cls-12,.cls-13,.cls-8{fill:none;}.cls-8{opacity:0.16;}.cls-10{fill:#9883aa;}.cls-12{stroke-width:1.16px;}.cls-13{stroke-width:1.42px;}</style></defs><g id="Layer_2" data-name="Layer 2"><g id="比賽辦法"><path class="cls-1" d="M73.89,995.81v24.81a14,14,0,0,0,14,14H1666.65a14,14,0,0,0,14-14v-31.7"/><path class="cls-2" d="M301.21,792.54H289.69a7.13,7.13,0,0,0-4.77,1.83L70.9,986.13a7.15,7.15,0,0,0,4.77,12.47H1675.28a7.14,7.14,0,0,0,4.61-12.61L1452.06,793.77a7.21,7.21,0,0,0-3.31-1.57l-13-2.4"/><path class="cls-3" d="M301.21,784.76V77.2a37.12,37.12,0,0,1,37.12-37.12h1046.5A50.88,50.88,0,0,1,1435.71,91V789.8a9.23,9.23,0,0,1-9.23,9.23h-1111A14.26,14.26,0,0,1,301.21,784.76Z"/><path class="cls-4" d="M788.71,994.52s-7.31,6,12.43,17.26H964.25s12.44-9.21,7.68-17.26Z"/><path class="cls-5" d="M678.3,978.75h400.57a6.25,6.25,0,0,0,5.75-8.68l-29-68.76a6.27,6.27,0,0,0-5.76-3.82H703a6.26,6.26,0,0,0-5.88,4.14l-24.69,68.76A6.25,6.25,0,0,0,678.3,978.75Z"/><path class="cls-6" d="M1181.12,872.83v1.54a4.28,4.28,0,0,0,4.33,4.22h61.92a1.05,1.05,0,0,0,1-1.49l-2.19-4.71a1.09,1.09,0,0,0-1-.62h-63A1.08,1.08,0,0,0,1181.12,872.83Z"/><path class="cls-6" d="M1109.62,872.51v3.86a2.21,2.21,0,0,0,2.22,2.22h53.48a2.21,2.21,0,0,0,2-3.12l-1.35-3Z"/><path class="cls-6" d="M1020.19,874.36v2.39a1.84,1.84,0,0,0,1.84,1.84h72.15a1.84,1.84,0,0,0,1.59-2.78l-1.42-2.39a1.87,1.87,0,0,0-1.59-.91H1022A1.85,1.85,0,0,0,1020.19,874.36Z"/><path class="cls-6" d="M576.33,874.36v2.39a1.84,1.84,0,0,0,1.84,1.84h72.15a1.84,1.84,0,0,0,1.59-2.78l-1.42-2.39a1.86,1.86,0,0,0-1.59-.91H578.17A1.85,1.85,0,0,0,576.33,874.36Z"/><path class="cls-6" d="M546.89,810.66v2.39c0,1,.45,1.84,1,1.84h38.84c.77,0,1.24-1.55.85-2.78l-.76-2.39c-.18-.56-.51-.91-.86-.91H547.88C547.34,808.81,546.89,809.64,546.89,810.66Z"/><path class="cls-6" d="M590.33,810.66v2.39c0,1,.45,1.84,1,1.84h38.83c.77,0,1.25-1.55.85-2.78l-.76-2.39c-.18-.56-.5-.91-.86-.91H591.33C590.78,808.81,590.33,809.64,590.33,810.66Z"/><path class="cls-6" d="M635.6,810.66v2.39c0,1,.44,1.84,1,1.84h38.83c.77,0,1.25-1.55.85-2.78l-.76-2.39c-.18-.56-.5-.91-.85-.91H636.59C636,808.81,635.6,809.64,635.6,810.66Z"/><path class="cls-6" d="M680.32,810.26v2.39c0,1,.45,1.85,1,1.85h38.84c.77,0,1.24-1.56.85-2.79l-.76-2.39c-.18-.56-.51-.9-.86-.9H681.31C680.77,808.42,680.32,809.24,680.32,810.26Z"/><path class="cls-6" d="M725.93,810.26v2.39c0,1,.45,1.85,1,1.85h38.84c.77,0,1.24-1.56.85-2.79l-.76-2.39c-.18-.56-.51-.9-.86-.9H726.92C726.38,808.42,725.93,809.24,725.93,810.26Z"/><path class="cls-6" d="M770.85,810.26v2.39c0,1,.44,1.85,1,1.85h38.83c.77,0,1.25-1.56.85-2.79l-.76-2.39c-.18-.56-.5-.9-.85-.9H771.84C771.29,808.42,770.85,809.24,770.85,810.26Z"/><path class="cls-6" d="M817.15,810.26v2.39c0,1,.45,1.85,1,1.85H857c.77,0,1.24-1.56.85-2.79l-.76-2.39c-.18-.56-.51-.9-.86-.9H818.14C817.6,808.42,817.15,809.24,817.15,810.26Z"/><path class="cls-6" d="M864.5,810.26v2.39c0,1,.45,1.85,1,1.85h38.83c.77,0,1.24-1.56.85-2.79l-.76-2.39c-.18-.56-.51-.9-.86-.9H865.5C865,808.42,864.5,809.24,864.5,810.26Z"/><path class="cls-6" d="M912.55,810.26v2.39c0,1,.44,1.85,1,1.85h38.83c.77,0,1.25-1.56.86-2.79l-.77-2.39c-.17-.56-.5-.9-.85-.9H913.54C913,808.42,912.55,809.24,912.55,810.26Z"/><path class="cls-6" d="M961,810.26v2.39c0,1,.44,1.85,1,1.85h38.83c.77,0,1.25-1.56.85-2.79l-.76-2.39c-.18-.56-.5-.9-.85-.9H961.94C961.39,808.42,961,809.24,961,810.26Z"/><path class="cls-6" d="M1008.18,810.26v2.39c0,1,.45,1.85,1,1.85H1048c.77,0,1.25-1.56.85-2.79l-.76-2.39c-.18-.56-.5-.9-.86-.9h-38.06C1008.63,808.42,1008.18,809.24,1008.18,810.26Z"/><path class="cls-6" d="M1055.21,810.26v2.39a1.77,1.77,0,0,0,1.68,1.85h65.78a1.86,1.86,0,0,0,1.45-2.79l-1.3-2.39a1.65,1.65,0,0,0-1.44-.9h-64.49A1.76,1.76,0,0,0,1055.21,810.26Z"/><path class="cls-6" d="M1129.76,810.26v2.39a1.77,1.77,0,0,0,1.68,1.85h65.78a1.86,1.86,0,0,0,1.45-2.79l-1.3-2.39a1.65,1.65,0,0,0-1.44-.9h-64.49A1.76,1.76,0,0,0,1129.76,810.26Z"/><path class="cls-6" d="M1201.86,810.26v2.39a1.78,1.78,0,0,0,1.69,1.85h65.78a1.85,1.85,0,0,0,1.44-2.79l-1.29-2.39a1.66,1.66,0,0,0-1.45-.9h-64.48A1.77,1.77,0,0,0,1201.86,810.26Z"/><path class="cls-6" d="M495.57,874.36v2.39a1.84,1.84,0,0,0,1.84,1.84h72.15a1.84,1.84,0,0,0,1.58-2.78l-1.42-2.39a1.84,1.84,0,0,0-1.58-.91H497.41A1.84,1.84,0,0,0,495.57,874.36Z"/><path class="cls-6" d="M418.2,874.36v2.39a1.8,1.8,0,0,0,1.76,1.84h68.91a1.84,1.84,0,0,0,1.52-2.78L489,873.42a1.74,1.74,0,0,0-1.51-.91H420A1.81,1.81,0,0,0,418.2,874.36Z"/><path class="cls-6" d="M471.83,810.66v2.39a1.8,1.8,0,0,0,1.76,1.84H542.5a1.84,1.84,0,0,0,1.52-2.78l-1.36-2.39a1.74,1.74,0,0,0-1.51-.91H473.59A1.81,1.81,0,0,0,471.83,810.66Z"/><path class="cls-6" d="M1259,874.09V877a1.57,1.57,0,0,0,1.58,1.57h55.11a1.56,1.56,0,0,0,1.43-2.22l-1.33-2.93a1.57,1.57,0,0,0-1.43-.93h-53.78A1.58,1.58,0,0,0,1259,874.09Z"/><path class="cls-6" d="M1330.33,872.51v4a2.08,2.08,0,0,0,2.08,2.08h54.69a1.52,1.52,0,0,0,1.39-2.15l-1.79-3.93Z"/><path class="cls-6" d="M1275.59,808.42v4a2,2,0,0,0,1.84,2.08h48.41a1.52,1.52,0,0,0,1.22-2.16l-1.58-3.92Z"/><path class="cls-6" d="M1253.52,866.44v3.3a2.77,2.77,0,0,0,2.77,2.77h52.93a2.21,2.21,0,0,0,2-3.12l-1.34-2.95Z"/><path class="cls-6" d="M666.65,863.82h336a2.81,2.81,0,0,1,2.69,2l2.72,9.17a2.8,2.8,0,0,1-2.69,3.59H664.32a2.8,2.8,0,0,1-2.72-3.49l2.33-9.17A2.81,2.81,0,0,1,666.65,863.82Z"/><polygon class="cls-6" points="364.77 872.51 359.82 877.8 414.33 877.8 414.33 873.55 364.77 872.51"/><polygon class="cls-6" points="419.28 809.21 414.33 814.5 468.83 814.5 468.83 810.25 419.28 809.21"/><polygon class="cls-6" points="416.42 814.5 365.32 869.66 654.99 871.21 661.52 859.56 1008.18 856.69 1017.37 869.4 1096.03 868.99 1096.03 863.82 1104.68 863.82 1112.31 872.51 1170.2 872.51 1167.53 863.82 1216.29 861.38 1214.69 856.28 1221.12 856.28 1224.6 861.11 1246.58 862.18 1248.45 869.48 1253.52 869.74 1253.52 866.44 1314.65 866.44 1313.58 862.72 1377.63 864.05 1328.85 814.5 416.42 814.5"/><rect class="cls-2" x="331.27" y="75.61" width="1072.93" height="678.11"/><rect class="cls-7" x="1344.59" y="75.61" width="59.61" height="45.21"/><rect class="cls-7" x="1284.99" y="75.61" width="59.61" height="45.21"/><rect class="cls-7" x="1225.38" y="75.61" width="59.61" height="45.21"/><rect class="cls-7" x="1165.77" y="75.61" width="59.61" height="45.21"/><rect class="cls-7" x="1106.16" y="75.61" width="59.61" height="45.21"/><rect class="cls-7" x="1046.56" y="75.61" width="59.61" height="45.21"/><rect class="cls-7" x="986.95" y="75.61" width="59.61" height="45.21"/><rect class="cls-7" x="927.34" y="75.61" width="59.61" height="45.21"/><rect class="cls-7" x="867.74" y="75.61" width="59.61" height="45.21"/><rect class="cls-7" x="808.13" y="75.61" width="59.61" height="45.21"/><rect class="cls-7" x="748.52" y="75.61" width="59.61" height="45.21"/><rect class="cls-7" x="688.92" y="75.61" width="59.61" height="45.21"/><rect class="cls-7" x="629.31" y="75.61" width="59.61" height="45.21"/><rect class="cls-7" x="569.7" y="75.61" width="59.61" height="45.21"/><rect class="cls-7" x="510.09" y="75.61" width="59.61" height="45.21"/><rect class="cls-7" x="450.49" y="75.61" width="59.61" height="45.21"/><rect class="cls-7" x="390.88" y="75.61" width="59.61" height="45.21"/><rect class="cls-7" x="331.27" y="75.61" width="59.61" height="45.21"/><rect class="cls-7" x="1344.59" y="120.82" width="59.61" height="45.21"/><rect class="cls-7" x="1284.99" y="120.82" width="59.61" height="45.21"/><rect class="cls-7" x="1225.38" y="120.82" width="59.61" height="45.21"/><rect class="cls-7" x="1165.77" y="120.82" width="59.61" height="45.21"/><rect class="cls-7" x="1106.16" y="120.82" width="59.61" height="45.21"/><rect class="cls-7" x="1046.56" y="120.82" width="59.61" height="45.21"/><rect class="cls-7" x="986.95" y="120.82" width="59.61" height="45.21"/><rect class="cls-7" x="927.34" y="120.82" width="59.61" height="45.21"/><rect class="cls-7" x="867.74" y="120.82" width="59.61" height="45.21"/><rect class="cls-7" x="808.13" y="120.82" width="59.61" height="45.21"/><rect class="cls-7" x="748.52" y="120.82" width="59.61" height="45.21"/><rect class="cls-7" x="688.92" y="120.82" width="59.61" height="45.21"/><rect class="cls-7" x="629.31" y="120.82" width="59.61" height="45.21"/><rect class="cls-7" x="569.7" y="120.82" width="59.61" height="45.21"/><rect class="cls-7" x="510.09" y="120.82" width="59.61" height="45.21"/><rect class="cls-7" x="450.49" y="120.82" width="59.61" height="45.21"/><rect class="cls-7" x="390.88" y="120.82" width="59.61" height="45.21"/><rect class="cls-7" x="331.27" y="120.82" width="59.61" height="45.21"/><rect class="cls-7" x="1344.59" y="166.02" width="59.61" height="45.21"/><rect class="cls-7" x="1284.99" y="166.02" width="59.61" height="45.21"/><rect class="cls-7" x="1225.38" y="166.02" width="59.61" height="45.21"/><rect class="cls-7" x="1165.77" y="166.02" width="59.61" height="45.21"/><rect class="cls-7" x="1106.16" y="166.02" width="59.61" height="45.21"/><rect class="cls-7" x="1046.56" y="166.02" width="59.61" height="45.21"/><rect class="cls-7" x="986.95" y="166.02" width="59.61" height="45.21"/><rect class="cls-7" x="927.34" y="166.02" width="59.61" height="45.21"/><rect class="cls-7" x="867.74" y="166.02" width="59.61" height="45.21"/><rect class="cls-7" x="808.13" y="166.02" width="59.61" height="45.21"/><rect class="cls-7" x="748.52" y="166.02" width="59.61" height="45.21"/><rect class="cls-7" x="688.92" y="166.02" width="59.61" height="45.21"/><rect class="cls-7" x="629.31" y="166.02" width="59.61" height="45.21"/><rect class="cls-7" x="569.7" y="166.02" width="59.61" height="45.21"/><rect class="cls-7" x="510.09" y="166.02" width="59.61" height="45.21"/><rect class="cls-7" x="450.49" y="166.02" width="59.61" height="45.21"/><rect class="cls-7" x="390.88" y="166.02" width="59.61" height="45.21"/><rect class="cls-7" x="331.27" y="166.02" width="59.61" height="45.21"/><rect class="cls-7" x="1344.59" y="211.23" width="59.61" height="45.21"/><rect class="cls-7" x="1284.99" y="211.23" width="59.61" height="45.21"/><rect class="cls-7" x="1225.38" y="211.23" width="59.61" height="45.21"/><rect class="cls-7" x="1165.77" y="211.23" width="59.61" height="45.21"/><rect class="cls-7" x="1106.16" y="211.23" width="59.61" height="45.21"/><rect class="cls-7" x="1046.56" y="211.23" width="59.61" height="45.21"/><rect class="cls-7" x="986.95" y="211.23" width="59.61" height="45.21"/><rect class="cls-7" x="927.34" y="211.23" width="59.61" height="45.21"/><rect class="cls-7" x="867.74" y="211.23" width="59.61" height="45.21"/><rect class="cls-7" x="808.13" y="211.23" width="59.61" height="45.21"/><rect class="cls-7" x="748.52" y="211.23" width="59.61" height="45.21"/><rect class="cls-7" x="688.92" y="211.23" width="59.61" height="45.21"/><rect class="cls-7" x="629.31" y="211.23" width="59.61" height="45.21"/><rect class="cls-7" x="569.7" y="211.23" width="59.61" height="45.21"/><rect class="cls-7" x="510.09" y="211.23" width="59.61" height="45.21"/><rect class="cls-7" x="450.49" y="211.23" width="59.61" height="45.21"/><rect class="cls-7" x="390.88" y="211.23" width="59.61" height="45.21"/><rect class="cls-7" x="331.27" y="211.23" width="59.61" height="45.21"/><rect class="cls-7" x="1344.59" y="256.44" width="59.61" height="45.21"/><rect class="cls-7" x="1284.99" y="256.44" width="59.61" height="45.21"/><rect class="cls-7" x="1225.38" y="256.44" width="59.61" height="45.21"/><rect class="cls-7" x="1165.77" y="256.44" width="59.61" height="45.21"/><rect class="cls-7" x="1106.16" y="256.44" width="59.61" height="45.21"/><rect class="cls-7" x="1046.56" y="256.44" width="59.61" height="45.21"/><rect class="cls-7" x="986.95" y="256.44" width="59.61" height="45.21"/><rect class="cls-7" x="927.34" y="256.44" width="59.61" height="45.21"/><rect class="cls-7" x="867.74" y="256.44" width="59.61" height="45.21"/><rect class="cls-7" x="808.13" y="256.44" width="59.61" height="45.21"/><rect class="cls-7" x="748.52" y="256.44" width="59.61" height="45.21"/><rect class="cls-7" x="688.92" y="256.44" width="59.61" height="45.21"/><rect class="cls-7" x="629.31" y="256.44" width="59.61" height="45.21"/><rect class="cls-7" x="569.7" y="256.44" width="59.61" height="45.21"/><rect class="cls-7" x="510.09" y="256.44" width="59.61" height="45.21"/><rect class="cls-7" x="450.49" y="256.44" width="59.61" height="45.21"/><rect class="cls-7" x="390.88" y="256.44" width="59.61" height="45.21"/><rect class="cls-7" x="331.27" y="256.44" width="59.61" height="45.21"/><rect class="cls-7" x="1344.59" y="301.64" width="59.61" height="45.21"/><rect class="cls-7" x="1284.99" y="301.64" width="59.61" height="45.21"/><rect class="cls-7" x="1225.38" y="301.64" width="59.61" height="45.21"/><rect class="cls-7" x="1165.77" y="301.64" width="59.61" height="45.21"/><rect class="cls-7" x="1106.16" y="301.64" width="59.61" height="45.21"/><rect class="cls-7" x="1046.56" y="301.64" width="59.61" height="45.21"/><rect class="cls-7" x="986.95" y="301.64" width="59.61" height="45.21"/><rect class="cls-7" x="927.34" y="301.64" width="59.61" height="45.21"/><rect class="cls-7" x="867.74" y="301.64" width="59.61" height="45.21"/><rect class="cls-7" x="808.13" y="301.64" width="59.61" height="45.21"/><rect class="cls-7" x="748.52" y="301.64" width="59.61" height="45.21"/><rect class="cls-7" x="688.92" y="301.64" width="59.61" height="45.21"/><rect class="cls-7" x="629.31" y="301.64" width="59.61" height="45.21"/><rect class="cls-7" x="569.7" y="301.64" width="59.61" height="45.21"/><rect class="cls-7" x="510.09" y="301.64" width="59.61" height="45.21"/><rect class="cls-7" x="450.49" y="301.64" width="59.61" height="45.21"/><rect class="cls-7" x="390.88" y="301.64" width="59.61" height="45.21"/><rect class="cls-7" x="331.27" y="301.64" width="59.61" height="45.21"/><rect class="cls-7" x="1344.59" y="346.85" width="59.61" height="45.21"/><rect class="cls-7" x="1284.99" y="346.85" width="59.61" height="45.21"/><rect class="cls-7" x="1225.38" y="346.85" width="59.61" height="45.21"/><rect class="cls-7" x="1165.77" y="346.85" width="59.61" height="45.21"/><rect class="cls-7" x="1106.16" y="346.85" width="59.61" height="45.21"/><rect class="cls-7" x="1046.56" y="346.85" width="59.61" height="45.21"/><rect class="cls-7" x="986.95" y="346.85" width="59.61" height="45.21"/><rect class="cls-7" x="927.34" y="346.85" width="59.61" height="45.21"/><rect class="cls-7" x="867.74" y="346.85" width="59.61" height="45.21"/><rect class="cls-7" x="808.13" y="346.85" width="59.61" height="45.21"/><rect class="cls-7" x="748.52" y="346.85" width="59.61" height="45.21"/><rect class="cls-7" x="688.92" y="346.85" width="59.61" height="45.21"/><rect class="cls-7" x="629.31" y="346.85" width="59.61" height="45.21"/><rect class="cls-7" x="569.7" y="346.85" width="59.61" height="45.21"/><rect class="cls-7" x="510.09" y="346.85" width="59.61" height="45.21"/><rect class="cls-7" x="450.49" y="346.85" width="59.61" height="45.21"/><rect class="cls-7" x="390.88" y="346.85" width="59.61" height="45.21"/><rect class="cls-7" x="331.27" y="346.85" width="59.61" height="45.21"/><rect class="cls-7" x="1344.59" y="392.06" width="59.61" height="45.21"/><rect class="cls-7" x="1284.99" y="392.06" width="59.61" height="45.21"/><rect class="cls-7" x="1225.38" y="392.06" width="59.61" height="45.21"/><rect class="cls-7" x="1165.77" y="392.06" width="59.61" height="45.21"/><rect class="cls-7" x="1106.16" y="392.06" width="59.61" height="45.21"/><rect class="cls-7" x="1046.56" y="392.06" width="59.61" height="45.21"/><rect class="cls-7" x="986.95" y="392.06" width="59.61" height="45.21"/><rect class="cls-7" x="927.34" y="392.06" width="59.61" height="45.21"/><rect class="cls-7" x="867.74" y="392.06" width="59.61" height="45.21"/><rect class="cls-7" x="808.13" y="392.06" width="59.61" height="45.21"/><rect class="cls-7" x="748.52" y="392.06" width="59.61" height="45.21"/><rect class="cls-7" x="688.92" y="392.06" width="59.61" height="45.21"/><rect class="cls-7" x="629.31" y="392.06" width="59.61" height="45.21"/><rect class="cls-7" x="569.7" y="392.06" width="59.61" height="45.21"/><rect class="cls-7" x="510.09" y="392.06" width="59.61" height="45.21"/><rect class="cls-7" x="450.49" y="392.06" width="59.61" height="45.21"/><rect class="cls-7" x="390.88" y="392.06" width="59.61" height="45.21"/><rect class="cls-7" x="331.27" y="392.06" width="59.61" height="45.21"/><rect class="cls-7" x="1344.59" y="437.27" width="59.61" height="45.21"/><rect class="cls-7" x="1284.99" y="437.27" width="59.61" height="45.21"/><rect class="cls-7" x="1225.38" y="437.27" width="59.61" height="45.21"/><rect class="cls-7" x="1165.77" y="437.27" width="59.61" height="45.21"/><rect class="cls-7" x="1106.16" y="437.27" width="59.61" height="45.21"/><rect class="cls-7" x="1046.56" y="437.27" width="59.61" height="45.21"/><rect class="cls-7" x="986.95" y="437.27" width="59.61" height="45.21"/><rect class="cls-7" x="927.34" y="437.27" width="59.61" height="45.21"/><rect class="cls-7" x="867.74" y="437.27" width="59.61" height="45.21"/><rect class="cls-7" x="808.13" y="437.27" width="59.61" height="45.21"/><rect class="cls-7" x="748.52" y="437.27" width="59.61" height="45.21"/><rect class="cls-7" x="688.92" y="437.27" width="59.61" height="45.21"/><rect class="cls-7" x="629.31" y="437.27" width="59.61" height="45.21"/><rect class="cls-7" x="569.7" y="437.27" width="59.61" height="45.21"/><rect class="cls-7" x="510.09" y="437.27" width="59.61" height="45.21"/><rect class="cls-7" x="450.49" y="437.27" width="59.61" height="45.21"/><rect class="cls-7" x="390.88" y="437.27" width="59.61" height="45.21"/><rect class="cls-7" x="331.27" y="437.27" width="59.61" height="45.21"/><rect class="cls-7" x="1344.59" y="482.47" width="59.61" height="45.21"/><rect class="cls-7" x="1284.99" y="482.47" width="59.61" height="45.21"/><rect class="cls-7" x="1225.38" y="482.47" width="59.61" height="45.21"/><rect class="cls-7" x="1165.77" y="482.47" width="59.61" height="45.21"/><rect class="cls-7" x="1106.16" y="482.47" width="59.61" height="45.21"/><rect class="cls-7" x="1046.56" y="482.47" width="59.61" height="45.21"/><rect class="cls-7" x="986.95" y="482.47" width="59.61" height="45.21"/><rect class="cls-7" x="927.34" y="482.47" width="59.61" height="45.21"/><rect class="cls-7" x="867.74" y="482.47" width="59.61" height="45.21"/><rect class="cls-7" x="808.13" y="482.47" width="59.61" height="45.21"/><rect class="cls-7" x="748.52" y="482.47" width="59.61" height="45.21"/><rect class="cls-7" x="688.92" y="482.47" width="59.61" height="45.21"/><rect class="cls-7" x="629.31" y="482.47" width="59.61" height="45.21"/><rect class="cls-7" x="569.7" y="482.47" width="59.61" height="45.21"/><rect class="cls-7" x="510.09" y="482.47" width="59.61" height="45.21"/><rect class="cls-7" x="450.49" y="482.47" width="59.61" height="45.21"/><rect class="cls-7" x="390.88" y="482.47" width="59.61" height="45.21"/><rect class="cls-7" x="331.27" y="482.47" width="59.61" height="45.21"/><rect class="cls-7" x="1344.59" y="527.68" width="59.61" height="45.21"/><rect class="cls-7" x="1284.99" y="527.68" width="59.61" height="45.21"/><rect class="cls-7" x="1225.38" y="527.68" width="59.61" height="45.21"/><rect class="cls-7" x="1165.77" y="527.68" width="59.61" height="45.21"/><rect class="cls-7" x="1106.16" y="527.68" width="59.61" height="45.21"/><rect class="cls-7" x="1046.56" y="527.68" width="59.61" height="45.21"/><rect class="cls-7" x="986.95" y="527.68" width="59.61" height="45.21"/><rect class="cls-7" x="927.34" y="527.68" width="59.61" height="45.21"/><rect class="cls-7" x="867.74" y="527.68" width="59.61" height="45.21"/><rect class="cls-7" x="808.13" y="527.68" width="59.61" height="45.21"/><rect class="cls-7" x="748.52" y="527.68" width="59.61" height="45.21"/><rect class="cls-7" x="688.92" y="527.68" width="59.61" height="45.21"/><rect class="cls-7" x="629.31" y="527.68" width="59.61" height="45.21"/><rect class="cls-7" x="569.7" y="527.68" width="59.61" height="45.21"/><rect class="cls-7" x="510.09" y="527.68" width="59.61" height="45.21"/><rect class="cls-7" x="450.49" y="527.68" width="59.61" height="45.21"/><rect class="cls-7" x="390.88" y="527.68" width="59.61" height="45.21"/><rect class="cls-7" x="331.27" y="527.68" width="59.61" height="45.21"/><rect class="cls-7" x="1344.59" y="572.89" width="59.61" height="45.21"/><rect class="cls-7" x="1284.99" y="572.89" width="59.61" height="45.21"/><rect class="cls-7" x="1225.38" y="572.89" width="59.61" height="45.21"/><rect class="cls-7" x="1165.77" y="572.89" width="59.61" height="45.21"/><rect class="cls-7" x="1106.16" y="572.89" width="59.61" height="45.21"/><rect class="cls-7" x="1046.56" y="572.89" width="59.61" height="45.21"/><rect class="cls-7" x="986.95" y="572.89" width="59.61" height="45.21"/><rect class="cls-7" x="927.34" y="572.89" width="59.61" height="45.21"/><rect class="cls-7" x="867.74" y="572.89" width="59.61" height="45.21"/><rect class="cls-7" x="808.13" y="572.89" width="59.61" height="45.21"/><rect class="cls-7" x="748.52" y="572.89" width="59.61" height="45.21"/><rect class="cls-7" x="688.92" y="572.89" width="59.61" height="45.21"/><rect class="cls-7" x="629.31" y="572.89" width="59.61" height="45.21"/><rect class="cls-7" x="569.7" y="572.89" width="59.61" height="45.21"/><rect class="cls-7" x="510.09" y="572.89" width="59.61" height="45.21"/><rect class="cls-7" x="450.49" y="572.89" width="59.61" height="45.21"/><rect class="cls-7" x="390.88" y="572.89" width="59.61" height="45.21"/><rect class="cls-7" x="331.27" y="572.89" width="59.61" height="45.21"/><rect class="cls-7" x="1344.59" y="618.09" width="59.61" height="45.21"/><rect class="cls-7" x="1284.99" y="618.09" width="59.61" height="45.21"/><rect class="cls-7" x="1225.38" y="618.09" width="59.61" height="45.21"/><rect class="cls-7" x="1165.77" y="618.09" width="59.61" height="45.21"/><rect class="cls-7" x="1106.16" y="618.09" width="59.61" height="45.21"/><rect class="cls-7" x="1046.56" y="618.09" width="59.61" height="45.21"/><rect class="cls-7" x="986.95" y="618.09" width="59.61" height="45.21"/><rect class="cls-7" x="927.34" y="618.09" width="59.61" height="45.21"/><rect class="cls-7" x="867.74" y="618.09" width="59.61" height="45.21"/><rect class="cls-7" x="808.13" y="618.09" width="59.61" height="45.21"/><rect class="cls-7" x="748.52" y="618.09" width="59.61" height="45.21"/><rect class="cls-7" x="688.92" y="618.09" width="59.61" height="45.21"/><rect class="cls-7" x="629.31" y="618.09" width="59.61" height="45.21"/><rect class="cls-7" x="569.7" y="618.09" width="59.61" height="45.21"/><rect class="cls-7" x="510.09" y="618.09" width="59.61" height="45.21"/><rect class="cls-7" x="450.49" y="618.09" width="59.61" height="45.21"/><rect class="cls-7" x="390.88" y="618.09" width="59.61" height="45.21"/><rect class="cls-7" x="331.27" y="618.09" width="59.61" height="45.21"/><rect class="cls-7" x="1344.59" y="663.3" width="59.61" height="45.21"/><rect class="cls-7" x="1284.99" y="663.3" width="59.61" height="45.21"/><rect class="cls-7" x="1225.38" y="663.3" width="59.61" height="45.21"/><rect class="cls-7" x="1165.77" y="663.3" width="59.61" height="45.21"/><rect class="cls-7" x="1106.16" y="663.3" width="59.61" height="45.21"/><rect class="cls-7" x="1046.56" y="663.3" width="59.61" height="45.21"/><rect class="cls-7" x="986.95" y="663.3" width="59.61" height="45.21"/><rect class="cls-7" x="927.34" y="663.3" width="59.61" height="45.21"/><rect class="cls-7" x="867.74" y="663.3" width="59.61" height="45.21"/><rect class="cls-7" x="808.13" y="663.3" width="59.61" height="45.21"/><rect class="cls-7" x="748.52" y="663.3" width="59.61" height="45.21"/><rect class="cls-7" x="688.92" y="663.3" width="59.61" height="45.21"/><rect class="cls-7" x="629.31" y="663.3" width="59.61" height="45.21"/><rect class="cls-7" x="569.7" y="663.3" width="59.61" height="45.21"/><rect class="cls-7" x="510.09" y="663.3" width="59.61" height="45.21"/><rect class="cls-7" x="450.49" y="663.3" width="59.61" height="45.21"/><rect class="cls-7" x="390.88" y="663.3" width="59.61" height="45.21"/><rect class="cls-7" x="331.27" y="663.3" width="59.61" height="45.21"/><rect class="cls-7" x="1344.59" y="708.51" width="59.61" height="45.21"/><rect class="cls-7" x="1284.99" y="708.51" width="59.61" height="45.21"/><rect class="cls-7" x="1225.38" y="708.51" width="59.61" height="45.21"/><rect class="cls-7" x="1165.77" y="708.51" width="59.61" height="45.21"/><rect class="cls-7" x="1106.16" y="708.51" width="59.61" height="45.21"/><rect class="cls-7" x="1046.56" y="708.51" width="59.61" height="45.21"/><rect class="cls-7" x="986.95" y="708.51" width="59.61" height="45.21"/><rect class="cls-7" x="927.34" y="708.51" width="59.61" height="45.21"/><rect class="cls-7" x="867.74" y="708.51" width="59.61" height="45.21"/><rect class="cls-7" x="808.13" y="708.51" width="59.61" height="45.21"/><rect class="cls-7" x="748.52" y="708.51" width="59.61" height="45.21"/><rect class="cls-7" x="688.92" y="708.51" width="59.61" height="45.21"/><rect class="cls-7" x="629.31" y="708.51" width="59.61" height="45.21"/><rect class="cls-7" x="569.7" y="708.51" width="59.61" height="45.21"/><rect class="cls-7" x="510.09" y="708.51" width="59.61" height="45.21"/><rect class="cls-7" x="450.49" y="708.51" width="59.61" height="45.21"/><rect class="cls-7" x="390.88" y="708.51" width="59.61" height="45.21"/><rect class="cls-8" x="331.27" y="708.51" width="59.61" height="45.21"/><path class="cls-9" d="M69.31,90.77C57.19,60.36,85.59,2.61,85.59,2.61S90.21,57,110.29,60.09h0a253.59,253.59,0,0,1,256.78.79,228.87,228.87,0,0,1,77.38,76q5,8.13,9.25,16.68a209.44,209.44,0,0,1,9.1,21.15,204.75,204.75,0,0,1,12.53,70.62c0,103.86-77.84,190.89-182.45,213.81h0a257.31,257.31,0,0,1-128.35-4.84C69.43,425.61.71,342.88.71,245.29.71,185.05,26.9,130.46,69.31,90.77Z"/><path class="cls-10" d="M292.88,459.1c2.1,1.18,33,164.64,28.37,172.38S296.47,648,296.47,648c-14.51,3.14-25.92,5.39-35,7-41.82,7.33-35.41,1-57.87,4.37-27.35,4.13-46.45-18.07-46.45-18.07l1.58-27.38a78.74,78.74,0,0,0-2.39-23.67c-2.14-8.46-2-23.46-2-34.44,0-15,10.19-101.53,10.19-101.53a257.31,257.31,0,0,0,128.35,4.84Z"/><path class="cls-11" d="M296.47,911.24c4.29,5.1,3.27,13.68,3.27,13.68s-4.09,8.16-6.13,9.36-11.48.26-11.48.26l-3.84,3.35-4.5,2.76c-10.86-5.9-27.85-16.62-35.78-29.41,0,0-.18-.86-.46-2.35l5.25,1.49c-1.09-12.76,13.93-19.79,13.93-19.79s8.56,10.9,19.53,13.09S292.19,906.13,296.47,911.24ZM270,908.12,268.88,904s-6.73-1.68-8.79-4.49a14,14,0,0,0-5.06-4.12s-9.35,7.42-8.6,15c0,0,6-6,15.72,1.63C262.15,912,261.4,907.6,270,908.12Z"/><path class="cls-11" d="M284.37,953.26c.47,4.19-8.26,8-11.07,9.1a7.08,7.08,0,0,1-1.68.45c-4.64.65-27.42,3.61-29.42-.12-1.82-3.42-10.21-6.84-13.14-8a7.25,7.25,0,0,0-2-.46c-1.93-.15-6.27-.47-9.82-.47-2.87,0-5.75,2.17-7.56,3.86a7.29,7.29,0,0,1-5,2H193.79c-3.51,0-5.3-5.21-5.95-7.65a6.88,6.88,0,0,1-.23-2.26c.22-4.3,1.09-20.83,1.33-25.88.27-5.78,10.92-11.75,11.08-11.84a11.26,11.26,0,0,1-1.1,3.87A19.68,19.68,0,0,1,212.86,920S227,905,238,911.24c7.93,12.79,24.92,23.51,35.78,29.41,2.41,1.31,4.53,2.39,6.17,3.2a7.34,7.34,0,0,1,4.08,5.89Zm-33.64-19s2.81-1.87,0-4.49-13.22-11.42-13.22-11.42a10.17,10.17,0,0,0-7.44-2.8s-10,7.11-10.4,10.66,8.23,8,8.23,8,11.23-1.5,13.1-1.31S239.17,933,250.73,934.28Z"/><path class="cls-9" d="M249.43,784.8a2.94,2.94,0,0,0,.19-.66c.17-.86.5-2.58,1-5l.1,0s3.78,9.8,29.73,0c-.68,2.12-1.35,3.51-2,4,0,0-24.78,77.42-21.68,107.36,0,0-15,7-13.93,19.79l-5.25-1.49c-1.34-7.08-4.86-28.6-.94-41.16a47.05,47.05,0,0,0,1.92-10.25c1.45-18.23,7.12-66.22,10.75-72.37Z"/><path class="cls-9" d="M268.88,904l1.13,4.16c-8.61-.52-7.86,3.89-7.86,3.89-9.73-7.67-15.72-1.63-15.72-1.63-.75-7.61,8.6-15,8.6-15a14,14,0,0,1,5.06,4.12C262.15,902.28,268.88,904,268.88,904Z"/><path class="cls-9" d="M250.73,929.79c2.81,2.62,0,4.49,0,4.49-11.56-1.26-7.86-1.12-9.73-1.31s-13.1,1.31-13.1,1.31-8.61-4.49-8.23-8,10.4-10.66,10.4-10.66a10.17,10.17,0,0,1,7.44,2.8S247.92,927.17,250.73,929.79Z"/><path class="cls-9" d="M237.55,908.89c.28,1.49.46,2.35.46,2.35C227,905,212.86,920,212.86,920a19.68,19.68,0,0,0-13.94-4.13A11.26,11.26,0,0,0,200,912h0c2.59-16,.69-71.7-1.62-82.33-2.58-11.87-2.58-32.51-2.58-32.51s.74-6,1.9-14.82c1,1.36,3.92,4.46,10.26,5.15,8.2.89,16.6,2,22.09,1.63,5.26-.35,18.24-4,19.36-4.33l-.15.31c-3.63,6.15-9.3,54.14-10.75,72.37a47.05,47.05,0,0,1-1.92,10.25C232.69,880.29,236.21,901.81,237.55,908.89Z"/><path class="cls-12" d="M164.52,454.26s-10.19,86.53-10.19,101.53c0,11-.17,26,2,34.44a78.74,78.74,0,0,1,2.39,23.67l-1.58,27.38s19.1,22.2,46.45,18.07c22.46-3.39,16.05,3,57.87-4.37,9.12-1.6,20.53-3.85,35-7,0,0,20.13-8.77,24.78-16.51S295,460.28,292.88,459.1"/><path class="cls-12" d="M200,912a11.26,11.26,0,0,1-1.1,3.87A19.68,19.68,0,0,1,212.86,920S227,905,238,911.24c0,0-.18-.86-.46-2.35-1.34-7.08-4.86-28.6-.94-41.16a47.05,47.05,0,0,0,1.92-10.25c1.45-18.23,7.12-66.22,10.75-72.37l.15-.31a2.94,2.94,0,0,0,.19-.66c.17-.86.5-2.58,1-5,3.52-18.5,14.44-77,13.37-85.75,0,0-4.71-38-2.52-38.44"/><path class="cls-12" d="M203.56,659.35s-.85,10.24,0,15.48c1.39,8.49,8.07,29.26,3.62,48C204,736,200,764.72,197.72,782.35c-1.16,8.78-1.9,14.82-1.9,14.82s0,20.64,2.58,32.51c2.31,10.63,4.21,66.3,1.62,82.33"/><path class="cls-12" d="M197.3,781.7a4.4,4.4,0,0,0,.42.65c1,1.36,3.92,4.46,10.26,5.15,8.2.89,16.6,2,22.09,1.63,5.26-.35,18.24-4,19.36-4.33l.07,0"/><path class="cls-12" d="M250.68,779.19s3.78,9.8,29.73,0h0"/><path class="cls-12" d="M200,912h0c-.16.09-10.81,6.06-11.08,11.84-.24,5-1.11,21.58-1.33,25.88a6.88,6.88,0,0,0,.23,2.26c.65,2.44,2.44,7.65,5.95,7.65h10.88a7.29,7.29,0,0,0,5-2c1.81-1.69,4.69-3.86,7.56-3.86,3.55,0,7.89.32,9.82.47a7.25,7.25,0,0,1,2,.46c2.93,1.11,11.32,4.53,13.14,8,2,3.73,24.78.77,29.42.12a7.08,7.08,0,0,0,1.68-.45c2.81-1.11,11.54-4.91,11.07-9.1l-.33-3.52a7.34,7.34,0,0,0-4.08-5.89c-1.64-.81-3.76-1.89-6.17-3.2-10.86-5.9-27.85-16.62-35.78-29.41"/><path class="cls-12" d="M230.07,915.57s-10,7.11-10.4,10.66,8.23,8,8.23,8,11.23-1.5,13.1-1.31-1.83,0,9.73,1.31c0,0,2.81-1.87,0-4.49s-13.22-11.42-13.22-11.42A10.17,10.17,0,0,0,230.07,915.57Z"/><path class="cls-12" d="M296.47,648s-8.65,108.19-16.06,131.2c-.68,2.12-1.35,3.51-2,4,0,0-24.78,77.42-21.68,107.36,0,0-15,7-13.93,19.79l-5.25-1.49h0"/><path class="cls-12" d="M246.43,910.38s6-6,15.72,1.63c0,0-.75-4.41,7.86-3.89L268.88,904s-6.73-1.68-8.79-4.49a14,14,0,0,0-5.06-4.12S245.68,902.77,246.43,910.38Z"/><path class="cls-12" d="M256.73,890.59s8.56,10.9,19.53,13.09,15.93,2.45,20.21,7.56,3.27,13.68,3.27,13.68-4.09,8.16-6.13,9.36-11.48.26-11.48.26l-3.84,3.35-4.5,2.76"/><path class="cls-13" d="M292.87,459.1a257.31,257.31,0,0,1-128.35-4.84C69.43,425.61.71,342.88.71,245.29c0-60.24,26.19-114.83,68.6-154.52"/><path class="cls-12" d="M292.88,459.1h0"/><path class="cls-13" d="M462.8,174.67a204.75,204.75,0,0,1,12.53,70.62c0,103.86-77.84,190.89-182.45,213.81"/><path class="cls-13" d="M453.7,153.52a209.44,209.44,0,0,1,9.1,21.15"/><path class="cls-13" d="M435.35,159a210.43,210.43,0,0,1,9.1,21.15"/><path class="cls-13" d="M444.45,136.84q5,8.13,9.25,16.68"/><path class="cls-13" d="M367.07,60.88a228.87,228.87,0,0,1,77.38,76"/><path class="cls-13" d="M347.39,69a229.05,229.05,0,0,1,77.38,76"/><path class="cls-13" d="M110.29,60.09a253.59,253.59,0,0,1,256.78.79"/><path class="cls-13" d="M69.32,90.78h0C57.19,60.36,85.59,2.61,85.59,2.61S90.21,57,110.29,60.09"/><path class="cls-11" d="M125.06,211.26a7.26,7.26,0,0,0,3.21-6.39V119.55h10.91V150h28.59v10.61H139.18v47.68c9.65-2.28,19.18-4.9,28.71-8l2.75,10.15c-13.09,4.11-27.21,7.76-42.25,10.95ZM186,205c0,3,1.49,4.56,4.48,4.56h16.3a6.5,6.5,0,0,0,4.59-2.06c1.61-1.59,2.65-8.21,3.1-19.61L225,191.3c-1.26,13.91-3,22.24-5.28,24.75-2.52,2.51-5.86,3.76-10.1,3.88H187.41c-8.27,0-12.29-4.34-12.29-13V119.2H186v34.34a164.69,164.69,0,0,0,30.54-12.32L223,150a208.6,208.6,0,0,1-37,13.69Z"/><path class="cls-11" d="M252.51,140.08V123.42h41.1a44.86,44.86,0,0,0-2.87-4.79l10.57-1.71a59.24,59.24,0,0,1,3,6.5h42.25v16.66h-9.07v2.39H318.3v4.68h16.88v6.28H318.3V158h31.23v7.64H325.76c6.2,4.22,14.81,7.64,25.95,10.15l-3.9,8.22a107.71,107.71,0,0,1-13.67-5.14v30.35H315.66a270.86,270.86,0,0,1,30.65,7.64l-5.74,7c-8.95-3.43-20.2-6.5-34-9.36l4.25-5.24h-23.2l4,5.13c-8.27,3.88-20,7.07-35.25,9.58l-4.59-7.87c13.09-1.82,23.54-4.11,31.23-6.84H265.14V179.78c-3.91,1.82-8.27,3.65-13,5.36L247,176.92q17.58-4.62,26.87-11.29H249.52V158h31v-4.56H263.76v-6.28h16.76v-4.68H261.46v-2.39Zm9.76-9.24v4.9h18.25v-4.9ZM324,176.24h-48.8v4.9H324Zm-48.8,15.4H324v-4.79h-48.8Zm0,10.61H324v-5h-48.8Zm44.32-32.06a37.69,37.69,0,0,1-4.94-4.56h-30a44.44,44.44,0,0,1-4.71,4.56Zm-28.7-39.35v4.9H308v-4.9ZM308,142.47h-17.1v4.68H308ZM308,158v-4.56h-17.1V158Zm28.71-27.15H318.3v4.9h18.37Z"/><path class="cls-11" d="M120.7,339.35V330h18.6a119.48,119.48,0,0,0,4.24-19.51l9,1.26A121.69,121.69,0,0,1,147.91,330h7.81v9.35H142.86c-.12,4.11-.35,8-.58,11.64h11.25v9.24H141.36c-.23,1.71-.57,3.31-.8,4.9-1.95,10.61-6.43,19.51-13.55,26.58l-6.31-7.64A46.26,46.26,0,0,0,131,362.51l.34-2.28h-9.3V351h10.34c.23-3.65.46-7.53.57-11.64Zm49.37-52.58V308h14.7q0,56.47-1.38,69.82c-.92,8.44-4.82,12.66-11.94,12.66-1.27,0-3.33-.23-6.32-.46l-2.3-8.78c2.65.23,5.06.46,7.12.46,2.53,0,4-2.74,4.48-8.1.69-5.71,1-24.64,1.27-56.81h-5.63q-.52,51.17-17.57,74.6l-7.12-6.27q15.17-21.39,15.5-68.33h-5.62v-8.44H121.84V299h11.37a117.13,117.13,0,0,0-3.9-11.63l10.21-1.6c1.15,3.88,2.19,8.21,3.34,13.23h12.51v9h5.51V286.77Zm-33.3,39.12-7.92,3.2a110.18,110.18,0,0,0-6.43-15.4l7.92-3.08A116.2,116.2,0,0,1,136.77,325.89Zm51,13.24v-9.36h20.32A133.81,133.81,0,0,0,212.9,310l8.95,1.25a108.4,108.4,0,0,1-5.16,18.48h9.07v9.36H211.63v12H225v9.36H211.63v30.8h-9.87v-30.8H188.67V351.1h13.09v-12ZM211.17,299H225v9.36H188.1V299h13.43a108.41,108.41,0,0,0-3.45-11.29l10.22-1.6C209.22,289.85,210.26,294.18,211.17,299Zm-6.43,26.24-7.57,3.19a99.06,99.06,0,0,0-6.2-14.71l7.8-3A86.13,86.13,0,0,1,204.74,325.21Z"/><path class="cls-11" d="M272.25,331.14l-7.92,7.76a105.51,105.51,0,0,0-17.22-17.34l7.81-7.53A144.29,144.29,0,0,1,272.25,331.14Zm3.68,19.05a407,407,0,0,1-16.42,40.38l-10.91-4.79a344.36,344.36,0,0,0,17.45-39.58Zm.57-46-7.81,7.87c-4.36-5.36-10.67-11.06-18.83-17.22l7.93-7.53A152.66,152.66,0,0,1,276.5,304.22Zm42.14-17.79v17.22h28.59v10.49H318.64V333h31.69v10.49H313c-6.55,15.29-12.29,26.58-17.34,33.88,12.63-1.37,25.14-3.42,37.55-5.93-3-6.16-6.09-11.86-9.19-17.11l10.56-3.42a243.54,243.54,0,0,1,17.8,36.5l-10.33,4.56c-1.5-3.88-3-7.64-4.48-11.06q-25.66,5-55.81,8l-2.52-9.47a15.2,15.2,0,0,0,2.3-1q7.57-6.67,19.63-34.91H275.81V333h31.81V314.14H281.33V303.65h26.29V286.43Z"/></g></g></svg>