<svg xmlns="http://www.w3.org/2000/svg" viewBox="0 0 2277.65 1403.94"><defs><style>.cls-1,.cls-5{fill:#b3b3b3;}.cls-1,.cls-2,.cls-3,.cls-4,.cls-7,.cls-8{stroke:#534741;stroke-miterlimit:10;}.cls-1,.cls-2{stroke-width:2.89px;}.cls-2,.cls-7{fill:#fff;}.cls-3{fill:#534741;stroke-width:1.44px;}.cls-4{fill:#666;}.cls-6{fill:#ccc;}.cls-7{opacity:0.52;}.cls-8{fill:none;opacity:0.16;}</style></defs><g id="Layer_2" data-name="Layer 2"><g id="比賽辦法"><path class="cls-1" d="M9,1347.78v35a19.76,19.76,0,0,0,19.76,19.76H2253.94a19.76,19.76,0,0,0,19.76-19.76v-44.67"/><path class="cls-2" d="M329.42,1061.28H313.18a10.06,10.06,0,0,0-6.72,2.58L4.81,1334.14a10.07,10.07,0,0,0,6.73,17.57H2266.11a10.07,10.07,0,0,0,6.5-17.77L1951.49,1063a10.11,10.11,0,0,0-4.67-2.21l-18.38-3.39"/><path class="cls-3" d="M329.42,1050.32V53A52.32,52.32,0,0,1,381.73.72h1475a71.71,71.71,0,0,1,71.71,71.71v985a13,13,0,0,1-13,13H349.52A20.1,20.1,0,0,1,329.42,1050.32Z"/><path class="cls-4" d="M1016.53,1346s-10.31,8.44,17.52,24.32H1264s17.52-13,10.82-24.32Z"/><path class="cls-5" d="M860.91,1323.73h564.58a8.8,8.8,0,0,0,8.11-12.23l-40.95-96.92a8.81,8.81,0,0,0-8.11-5.38H895.71a8.81,8.81,0,0,0-8.28,5.83L852.62,1312A8.8,8.8,0,0,0,860.91,1323.73Z"/><path class="cls-6" d="M1569.61,1174.44v2.17a6,6,0,0,0,6.11,6H1663a1.49,1.49,0,0,0,1.38-2.11l-3.08-6.63a1.54,1.54,0,0,0-1.39-.88h-88.76A1.52,1.52,0,0,0,1569.61,1174.44Z"/><path class="cls-6" d="M1468.83,1174v5.44a3.13,3.13,0,0,0,3.13,3.13h75.38a3.12,3.12,0,0,0,2.83-4.41l-1.89-4.16Z"/><path class="cls-6" d="M1342.79,1176.6V1180a2.6,2.6,0,0,0,2.6,2.6h101.68a2.6,2.6,0,0,0,2.24-3.93l-2-3.37a2.6,2.6,0,0,0-2.24-1.27h-99.68A2.59,2.59,0,0,0,1342.79,1176.6Z"/><path class="cls-6" d="M717.19,1176.6V1180a2.6,2.6,0,0,0,2.6,2.6H821.48a2.6,2.6,0,0,0,2.23-3.93l-2-3.37a2.6,2.6,0,0,0-2.23-1.27H719.79A2.59,2.59,0,0,0,717.19,1176.6Z"/><path class="cls-6" d="M675.7,1086.82v3.37c0,1.43.62,2.59,1.4,2.59h54.73c1.08,0,1.75-2.19,1.2-3.92l-1.08-3.37c-.25-.79-.71-1.27-1.2-1.27H677.1C676.32,1084.22,675.7,1085.38,675.7,1086.82Z"/><path class="cls-6" d="M736.93,1086.82v3.37c0,1.43.62,2.59,1.39,2.59h54.74c1.08,0,1.75-2.19,1.2-3.92l-1.08-3.37c-.25-.79-.71-1.27-1.2-1.27H738.32C737.55,1084.22,736.93,1085.38,736.93,1086.82Z"/><path class="cls-6" d="M800.72,1086.82v3.37c0,1.43.63,2.59,1.4,2.59h54.73c1.09,0,1.76-2.19,1.2-3.92l-1.07-3.37c-.25-.79-.71-1.27-1.21-1.27H802.12C801.35,1084.22,800.72,1085.38,800.72,1086.82Z"/><path class="cls-6" d="M863.76,1086.26v3.36c0,1.44.63,2.6,1.4,2.6h54.73c1.08,0,1.76-2.19,1.2-3.92l-1.07-3.37c-.26-.79-.71-1.27-1.21-1.27H865.16C864.39,1083.66,863.76,1084.82,863.76,1086.26Z"/><path class="cls-6" d="M928,1086.26v3.36c0,1.44.63,2.6,1.4,2.6h54.74c1.08,0,1.75-2.19,1.2-3.92l-1.08-3.37c-.25-.79-.71-1.27-1.2-1.27H929.44C928.67,1083.66,928,1084.82,928,1086.26Z"/><path class="cls-6" d="M991.35,1086.26v3.36c0,1.44.62,2.6,1.4,2.6h54.73c1.08,0,1.76-2.19,1.2-3.92l-1.07-3.37c-.26-.79-.71-1.27-1.21-1.27H992.75C992,1083.66,991.35,1084.82,991.35,1086.26Z"/><path class="cls-6" d="M1056.61,1086.26v3.36c0,1.44.63,2.6,1.4,2.6h54.74c1.08,0,1.75-2.19,1.2-3.92l-1.08-3.37c-.25-.79-.71-1.27-1.2-1.27H1058C1057.24,1083.66,1056.61,1084.82,1056.61,1086.26Z"/><path class="cls-6" d="M1123.35,1086.26v3.36c0,1.44.63,2.6,1.4,2.6h54.73c1.09,0,1.76-2.19,1.21-3.92l-1.08-3.37c-.25-.79-.71-1.27-1.2-1.27h-53.66C1124,1083.66,1123.35,1084.82,1123.35,1086.26Z"/><path class="cls-6" d="M1191.07,1086.26v3.36c0,1.44.63,2.6,1.4,2.6h54.74c1.08,0,1.75-2.19,1.2-3.92l-1.08-3.37c-.25-.79-.71-1.27-1.2-1.27h-53.66C1191.7,1083.66,1191.07,1084.82,1191.07,1086.26Z"/><path class="cls-6" d="M1259.29,1086.26v3.36c0,1.44.62,2.6,1.39,2.6h54.74c1.08,0,1.75-2.19,1.2-3.92l-1.08-3.37c-.25-.79-.71-1.27-1.2-1.27h-53.66C1259.91,1083.66,1259.29,1084.82,1259.29,1086.26Z"/><path class="cls-6" d="M1325.87,1086.26v3.36c0,1.44.62,2.6,1.39,2.6H1382c1.08,0,1.75-2.19,1.2-3.92l-1.08-3.37c-.25-.79-.71-1.27-1.2-1.27h-53.66C1326.49,1083.66,1325.87,1084.82,1325.87,1086.26Z"/><path class="cls-6" d="M1392.14,1086.26v3.36a2.5,2.5,0,0,0,2.37,2.6h92.72a2.61,2.61,0,0,0,2-3.92l-1.83-3.37a2.33,2.33,0,0,0-2-1.27h-90.89A2.5,2.5,0,0,0,1392.14,1086.26Z"/><path class="cls-6" d="M1497.22,1086.26v3.36a2.49,2.49,0,0,0,2.37,2.6h92.71a2.6,2.6,0,0,0,2-3.92l-1.82-3.37a2.35,2.35,0,0,0-2-1.27h-90.89A2.49,2.49,0,0,0,1497.22,1086.26Z"/><path class="cls-6" d="M1598.85,1086.26v3.36a2.49,2.49,0,0,0,2.37,2.6h92.71a2.6,2.6,0,0,0,2-3.92l-1.82-3.37a2.35,2.35,0,0,0-2-1.27h-90.89A2.49,2.49,0,0,0,1598.85,1086.26Z"/><path class="cls-6" d="M603.35,1176.6V1180a2.61,2.61,0,0,0,2.6,2.6H707.64a2.61,2.61,0,0,0,2.24-3.93l-2-3.37a2.6,2.6,0,0,0-2.24-1.27H606A2.6,2.6,0,0,0,603.35,1176.6Z"/><path class="cls-6" d="M494.31,1176.6V1180a2.55,2.55,0,0,0,2.49,2.6h97.12a2.61,2.61,0,0,0,2.14-3.93l-1.91-3.37A2.46,2.46,0,0,0,592,1174H496.8A2.54,2.54,0,0,0,494.31,1176.6Z"/><path class="cls-6" d="M569.9,1086.82v3.37a2.54,2.54,0,0,0,2.49,2.59h97.12a2.6,2.6,0,0,0,2.14-3.92l-1.91-3.37a2.46,2.46,0,0,0-2.14-1.27H572.39A2.54,2.54,0,0,0,569.9,1086.82Z"/><path class="cls-6" d="M1679.44,1176.22v4.13a2.22,2.22,0,0,0,2.22,2.22h77.68a2.23,2.23,0,0,0,2-3.14l-1.88-4.13a2.22,2.22,0,0,0-2-1.3h-75.8A2.21,2.21,0,0,0,1679.44,1176.22Z"/><path class="cls-6" d="M1779.92,1174v5.64a2.93,2.93,0,0,0,2.93,2.93h77.08a2.15,2.15,0,0,0,2-3l-2.51-5.53Z"/><path class="cls-6" d="M1702.76,1083.66v5.63a2.77,2.77,0,0,0,2.59,2.93h68.23a2.14,2.14,0,0,0,1.73-3l-2.23-5.53Z"/><path class="cls-6" d="M1671.65,1165.43v4.66a3.91,3.91,0,0,0,3.91,3.91h74.6a3.11,3.11,0,0,0,2.83-4.4l-1.89-4.17Z"/><path class="cls-6" d="M844.49,1161.75h473.59a4,4,0,0,1,3.79,2.82l3.83,12.93a4,4,0,0,1-3.79,5.07H841.21a4,4,0,0,1-3.83-4.92l3.28-12.93A4,4,0,0,1,844.49,1161.75Z"/><polygon class="cls-6" points="419.01 1174 412.03 1181.45 488.85 1181.45 488.85 1175.46 419.01 1174"/><polygon class="cls-6" points="495.84 1084.78 488.85 1092.22 565.68 1092.22 565.68 1086.24 495.84 1084.78"/><polygon class="cls-6" points="491.8 1092.22 419.78 1169.97 828.06 1172.16 837.25 1155.74 1325.87 1151.69 1338.81 1169.61 1449.68 1169.03 1449.68 1161.75 1461.87 1161.75 1472.63 1174 1554.22 1174 1550.45 1161.75 1619.19 1158.3 1616.92 1151.12 1625.98 1151.12 1630.89 1157.92 1661.87 1159.43 1664.51 1169.71 1671.65 1170.09 1671.65 1165.43 1757.81 1165.43 1756.3 1160.18 1846.58 1162.07 1777.83 1092.22 491.8 1092.22"/><rect class="cls-2" x="371.79" y="50.8" width="1512.24" height="955.76"/><rect class="cls-7" x="1800.02" y="50.8" width="84.01" height="63.72"/><rect class="cls-7" x="1716" y="50.8" width="84.01" height="63.72"/><rect class="cls-7" x="1631.99" y="50.8" width="84.01" height="63.72"/><rect class="cls-7" x="1547.98" y="50.8" width="84.01" height="63.72"/><rect class="cls-7" x="1463.96" y="50.8" width="84.01" height="63.72"/><rect class="cls-7" x="1379.95" y="50.8" width="84.01" height="63.72"/><rect class="cls-7" x="1295.94" y="50.8" width="84.01" height="63.72"/><rect class="cls-7" x="1211.92" y="50.8" width="84.01" height="63.72"/><rect class="cls-7" x="1127.91" y="50.8" width="84.01" height="63.72"/><rect class="cls-7" x="1043.9" y="50.8" width="84.01" height="63.72"/><rect class="cls-7" x="959.88" y="50.8" width="84.01" height="63.72"/><rect class="cls-7" x="875.87" y="50.8" width="84.01" height="63.72"/><rect class="cls-7" x="791.86" y="50.8" width="84.01" height="63.72"/><rect class="cls-7" x="707.84" y="50.8" width="84.01" height="63.72"/><rect class="cls-7" x="623.83" y="50.8" width="84.01" height="63.72"/><rect class="cls-7" x="539.82" y="50.8" width="84.01" height="63.72"/><rect class="cls-7" x="455.8" y="50.8" width="84.01" height="63.72"/><rect class="cls-7" x="371.79" y="50.8" width="84.01" height="63.72"/><rect class="cls-7" x="1800.02" y="114.51" width="84.01" height="63.72"/><rect class="cls-7" x="1716" y="114.51" width="84.01" height="63.72"/><rect class="cls-7" x="1631.99" y="114.51" width="84.01" height="63.72"/><rect class="cls-7" x="1547.98" y="114.51" width="84.01" height="63.72"/><rect class="cls-7" x="1463.96" y="114.51" width="84.01" height="63.72"/><rect class="cls-7" x="1379.95" y="114.51" width="84.01" height="63.72"/><rect class="cls-7" x="1295.94" y="114.51" width="84.01" height="63.72"/><rect class="cls-7" x="1211.92" y="114.51" width="84.01" height="63.72"/><rect class="cls-7" x="1127.91" y="114.51" width="84.01" height="63.72"/><rect class="cls-7" x="1043.9" y="114.51" width="84.01" height="63.72"/><rect class="cls-7" x="959.88" y="114.51" width="84.01" height="63.72"/><rect class="cls-7" x="875.87" y="114.51" width="84.01" height="63.72"/><rect class="cls-7" x="791.86" y="114.51" width="84.01" height="63.72"/><rect class="cls-7" x="707.84" y="114.51" width="84.01" height="63.72"/><rect class="cls-7" x="623.83" y="114.51" width="84.01" height="63.72"/><rect class="cls-7" x="539.82" y="114.51" width="84.01" height="63.72"/><rect class="cls-7" x="455.8" y="114.51" width="84.01" height="63.72"/><rect class="cls-7" x="371.79" y="114.51" width="84.01" height="63.72"/><rect class="cls-7" x="1800.02" y="178.23" width="84.01" height="63.72"/><rect class="cls-7" x="1716" y="178.23" width="84.01" height="63.72"/><rect class="cls-7" x="1631.99" y="178.23" width="84.01" height="63.72"/><rect class="cls-7" x="1547.98" y="178.23" width="84.01" height="63.72"/><rect class="cls-7" x="1463.96" y="178.23" width="84.01" height="63.72"/><rect class="cls-7" x="1379.95" y="178.23" width="84.01" height="63.72"/><rect class="cls-7" x="1295.94" y="178.23" width="84.01" height="63.72"/><rect class="cls-7" x="1211.92" y="178.23" width="84.01" height="63.72"/><rect class="cls-7" x="1127.91" y="178.23" width="84.01" height="63.72"/><rect class="cls-7" x="1043.9" y="178.23" width="84.01" height="63.72"/><rect class="cls-7" x="959.88" y="178.23" width="84.01" height="63.72"/><rect class="cls-7" x="875.87" y="178.23" width="84.01" height="63.72"/><rect class="cls-7" x="791.86" y="178.23" width="84.01" height="63.72"/><rect class="cls-7" x="707.84" y="178.23" width="84.01" height="63.72"/><rect class="cls-7" x="623.83" y="178.23" width="84.01" height="63.72"/><rect class="cls-7" x="539.82" y="178.23" width="84.01" height="63.72"/><rect class="cls-7" x="455.8" y="178.23" width="84.01" height="63.72"/><rect class="cls-7" x="371.79" y="178.23" width="84.01" height="63.72"/><rect class="cls-7" x="1800.02" y="241.95" width="84.01" height="63.72"/><rect class="cls-7" x="1716" y="241.95" width="84.01" height="63.72"/><rect class="cls-7" x="1631.99" y="241.95" width="84.01" height="63.72"/><rect class="cls-7" x="1547.98" y="241.95" width="84.01" height="63.72"/><rect class="cls-7" x="1463.96" y="241.95" width="84.01" height="63.72"/><rect class="cls-7" x="1379.95" y="241.95" width="84.01" height="63.72"/><rect class="cls-7" x="1295.94" y="241.95" width="84.01" height="63.72"/><rect class="cls-7" x="1211.92" y="241.95" width="84.01" height="63.72"/><rect class="cls-7" x="1127.91" y="241.95" width="84.01" height="63.72"/><rect class="cls-7" x="1043.9" y="241.95" width="84.01" height="63.72"/><rect class="cls-7" x="959.88" y="241.95" width="84.01" height="63.72"/><rect class="cls-7" x="875.87" y="241.95" width="84.01" height="63.72"/><rect class="cls-7" x="791.86" y="241.95" width="84.01" height="63.72"/><rect class="cls-7" x="707.84" y="241.95" width="84.01" height="63.72"/><rect class="cls-7" x="623.83" y="241.95" width="84.01" height="63.72"/><rect class="cls-7" x="539.82" y="241.95" width="84.01" height="63.72"/><rect class="cls-7" x="455.8" y="241.95" width="84.01" height="63.72"/><rect class="cls-7" x="371.79" y="241.95" width="84.01" height="63.72"/><rect class="cls-7" x="1800.02" y="305.67" width="84.01" height="63.72"/><rect class="cls-7" x="1716" y="305.67" width="84.01" height="63.72"/><rect class="cls-7" x="1631.99" y="305.67" width="84.01" height="63.72"/><rect class="cls-7" x="1547.98" y="305.67" width="84.01" height="63.72"/><rect class="cls-7" x="1463.96" y="305.67" width="84.01" height="63.72"/><rect class="cls-7" x="1379.95" y="305.67" width="84.01" height="63.72"/><rect class="cls-7" x="1295.94" y="305.67" width="84.01" height="63.72"/><rect class="cls-7" x="1211.92" y="305.67" width="84.01" height="63.72"/><rect class="cls-7" x="1127.91" y="305.67" width="84.01" height="63.72"/><rect class="cls-7" x="1043.9" y="305.67" width="84.01" height="63.72"/><rect class="cls-7" x="959.88" y="305.67" width="84.01" height="63.72"/><rect class="cls-7" x="875.87" y="305.67" width="84.01" height="63.72"/><rect class="cls-7" x="791.86" y="305.67" width="84.01" height="63.72"/><rect class="cls-7" x="707.84" y="305.67" width="84.01" height="63.72"/><rect class="cls-7" x="623.83" y="305.67" width="84.01" height="63.72"/><rect class="cls-7" x="539.82" y="305.67" width="84.01" height="63.72"/><rect class="cls-7" x="455.8" y="305.67" width="84.01" height="63.72"/><rect class="cls-7" x="371.79" y="305.67" width="84.01" height="63.72"/><rect class="cls-7" x="1800.02" y="369.38" width="84.01" height="63.72"/><rect class="cls-7" x="1716" y="369.38" width="84.01" height="63.72"/><rect class="cls-7" x="1631.99" y="369.38" width="84.01" height="63.72"/><rect class="cls-7" x="1547.98" y="369.38" width="84.01" height="63.72"/><rect class="cls-7" x="1463.96" y="369.38" width="84.01" height="63.72"/><rect class="cls-7" x="1379.95" y="369.38" width="84.01" height="63.72"/><rect class="cls-7" x="1295.94" y="369.38" width="84.01" height="63.72"/><rect class="cls-7" x="1211.92" y="369.38" width="84.01" height="63.72"/><rect class="cls-7" x="1127.91" y="369.38" width="84.01" height="63.72"/><rect class="cls-7" x="1043.9" y="369.38" width="84.01" height="63.72"/><rect class="cls-7" x="959.88" y="369.38" width="84.01" height="63.72"/><rect class="cls-7" x="875.87" y="369.38" width="84.01" height="63.72"/><rect class="cls-7" x="791.86" y="369.38" width="84.01" height="63.72"/><rect class="cls-7" x="707.84" y="369.38" width="84.01" height="63.72"/><rect class="cls-7" x="623.83" y="369.38" width="84.01" height="63.72"/><rect class="cls-7" x="539.82" y="369.38" width="84.01" height="63.72"/><rect class="cls-7" x="455.8" y="369.38" width="84.01" height="63.72"/><rect class="cls-7" x="371.79" y="369.38" width="84.01" height="63.72"/><rect class="cls-7" x="1800.02" y="433.1" width="84.01" height="63.72"/><rect class="cls-7" x="1716" y="433.1" width="84.01" height="63.72"/><rect class="cls-7" x="1631.99" y="433.1" width="84.01" height="63.72"/><rect class="cls-7" x="1547.98" y="433.1" width="84.01" height="63.72"/><rect class="cls-7" x="1463.96" y="433.1" width="84.01" height="63.72"/><rect class="cls-7" x="1379.95" y="433.1" width="84.01" height="63.72"/><rect class="cls-7" x="1295.94" y="433.1" width="84.01" height="63.72"/><rect class="cls-7" x="1211.92" y="433.1" width="84.01" height="63.72"/><rect class="cls-7" x="1127.91" y="433.1" width="84.01" height="63.72"/><rect class="cls-7" x="1043.9" y="433.1" width="84.01" height="63.72"/><rect class="cls-7" x="959.88" y="433.1" width="84.01" height="63.72"/><rect class="cls-7" x="875.87" y="433.1" width="84.01" height="63.72"/><rect class="cls-7" x="791.86" y="433.1" width="84.01" height="63.72"/><rect class="cls-7" x="707.84" y="433.1" width="84.01" height="63.72"/><rect class="cls-7" x="623.83" y="433.1" width="84.01" height="63.72"/><rect class="cls-7" x="539.82" y="433.1" width="84.01" height="63.72"/><rect class="cls-7" x="455.8" y="433.1" width="84.01" height="63.72"/><rect class="cls-7" x="371.79" y="433.1" width="84.01" height="63.72"/><rect class="cls-7" x="1800.02" y="496.82" width="84.01" height="63.72"/><rect class="cls-7" x="1716" y="496.82" width="84.01" height="63.72"/><rect class="cls-7" x="1631.99" y="496.82" width="84.01" height="63.72"/><rect class="cls-7" x="1547.98" y="496.82" width="84.01" height="63.72"/><rect class="cls-7" x="1463.96" y="496.82" width="84.01" height="63.72"/><rect class="cls-7" x="1379.95" y="496.82" width="84.01" height="63.72"/><rect class="cls-7" x="1295.94" y="496.82" width="84.01" height="63.72"/><rect class="cls-7" x="1211.92" y="496.82" width="84.01" height="63.72"/><rect class="cls-7" x="1127.91" y="496.82" width="84.01" height="63.72"/><rect class="cls-7" x="1043.9" y="496.82" width="84.01" height="63.72"/><rect class="cls-7" x="959.88" y="496.82" width="84.01" height="63.72"/><rect class="cls-7" x="875.87" y="496.82" width="84.01" height="63.72"/><rect class="cls-7" x="791.86" y="496.82" width="84.01" height="63.72"/><rect class="cls-7" x="707.84" y="496.82" width="84.01" height="63.72"/><rect class="cls-7" x="623.83" y="496.82" width="84.01" height="63.72"/><rect class="cls-7" x="539.82" y="496.82" width="84.01" height="63.72"/><rect class="cls-7" x="455.8" y="496.82" width="84.01" height="63.72"/><rect class="cls-7" x="371.79" y="496.82" width="84.01" height="63.72"/><rect class="cls-7" x="1800.02" y="560.54" width="84.01" height="63.72"/><rect class="cls-7" x="1716" y="560.54" width="84.01" height="63.72"/><rect class="cls-7" x="1631.99" y="560.54" width="84.01" height="63.72"/><rect class="cls-7" x="1547.98" y="560.54" width="84.01" height="63.72"/><rect class="cls-7" x="1463.96" y="560.54" width="84.01" height="63.72"/><rect class="cls-7" x="1379.95" y="560.54" width="84.01" height="63.72"/><rect class="cls-7" x="1295.94" y="560.54" width="84.01" height="63.72"/><rect class="cls-7" x="1211.92" y="560.54" width="84.01" height="63.72"/><rect class="cls-7" x="1127.91" y="560.54" width="84.01" height="63.72"/><rect class="cls-7" x="1043.9" y="560.54" width="84.01" height="63.72"/><rect class="cls-7" x="959.88" y="560.54" width="84.01" height="63.72"/><rect class="cls-7" x="875.87" y="560.54" width="84.01" height="63.72"/><rect class="cls-7" x="791.86" y="560.54" width="84.01" height="63.72"/><rect class="cls-7" x="707.84" y="560.54" width="84.01" height="63.72"/><rect class="cls-7" x="623.83" y="560.54" width="84.01" height="63.72"/><rect class="cls-7" x="539.82" y="560.54" width="84.01" height="63.72"/><rect class="cls-7" x="455.8" y="560.54" width="84.01" height="63.72"/><rect class="cls-7" x="371.79" y="560.54" width="84.01" height="63.72"/><rect class="cls-7" x="1800.02" y="624.25" width="84.01" height="63.72"/><rect class="cls-7" x="1716" y="624.25" width="84.01" height="63.72"/><rect class="cls-7" x="1631.99" y="624.25" width="84.01" height="63.72"/><rect class="cls-7" x="1547.98" y="624.25" width="84.01" height="63.72"/><rect class="cls-7" x="1463.96" y="624.25" width="84.01" height="63.72"/><rect class="cls-7" x="1379.95" y="624.25" width="84.01" height="63.72"/><rect class="cls-7" x="1295.94" y="624.25" width="84.01" height="63.72"/><rect class="cls-7" x="1211.92" y="624.25" width="84.01" height="63.72"/><rect class="cls-7" x="1127.91" y="624.25" width="84.01" height="63.72"/><rect class="cls-7" x="1043.9" y="624.25" width="84.01" height="63.72"/><rect class="cls-7" x="959.88" y="624.25" width="84.01" height="63.72"/><rect class="cls-7" x="875.87" y="624.25" width="84.01" height="63.72"/><rect class="cls-7" x="791.86" y="624.25" width="84.01" height="63.72"/><rect class="cls-7" x="707.84" y="624.25" width="84.01" height="63.72"/><rect class="cls-7" x="623.83" y="624.25" width="84.01" height="63.72"/><rect class="cls-7" x="539.82" y="624.25" width="84.01" height="63.72"/><rect class="cls-7" x="455.8" y="624.25" width="84.01" height="63.72"/><rect class="cls-7" x="371.79" y="624.25" width="84.01" height="63.72"/><rect class="cls-7" x="1800.02" y="687.97" width="84.01" height="63.72"/><rect class="cls-7" x="1716" y="687.97" width="84.01" height="63.72"/><rect class="cls-7" x="1631.99" y="687.97" width="84.01" height="63.72"/><rect class="cls-7" x="1547.98" y="687.97" width="84.01" height="63.72"/><rect class="cls-7" x="1463.96" y="687.97" width="84.01" height="63.72"/><rect class="cls-7" x="1379.95" y="687.97" width="84.01" height="63.72"/><rect class="cls-7" x="1295.94" y="687.97" width="84.01" height="63.72"/><rect class="cls-7" x="1211.92" y="687.97" width="84.01" height="63.72"/><rect class="cls-7" x="1127.91" y="687.97" width="84.01" height="63.72"/><rect class="cls-7" x="1043.9" y="687.97" width="84.01" height="63.72"/><rect class="cls-7" x="959.88" y="687.97" width="84.01" height="63.72"/><rect class="cls-7" x="875.87" y="687.97" width="84.01" height="63.72"/><rect class="cls-7" x="791.86" y="687.97" width="84.01" height="63.72"/><rect class="cls-7" x="707.84" y="687.97" width="84.01" height="63.72"/><rect class="cls-7" x="623.83" y="687.97" width="84.01" height="63.72"/><rect class="cls-7" x="539.82" y="687.97" width="84.01" height="63.72"/><rect class="cls-7" x="455.8" y="687.97" width="84.01" height="63.72"/><rect class="cls-7" x="371.79" y="687.97" width="84.01" height="63.72"/><rect class="cls-7" x="1800.02" y="751.69" width="84.01" height="63.72"/><rect class="cls-7" x="1716" y="751.69" width="84.01" height="63.72"/><rect class="cls-7" x="1631.99" y="751.69" width="84.01" height="63.72"/><rect class="cls-7" x="1547.98" y="751.69" width="84.01" height="63.72"/><rect class="cls-7" x="1463.96" y="751.69" width="84.01" height="63.72"/><rect class="cls-7" x="1379.95" y="751.69" width="84.01" height="63.72"/><rect class="cls-7" x="1295.94" y="751.69" width="84.01" height="63.72"/><rect class="cls-7" x="1211.92" y="751.69" width="84.01" height="63.72"/><rect class="cls-7" x="1127.91" y="751.69" width="84.01" height="63.72"/><rect class="cls-7" x="1043.9" y="751.69" width="84.01" height="63.72"/><rect class="cls-7" x="959.88" y="751.69" width="84.01" height="63.72"/><rect class="cls-7" x="875.87" y="751.69" width="84.01" height="63.72"/><rect class="cls-7" x="791.86" y="751.69" width="84.01" height="63.72"/><rect class="cls-7" x="707.84" y="751.69" width="84.01" height="63.72"/><rect class="cls-7" x="623.83" y="751.69" width="84.01" height="63.72"/><rect class="cls-7" x="539.82" y="751.69" width="84.01" height="63.72"/><rect class="cls-7" x="455.8" y="751.69" width="84.01" height="63.72"/><rect class="cls-7" x="371.79" y="751.69" width="84.01" height="63.72"/><rect class="cls-7" x="1800.02" y="815.41" width="84.01" height="63.72"/><rect class="cls-7" x="1716" y="815.41" width="84.01" height="63.72"/><rect class="cls-7" x="1631.99" y="815.41" width="84.01" height="63.72"/><rect class="cls-7" x="1547.98" y="815.41" width="84.01" height="63.72"/><rect class="cls-7" x="1463.96" y="815.41" width="84.01" height="63.72"/><rect class="cls-7" x="1379.95" y="815.41" width="84.01" height="63.72"/><rect class="cls-7" x="1295.94" y="815.41" width="84.01" height="63.72"/><rect class="cls-7" x="1211.92" y="815.41" width="84.01" height="63.72"/><rect class="cls-7" x="1127.91" y="815.41" width="84.01" height="63.72"/><rect class="cls-7" x="1043.9" y="815.41" width="84.01" height="63.72"/><rect class="cls-7" x="959.88" y="815.41" width="84.01" height="63.72"/><rect class="cls-7" x="875.87" y="815.41" width="84.01" height="63.72"/><rect class="cls-7" x="791.86" y="815.41" width="84.01" height="63.72"/><rect class="cls-7" x="707.84" y="815.41" width="84.01" height="63.72"/><rect class="cls-7" x="623.83" y="815.41" width="84.01" height="63.72"/><rect class="cls-7" x="539.82" y="815.41" width="84.01" height="63.72"/><rect class="cls-7" x="455.8" y="815.41" width="84.01" height="63.72"/><rect class="cls-7" x="371.79" y="815.41" width="84.01" height="63.72"/><rect class="cls-7" x="1800.02" y="879.12" width="84.01" height="63.72"/><rect class="cls-7" x="1716" y="879.12" width="84.01" height="63.72"/><rect class="cls-7" x="1631.99" y="879.12" width="84.01" height="63.72"/><rect class="cls-7" x="1547.98" y="879.12" width="84.01" height="63.72"/><rect class="cls-7" x="1463.96" y="879.12" width="84.01" height="63.72"/><rect class="cls-7" x="1379.95" y="879.12" width="84.01" height="63.72"/><rect class="cls-7" x="1295.94" y="879.12" width="84.01" height="63.72"/><rect class="cls-7" x="1211.92" y="879.12" width="84.01" height="63.72"/><rect class="cls-7" x="1127.91" y="879.12" width="84.01" height="63.72"/><rect class="cls-7" x="1043.9" y="879.12" width="84.01" height="63.72"/><rect class="cls-7" x="959.88" y="879.12" width="84.01" height="63.72"/><rect class="cls-7" x="875.87" y="879.12" width="84.01" height="63.72"/><rect class="cls-7" x="791.86" y="879.12" width="84.01" height="63.72"/><rect class="cls-7" x="707.84" y="879.12" width="84.01" height="63.72"/><rect class="cls-7" x="623.83" y="879.12" width="84.01" height="63.72"/><rect class="cls-7" x="539.82" y="879.12" width="84.01" height="63.72"/><rect class="cls-7" x="455.8" y="879.12" width="84.01" height="63.72"/><rect class="cls-7" x="371.79" y="879.12" width="84.01" height="63.72"/><rect class="cls-7" x="1800.02" y="942.84" width="84.01" height="63.72"/><rect class="cls-7" x="1716" y="942.84" width="84.01" height="63.72"/><rect class="cls-7" x="1631.99" y="942.84" width="84.01" height="63.72"/><rect class="cls-7" x="1547.98" y="942.84" width="84.01" height="63.72"/><rect class="cls-7" x="1463.96" y="942.84" width="84.01" height="63.72"/><rect class="cls-7" x="1379.95" y="942.84" width="84.01" height="63.72"/><rect class="cls-7" x="1295.94" y="942.84" width="84.01" height="63.72"/><rect class="cls-7" x="1211.92" y="942.84" width="84.01" height="63.72"/><rect class="cls-7" x="1127.91" y="942.84" width="84.01" height="63.72"/><rect class="cls-7" x="1043.9" y="942.84" width="84.01" height="63.72"/><rect class="cls-7" x="959.88" y="942.84" width="84.01" height="63.72"/><rect class="cls-7" x="875.87" y="942.84" width="84.01" height="63.72"/><rect class="cls-7" x="791.86" y="942.84" width="84.01" height="63.72"/><rect class="cls-7" x="707.84" y="942.84" width="84.01" height="63.72"/><rect class="cls-7" x="623.83" y="942.84" width="84.01" height="63.72"/><rect class="cls-7" x="539.82" y="942.84" width="84.01" height="63.72"/><rect class="cls-7" x="455.8" y="942.84" width="84.01" height="63.72"/><rect class="cls-8" x="371.79" y="942.84" width="84.01" height="63.72"/></g></g></svg>