<svg xmlns="http://www.w3.org/2000/svg" viewBox="0 0 1318.37 429.71"><defs><style>.cls-1{fill:#fff;}.cls-2{font-size:50px;fill:#514c43;stroke:#514c43;stroke-miterlimit:10;font-family:PingFang-TC-Light-B5pc-H, PingFang TC;letter-spacing:0.3em;}.cls-3,.cls-8,.cls-9{font-size:24px;}.cls-3{letter-spacing:0.3em;}.cls-4,.cls-5,.cls-6,.cls-7{font-size:36px;}.cls-4{letter-spacing:0.3em;}.cls-5{letter-spacing:0.23em;}.cls-6{letter-spacing:0.48em;}.cls-7{letter-spacing:0.22em;}.cls-8{letter-spacing:0.55em;}.cls-9{letter-spacing:0.31em;}</style></defs><g id="Layer_2" data-name="Layer 2"><g id="基礎組"><rect class="cls-1" y="1.11" width="404.58" height="181.31"/><rect class="cls-1" x="423.28" width="404.58" height="181.31"/><rect class="cls-1" x="857.5" y="1.11" width="404.58" height="181.31"/><text class="cls-2" transform="translate(36.88 81.2)">第一名<tspan class="cls-3"><tspan x="0" y="54"> </tspan><tspan class="cls-4" x="15.31" y="54"> </tspan><tspan class="cls-5" x="38.28" y="54">獎金1300</tspan><tspan class="cls-6" x="245.28" y="54">0</tspan><tspan class="cls-7" x="283.98" y="54">元</tspan></tspan></text><rect class="cls-1" y="217.82" width="404.58" height="181.31"/><text class="cls-2" transform="translate(64.73 300.13)">優勝<tspan class="cls-3"><tspan x="0" y="54"> </tspan><tspan class="cls-4" x="15.31" y="54"> </tspan><tspan class="cls-5" x="38.28" y="54">獎金50</tspan><tspan class="cls-6" x="185.88" y="54">0</tspan><tspan class="cls-5" x="224.58" y="54">元</tspan></tspan></text><text class="cls-2" transform="translate(462.9 80.08)">第二名<tspan class="cls-3"><tspan x="0" y="54"> </tspan><tspan class="cls-4" x="15.31" y="54"> </tspan><tspan class="cls-5" x="38.28" y="54">獎金700</tspan><tspan class="cls-6" x="215.58" y="54">0</tspan><tspan class="cls-5" x="254.28" y="54">元</tspan></tspan></text><rect class="cls-1" x="427.91" y="220.05" width="404.58" height="181.31"/><text class="cls-2" transform="translate(511.94 300.13)">佳作<tspan class="cls-8" x="130.5" y="0">(</tspan><tspan class="cls-9" x="151.81" y="0">三名)</tspan><tspan class="cls-3"><tspan x="0" y="54"> </tspan><tspan class="cls-4" x="15.31" y="54"> </tspan><tspan class="cls-5" x="38.28" y="54">獎狀乙份</tspan></tspan></text><text class="cls-2" transform="translate(910.52 81.2)">第三名<tspan class="cls-3"><tspan x="0" y="54"> </tspan><tspan class="cls-4" x="15.31" y="54"> </tspan><tspan class="cls-5" x="38.28" y="54">獎金400</tspan><tspan class="cls-6" x="215.58" y="54">0</tspan><tspan class="cls-5" x="254.28" y="54">元</tspan></tspan></text></g></g></svg>