<svg xmlns="http://www.w3.org/2000/svg" viewBox="0 0 227.21 272.43"><defs><style>.cls-1{fill:#534741;}.cls-2{fill:#f4a259;}</style></defs><g id="Layer_2" data-name="Layer 2"><g id="總獎金"><path class="cls-1" d="M227.12,205.94q.16,21.33,0,42.65c-.08,11.35-5.32,19.23-15.43,22.69-3.06,1-6.55,1.1-9.83,1.1-29.36.08-58.7,0-88.06,0h0q-45.37,0-90.74,0c-10.72,0-18.4-5.27-22-15.22a20.47,20.47,0,0,1-.95-6.77C.05,235,.34,219.66,0,204.3c-.27-11.74,9.58-22.3,22.3-22.56,6.8-.13,13.59-.12,20.38-.07,2.18,0,3.33-.48,4-2.92C54,152.84,61.55,127,69,101.1Q81.19,59,93.37,16.86A48.89,48.89,0,0,0,95,10.18c.82-6.08,4.52-9.71,10.26-10A128.06,128.06,0,0,1,125.78,1c3.59.36,5.71,2.75,6.83,6.69,5.31,18.88,11.21,37.6,16.58,56.46,6.45,22.6,12.51,45.32,18.89,67.94q6.69,23.73,13.87,47.32c.32,1,2.35,2.14,3.61,2.19,6.15.23,12.3,0,18.45.12,10.25.13,18.61,6,21.89,15.57A27.89,27.89,0,0,1,227.12,205.94Zm-4.61,43.55c.15-15,.11-30,0-45-.07-7.29-5.08-14.59-11.56-16.7-8.7-2.81-17.63-.9-27-.76,1.64,4.71,3.32,9.22,6,13.06,3.31,4.8,6,9.41,4.68,15.56-1.22,5.8-4.74,9.84-9.27,13.16-14.44,10.62-31.38,14.12-48.61,15.9-21.88,2.27-43.76,1.75-65.28-3.54-10.73-2.65-21-6.45-29.72-13.54-9.87-8-10.56-18.57-2.54-28.14,2.76-3.31,3.81-8,5.65-12.12l-1.32-1c-6.26,0-12.52,0-18.77,0C12,186.47,4.43,194,4.41,206.79q0,20.37,0,40.74C4.41,260.35,12.12,268,25,268q46.53,0,93.07,0,42.49,0,85,0C214,268,222.41,260.09,222.51,249.49Zm-34.3-30.66c3.15-4.58,2.88-8.73-.9-13.54-4.31,10-13,14.55-22.27,18.16-12.63,4.92-25.91,6.9-39.33,7.47-16.63.69-33.27.4-49.58-3.63-10.69-2.66-21.27-5.78-29.36-13.88-2.28-2.29-4-5.14-6.22-8.09-.62,1.32-1.28,2.39-1.68,3.55-1.7,4.95,0,9,3.43,12.58,9.12,9.47,21.18,13,33.4,15.86,15.15,3.58,30.64,4.34,46.16,3.78,16.16-.59,32.09-2.69,47.23-8.78C176.51,229.33,183.51,225.67,188.21,218.83Zm-9.32-9.28c3.34-3.41,4.83-7.35,3.12-12.23-1.26-3.61-2-7.38-3.1-11s-2.29-7.42-3.39-11c-4.15,2.68-7.69,5.43-11.62,7.4-14.86,7.48-31.05,9.18-47.3,9.58-9,.22-18.13-.88-27.09-2.16-13.26-1.9-26-5.48-36.53-15.66-2.26,7.65-4.54,14.8-6.47,22.06-1.76,6.62.25,11.81,6,15.66a62.57,62.57,0,0,0,10,5.65,94.64,94.64,0,0,0,29.22,7.22c22.15,2,44.2,2.27,65.81-4.1C165.36,218.62,173,215.59,178.89,209.55Zm-9.45-36.23c3.09-2.82,4.66-5.94,2.68-10.23-.94-2-1.15-4.43-1.81-6.63-1.1-3.73-2.3-7.43-3.57-11.55-21.66,14-85.21,13.52-105.18-.15-1.75,6-3,12.06-5.26,17.63s.38,9.05,4.15,12.19a20.08,20.08,0,0,0,6.51,4c8.74,2.74,17.44,6,26.42,7.46a131.9,131.9,0,0,0,53.72-2.29C155.17,181.73,163.09,179.13,169.44,173.32Zm-7.16-31.7c2.26-.94,3-2.73,2.09-5.63-2.53-7.77-4.47-15.72-6.71-23.59-1.12-3.94-2.37-7.85-3.39-11.17-27.18,10.54-53.37,10.46-80.38-.13C70.58,112.89,67.14,124.89,64,137c-.33,1.21.57,3.24,1.58,4.19a17.05,17.05,0,0,0,5.27,3c10.44,4.23,21.52,5.55,32.62,6.11,14,.71,28,.56,41.66-2.53C151,146.41,156.65,143.91,162.28,141.62Zm-18.83-41.39c9-2.76,9.58-4.34,7-13.26-1.65-5.7-3.36-11.39-5-17a129.32,129.32,0,0,1-62.62,0c-2,7-3.64,13.89-6,20.61-1.34,3.83-.06,5.8,3.07,7.38A13.6,13.6,0,0,0,83,99.39c7.22,1.59,14.4,3.61,21.7,4.45A93.85,93.85,0,0,0,143.45,100.23Zm-3.09-33.95c3-.79,3.59-2.37,2.81-5C138.42,45.13,133.7,29,128.85,12.46c-9.34,3.1-18.32,3.47-27.39.61-.66-.2-2.4,1-2.65,1.8-4.62,15.51-9.07,31.07-13.62,46.6-.71,2.4-.44,4.15,2.31,4.56,7.07,1.06,14.12,2.45,21.23,2.88A100.08,100.08,0,0,0,140.36,66.28ZM101.59,7.11c5.21,4.07,20.18,4.07,25.37-.17C120.44,2.63,106.56,2.82,101.59,7.11Z"/><path class="cls-2" d="M222.5,204.51c.12,15,.16,30,0,45-.1,10.6-8.52,18.52-19.46,18.54q-42.49.06-85,0-46.53,0-93.07,0c-12.87,0-20.58-7.69-20.59-20.51q0-20.37,0-40.74c0-12.75,7.54-20.32,20.28-20.37,6.25,0,12.51,0,18.77,0l1.32,1c-1.84,4.08-2.89,8.81-5.65,12.12-8,9.57-7.33,20.14,2.54,28.14,8.74,7.09,19,10.89,29.72,13.54,21.52,5.29,43.4,5.81,65.28,3.54,17.23-1.78,34.17-5.28,48.61-15.9,4.53-3.32,8.05-7.36,9.27-13.16,1.29-6.15-1.37-10.76-4.68-15.56-2.65-3.84-4.33-8.35-6-13.06,9.41-.14,18.34-2.05,27,.76C217.42,189.92,222.43,197.22,222.5,204.51Z"/><path class="cls-2" d="M182,197.32c1.71,4.88.22,8.82-3.12,12.23-5.92,6-13.53,9.07-21.42,11.4-21.61,6.37-43.66,6.09-65.81,4.1a94.64,94.64,0,0,1-29.22-7.22,62.57,62.57,0,0,1-10-5.65c-5.7-3.85-7.71-9-6-15.66,1.93-7.26,4.21-14.41,6.47-22.06,10.53,10.18,23.27,13.76,36.53,15.66,9,1.28,18.08,2.38,27.09,2.16,16.25-.4,32.44-2.1,47.3-9.58,3.93-2,7.47-4.72,11.62-7.4,1.1,3.56,2.29,7.25,3.39,11S180.75,193.71,182,197.32Z"/><path class="cls-2" d="M164.37,136c.94,2.9.17,4.69-2.09,5.63-5.63,2.29-11.28,4.79-17.18,6.12-13.69,3.09-27.7,3.24-41.66,2.53-11.1-.56-22.18-1.88-32.62-6.11a17.05,17.05,0,0,1-5.27-3c-1-.95-1.91-3-1.58-4.19,3.17-12.06,6.61-24.06,9.92-35.85,27,10.59,53.2,10.67,80.38.13,1,3.32,2.27,7.23,3.39,11.17C159.9,120.27,161.84,128.22,164.37,136Z"/><path class="cls-2" d="M143.17,61.24c.78,2.67.24,4.25-2.81,5a100.08,100.08,0,0,1-31.63,2.63c-7.11-.43-14.16-1.82-21.23-2.88-2.75-.41-3-2.16-2.31-4.56,4.55-15.53,9-31.09,13.62-46.6.25-.83,2-2,2.65-1.8,9.07,2.86,18.05,2.49,27.39-.61C133.7,29,138.42,45.13,143.17,61.24Z"/></g></g></svg>