<svg xmlns="http://www.w3.org/2000/svg" viewBox="0 0 1111.76 1291.83"><defs><style>.cls-1{fill:#fff;}</style></defs><g id="Layer_2" data-name="Layer 2"><g id="圖層_1" data-name="圖層 1"><path class="cls-1" d="M585.24,461.69q-47.85-144.27-95.7-288.58Q461.75,89.34,434,5.57A47.24,47.24,0,0,1,432.77,0h-4.42a38.75,38.75,0,0,1-4.23.94c-7.51.75-15,1.36-22.61,2.1Q371.23,5.94,340.89,8.9q-30.51,2.87-61.09,5.68c-21.54,2-43.11,3.94-64.63,6.2a37,37,0,0,0-11.5,3C180.88,34.2,158.25,45,135.52,55.44a17,17,0,0,0-8.71,9q-40,87.6-80.09,175.16Q25,287,3.36,334.49C2.19,337,1.25,339.6,0,342.67c24.8.8,49,1.62,74,2.41-5.68,12-11,23.23-16.26,34.5S47.05,402.1,41.71,413.42,31,436,25.71,447.25s-10.75,22.29-16,34c3.25.36,5.73.66,8.22.88,10.91,1.05,21.86,2,32.78,3q26.55,2.57,53.13,5.09,25.44,2.42,50.88,4.77c17.44,1.64,34.82,3.34,52.24,5q25.68,2.44,51.36,4.85,30.74,2.93,61.51,5.82c20.49,1.94,41.05,3.8,61.54,5.75s40.71,3.92,61.08,5.86q31.41,3.06,62.84,6.09c7.43.72,14.79.79,21.79-2.47q34.23-16.1,68.51-32v-.91c-3.48-10.4-6.92-20.8-10.39-31.24M216.1,37.65c.63-1.09,2.68-1.79,4.14-1.93,14-1.34,28-2.49,42-3.71,18.33-1.65,36.58-3.34,54.89-5,14.91-1.34,29.81-2.61,44.71-3.93,5.17-.44,10.3-1,15.49-1.38a24,24,0,0,1,7.19.26c-1,.53-1.91,1.15-2.91,1.62-8.06,3.76-16.09,7.49-24.18,11.2-4.91,2.27-10.15,3.1-15.51,3.6q-31.6,3-63.28,5.95-33.14,3.14-66.35,6.15a16.55,16.55,0,0,1-2.28-.27c2.08-4.45,3.84-8.66,6.07-12.6M200.17,71.54c1.12-3.18,3.33-4.43,6.74-4.72,28.92-2.49,57.85-5.14,86.79-7.7,14.47-1.27,28.95-2.61,43.43-3.83,6.2-.52,6.53-.24,8.54,5.79Q378.94,162.3,412.3,263.53q31.92,97,63.91,194c.48,1.52.88,3.09,1.5,5.22-122.79-10.84-245-21.67-367.95-32.57,22-46.14,43.66-91.67,65.69-137.94-25.37-.68-50-1.35-74.86-2-.31-2.41,1-4.13,1.78-5.95q12.61-27.57,25.29-55.09Q163.39,151.53,199,74c.36-.78.84-1.56,1.14-2.42m-4.36-26.6c-1.35,6.59-2.22,7.46-7.56,7.87-2.68.25-5.41.47-8.12.69-.06-.32-.15-.69-.25-1,5.22-2.47,10.4-4.88,15.93-7.53M29.27,313.28c-.2-.22-.42-.41-.64-.63.58-1.34,1.11-2.67,1.73-4q52.35-114,104.79-227.94c.62-1.38,1.31-2.7,2-4a7.64,7.64,0,0,1,6.37-4.24q19.94-1.75,39.87-3.41a10.31,10.31,0,0,1,1.87.37c-.72,1.73-1.31,3.29-2,4.85Q149.45,148,115.74,221.76c-9.15,20-18.36,40-27.36,60a14.43,14.43,0,0,1-7.59,7.62c-16,7.36-32,14.91-47.93,22.4-1.18.53-2.4,1-3.59,1.53m14.78,16c-1.28,0-2.59-.2-4.81-.44a25.35,25.35,0,0,1,3-2c14.49-6.77,29-13.61,43.53-20.25a19.72,19.72,0,0,1,8.13-1.85c10.79.11,21.61.6,32.43,1,1.13.06,2.29.34,4.16.61-1.64.95-2.57,1.58-3.59,2.07-14.37,6.72-28.74,13.45-43.14,20.06A15.22,15.22,0,0,1,77.38,330c-11.12-.07-22.24-.38-33.33-.68M39.11,452.79c.88-2.11,1.33-3.32,1.87-4.48q23.39-49.06,46.72-98.16a14,14,0,0,1,7.3-7.27c15.62-7.17,31.14-14.54,46.71-21.82,1.31-.62,2.64-1.12,4.63-1.9-.85,2.1-1.39,3.47-2,4.76q-23,48.48-46,97a15.34,15.34,0,0,1-7.89,8C74.6,436.24,58.79,443.72,43,451.15c-.94.43-1.91.79-3.88,1.64m453.45,56.58C344.08,496.24,195.62,483.1,46.11,469.9c1.59-1,2.25-1.71,3.06-2.09,15.56-7.29,31.18-14.5,46.71-21.83a16,16,0,0,1,8.7-1.32c11.35,1,22.76,2,34.08,3.06q21.47,2.07,42.94,4.1,26.13,2.49,52.23,5l41.6,3.94q26.35,2.48,52.67,5c14,1.31,28,2.58,42.07,3.89q26.77,2.53,53.56,5l41.61,3.93c5,.5,10,1.05,15.05,1.55,1.88.19,3.42.73,4.1,2.78,2.72,8.32,5.5,16.65,8.21,25a6.15,6.15,0,0,1-.14,1.44m22.58,2.68c-3.28-9.85-6.42-19.32-9.88-29.57,20.11,1.87,39.43,3.67,58.77,5.49.06.38.11.74.17,1.12l-49.06,23m48-41.7c-19.4-1.7-38.69-3.44-58-5.14-5.74-.5-5.74-.47-7.51-5.75Q430.79,258.22,364.06,57c-.52-1.52-1-3-1.58-4.87L420.54,25q73.38,222.74,146.74,445.37c-1.71,0-2.94.09-4.14,0"/><path class="cls-1" d="M240.16,264.37a41.27,41.27,0,1,0-40.77-41.8,41.24,41.24,0,0,0,40.77,41.8"/><polygon class="cls-1" points="91.92 674.35 63.85 674.35 68 643.69 49.83 643.69 38.25 724.9 53.97 724.9 59.7 693.41 87.81 692.59 81.62 724.9 100.19 724.9 113.4 643.69 96.89 643.69 91.92 674.35"/><polygon class="cls-1" points="640.27 674.35 612.24 674.35 616.33 643.69 598.18 643.69 586.62 724.9 602.31 724.9 608.1 693.41 636.16 692.59 630 724.9 648.56 724.9 661.76 643.69 645.25 643.69 640.27 674.35"/><path class="cls-1" d="M228.2,694.25c3.31,25.71,23.92,30.67,23.92,30.67h33l1.68-17.42s-24,3.33-30.57,0-15.68-13.25-9.88-28.17,20.61-19,20.61-19h28.09l3.32-16.58h-38c-12.39,9.1-35.48,24.84-32.17,50.54"/><polygon class="cls-1" points="323.97 643.69 309.12 724.9 328.11 724.9 340.5 643.69 323.97 643.69"/><path class="cls-1" d="M371,643.69,346.3,683.9l-5.8,14.5c26.29,1.17,20.67,26.5,20.67,26.5h15.66s4.12-3.3,1.63-17.4-17.29-19-17.29-19l24.74-44.76Z"/><polygon class="cls-1" points="509.8 660.27 529.61 660.27 519.69 724.92 536.2 724.92 546.1 660.27 570.06 660.27 573.33 643.69 509.8 643.69 509.8 660.27"/><polygon class="cls-1" points="841.72 641.63 831.81 693.41 812.83 641.63 794.68 643.69 780.63 724.92 800.42 724.92 807.86 676.86 830.18 727.01 843.41 724.92 857.39 643.69 841.72 641.63"/><path class="cls-1" d="M720.85,641.63a42.68,42.68,0,1,0,42.57,42.67,42.66,42.66,0,0,0-42.57-42.67m.71,66.7A24.44,24.44,0,1,1,746,683.91a24.38,24.38,0,0,1-24.4,24.42"/><path class="cls-1" d="M443.73,643.69l-43,81.21h81.77l-15.7-81.21ZM427.6,707.52l25.61-47.25,9.08,47.25Z"/><path class="cls-1" d="M167.09,643.69,124.15,724.9h81.74L190.2,643.69Zm-17.34,63.83,25.58-47.25,9.09,47.25Z"/><polygon class="cls-1" points="45.14 861.79 61.98 861.79 72.09 795.87 96.48 795.87 99.86 778.98 35.03 778.98 35.03 795.87 55.27 795.87 45.14 861.79"/><polygon class="cls-1" points="558.6 776.02 548.47 828.82 529.11 776.02 510.61 778.16 496.31 860.93 516.51 860.93 524.08 811.95 546.83 863.05 560.29 860.93 574.58 778.16 558.6 776.02"/><polygon class="cls-1" points="260.63 847.42 248.86 846.56 256.39 795.02 271.56 795.02 274.94 778.14 231.16 778.14 231.16 794.2 240.44 794.2 231.16 845.71 220.22 845.71 220.22 862.61 260.63 862.61 260.63 847.42"/><path class="cls-1" d="M351.55,862.61h15.94l15.19-84.45H363.32l-9.24,49c-19.38-15.2-49.17,0-49.17,0l8.89-49H296l-14.29,84.45H296c43-56.6,55.6,0,55.6,0"/><path class="cls-1" d="M152.87,779l-43.74,82.79h83.32l-16-82.79Zm-16.4,65.06,26.11-48.19,9.24,48.19Z"/><path class="cls-1" d="M459.38,778.57h-23.6L392,861.35h83.34Zm-40,65,26.09-48.18,9.26,48.18Z"/><polygon class="cls-1" points="41.53 936.49 60.12 936.49 53.1 986.76 39.22 964.45 24.46 965.23 47.5 1002.96 50.83 1002.96 60.43 1002.96 66.34 1002.96 75.64 936.49 98.14 936.49 101.25 919.46 41.53 919.46 41.53 936.49"/><polygon class="cls-1" points="248.32 971.63 228.8 918.36 210.11 920.49 195.66 1004.01 216.03 1004.01 223.66 954.58 246.61 1006.13 260.2 1004.01 274.61 920.49 258.52 918.36 248.32 971.63"/><polygon class="cls-1" points="299.41 935.86 308.74 935.86 299.41 987.82 288.35 987.82 288.35 1004.86 329.13 1004.86 329.13 989.54 317.23 988.7 324.84 936.7 340.14 936.7 343.53 919.64 299.41 919.64 299.41 935.86"/><polygon class="cls-1" points="150.35 987.42 124.83 987.42 139.16 918.36 121.44 918.81 105.78 1006.15 163.93 1004.06 179.01 919.33 162.49 919.33 150.35 987.42"/><polygon class="cls-1" points="456.83 1002.42 476.35 1002.42 489.1 918.88 472.13 918.88 456.83 1002.42"/><path class="cls-1" d="M498.83,918.9,496,935.4l34,.55c1.73,7.94-3.19,14.17-3.19,14.17H496.3l-3.41,17s22.08,23,15.83,36.39h18.7s3.68-17.62-15.86-36.39H531.1c26.34-22.63,4.26-48,4.26-48Z"/><path class="cls-1" d="M398.33,918.39a43.88,43.88,0,1,0,43.76,43.87,43.79,43.79,0,0,0-43.76-43.87m.84,69a25.15,25.15,0,1,1,25.08-25.16,25.12,25.12,0,0,1-25.08,25.16"/><path class="cls-1" d="M95.65,1067.7v7.77h-15a31.86,31.86,0,0,1,3.5,5.77l-8,3.1H86.8v21.59H61.51v4.93H84.39l2.16-.18,5.67.79a14.28,14.28,0,0,1-.33,2.72c-1.5,20.68-3.09,22.43-16.37,22.43-1.25,0-2.58,0-4-.06a22,22,0,0,0-2.75-9.11c3.36.3,6.51.3,7.93.3,3.09,0,3.94-1.09,4.75-8.52H61.51v20.91H51.7v-16.73A77.73,77.73,0,0,1,25,1139.22a38.21,38.21,0,0,0-6.25-7.89,78.52,78.52,0,0,0,25.14-12.1H34.6l-.6,2-10-1.16a208.9,208.9,0,0,0,5.61-22.36H51.7v-5.26H26v-8.11H37.36a56.25,56.25,0,0,0-4.09-8.87H32a64.36,64.36,0,0,1-7.77,9.62,48.61,48.61,0,0,0-7.59-5.1c5.18-4.6,10.18-12.29,12.94-19.52l10.53,3.45a2,2,0,0,1-2.09.94c-.42.9-.92,1.91-1.43,2.84h19v7a48.65,48.65,0,0,0,8.2-14.24l10.76,3.29a2,2,0,0,1-2.08.91c-.43,1-.93,2-1.42,3ZM51.7,1110.86v-4.93H37.86c-.35,1.66-.76,3.34-1.09,4.93ZM39,1084.34H75.37a52.12,52.12,0,0,0-5.36-8.87H66.34a49.17,49.17,0,0,1-7.61,8.8,59.63,59.63,0,0,0-7.61-5.2,28.85,28.85,0,0,0,3.79-3.6H43.36a34.45,34.45,0,0,1,2.67,5.77ZM77,1092.45H61.5v5.26H77Z"/><path class="cls-1" d="M315.75,1065.11V1090H261.37c0,14.6-1.46,36.54-10.29,50.43a38.24,38.24,0,0,0-8.93-5.19c8.44-12.9,9-31.89,9-45.24v-24.87Zm-10.11,9H261.37v6.76h44.27Zm2.07,22.51,11.72.66c-.08.73-.67,1.24-2.15,1.5v41.33h-9.57v-2.84h-34.3v2.84h-9.35v-43.49l11.47.66c0,.73-.74,1.24-2.12,1.43v29.69h34.3Zm-2.5,12H295v7.21h10.18V1124H276v-8.13h9.45v-7.21H276v-8.1h9.45V1091l11.71.59c-.07.83-.64,1.32-2.16,1.58v7.38h10.18Z"/><path class="cls-1" d="M395.82,1065.18c-.36.75-1.26,1.18-2.6,1.18a171.63,171.63,0,0,1-12,20.07c9.95-.16,20.8-.49,31.48-.82-3-2.94-6.14-5.71-9.16-8.15l7.76-6.06c8.52,6.5,19,16,23.54,23.08l-8.6,7a43.29,43.29,0,0,0-5-6.86c-22.47,1.08-46,1.91-61,2.42a2,2,0,0,1-1.77,1.34L355,1087l14.45-.22a151.09,151.09,0,0,0,14-26.19Zm-28.4,75v-36.4h55v36.07H411.85v-2.51H377.43v2.84Zm44.43-26.76H377.43v14.12h34.42Z"/><path class="cls-1" d="M473.2,1084.34c4.25,2.09,9.77,5.35,12.43,8l-5.75,7.68a59.46,59.46,0,0,0-12.2-8.59Zm1.82-22c4.18,2.25,9.6,5.78,12.2,8.52l-6,7.53c-2.42-2.82-7.7-6.67-11.95-9.28Zm-5.42,71.75A272.45,272.45,0,0,0,480.22,1107l7.93,5.09c-2.78,8.86-6.18,18.24-8.87,24.68a2.71,2.71,0,0,1,.73,1.83,2.46,2.46,0,0,1-.22,1Zm69.17-43,4.93-1.59a70.34,70.34,0,0,1,3.64,10.71L542,1102a53.65,53.65,0,0,0-3.25-10.7V1104h-6.45v-11.73h-.14c-.94,3.65-2.44,8.19-4.47,11-.93-.79-2.58-2-3.82-2.86v2.75H507.78v-12.6h16.11v8.54a38.82,38.82,0,0,0,3-9.55l5.41,1.59v-3.43l-5,.24a1.47,1.47,0,0,1-1.22,1.1l-2-7.13,4.32-.06c.85-.94,1.67-1.94,2.6-3a49.2,49.2,0,0,0-5.41-5v.91H505.44v-2.17h-.61a103.8,103.8,0,0,1-7.44,9.3l4.21-.1-1-2.67,4.33-1.52a36.84,36.84,0,0,1,2.76,9.13h.11v-3h16v4.7h-16v-1.06l-4.62,1.74a7.51,7.51,0,0,0-.24-1.94l-2.59.2V1104h-6.28v-11.08c-.93,3.51-2.47,7.64-4.49,10.2a27.89,27.89,0,0,0-4.35-3.17c1.67-2.49,2.94-6.57,3.74-10.44l5.1,1.5v-3.34l-4.92.24a1.45,1.45,0,0,1-1.24,1.1l-2-7.13h4.69c.82-1,1.63-2.07,2.55-3.16a45.66,45.66,0,0,0-6.24-5.6l3.17-5,1,.68a82,82,0,0,0,3.76-7.88l6.59,3.53a2,2,0,0,1-1.92.66,78.42,78.42,0,0,1-4.25,6.93l1.65,1.44c1.34-1.94,2.53-3.78,3.52-5.42l5,3v-1.6h20.13v2l2.21-3.34,1.06.68a61.42,61.42,0,0,0,4-7.88l6.62,3.53a2.05,2.05,0,0,1-2,.66c-1.09,1.93-2.84,4.59-4.48,6.93.65.59,1.21,1.09,1.83,1.69,1.5-2.07,2.91-4.2,4-5.92l6.41,3.85c-.35.49-1,.66-2,.56a119.32,119.32,0,0,1-7.94,9.55l4.77-.1-1.24-2.67,4.76-2a45.92,45.92,0,0,1,3.83,9.86l-5.09,2.27a12.66,12.66,0,0,0-.51-2.19l-3.08.29Zm-2.92,31.8,1.9-.25,5.69,1.58a7,7,0,0,1-.75,2c-2.37,12.86-5.08,13.87-15.63,13.87-2.43,0-5.36-.08-8.36-.19a16.2,16.2,0,0,0-2.49-7.33,83.71,83.71,0,0,0,9.61.49c4.69,0,5.42,0,6.76-3.94H500.33l-.68,2.16-8.89-1.14a146.7,146.7,0,0,0,4.06-15.75h34.23v-2.66H491.72v-5.85h46.63v14.3H502.67l-.65,2.69Zm-33.25-23a88.39,88.39,0,0,0-2-9.2l4.75-1.08a58.75,58.75,0,0,1,2.18,9Zm5.18-23.08h16v4.7h-16Zm15.43-9.53H508.5v-4.67h14.71Zm-5.44,27.6H513.6v3.68h4.17Z"/><path class="cls-1" d="M625.22,1088.79h33.19v7.52H582.48v-7.52h32.57v-3.55H591.91v-7.08h23.14v-3.61H587.34V1067h27.71v-6l12.46.69c-.11.82-.77,1.41-2.29,1.57V1067h28v7.51h-28v3.61h23.57v7.08H625.22Zm20.49,11v31.11c0,8.86-4.42,9.44-19.89,9.44a34.33,34.33,0,0,0-3-8c2.13.1,4.46.19,6.42.19,6.3,0,6.3-.09,6.3-1.68v-3.17H605v12.53H595v-40.39Zm-10.19,7.18H605v3.7h30.48ZM605,1121.07h30.47v-3.85H605Z"/><path class="cls-1" d="M771.71,1112.62v9.8h-28.8v17.72H732.53v-17.72h-38v-9.8h13.38v-22.08h24.65v-10.2H714.12a75.63,75.63,0,0,1-12.34,15.88,59.87,59.87,0,0,0-8-6.86c7.34-6.37,14.17-17.57,17.93-28.44l12.13,3.75a2.32,2.32,0,0,1-2.35,1c-.66,1.66-1.4,3.25-2.19,4.92H767v9.72H742.91v10.2H765.2v9.35H742.91v12.73Zm-53.8,0h14.62v-12.73H717.91Z"/><path class="cls-1" d="M827.31,1125.23c-2.28,6-5.79,11.64-12.22,15.08l-8.36-5.51a23.93,23.93,0,0,0,11.47-13Zm56.2-12.7V1121H808.23v-8.46h32.43v-3.85h-25v-8.2h25v-3.67H816.84V1064h58v32.79h-24.3v3.67H876.1v8.2H850.58v3.85Zm-57.06-23.83h14.21v-16.56H826.45Zm5.68-.82a42.79,42.79,0,0,0-4.23-11.74l6.12-2.27a37.17,37.17,0,0,1,4.7,11.47Zm.66,51.25a68.1,68.1,0,0,0-2-14.73l9-1a63.88,63.88,0,0,1,2.6,14.52Zm20.14.43c-1.25-3.75-4.52-9.79-7.32-14.33l8.74-2.5a81.1,81.1,0,0,1,7.87,13.81Zm11.88-63v-4.43H850.58v16.56h14.23v-11.46a2.44,2.44,0,0,1-1.53.22,88.09,88.09,0,0,1-6.33,10.75l-5.59-2.7A87.23,87.23,0,0,0,857,1073.3Zm10.67,63.65c-2.58-3.91-8.27-10-12.84-14.3l8.68-4.53c4.58,4.06,10.59,9.83,13.42,13.83Z"/><path class="cls-1" d="M976.23,1082.18l7.41,4c-.28.62-.87.84-1.46,1.13a54.1,54.1,0,0,1-13.93,14.64,129,129,0,0,0,29.85,6.23,46.13,46.13,0,0,0-6.38,9.75c-3-.43-5.77-.94-8.62-1.42V1140H972.74v-2.48H944.58v2.66h-9.75V1117c-3.74,1-7.44,1.82-11.2,2.57a39.26,39.26,0,0,0-4.68-8.86,121.51,121.51,0,0,0,29.69-8.27,60.86,60.86,0,0,1-7.64-6.35,93.41,93.41,0,0,1-10.28,5.61,32.17,32.17,0,0,0-6.64-7.44c10.9-4.2,18.32-9.89,22.77-15.77h-14v9.29h-9.77v-18.39h30.07v-8.2l12.61.67c-.08.86-.65,1.36-2.23,1.58v5.95h30.76v18.39H983.93v-9.29H956.22l3.63.69c-.23.84-1,1.34-2.25,1.34a24,24,0,0,1-1.64,2.19h18.62Zm-31.65,47.09h28.16v-7.19H944.58Zm27.94-15.49a93.81,93.81,0,0,1-14.43-5.69,100.94,100.94,0,0,1-13,5.69Zm-23.86-23.59-.38.35a48.38,48.38,0,0,0,9.92,6.94,46.56,46.56,0,0,0,9.38-7.29Z"/><path class="cls-1" d="M1053.64,1092.46c2.5,2.92,9.52,12.64,11,15l-5.57,7.69c-1.19-2.79-3.36-6.75-5.45-10.53v35.45h-9.43v-32.36c-2.44,7-5.36,13.38-8.53,17.83a47.62,47.62,0,0,0-4.77-9.32c5.19-6.67,9.94-18.21,12.39-28.33h-10.2v-9.3h11.11v-17.41l11.62.67c-.1.86-.77,1.26-2.19,1.58v15.16h9.46v9.3h-9.46Zm31.68-27.53a2,2,0,0,1-2.19,1.08c-3,12.21-8,25.28-14.2,33.56a52.63,52.63,0,0,0-7.89-6.45c5.53-7,10-19.38,12.39-31.29Zm7.1,32.46c-.29.75-1.2,1.25-2.59,1.31a225.72,225.72,0,0,1-10.2,28c5.41-.15,11.28-.4,17.1-.57-2-4.43-4.31-8.94-6.6-12.89l8.73-4.17c5,8.34,10.65,19.23,12.82,26.33l-9.51,5a44.76,44.76,0,0,0-1.77-5.55c-12.86,1-25.79,2.11-34.33,2.63a1.73,1.73,0,0,1-1.58,1.31l-3.09-11.62,8.11-.17a202.77,202.77,0,0,0,10-33Zm6.16-35.79c2.67,10.29,8,22,13.18,29.09a43.22,43.22,0,0,0-8.18,8.2c-5.57-8.63-10.84-22.16-14.12-34.54Z"/><path class="cls-1" d="M161.05,1136.3c-5.29,0-7.93-3-7.93-9V1098l-26.19,3.45-.69-7.94,26.88-3.45v-24.5h7.58q3.45.69.35,2.76V1089l39.63-5.52.69,7.93L161.05,1097v29a2.44,2.44,0,0,0,2.76,2.76h21.36q5.18,0,6.9-11.39l7.92,3.11q-3.09,15.87-11.71,15.87Z"/><path class="cls-1" d="M188.28,1137.31H161.05c-4.08,0-8.93-1.73-8.93-10v-28.19l-26.1,3.44-.86-9.95,27-3.46v-24.63h8.58c1.2.22,2.56.63,2.79,1.81s-.62,1.87-1.44,2.48v19l39.54-5.5.86,9.94-40.4,5.53V1126c0,1.3.46,1.76,1.76,1.76h21.36c2.86,0,4.84-3.55,5.91-10.54l.18-1.24,9.88,3.87-.16.82C198.81,1131.69,194.54,1137.31,188.28,1137.31Zm-34.16-40.46v30.48c0,5.44,2.2,8,6.93,8h27.23c5,0,8.57-4.79,10.56-14.25l-6-2.34c-1.31,7.4-3.83,11-7.68,11H163.81a3.43,3.43,0,0,1-3.76-3.77v-29.87l40.24-5.51-.52-5.94-39.72,5.54v-22.4l.44-.3a4.69,4.69,0,0,0,.88-.69,4.79,4.79,0,0,0-.86-.25l-6.39,0v24.39l-26.8,3.44.52,5.93Z"/><text/></g></g></svg>